<svg version="1.1" id="Layer_1" xmlns="http://www.w3.org/2000/svg" xmlns:xlink="http://www.w3.org/1999/xlink" x="0px" y="0px"
	 width="100%" viewBox="0 0 300 256" enable-background="new 0 0 300 256" xml:space="preserve">
<path fill="#F5F5F5" opacity="1.000000" stroke="none" 
	d="
M1.000000,92.000000 
	C1.000000,61.333340 1.000000,31.166681 1.000000,1.000016 
	C100.999969,1.000011 200.999939,1.000011 300.999939,1.000005 
	C300.999939,86.333282 300.999939,171.666565 300.999969,256.999878 
	C201.000076,256.999939 101.000153,256.999939 1.000113,256.999969 
	C1.000000,202.166672 1.000000,147.333328 1.000000,92.000000 
M120.030823,238.499542 
	C128.030060,228.895233 128.543060,218.363937 123.397278,207.175049 
	C155.750320,207.175049 187.592316,207.175049 219.553665,207.175049 
	C213.748413,223.113068 216.949951,235.653976 228.562027,243.271942 
	C239.185257,250.241196 252.989990,248.972549 262.151947,240.185074 
	C272.133118,230.611862 272.968475,217.401627 264.822876,203.937393 
	C266.672180,200.247650 269.093109,197.047272 269.913116,193.479019 
	C272.478485,182.315781 264.303772,173.172684 252.059525,173.159622 
	C208.561798,173.113251 165.063995,173.140121 121.566223,173.139252 
	C119.828392,173.139221 118.090561,173.139252 116.294495,173.139252 
	C116.294495,169.690933 116.294495,166.928711 116.294495,163.872223 
	C138.771744,161.244247 161.083618,158.637573 183.394989,156.026520 
	C213.829437,152.464828 244.275726,149.000076 274.691254,145.283646 
	C285.814575,143.924484 290.993958,137.634064 291.002899,126.396301 
	C291.023193,100.897621 291.012573,75.398918 291.008270,49.900223 
	C291.005890,35.913284 284.930298,29.835737 270.930908,29.834652 
	C211.600616,29.830050 152.270309,29.832561 92.940018,29.832474 
	C91.120705,29.832470 89.301392,29.832474 87.320633,29.832474 
	C86.843826,28.030407 86.412064,26.453695 86.009819,24.869490 
	C83.094437,13.387589 77.663437,9.173775 65.726028,9.166900 
	C53.559990,9.159893 41.393574,9.109008 29.228008,9.185845 
	C18.537300,9.253366 10.890142,16.477728 11.002083,26.227564 
	C11.111743,35.778839 18.674679,42.765205 29.131811,42.866024 
	C36.464096,42.936718 43.800030,42.990799 51.129349,42.827862 
	C54.033710,42.763294 55.453617,43.319744 56.149578,46.616417 
	C63.641880,82.106407 71.091148,117.610008 79.173790,152.967789 
	C81.308838,162.307648 81.612518,170.379364 76.191788,178.857468 
	C70.877373,187.169312 70.917351,195.968369 78.842178,203.246002 
	C68.309105,217.296127 72.503571,233.463287 82.500481,241.579300 
	C93.742012,250.705750 108.449440,249.721634 120.030823,238.499542 
z"/>
<path fill="#060606" opacity="1.000000" stroke="none" 
	d="
M119.792198,238.765488 
	C108.449440,249.721634 93.742012,250.705750 82.500481,241.579300 
	C72.503571,233.463287 68.309105,217.296127 78.842178,203.246002 
	C70.917351,195.968369 70.877373,187.169312 76.191788,178.857468 
	C81.612518,170.379364 81.308838,162.307648 79.173790,152.967789 
	C71.091148,117.610008 63.641880,82.106407 56.149578,46.616417 
	C55.453617,43.319744 54.033710,42.763294 51.129349,42.827862 
	C43.800030,42.990799 36.464096,42.936718 29.131811,42.866024 
	C18.674679,42.765205 11.111743,35.778839 11.002083,26.227564 
	C10.890142,16.477728 18.537300,9.253366 29.228008,9.185845 
	C41.393574,9.109008 53.559990,9.159893 65.726028,9.166900 
	C77.663437,9.173775 83.094437,13.387589 86.009819,24.869490 
	C86.412064,26.453695 86.843826,28.030407 87.320633,29.832474 
	C89.301392,29.832474 91.120705,29.832470 92.940018,29.832474 
	C152.270309,29.832561 211.600616,29.830050 270.930908,29.834652 
	C284.930298,29.835737 291.005890,35.913284 291.008270,49.900223 
	C291.012573,75.398918 291.023193,100.897621 291.002899,126.396301 
	C290.993958,137.634064 285.814575,143.924484 274.691254,145.283646 
	C244.275726,149.000076 213.829437,152.464828 183.394989,156.026520 
	C161.083618,158.637573 138.771744,161.244247 116.294495,163.872223 
	C116.294495,166.928711 116.294495,169.690933 116.294495,173.139252 
	C118.090561,173.139252 119.828392,173.139221 121.566223,173.139252 
	C165.063995,173.140121 208.561798,173.113251 252.059525,173.159622 
	C264.303772,173.172684 272.478485,182.315781 269.913116,193.479019 
	C269.093109,197.047272 266.672180,200.247650 264.822876,203.937393 
	C272.968475,217.401627 272.133118,230.611862 262.151947,240.185074 
	C252.989990,248.972549 239.185257,250.241196 228.562027,243.271942 
	C216.949951,235.653976 213.748413,223.113068 219.553665,207.175049 
	C187.592316,207.175049 155.750320,207.175049 123.397278,207.175049 
	C128.543060,218.363937 128.030060,228.895233 119.792198,238.765488 
M67.017494,35.418472 
	C75.032585,72.660492 82.747009,109.971146 91.223930,147.107742 
	C94.238884,160.315933 96.892365,172.542633 87.895325,184.848282 
	C83.180023,191.297607 85.355896,193.826004 93.511948,193.826691 
	C142.500290,193.830811 191.488647,193.828995 240.476990,193.826157 
	C243.809433,193.825974 247.142441,193.833984 250.474167,193.778366 
	C253.427933,193.729065 257.158966,194.307480 257.105011,189.861984 
	C257.055634,185.791077 253.550980,186.242325 250.731155,186.193268 
	C249.565109,186.172989 248.398438,186.188400 247.232040,186.188400 
	C198.743576,186.188324 150.255112,186.188339 101.766647,186.188354 
	C99.964264,186.188354 98.161873,186.188354 94.854057,186.188354 
	C103.493057,175.608948 104.677307,164.587936 99.865440,152.991653 
	C101.379257,152.571045 101.995491,152.309860 102.633484,152.235596 
	C123.472939,149.809921 144.314972,147.406555 165.155594,144.990768 
	C200.551834,140.887756 235.941299,136.724670 271.350220,132.734406 
	C276.247650,132.182526 278.120819,130.307205 278.069885,125.141243 
	C277.825104,100.316223 277.962158,75.487473 277.958679,50.660046 
	C277.957581,42.934792 277.872314,42.851677 270.080536,42.851452 
	C207.428772,42.849651 144.777008,42.850155 82.125237,42.849953 
	C80.183510,42.849949 78.241791,42.849953 76.283264,42.849953 
	C75.166893,37.387623 74.097847,32.516582 73.192963,27.615238 
	C72.471046,23.704988 70.444946,22.058043 66.306778,22.146101 
	C55.814030,22.369379 45.313347,22.216171 34.815853,22.223398 
	C32.483971,22.225002 30.042927,21.855200 27.858885,22.435072 
	C26.418297,22.817551 24.191895,24.824368 24.366137,25.692833 
	C24.671808,27.216360 26.337666,28.805649 27.838148,29.641254 
	C28.992107,30.283886 30.766886,29.831356 32.265610,29.832134 
	C43.400375,29.837914 54.535145,29.835268 65.666283,29.835268 
	C66.147835,31.702341 66.518387,33.139008 67.017494,35.418472 
M113.538551,219.009705 
	C111.648956,211.339401 107.174965,207.181976 100.483276,206.878143 
	C93.980278,206.582855 88.245697,210.444397 86.322060,216.414001 
	C84.443443,222.243851 86.634804,228.770264 91.774719,232.209961 
	C96.259514,235.211258 101.054726,235.642624 105.894913,233.166351 
	C111.298416,230.401886 113.709206,225.780609 113.538551,219.009705 
M230.891068,214.597870 
	C228.171341,222.113708 229.776031,228.252380 235.491592,232.196899 
	C240.641663,235.751175 247.323807,235.545868 252.132080,231.604828 
	C256.693359,227.866226 258.211426,222.933640 256.900696,217.338287 
	C255.620865,211.874878 251.935181,208.285797 246.464661,207.168945 
	C239.957230,205.840408 234.758545,208.204285 230.891068,214.597870 
z"/>
<path fill="#F4F4F4" opacity="1.000000" stroke="none" 
	d="
M66.953217,34.997074 
	C66.518387,33.139008 66.147835,31.702341 65.666283,29.835268 
	C54.535145,29.835268 43.400375,29.837914 32.265610,29.832134 
	C30.766886,29.831356 28.992107,30.283886 27.838148,29.641254 
	C26.337666,28.805649 24.671808,27.216360 24.366137,25.692833 
	C24.191895,24.824368 26.418297,22.817551 27.858885,22.435072 
	C30.042927,21.855200 32.483971,22.225002 34.815853,22.223398 
	C45.313347,22.216171 55.814030,22.369379 66.306778,22.146101 
	C70.444946,22.058043 72.471046,23.704988 73.192963,27.615238 
	C74.097847,32.516582 75.166893,37.387623 76.283264,42.849953 
	C78.241791,42.849953 80.183510,42.849949 82.125237,42.849953 
	C144.777008,42.850155 207.428772,42.849651 270.080536,42.851452 
	C277.872314,42.851677 277.957581,42.934792 277.958679,50.660046 
	C277.962158,75.487473 277.825104,100.316223 278.069885,125.141243 
	C278.120819,130.307205 276.247650,132.182526 271.350220,132.734406 
	C235.941299,136.724670 200.551834,140.887756 165.155594,144.990768 
	C144.314972,147.406555 123.472939,149.809921 102.633484,152.235596 
	C101.995491,152.309860 101.379257,152.571045 99.865440,152.991653 
	C104.677307,164.587936 103.493057,175.608948 94.854057,186.188354 
	C98.161873,186.188354 99.964264,186.188354 101.766647,186.188354 
	C150.255112,186.188339 198.743576,186.188324 247.232040,186.188400 
	C248.398438,186.188400 249.565109,186.172989 250.731155,186.193268 
	C253.550980,186.242325 257.055634,185.791077 257.105011,189.861984 
	C257.158966,194.307480 253.427933,193.729065 250.474167,193.778366 
	C247.142441,193.833984 243.809433,193.825974 240.476990,193.826157 
	C191.488647,193.828995 142.500290,193.830811 93.511948,193.826691 
	C85.355896,193.826004 83.180023,191.297607 87.895325,184.848282 
	C96.892365,172.542633 94.238884,160.315933 91.223930,147.107742 
	C82.747009,109.971146 75.032585,72.660492 66.953217,34.997074 
z"/>
<path fill="#F0F0F0" opacity="1.000000" stroke="none" 
	d="
M113.593948,219.398712 
	C113.709206,225.780609 111.298416,230.401886 105.894913,233.166351 
	C101.054726,235.642624 96.259514,235.211258 91.774719,232.209961 
	C86.634804,228.770264 84.443443,222.243851 86.322060,216.414001 
	C88.245697,210.444397 93.980278,206.582855 100.483276,206.878143 
	C107.174965,207.181976 111.648956,211.339401 113.593948,219.398712 
z"/>
<path fill="#F0F0F0" opacity="1.000000" stroke="none" 
	d="
M231.041107,214.252014 
	C234.758545,208.204285 239.957230,205.840408 246.464661,207.168945 
	C251.935181,208.285797 255.620865,211.874878 256.900696,217.338287 
	C258.211426,222.933640 256.693359,227.866226 252.132080,231.604828 
	C247.323807,235.545868 240.641663,235.751175 235.491592,232.196899 
	C229.776031,228.252380 228.171341,222.113708 231.041107,214.252014 
z"/>
</svg>