<svg width="1496" height="243.99999999999997" xmlns="http://www.w3.org/2000/svg" version="1.0" preserveAspectRatio="xMidYMid meet">
 <g>
  <title>Layer 1</title>
  <g transform="translate(0 1020) scale(0.1 -0.1)" fill="#000000" id="svg_1">
   <path d="m299.98574,8946.24638l0,-860l7175,0l7175,0l0,860l0,860l-7175,0l-7175,0l0,-860zm4310,0l0,-750l-2100,0l-2100,0l0,750l0,750l2100,0l2100,0l0,-750zm8834,482c33,-12 63,-25 68,-30c4,-4 2,-25 -4,-45c-9,-28 -16,-37 -27,-33c-9,3 -43,15 -76,27c-50,18 -76,20 -160,17c-83,-3 -108,-8 -151,-30c-57,-30 -113,-87 -144,-147c-69,-137 -66,-368 7,-503c33,-61 80,-103 153,-137c49,-23 67,-26 160,-25c83,1 117,5 160,22c69,28 76,27 84,-2c3,-13 8,-31 12,-39c4,-11 -12,-21 -63,-38c-58,-21 -87,-24 -198,-24c-111,1 -138,4 -186,23c-124,49 -210,146 -254,285c-47,148 -33,350 32,470c56,102 135,171 245,213c56,21 76,24 173,21c80,-3 126,-10 169,-25zm-5990,3c175,-37 256,-128 256,-288c0,-43 -6,-92 -14,-111c-22,-52 -70,-100 -131,-130c-51,-25 -55,-29 -43,-46c108,-150 248,-372 248,-393c0,-4 -22,-7 -49,-7l-49,0l-51,88c-29,48 -88,138 -133,201l-81,114l-75,-7c-41,-3 -97,-6 -124,-6l-48,0l0,-195l0,-195l-50,0l-50,0l0,480c0,391 2,482 13,486c62,23 287,29 381,9zm3287,1c123,-26 209,-87 247,-175c10,-22 16,-67 16,-116c2,-142 -56,-222 -193,-273c-54,-20 -93,-25 -216,-31l-150,-6l-3,-187l-2,-188l-45,0l-45,0l0,479c0,323 3,482 10,486c38,23 289,30 381,11zm-5584,-181c51,-99 127,-256 169,-350c43,-93 80,-173 84,-178c3,-4 55,99 114,228c60,129 139,290 176,357l67,123l41,3c39,3 41,2 46,-30c13,-84 44,-495 62,-820l6,-128l-49,0l-50,0l-7,183c-7,196 -23,455 -35,564l-7,68l-56,-110c-72,-142 -258,-542 -258,-555c0,-6 -22,-10 -50,-10c-29,0 -50,5 -50,11c0,15 -158,355 -243,524l-71,140l-7,-75c-10,-104 -27,-383 -35,-577l-7,-163l-48,0l-47,0l4,73c2,39 11,187 20,327c8,140 22,323 30,405c7,83 14,156 14,163c0,9 13,12 47,10l47,-3l93,-180zm1407,93c68,-148 152,-354 257,-630l97,-258l-53,0l-53,0l-48,133l-49,132l-240,0l-239,0l-47,-130l-47,-130l-51,-3l-51,-3l36,98c72,200 195,512 254,648c34,77 71,161 82,188c20,46 22,47 65,47l44,0l43,-92zm1466,-133c0,-124 4,-225 9,-225c5,0 111,101 236,225l228,225l56,0l56,-1l-234,-230c-129,-127 -230,-234 -225,-238c5,-4 38,-30 74,-57c130,-98 349,-335 399,-431c11,-22 10,-23 -42,-23l-54,0l-38,56c-83,120 -256,293 -377,375c-96,66 -88,83 -88,-190l0,-241l-45,0l-45,0l0,490l0,490l45,0l45,0l0,-225zm1320,185l0,-40l-235,0l-235,0l0,-170l0,-170l210,0l210,0l0,-45l0,-45l-210,0l-210,0l0,-195l0,-195l255,0l255,0l0,-40l0,-40l-300,0l-300,0l0,490l0,490l280,0l280,0l0,-40zm840,0l0,-40l-155,0l-155,0l0,-450l0,-450l-50,0l-50,0l0,450l0,450l-155,0l-155,0l0,40l0,40l360,0l360,0l0,-40zm1090,-410l0,-450l230,0l230,0l0,-40l0,-40l-275,0l-275,0l0,490l0,490l45,0l45,0l0,-450zm1085,323c81,-179 335,-824 335,-850c0,-2 -24,-3 -52,-1l-53,3l-32,90c-19,50 -40,109 -49,133l-16,42l-238,0l-238,0l-48,-135l-49,-135l-47,0c-27,0 -48,3 -48,8c0,23 226,605 298,767c102,229 86,205 135,205l44,0l58,-127zm1895,87l0,-40l-232,-2l-233,-3l-3,-167l-2,-168l210,0l210,0l0,-45l0,-45l-210,0l-210,0l2,-192l3,-193l253,-3l252,-2l0,-40l0,-40l-300,0l-300,0l0,490l0,490l280,0l280,0l0,-40z" id="svg_138"/>
   <path d="m1976.98574,9445.24638c-156,-37 -289,-171 -332,-334c-20,-78 -20,-252 1,-330c51,-198 199,-322 408,-341c334,-30 562,228 518,584c-34,268 -215,434 -470,431c-48,-1 -104,-5 -125,-10zm270,-185c65,-40 108,-106 129,-200c42,-191 -19,-374 -148,-438c-66,-33 -179,-36 -244,-7c-82,37 -139,118 -163,229c-32,152 8,306 103,389c59,52 94,63 193,59c70,-2 88,-6 130,-32z" id="svg_139"/>
   <path d="m2854.98574,9435.24638c-33,-5 -66,-11 -72,-14c-10,-3 -13,-110 -13,-485l0,-480l90,0l90,0l0,170c0,170 0,170 23,170c87,1 262,23 309,39c138,47 199,127 206,267c8,144 -37,228 -151,285c-32,17 -93,37 -134,45c-81,15 -252,17 -348,3zm372,-172c59,-31 87,-100 73,-177c-16,-89 -96,-130 -257,-130l-93,0l0,166l0,166l123,-4c91,-3 130,-8 154,-21z" id="svg_140"/>
   <path d="m649.98574,8946.24638l0,-490l85,0l85,0l0,215l0,215l215,0l215,0l0,-215l0,-215l90,0l90,0l0,490l0,490l-90,0l-90,0l0,-195l0,-195l-215,0l-215,0l0,195l0,195l-85,0l-85,0l0,-490z" id="svg_141"/>
   <path d="m3659.98574,8946.24638l0,-490l330,0l330,0l0,75l0,75l-245,0l-246,0l3,143l3,142l203,3l203,2l-3,73l-3,72l-203,3l-203,2l3,118l3,117l228,3l227,2l0,75l0,75l-315,0l-315,0l0,-490z" id="svg_142"/>
   <path d="m7159.98574,9146.24638l0,-210l128,0c183,0 265,30 307,111c24,45 20,156 -8,201c-51,84 -117,108 -297,108l-130,0l0,-210z" id="svg_143"/>
   <path d="m10444.98574,9344.24638c-3,-7 -4,-106 -3,-218l3,-205l130,1c72,0 148,6 171,12c90,26 147,87 158,172c13,98 -22,169 -108,216c-48,27 -59,29 -198,32c-119,3 -149,2 -153,-10z" id="svg_144"/>
   <path d="m6454.98574,9280.24638c-64,-153 -93,-225 -136,-338c-27,-70 -49,-130 -49,-132c0,-2 92,-4 205,-4c113,0 205,3 205,8c0,22 -184,478 -201,496c-4,5 -15,-9 -24,-30z" id="svg_145"/>
   <path d="m12205.98574,9198.24638c-27,-64 -73,-179 -102,-254l-52,-138l209,0l208,0l-29,80c-16,43 -55,141 -86,217c-31,76 -63,155 -72,176c-8,20 -18,37 -21,37c-3,0 -28,-53 -55,-118z" id="svg_146"/>
  </g>
 </g>

</svg>