<?xml version="1.0" standalone="no"?>
<!DOCTYPE svg PUBLIC "-//W3C//DTD SVG 20010904//EN"
 "http://www.w3.org/TR/2001/REC-SVG-20010904/DTD/svg10.dtd">
<svg version="1.0" xmlns="http://www.w3.org/2000/svg"
 width="1920.000000pt" height="1020.000000pt" viewBox="0 0 1920.000000 1020.000000"
 preserveAspectRatio="xMidYMid meet">

<g transform="translate(0.000000,1020.000000) scale(0.100000,-0.100000)"
fill="#000000" stroke="none">
<path d="M12695 10081 c-64 -27 -81 -110 -32 -158 20 -21 37 -28 67 -28 116 0
130 170 15 190 -16 2 -39 1 -50 -4z m77 -48 c10 -9 18 -22 18 -30 0 -7 6 -13
12 -13 7 0 3 -10 -9 -22 -19 -18 -24 -19 -38 -8 -8 7 -13 21 -10 30 4 12 -4
25 -21 39 l-27 21 28 0 c16 0 37 -7 47 -17z m-63 -17 c6 -7 9 -20 6 -29 -4 -9
4 -23 21 -36 l27 -21 -28 0 c-31 0 -65 25 -65 47 0 7 -5 13 -12 13 -6 0 -3 9
7 20 21 24 29 25 44 6z"/>
<path d="M3686 10015 c-40 -74 -41 -75 -23 -75 10 0 77 114 77 133 0 23 -23
-2 -54 -58z"/>
<path d="M4806 10015 c-40 -74 -41 -75 -23 -75 10 0 77 114 77 133 0 23 -23
-2 -54 -58z"/>
<path d="M5936 10015 c-40 -74 -41 -75 -23 -75 10 0 77 114 77 133 0 23 -23
-2 -54 -58z"/>
<path d="M7056 10015 c-40 -74 -41 -75 -23 -75 10 0 77 114 77 133 0 23 -23
-2 -54 -58z"/>
<path d="M8186 10015 c-40 -74 -41 -75 -23 -75 10 0 77 114 77 133 0 23 -23
-2 -54 -58z"/>
<path d="M9306 10015 c-40 -74 -41 -75 -23 -75 10 0 77 114 77 133 0 23 -23
-2 -54 -58z"/>
<path d="M10436 10015 c-40 -74 -41 -75 -23 -75 10 0 77 114 77 133 0 23 -23
-2 -54 -58z"/>
<path d="M11556 10015 c-40 -74 -41 -75 -23 -75 10 0 77 114 77 133 0 23 -23
-2 -54 -58z"/>
<path d="M18335 10071 l50 -6 6 -50 6 -50 1 46 c2 57 -10 69 -67 67 l-46 -1
50 -6z"/>
<path d="M18850 10075 c0 -5 11 -21 25 -35 l25 -26 -25 -24 c-14 -13 -25 -28
-25 -34 0 -5 14 3 30 19 l30 29 30 -29 c16 -16 32 -26 35 -24 3 3 -9 18 -25
34 l-30 29 32 33 c38 39 26 45 -14 6 l-28 -27 -30 29 c-16 16 -30 25 -30 20z"/>
<path d="M1422 10050 c-15 -15 -22 -33 -22 -60 0 -50 30 -80 80 -80 50 0 80
30 80 80 0 50 -30 80 -80 80 -23 0 -44 -8 -58 -20z m68 2 c0 -4 -5 -13 -12
-20 -15 -15 16 -41 50 -42 29 0 28 -15 -3 -45 -27 -28 -65 -33 -65 -10 0 8 5
15 10 15 6 0 10 6 10 14 0 15 -21 26 -51 26 -26 0 -24 16 6 45 23 24 55 34 55
17z"/>
<path d="M13792 10050 c-15 -15 -22 -33 -22 -60 0 -50 30 -80 80 -80 50 0 80
30 80 80 0 50 -30 80 -80 80 -23 0 -44 -8 -58 -20z m68 2 c0 -4 -5 -13 -12
-20 -15 -15 16 -41 50 -42 29 0 28 -15 -3 -45 -27 -28 -65 -33 -65 -10 0 8 5
15 10 15 6 0 10 6 10 14 0 15 -21 26 -51 26 -26 0 -24 16 6 45 23 24 55 34 55
17z"/>
<path d="M14902 10050 c-15 -15 -22 -33 -22 -60 0 -50 30 -80 80 -80 50 0 80
30 80 80 0 50 -30 80 -80 80 -23 0 -44 -8 -58 -20z m68 2 c0 -4 -5 -13 -12
-20 -15 -15 16 -41 50 -42 29 0 28 -15 -3 -45 -27 -28 -65 -33 -65 -10 0 8 5
15 10 15 6 0 10 6 10 14 0 15 -21 26 -51 26 -26 0 -24 16 6 45 23 24 55 34 55
17z"/>
<path d="M2556 10047 c-11 -8 -16 -19 -12 -26 5 -8 12 -7 23 4 8 9 26 15 39
13 13 -2 24 2 26 7 5 16 -55 17 -76 2z"/>
<path d="M16100 10030 c0 -27 -3 -30 -30 -30 -16 0 -30 -4 -30 -10 0 -5 14
-10 30 -10 27 0 30 -3 30 -29 0 -42 18 -48 22 -9 3 29 7 33 36 36 39 4 33 22
-9 22 -26 0 -29 3 -29 30 0 17 -4 30 -10 30 -5 0 -10 -13 -10 -30z"/>
<path d="M18274 10047 c-3 -8 -4 -32 -2 -53 l3 -39 50 0 50 0 0 50 0 50 -48 3
c-34 2 -49 -1 -53 -11z m96 -42 l0 -45 -45 0 -45 0 0 45 0 45 45 0 45 0 0 -45z"/>
<path d="M630 10026 c0 -20 -6 -25 -32 -29 l-33 -4 32 -1 c26 -2 32 -7 36 -29
2 -16 5 -2 6 30 0 31 -1 57 -4 57 -3 0 -5 -11 -5 -24z"/>
<path d="M672 10043 c13 -3 18 -18 21 -56 l3 -52 2 52 c2 40 6 53 20 56 9 3
-1 5 -23 5 -22 0 -32 -2 -23 -5z"/>
<path d="M752 9993 c1 -55 2 -55 5 -13 4 45 5 45 19 20 10 -16 13 -18 9 -5 -4
11 -10 28 -12 38 -11 37 -23 14 -21 -40z"/>
<path d="M1693 9995 c0 -33 2 -48 4 -32 4 22 9 27 33 27 24 0 29 -5 33 -27 2
-16 4 -1 4 32 0 33 -2 48 -4 33 -4 -23 -9 -28 -33 -28 -24 0 -29 5 -33 28 -2
15 -4 0 -4 -33z"/>
<path d="M2812 9995 c0 -51 1 -55 8 -27 4 19 4 46 0 60 -6 21 -8 13 -8 -33z"/>
<path d="M3942 9998 c-2 -57 -2 -58 26 -57 22 1 23 2 5 6 -19 4 -23 12 -26 56
l-3 52 -2 -57z"/>
<path d="M5083 10043 c9 -2 23 -2 30 0 6 3 -1 5 -18 5 -16 0 -22 -2 -12 -5z"/>
<path d="M5190 10031 c0 -14 -5 -18 -19 -14 -13 3 -23 -2 -30 -16 -16 -30 2
-61 34 -59 23 2 25 6 25 55 0 29 -2 53 -5 53 -3 0 -5 -9 -5 -19z m-5 -51 c0
-28 -29 -40 -38 -15 -9 22 3 46 22 43 10 -2 16 -13 16 -28z"/>
<path d="M6190 9995 c0 -54 1 -55 28 -54 23 2 24 2 5 6 -14 3 -23 12 -23 23 0
11 9 20 23 23 l22 4 -22 2 c-16 1 -23 7 -23 20 0 12 8 21 23 24 19 4 18 4 -5
6 -27 1 -28 0 -28 -54z"/>
<path d="M7333 10043 c9 -2 23 -2 30 0 6 3 -1 5 -18 5 -16 0 -22 -2 -12 -5z"/>
<path d="M7440 10031 c0 -14 -5 -18 -19 -14 -13 3 -23 -2 -30 -16 -16 -30 2
-61 34 -59 23 2 25 6 25 55 0 29 -2 53 -5 53 -3 0 -5 -9 -5 -19z m-5 -51 c0
-28 -29 -40 -38 -15 -9 22 3 46 22 43 10 -2 16 -13 16 -28z"/>
<path d="M8440 9995 c0 -54 1 -55 28 -54 23 2 24 2 5 6 -14 3 -23 12 -23 23 0
11 9 20 23 23 l22 4 -22 2 c-16 1 -23 7 -23 20 0 12 8 21 23 24 19 4 18 4 -5
6 -27 1 -28 0 -28 -54z"/>
<path d="M9583 10043 c9 -2 23 -2 30 0 6 3 -1 5 -18 5 -16 0 -22 -2 -12 -5z"/>
<path d="M9690 10031 c0 -14 -5 -18 -19 -14 -13 3 -23 -2 -30 -16 -16 -30 2
-61 34 -59 23 2 25 6 25 55 0 29 -2 53 -5 53 -3 0 -5 -9 -5 -19z m-5 -51 c0
-28 -29 -40 -38 -15 -9 22 3 46 22 43 10 -2 16 -13 16 -28z"/>
<path d="M10690 9995 c0 -54 1 -55 28 -54 23 2 24 2 5 6 -14 3 -23 12 -23 23
0 11 9 20 23 23 l22 4 -22 2 c-16 1 -23 7 -23 20 0 12 8 21 23 24 19 4 18 4
-5 6 -27 1 -28 0 -28 -54z"/>
<path d="M11833 10043 c9 -2 23 -2 30 0 6 3 -1 5 -18 5 -16 0 -22 -2 -12 -5z"/>
<path d="M11940 10031 c0 -14 -5 -18 -19 -14 -13 3 -23 -2 -30 -16 -16 -30 2
-61 34 -59 23 2 25 6 25 55 0 29 -2 53 -5 53 -3 0 -5 -9 -5 -19z m-5 -51 c0
-28 -29 -40 -38 -15 -9 22 3 46 22 43 10 -2 16 -13 16 -28z"/>
<path d="M12940 9995 c0 -52 2 -55 24 -55 32 0 56 25 56 59 0 35 -17 51 -52
51 -27 0 -28 -1 -28 -55z m54 39 c19 -7 21 -55 4 -72 -7 -7 -20 -12 -30 -12
-15 0 -18 8 -18 45 0 46 8 53 44 39z"/>
<path d="M14083 10043 c9 -2 23 -2 30 0 6 3 -1 5 -18 5 -16 0 -22 -2 -12 -5z"/>
<path d="M14190 10031 c0 -14 -5 -18 -19 -14 -13 3 -23 -2 -30 -16 -16 -30 2
-61 34 -59 23 2 25 6 25 55 0 29 -2 53 -5 53 -3 0 -5 -9 -5 -19z m-5 -51 c0
-28 -29 -40 -38 -15 -9 22 3 46 22 43 10 -2 16 -13 16 -28z"/>
<path d="M15182 9998 c-2 -57 -2 -58 26 -57 22 1 23 2 5 6 -19 4 -23 12 -26
56 l-3 52 -2 -57z"/>
<path d="M17156 10018 c16 -21 31 -38 35 -38 3 0 21 17 39 38 l35 37 -35 -32
-34 -33 -35 33 -34 32 29 -37z"/>
<path d="M990 10035 c0 -5 7 -17 17 -27 15 -17 15 -19 -2 -38 -24 -26 -11 -39
15 -15 19 17 21 17 40 0 11 -10 22 -16 25 -13 3 3 -4 13 -15 23 l-20 18 21 23
c11 12 16 25 11 28 -5 3 -17 -3 -27 -14 -18 -20 -18 -20 -42 2 -13 12 -23 18
-23 13z"/>
<path d="M2116 10032 c-3 -5 3 -17 14 -27 20 -18 20 -18 -2 -42 -25 -26 -14
-32 14 -6 17 15 19 15 38 -2 26 -24 39 -11 15 15 -17 19 -17 21 0 40 10 11 16
22 13 25 -3 3 -13 -4 -23 -15 l-18 -20 -23 21 c-12 11 -25 16 -28 11z"/>
<path d="M3240 10035 c0 -5 7 -17 17 -27 15 -17 15 -19 -2 -38 -24 -26 -11
-39 15 -15 19 17 21 17 40 0 11 -10 22 -16 25 -13 3 3 -4 13 -15 23 l-20 18
21 23 c11 12 16 25 11 28 -5 3 -17 -3 -27 -14 -18 -20 -18 -20 -42 2 -13 12
-23 18 -23 13z"/>
<path d="M4366 10032 c-3 -5 3 -17 14 -27 20 -18 20 -18 -2 -42 -25 -26 -14
-32 14 -6 17 15 19 15 38 -2 26 -24 39 -11 15 15 -17 19 -17 21 0 40 10 11 16
22 13 25 -3 3 -13 -4 -23 -15 l-18 -20 -23 21 c-12 11 -25 16 -28 11z"/>
<path d="M5268 10030 c-5 -17 3 -90 11 -90 3 0 5 21 4 46 -1 46 -8 65 -15 44z"/>
<path d="M5490 10035 c0 -5 7 -17 17 -27 15 -17 15 -19 -2 -38 -10 -11 -15
-23 -12 -27 4 -3 16 2 27 12 19 17 21 17 40 0 11 -10 22 -16 25 -13 3 3 -4 13
-15 23 l-20 18 21 23 c11 12 16 25 11 28 -5 3 -17 -3 -27 -14 -18 -20 -18 -20
-42 2 -13 12 -23 18 -23 13z"/>
<path d="M6388 10027 c-7 -22 7 -80 20 -83 7 -1 8 0 2 3 -12 6 -13 60 -1 65 5
2 3 8 -4 15 -10 9 -14 9 -17 0z"/>
<path d="M6616 10032 c-3 -5 3 -17 14 -27 20 -18 20 -18 -2 -42 -25 -26 -14
-32 14 -6 17 15 19 15 38 -2 11 -10 23 -15 27 -12 3 4 -2 16 -12 27 -17 19
-17 21 0 40 10 11 16 22 13 25 -3 3 -13 -4 -23 -15 l-18 -20 -23 21 c-12 11
-25 16 -28 11z"/>
<path d="M7518 10030 c-5 -17 3 -90 11 -90 3 0 5 21 4 46 -1 46 -8 65 -15 44z"/>
<path d="M7740 10035 c0 -5 7 -17 17 -27 15 -17 15 -19 -2 -38 -10 -11 -15
-23 -12 -27 4 -3 16 2 27 12 19 17 21 17 40 0 11 -10 22 -16 25 -13 3 3 -4 13
-15 23 l-20 18 21 23 c11 12 16 25 11 28 -5 3 -17 -3 -27 -14 -18 -20 -18 -20
-42 2 -13 12 -23 18 -23 13z"/>
<path d="M8638 10027 c-7 -22 7 -80 20 -83 7 -1 8 0 2 3 -12 6 -13 60 -1 65 5
2 3 8 -4 15 -10 9 -14 9 -17 0z"/>
<path d="M8866 10032 c-3 -5 3 -17 14 -27 20 -18 20 -18 -2 -42 -25 -26 -14
-32 14 -6 17 15 19 15 38 -2 11 -10 23 -15 27 -12 3 4 -2 16 -12 27 -17 19
-17 21 0 40 10 11 16 22 13 25 -3 3 -13 -4 -23 -15 l-18 -20 -23 21 c-12 11
-25 16 -28 11z"/>
<path d="M9768 10030 c-5 -17 3 -90 11 -90 3 0 5 21 4 46 -1 46 -8 65 -15 44z"/>
<path d="M9990 10035 c0 -5 7 -17 17 -27 15 -17 15 -19 -2 -38 -10 -11 -15
-23 -12 -27 4 -3 16 2 27 12 19 17 21 17 40 0 11 -10 22 -16 25 -13 3 3 -4 13
-15 23 l-20 18 21 23 c11 12 16 25 11 28 -5 3 -17 -3 -27 -14 -18 -20 -18 -20
-42 2 -13 12 -23 18 -23 13z"/>
<path d="M10888 10027 c-7 -22 7 -80 20 -83 7 -1 8 0 2 3 -12 6 -13 60 -1 65
5 2 3 8 -4 15 -10 9 -14 9 -17 0z"/>
<path d="M11120 10028 c0 -9 7 -21 15 -28 14 -12 13 -16 -6 -37 -25 -26 -15
-32 13 -6 17 15 19 15 38 -2 26 -24 39 -11 15 15 -17 19 -17 21 0 40 10 11 16
22 13 25 -3 3 -13 -4 -23 -15 l-18 -20 -24 22 c-18 17 -23 18 -23 6z"/>
<path d="M12018 10030 c-5 -17 3 -90 11 -90 3 0 5 21 4 46 -1 46 -8 65 -15 44z"/>
<path d="M12240 10035 c0 -5 7 -17 17 -27 15 -17 15 -19 -2 -38 -24 -26 -11
-39 15 -15 19 17 21 17 40 0 11 -10 22 -16 25 -13 3 3 -4 13 -15 23 l-20 18
21 23 c11 12 16 25 11 28 -5 3 -17 -3 -27 -14 -18 -20 -18 -20 -42 2 -13 12
-23 18 -23 13z"/>
<path d="M13366 10032 c-3 -5 3 -17 14 -27 20 -18 20 -18 -2 -42 -25 -26 -14
-32 14 -6 17 15 19 15 38 -2 26 -24 39 -11 15 15 -17 19 -17 21 0 40 10 11 16
22 13 25 -3 3 -13 -4 -23 -15 l-18 -20 -23 21 c-12 11 -25 16 -28 11z"/>
<path d="M14268 10030 c-5 -17 3 -90 11 -90 3 0 5 21 4 46 -1 46 -8 65 -15 44z"/>
<path d="M14480 10028 c0 -8 7 -21 15 -28 14 -12 14 -15 -1 -31 -22 -24 -10
-37 14 -16 17 15 19 15 35 0 22 -23 35 -8 13 16 -15 16 -15 19 -1 31 8 7 15
19 15 28 0 12 -5 11 -23 -6 l-23 -22 -22 22 c-18 18 -22 19 -22 6z"/>
<path d="M15590 10035 c0 -5 7 -17 17 -27 15 -17 15 -19 -2 -38 -24 -26 -11
-39 15 -15 19 17 21 17 40 0 11 -10 22 -16 25 -13 3 3 -4 13 -15 23 l-20 18
21 23 c11 12 16 25 11 28 -5 3 -17 -3 -27 -14 -18 -20 -18 -20 -42 2 -13 12
-23 18 -23 13z"/>
<path d="M422 9973 c4 -81 28 -85 28 -4 0 48 -3 61 -15 61 -13 0 -15 -11 -13
-57z"/>
<path d="M1802 10008 c-27 -27 -3 -73 35 -66 27 5 25 72 -2 76 -11 1 -26 -3
-33 -10z m48 -28 c0 -23 -4 -30 -20 -30 -23 0 -35 22 -26 45 3 8 15 15 26 15
16 0 20 -7 20 -30z"/>
<path d="M1881 9964 c1 -32 4 -49 6 -38 3 15 10 20 22 17 10 -3 21 -1 24 4 3
5 -4 9 -16 9 -17 -1 -22 5 -22 26 0 14 -3 30 -7 34 -5 4 -7 -19 -7 -52z"/>
<path d="M2847 10013 c6 -4 13 -24 16 -43 4 -34 4 -33 3 4 -1 26 -6 41 -16 43
-10 3 -11 2 -3 -4z"/>
<path d="M2900 10001 c-15 -29 4 -63 32 -59 12 2 23 9 24 16 1 7 0 8 -3 2 -7
-15 -40 -12 -47 5 -3 8 -3 22 0 30 7 17 40 20 47 5 3 -6 4 -5 3 2 -4 22 -44
21 -56 -1z"/>
<path d="M2981 10010 c0 -8 6 -28 14 -45 17 -39 18 -21 0 25 -7 19 -14 28 -14
20z"/>
<path d="M3020 10006 c0 -9 5 -16 10 -16 6 0 10 4 10 9 0 6 -4 13 -10 16 -5 3
-10 -1 -10 -9z"/>
<path d="M4010 10001 c-15 -29 4 -63 32 -59 12 2 23 9 24 16 1 7 0 8 -3 2 -7
-15 -40 -12 -47 5 -3 8 -3 22 0 30 7 17 40 20 47 5 3 -6 4 -5 3 2 -4 22 -44
21 -56 -1z"/>
<path d="M4102 10008 c-27 -27 0 -77 34 -64 10 4 14 1 12 -6 -3 -7 -15 -15
-29 -19 -21 -6 -21 -7 -3 -8 30 -1 44 18 44 64 0 35 -3 41 -23 43 -13 1 -29
-4 -35 -10z m43 -28 c0 -16 -6 -26 -18 -28 -19 -4 -32 20 -23 44 9 25 41 13
41 -16z"/>
<path d="M5233 9980 c0 -25 2 -35 4 -22 2 12 2 32 0 45 -2 12 -4 2 -4 -23z"/>
<path d="M6270 10006 c-17 -22 -8 -60 15 -64 19 -4 19 -3 1 10 -24 19 -17 53
11 52 12 0 20 3 17 8 -8 13 -30 9 -44 -6z"/>
<path d="M6353 9980 c0 -25 2 -35 4 -22 2 12 2 32 0 45 -2 12 -4 2 -4 -23z"/>
<path d="M7483 9980 c0 -25 2 -35 4 -22 2 12 2 32 0 45 -2 12 -4 2 -4 -23z"/>
<path d="M8520 10006 c-17 -22 -8 -60 15 -64 19 -4 19 -3 1 10 -24 19 -17 53
11 52 12 0 20 3 17 8 -8 13 -30 9 -44 -6z"/>
<path d="M8603 9980 c0 -25 2 -35 4 -22 2 12 2 32 0 45 -2 12 -4 2 -4 -23z"/>
<path d="M9733 9980 c0 -25 2 -35 4 -22 2 12 2 32 0 45 -2 12 -4 2 -4 -23z"/>
<path d="M10770 10006 c-15 -20 -9 -61 10 -62 9 0 10 1 3 3 -19 7 -16 50 5 62
9 6 12 11 6 11 -6 0 -17 -7 -24 -14z"/>
<path d="M10853 9980 c0 -25 2 -35 4 -22 2 12 2 32 0 45 -2 12 -4 2 -4 -23z"/>
<path d="M11983 9980 c0 -25 2 -35 4 -22 2 12 2 32 0 45 -2 12 -4 2 -4 -23z"/>
<path d="M13050 10005 c-26 -31 13 -82 44 -56 19 16 21 42 4 59 -16 16 -33 15
-48 -3z m45 -25 c0 -16 -6 -26 -18 -28 -19 -4 -32 20 -23 44 9 25 41 13 41
-16z"/>
<path d="M13127 9999 c4 -13 8 -18 11 -10 2 7 -1 18 -6 23 -8 8 -9 4 -5 -13z"/>
<path d="M13166 10005 c-9 -26 -7 -32 5 -12 6 10 9 21 6 23 -2 3 -7 -2 -11
-11z"/>
<path d="M14233 9980 c0 -25 2 -35 4 -22 2 12 2 32 0 45 -2 12 -4 2 -4 -23z"/>
<path d="M15252 10008 c-27 -27 -3 -73 35 -66 27 5 25 72 -2 76 -11 1 -26 -3
-33 -10z m48 -28 c0 -23 -4 -30 -20 -30 -23 0 -35 22 -26 45 3 8 15 15 26 15
16 0 20 -7 20 -30z"/>
<path d="M15340 10006 c-17 -22 -8 -60 15 -64 19 -4 19 -3 1 10 -24 19 -17 53
11 52 12 0 20 3 17 8 -8 13 -30 9 -44 -6z"/>
<path d="M17727 10013 c18 -2 50 -2 70 0 21 2 7 4 -32 4 -38 0 -55 -2 -38 -4z"/>
<path d="M2600 9990 c0 -5 12 -10 26 -10 21 0 24 -3 19 -21 -5 -13 -3 -19 3
-15 5 3 12 17 14 31 5 23 2 25 -28 25 -19 0 -34 -4 -34 -10z"/>
<path d="M5078 9993 c6 -2 18 -2 25 0 6 3 1 5 -13 5 -14 0 -19 -2 -12 -5z"/>
<path d="M7328 9993 c6 -2 18 -2 25 0 6 3 1 5 -13 5 -14 0 -19 -2 -12 -5z"/>
<path d="M9578 9993 c6 -2 18 -2 25 0 6 3 1 5 -13 5 -14 0 -19 -2 -12 -5z"/>
<path d="M11828 9993 c6 -2 18 -2 25 0 6 3 1 5 -13 5 -14 0 -19 -2 -12 -5z"/>
<path d="M14078 9993 c6 -2 18 -2 25 0 6 3 1 5 -13 5 -14 0 -19 -2 -12 -5z"/>
<path d="M340 9950 c0 -22 5 -40 10 -40 6 0 10 18 10 40 0 22 -4 40 -10 40 -5
0 -10 -18 -10 -40z"/>
<path d="M13140 9956 c0 -9 5 -16 10 -16 6 0 10 4 10 9 0 6 -4 13 -10 16 -5 3
-10 -1 -10 -9z"/>
<path d="M380 9930 c0 -11 5 -20 10 -20 6 0 10 9 10 20 0 11 -4 20 -10 20 -5
0 -10 -9 -10 -20z"/>
<path d="M5083 9943 c9 -2 23 -2 30 0 6 3 -1 5 -18 5 -16 0 -22 -2 -12 -5z"/>
<path d="M7333 9943 c9 -2 23 -2 30 0 6 3 -1 5 -18 5 -16 0 -22 -2 -12 -5z"/>
<path d="M9583 9943 c9 -2 23 -2 30 0 6 3 -1 5 -18 5 -16 0 -22 -2 -12 -5z"/>
<path d="M11833 9943 c9 -2 23 -2 30 0 6 3 -1 5 -18 5 -16 0 -22 -2 -12 -5z"/>
<path d="M14083 9943 c9 -2 23 -2 30 0 6 3 -1 5 -18 5 -16 0 -22 -2 -12 -5z"/>
<path d="M15380 9932 c0 -7 -12 -13 -27 -13 -26 -2 -26 -2 -4 -6 24 -5 50 11
38 24 -4 3 -7 1 -7 -5z"/>
<path d="M1025 9605 c-16 -15 -25 -36 -25 -55 0 -37 39 -80 72 -80 27 0 68 26
68 42 0 6 -7 5 -17 -4 -32 -28 -58 -30 -86 -7 -59 45 -8 133 62 107 15 -5 21
-13 17 -23 -4 -11 2 -15 19 -15 20 0 25 5 25 26 0 20 -3 24 -13 16 -8 -7 -18
-6 -31 4 -29 21 -64 17 -91 -11z"/>
<path d="M17212 9602 c-9 -27 -16 -32 -43 -32 l-32 0 23 -24 c16 -18 21 -33
18 -51 -5 -21 -2 -25 11 -19 9 4 25 7 36 7 11 0 27 -3 36 -7 13 -6 16 -2 11
19 -3 18 2 33 18 51 l23 24 -31 0 c-27 0 -34 5 -45 32 l-13 33 -12 -33z m48
-42 c10 0 10 -3 0 -15 -7 -8 -10 -21 -7 -28 3 -9 -5 -13 -28 -13 -23 0 -31 4
-28 13 3 7 0 20 -7 28 -10 12 -10 15 3 15 8 0 18 8 22 18 6 16 7 16 19 0 7
-10 19 -18 26 -18z"/>
<path d="M17700 9615 c0 -9 -9 -15 -25 -15 -18 0 -25 -5 -25 -20 0 -11 7 -23
15 -26 8 -4 15 -13 15 -20 0 -8 -7 -17 -15 -20 -8 -4 -15 -15 -15 -25 0 -23
35 -26 44 -4 3 8 12 15 20 15 7 0 16 -7 20 -15 9 -23 46 -19 46 5 0 11 7 23
15 26 8 4 15 12 15 20 0 8 -7 14 -15 14 -9 0 -15 9 -15 25 0 20 -5 25 -25 25
-16 0 -25 6 -25 15 0 8 -7 15 -15 15 -8 0 -15 -7 -15 -15z"/>
<path d="M18040 9550 l0 -80 85 0 85 0 0 80 0 80 -85 0 -85 0 0 -80z m110 0
l0 -70 -45 0 -45 0 0 63 c0 35 3 67 7 70 3 4 24 7 45 7 l38 0 0 -70z"/>
<path d="M18916 9623 c-11 -11 -6 -23 9 -23 8 0 15 4 15 9 0 13 -16 22 -24 14z"/>
<path d="M1793 9550 c0 -41 2 -58 4 -37 2 20 2 54 0 75 -2 20 -4 3 -4 -38z"/>
<path d="M2870 9591 c0 -24 -3 -28 -24 -24 -13 3 -26 1 -29 -4 -3 -5 7 -9 21
-8 24 0 27 -4 28 -32 1 -67 14 -43 14 25 0 40 -2 72 -5 72 -3 0 -5 -13 -5 -29z"/>
<path d="M15962 9608 c-17 -17 -15 -74 5 -93 11 -12 28 -15 52 -13 27 4 40 0
52 -16 10 -12 21 -17 26 -13 4 5 -1 16 -13 26 -16 12 -20 25 -16 52 2 24 -1
41 -13 52 -19 20 -76 22 -93 5z m86 -10 c28 -28 0 -88 -43 -88 -28 0 -45 18
-45 50 0 33 17 50 50 50 14 0 31 -5 38 -12z"/>
<path d="M16860 9606 c0 -9 4 -15 9 -12 4 3 16 -3 25 -13 15 -16 15 -19 -2
-34 -10 -10 -22 -14 -25 -10 -4 3 -7 -4 -7 -17 0 -13 3 -20 8 -14 4 5 17 21
30 35 l22 25 -30 29 c-24 23 -30 25 -30 11z"/>
<path d="M18501 9606 c-22 -26 10 -63 43 -50 35 13 24 64 -14 64 -10 0 -23 -6
-29 -14z"/>
<path d="M16382 9594 c-31 -21 -44 -58 -32 -89 9 -23 14 -25 75 -25 60 0 66 2
75 24 5 13 6 34 2 47 -6 20 -7 18 -12 -16 l-5 -40 -57 -3 c-49 -3 -58 0 -68
18 -20 38 31 97 75 86 17 -4 24 -3 20 4 -9 15 -47 12 -73 -6z"/>
<path d="M1550 9589 c0 -5 5 -7 10 -4 6 3 10 8 10 11 0 2 -4 4 -10 4 -5 0 -10
-5 -10 -11z"/>
<path d="M1585 9590 c3 -5 8 -10 11 -10 2 0 4 5 4 10 0 6 -5 10 -11 10 -5 0
-7 -4 -4 -10z"/>
<path d="M2961 9588 c-1 -10 -7 -18 -13 -18 -10 0 -10 -2 -1 -8 6 -4 13 -23
15 -41 2 -19 9 -36 16 -37 7 -1 8 0 2 3 -15 7 -13 73 3 73 8 0 9 3 1 8 -6 4
-14 14 -17 22 -4 12 -6 11 -6 -2z"/>
<path d="M16804 9568 c-19 -23 -19 -23 1 -7 11 9 27 19 35 22 13 5 13 6 -1 6
-9 1 -24 -9 -35 -21z"/>
<path d="M16742 9523 l-2 -63 70 0 c39 0 70 3 70 8 0 4 -29 6 -64 4 l-65 -4
-4 59 -3 58 -2 -62z"/>
<path d="M1540 9562 c-6 -2 -10 -21 -10 -43 l0 -39 46 0 45 0 -3 42 c-3 39 -5
41 -36 42 -17 1 -37 0 -42 -2z"/>
<path d="M1840 9556 c-28 -35 11 -93 48 -70 21 14 28 64 10 75 -20 13 -44 11
-58 -5z m55 -31 c0 -25 -4 -30 -25 -30 -16 0 -26 6 -28 18 -6 30 6 49 30 45
18 -2 23 -9 23 -33z"/>
<path d="M1938 9544 c-16 -33 0 -59 36 -59 37 1 30 -28 -9 -36 -28 -6 -28 -7
-4 -8 37 -2 49 17 49 74 0 49 -1 51 -30 53 -24 2 -33 -3 -42 -24z m57 -19 c0
-23 -5 -31 -21 -33 -24 -3 -38 20 -28 50 4 13 13 18 27 16 17 -2 22 -10 22
-33z"/>
<path d="M2053 9562 c-27 -17 -19 -70 12 -78 31 -8 55 10 55 40 0 38 -36 58
-67 38z m52 -21 c9 -29 -5 -52 -29 -49 -37 5 -34 68 3 68 11 0 22 -8 26 -19z"/>
<path d="M2146 9562 c-3 -5 6 -7 19 -4 33 6 32 -14 -1 -22 -37 -10 -30 -51 9
-52 27 -1 28 1 25 40 -2 33 -7 42 -25 44 -11 2 -24 -1 -27 -6z m44 -47 c0 -16
-27 -32 -37 -22 -3 4 -3 13 0 22 8 20 37 20 37 0z"/>
<path d="M2233 9525 c0 -27 2 -38 4 -22 2 15 2 37 0 50 -2 12 -4 0 -4 -28z"/>
<path d="M2322 9558 c-28 -28 -7 -79 33 -77 17 1 16 2 -5 8 -19 5 -25 13 -25
36 0 23 6 31 25 36 21 6 22 7 5 8 -12 1 -26 -4 -33 -11z"/>
<path d="M2400 9556 c-28 -35 11 -93 48 -70 35 22 22 84 -18 84 -10 0 -23 -7
-30 -14z m55 -31 c0 -25 -4 -30 -25 -30 -16 0 -26 6 -28 18 -6 30 6 49 30 45
18 -2 23 -9 23 -33z"/>
<path d="M2501 9520 l2 -45 6 40 c4 26 11 40 21 40 10 0 17 -14 21 -40 l5 -40
5 40 c3 32 8 40 24 40 16 0 21 -9 26 -40 l6 -40 1 35 c2 50 -7 58 -65 57 l-53
-1 1 -46z"/>
<path d="M2726 9562 c-3 -5 6 -7 19 -4 19 3 25 0 25 -13 0 -14 -7 -16 -30 -13
-23 3 -30 1 -30 -12 0 -22 20 -40 45 -39 17 1 17 2 -4 8 -38 10 -38 31 -1 31
27 0 31 3 28 23 -3 23 -41 37 -52 19z"/>
<path d="M2913 9525 c0 -27 2 -38 4 -22 2 15 2 37 0 50 -2 12 -4 0 -4 -28z"/>
<path d="M16430 9550 c-19 -14 -22 -22 -14 -30 9 -9 17 -4 33 19 25 35 18 40
-19 11z"/>
<path d="M18910 9550 c0 -5 7 -10 15 -10 8 0 15 5 15 10 0 6 -7 10 -15 10 -8
0 -15 -4 -15 -10z"/>
<path d="M2801 9525 c-1 -25 17 -45 39 -44 10 0 9 3 -5 8 -11 4 -23 19 -26 32
-6 21 -7 21 -8 4z"/>
<path d="M16781 9524 c0 -11 3 -14 6 -6 3 7 2 16 -1 19 -3 4 -6 -2 -5 -13z"/>
<path d="M18483 9528 c-13 -6 -23 -19 -23 -30 0 -16 9 -18 70 -18 61 0 70 2
70 18 0 35 -71 52 -117 30z"/>
<path d="M2270 9490 c0 -5 5 -10 10 -10 6 0 10 5 10 10 0 6 -4 10 -10 10 -5 0
-10 -4 -10 -10z"/>
<path d="M18910 9484 c0 -9 5 -14 12 -12 18 6 21 28 4 28 -9 0 -16 -7 -16 -16z"/>
<path d="M3200 4960 l0 -860 7175 0 7175 0 0 860 0 860 -7175 0 -7175 0 0
-860z m4310 0 l0 -750 -2100 0 -2100 0 0 750 0 750 2100 0 2100 0 0 -750z
m8834 482 c33 -12 63 -25 68 -30 4 -4 2 -25 -4 -45 -9 -28 -16 -37 -27 -33 -9
3 -43 15 -76 27 -50 18 -76 20 -160 17 -83 -3 -108 -8 -151 -30 -57 -30 -113
-87 -144 -147 -69 -137 -66 -368 7 -503 33 -61 80 -103 153 -137 49 -23 67
-26 160 -25 83 1 117 5 160 22 69 28 76 27 84 -2 3 -13 8 -31 12 -39 4 -11
-12 -21 -63 -38 -58 -21 -87 -24 -198 -24 -111 1 -138 4 -186 23 -124 49 -210
146 -254 285 -47 148 -33 350 32 470 56 102 135 171 245 213 56 21 76 24 173
21 80 -3 126 -10 169 -25z m-5990 3 c175 -37 256 -128 256 -288 0 -43 -6 -92
-14 -111 -22 -52 -70 -100 -131 -130 -51 -25 -55 -29 -43 -46 108 -150 248
-372 248 -393 0 -4 -22 -7 -49 -7 l-49 0 -51 88 c-29 48 -88 138 -133 201
l-81 114 -75 -7 c-41 -3 -97 -6 -124 -6 l-48 0 0 -195 0 -195 -50 0 -50 0 0
480 c0 391 2 482 13 486 62 23 287 29 381 9z m3287 1 c123 -26 209 -87 247
-175 10 -22 16 -67 16 -116 2 -142 -56 -222 -193 -273 -54 -20 -93 -25 -216
-31 l-150 -6 -3 -187 -2 -188 -45 0 -45 0 0 479 c0 323 3 482 10 486 38 23
289 30 381 11z m-5584 -181 c51 -99 127 -256 169 -350 43 -93 80 -173 84 -178
3 -4 55 99 114 228 60 129 139 290 176 357 l67 123 41 3 c39 3 41 2 46 -30 13
-84 44 -495 62 -820 l6 -128 -49 0 -50 0 -7 183 c-7 196 -23 455 -35 564 l-7
68 -56 -110 c-72 -142 -258 -542 -258 -555 0 -6 -22 -10 -50 -10 -29 0 -50 5
-50 11 0 15 -158 355 -243 524 l-71 140 -7 -75 c-10 -104 -27 -383 -35 -577
l-7 -163 -48 0 -47 0 4 73 c2 39 11 187 20 327 8 140 22 323 30 405 7 83 14
156 14 163 0 9 13 12 47 10 l47 -3 93 -180z m1407 93 c68 -148 152 -354 257
-630 l97 -258 -53 0 -53 0 -48 133 -49 132 -240 0 -239 0 -47 -130 -47 -130
-51 -3 -51 -3 36 98 c72 200 195 512 254 648 34 77 71 161 82 188 20 46 22 47
65 47 l44 0 43 -92z m1466 -133 c0 -124 4 -225 9 -225 5 0 111 101 236 225
l228 225 56 0 56 -1 -234 -230 c-129 -127 -230 -234 -225 -238 5 -4 38 -30 74
-57 130 -98 349 -335 399 -431 11 -22 10 -23 -42 -23 l-54 0 -38 56 c-83 120
-256 293 -377 375 -96 66 -88 83 -88 -190 l0 -241 -45 0 -45 0 0 490 0 490 45
0 45 0 0 -225z m1320 185 l0 -40 -235 0 -235 0 0 -170 0 -170 210 0 210 0 0
-45 0 -45 -210 0 -210 0 0 -195 0 -195 255 0 255 0 0 -40 0 -40 -300 0 -300 0
0 490 0 490 280 0 280 0 0 -40z m840 0 l0 -40 -155 0 -155 0 0 -450 0 -450
-50 0 -50 0 0 450 0 450 -155 0 -155 0 0 40 0 40 360 0 360 0 0 -40z m1090
-410 l0 -450 230 0 230 0 0 -40 0 -40 -275 0 -275 0 0 490 0 490 45 0 45 0 0
-450z m1085 323 c81 -179 335 -824 335 -850 0 -2 -24 -3 -52 -1 l-53 3 -32 90
c-19 50 -40 109 -49 133 l-16 42 -238 0 -238 0 -48 -135 -49 -135 -47 0 c-27
0 -48 3 -48 8 0 23 226 605 298 767 102 229 86 205 135 205 l44 0 58 -127z
m1895 87 l0 -40 -232 -2 -233 -3 -3 -167 -2 -168 210 0 210 0 0 -45 0 -45
-210 0 -210 0 2 -192 3 -193 253 -3 252 -2 0 -40 0 -40 -300 0 -300 0 0 490 0
490 280 0 280 0 0 -40z"/>
<path d="M4877 5459 c-156 -37 -289 -171 -332 -334 -20 -78 -20 -252 1 -330
51 -198 199 -322 408 -341 334 -30 562 228 518 584 -34 268 -215 434 -470 431
-48 -1 -104 -5 -125 -10z m270 -185 c65 -40 108 -106 129 -200 42 -191 -19
-374 -148 -438 -66 -33 -179 -36 -244 -7 -82 37 -139 118 -163 229 -32 152 8
306 103 389 59 52 94 63 193 59 70 -2 88 -6 130 -32z"/>
<path d="M5755 5449 c-33 -5 -66 -11 -72 -14 -10 -3 -13 -110 -13 -485 l0
-480 90 0 90 0 0 170 c0 170 0 170 23 170 87 1 262 23 309 39 138 47 199 127
206 267 8 144 -37 228 -151 285 -32 17 -93 37 -134 45 -81 15 -252 17 -348 3z
m372 -172 c59 -31 87 -100 73 -177 -16 -89 -96 -130 -257 -130 l-93 0 0 166 0
166 123 -4 c91 -3 130 -8 154 -21z"/>
<path d="M3550 4960 l0 -490 85 0 85 0 0 215 0 215 215 0 215 0 0 -215 0 -215
90 0 90 0 0 490 0 490 -90 0 -90 0 0 -195 0 -195 -215 0 -215 0 0 195 0 195
-85 0 -85 0 0 -490z"/>
<path d="M6560 4960 l0 -490 330 0 330 0 0 75 0 75 -245 0 -246 0 3 143 3 142
203 3 203 2 -3 73 -3 72 -203 3 -203 2 3 118 3 117 228 3 227 2 0 75 0 75
-315 0 -315 0 0 -490z"/>
<path d="M10060 5160 l0 -210 128 0 c183 0 265 30 307 111 24 45 20 156 -8
201 -51 84 -117 108 -297 108 l-130 0 0 -210z"/>
<path d="M13345 5358 c-3 -7 -4 -106 -3 -218 l3 -205 130 1 c72 0 148 6 171
12 90 26 147 87 158 172 13 98 -22 169 -108 216 -48 27 -59 29 -198 32 -119 3
-149 2 -153 -10z"/>
<path d="M9355 5294 c-64 -153 -93 -225 -136 -338 -27 -70 -49 -130 -49 -132
0 -2 92 -4 205 -4 113 0 205 3 205 8 0 22 -184 478 -201 496 -4 5 -15 -9 -24
-30z"/>
<path d="M15106 5212 c-27 -64 -73 -179 -102 -254 l-52 -138 209 0 208 0 -29
80 c-16 43 -55 141 -86 217 -31 76 -63 155 -72 176 -8 20 -18 37 -21 37 -3 0
-28 -53 -55 -118z"/>
</g>
</svg>
