<?xml version="1.0" encoding="UTF-8" standalone="no" ?>
<!DOCTYPE svg PUBLIC "-//W3C//DTD SVG 1.1//EN" "http://www.w3.org/Graphics/SVG/1.1/DTD/svg11.dtd">
<svg xmlns="http://www.w3.org/2000/svg" xmlns:xlink="http://www.w3.org/1999/xlink" version="1.1" width="1080" height="1080" viewBox="0 0 1080 1080" xml:space="preserve">
<desc>Created with Fabric.js 5.2.4</desc>
<defs>
</defs>
<g transform="matrix(1 0 0 1 540 540)" id="15b1bd0f-12ce-41ff-9094-24596e72a214"  >
<rect style="stroke: none; stroke-width: 1; stroke-dasharray: none; stroke-linecap: butt; stroke-dashoffset: 0; stroke-linejoin: miter; stroke-miterlimit: 4; fill: rgb(255,255,255); fill-rule: nonzero; opacity: 1; visibility: hidden;" vector-effect="non-scaling-stroke"  x="-540" y="-540" rx="0" ry="0" width="1080" height="1080" />
</g>
<g transform="matrix(1 0 0 1 540 540)" id="d74eb186-943e-4560-9823-205639424a57"  >
</g>
<g transform="matrix(0.13 0 0 -0.13 635.64 824.4)"  >
<path style="stroke: none; stroke-width: 1; stroke-dasharray: none; stroke-linecap: butt; stroke-dashoffset: 0; stroke-linejoin: miter; stroke-miterlimit: 4; fill: rgb(0,0,0); fill-rule: nonzero; opacity: 1;" vector-effect="non-scaling-stroke"  transform=" translate(-10375, -4960)" d="M 3200 4960 L 3200 4100 L 10375 4100 L 17550 4100 L 17550 4960 L 17550 5820 L 10375 5820 L 3200 5820 L 3200 4960 z M 7510 4960 L 7510 4210 L 5410 4210 L 3310 4210 L 3310 4960 L 3310 5710 L 5410 5710 L 7510 5710 L 7510 4960 z M 16344 5442 C 16377 5430 16407 5417 16412 5412 C 16416 5408 16414 5387 16408 5367 C 16399 5339 16392 5330 16381 5334 C 16372 5337 16338 5349 16305 5361 C 16255 5379 16229 5381 16145 5378 C 16062 5375 16037 5370 15994 5348 C 15937 5318 15881 5261 15850 5201 C 15781 5064 15784 4833 15857 4698 C 15890 4637 15937 4595 16010 4561 C 16059 4538 16077 4535 16170 4536 C 16253 4537 16287 4541 16330 4558 C 16399 4586 16406 4585 16414 4556 C 16417 4543 16422 4525 16426 4517 C 16430 4506 16414 4496 16363 4479 C 16305 4458 16276 4455 16165 4455 C 16054 4456 16027 4459 15979 4478 C 15855 4527 15769 4624 15725 4763 C 15678 4911 15692 5113 15757 5233 C 15813 5335 15892 5404 16002 5446 C 16058 5467 16078 5470 16175 5467 C 16255 5464 16301 5457 16344 5442 z M 10354 5445 C 10529 5408 10610 5317 10610 5157 C 10610 5114 10604 5065 10596 5046 C 10574 4994 10526 4946 10465 4916 C 10414 4891 10410 4887 10422 4870 C 10530 4720 10670 4498 10670 4477 C 10670 4473 10648 4470 10621 4470 L 10572 4470 L 10521 4558 C 10492 4606 10433 4696 10388 4759 L 10307 4873 L 10232 4866 C 10191 4863 10135 4860 10108 4860 L 10060 4860 L 10060 4665 L 10060 4470 L 10010 4470 L 9960 4470 L 9960 4950 C 9960 5341 9962 5432 9973 5436 C 10035 5459 10260 5465 10354 5445 z M 13641 5446 C 13764 5420 13850 5359 13888 5271 C 13898 5249 13904 5204 13904 5155 C 13906 5013 13848 4933 13711 4882 C 13657 4862 13618 4857 13495 4851 L 13345 4845 L 13342 4658 L 13340 4470 L 13295 4470 L 13250 4470 L 13250 4949 C 13250 5272 13253 5431 13260 5435 C 13298 5458 13549 5465 13641 5446 z M 8057 5265 C 8108 5166 8184 5009 8226 4915 C 8269 4822 8306 4742 8310 4737 C 8313 4733 8365 4836 8424 4965 C 8484 5094 8563 5255 8600 5322 L 8667 5445 L 8708 5448 C 8747 5451 8749 5450 8754 5418 C 8767 5334 8798 4923 8816 4598 L 8822 4470 L 8773 4470 L 8723 4470 L 8716 4653 C 8709 4849 8693 5108 8681 5217 L 8674 5285 L 8618 5175 C 8546 5033 8360 4633 8360 4620 C 8360 4614 8338 4610 8310 4610 C 8281 4610 8260 4615 8260 4621 C 8260 4636 8102 4976 8017 5145 L 7946 5285 L 7939 5210 C 7929 5106 7912 4827 7904 4633 L 7897 4470 L 7849 4470 L 7802 4470 L 7806 4543 C 7808 4582 7817 4730 7826 4870 C 7834 5010 7848 5193 7856 5275 C 7863 5358 7870 5431 7870 5438 C 7870 5447 7883 5450 7917 5448 L 7964 5445 L 8057 5265 z M 9464 5358 C 9532 5210 9616 5004 9721 4728 L 9818 4470 L 9765 4470 L 9712 4470 L 9664 4603 L 9615 4735 L 9375 4735 L 9136 4735 L 9089 4605 L 9042 4475 L 8991 4472 L 8940 4469 L 8976 4567 C 9048 4767 9171 5079 9230 5215 C 9264 5292 9301 5376 9312 5403 C 9332 5449 9334 5450 9377 5450 L 9421 5450 L 9464 5358 z M 10930 5225 C 10930 5101 10934 5000 10939 5000 C 10944 5000 11050 5101 11175 5225 L 11403 5450 L 11459 5450 L 11515 5449 L 11281 5219 C 11152 5092 11051 4985 11056 4981 C 11061 4977 11094 4951 11130 4924 C 11260 4826 11479 4589 11529 4493 C 11540 4471 11539 4470 11487 4470 L 11433 4470 L 11395 4526 C 11312 4646 11139 4819 11018 4901 C 10922 4967 10930 4984 10930 4711 L 10930 4470 L 10885 4470 L 10840 4470 L 10840 4960 L 10840 5450 L 10885 5450 L 10930 5450 L 10930 5225 z M 12250 5410 L 12250 5370 L 12015 5370 L 11780 5370 L 11780 5200 L 11780 5030 L 11990 5030 L 12200 5030 L 12200 4985 L 12200 4940 L 11990 4940 L 11780 4940 L 11780 4745 L 11780 4550 L 12035 4550 L 12290 4550 L 12290 4510 L 12290 4470 L 11990 4470 L 11690 4470 L 11690 4960 L 11690 5450 L 11970 5450 L 12250 5450 L 12250 5410 z M 13090 5410 L 13090 5370 L 12935 5370 L 12780 5370 L 12780 4920 L 12780 4470 L 12730 4470 L 12680 4470 L 12680 4920 L 12680 5370 L 12525 5370 L 12370 5370 L 12370 5410 L 12370 5450 L 12730 5450 L 13090 5450 L 13090 5410 z M 14180 5000 L 14180 4550 L 14410 4550 L 14640 4550 L 14640 4510 L 14640 4470 L 14365 4470 L 14090 4470 L 14090 4960 L 14090 5450 L 14135 5450 L 14180 5450 L 14180 5000 z M 15265 5323 C 15346 5144 15600 4499 15600 4473 C 15600 4471 15576 4470 15548 4472 L 15495 4475 L 15463 4565 C 15444 4615 15423 4674 15414 4698 L 15398 4740 L 15160 4740 L 14922 4740 L 14874 4605 L 14825 4470 L 14778 4470 C 14751 4470 14730 4473 14730 4478 C 14730 4501 14956 5083 15028 5245 C 15130 5474 15114 5450 15163 5450 L 15207 5450 L 15265 5323 z M 17160 5410 L 17160 5370 L 16928 5368 L 16695 5365 L 16692 5198 L 16690 5030 L 16900 5030 L 17110 5030 L 17110 4985 L 17110 4940 L 16900 4940 L 16690 4940 L 16692 4748 L 16695 4555 L 16948 4552 L 17200 4550 L 17200 4510 L 17200 4470 L 16900 4470 L 16600 4470 L 16600 4960 L 16600 5450 L 16880 5450 L 17160 5450 L 17160 5410 z" stroke-linecap="round" />
</g>
<g transform="matrix(0.13 0 0 -0.13 -80.53 824.35)"  >
<path style="stroke: none; stroke-width: 1; stroke-dasharray: none; stroke-linecap: butt; stroke-dashoffset: 0; stroke-linejoin: miter; stroke-miterlimit: 4; fill: rgb(0,0,0); fill-rule: nonzero; opacity: 1;" vector-effect="non-scaling-stroke"  transform=" translate(-5003.78, -4960.33)" d="M 4877 5459 C 4721 5422 4588 5288 4545 5125 C 4525 5047 4525 4873 4546 4795 C 4597 4597 4745 4473 4954 4454 C 5288 4424 5516 4682 5472 5038 C 5438 5306 5257 5472 5002 5469 C 4954 5468 4898 5464 4877 5459 z M 5147 5274 C 5212 5234 5255 5168 5276 5074 C 5318 4883 5257 4700 5128 4636 C 5062 4603 4949 4600 4884 4629 C 4802 4666 4745 4747 4721 4858 C 4689 5010 4729 5164 4824 5247 C 4883 5299 4918 5310 5017 5306 C 5087 5304 5105 5300 5147 5274 z" stroke-linecap="round" />
</g>
<g transform="matrix(0.13 0 0 -0.13 56.23 823.83)"  >
<path style="stroke: none; stroke-width: 1; stroke-dasharray: none; stroke-linecap: butt; stroke-dashoffset: 0; stroke-linejoin: miter; stroke-miterlimit: 4; fill: rgb(0,0,0); fill-rule: nonzero; opacity: 1;" vector-effect="non-scaling-stroke"  transform=" translate(-6029.45, -4964.23)" d="M 5755 5449 C 5722 5444 5689 5438 5683 5435 C 5673 5432 5670 5325 5670 4950 L 5670 4470 L 5760 4470 L 5850 4470 L 5850 4640 C 5850 4810 5850 4810 5873 4810 C 5960 4811 6135 4833 6182 4849 C 6320 4896 6381 4976 6388 5116 C 6396 5260 6351 5344 6237 5401 C 6205 5418 6144 5438 6103 5446 C 6022 5461 5851 5463 5755 5449 z M 6127 5277 C 6186 5246 6214 5177 6200 5100 C 6184 5011 6104 4970 5943 4970 L 5850 4970 L 5850 5136 L 5850 5302 L 5973 5298 C 6064 5295 6103 5290 6127 5277 z" stroke-linecap="round" />
</g>
<g transform="matrix(0.13 0 0 -0.13 -222.36 824.4)"  >
<path style="stroke: none; stroke-width: 1; stroke-dasharray: none; stroke-linecap: butt; stroke-dashoffset: 0; stroke-linejoin: miter; stroke-miterlimit: 4; fill: rgb(0,0,0); fill-rule: nonzero; opacity: 1;" vector-effect="non-scaling-stroke"  transform=" translate(-3940, -4960)" d="M 3550 4960 L 3550 4470 L 3635 4470 L 3720 4470 L 3720 4685 L 3720 4900 L 3935 4900 L 4150 4900 L 4150 4685 L 4150 4470 L 4240 4470 L 4330 4470 L 4330 4960 L 4330 5450 L 4240 5450 L 4150 5450 L 4150 5255 L 4150 5060 L 3935 5060 L 3720 5060 L 3720 5255 L 3720 5450 L 3635 5450 L 3550 5450 L 3550 4960 z" stroke-linecap="round" />
</g>
<g transform="matrix(0.13 0 0 -0.13 170.97 824.4)"  >
<path style="stroke: none; stroke-width: 1; stroke-dasharray: none; stroke-linecap: butt; stroke-dashoffset: 0; stroke-linejoin: miter; stroke-miterlimit: 4; fill: rgb(0,0,0); fill-rule: nonzero; opacity: 1;" vector-effect="non-scaling-stroke"  transform=" translate(-6890, -4960)" d="M 6560 4960 L 6560 4470 L 6890 4470 L 7220 4470 L 7220 4545 L 7220 4620 L 6975 4620 L 6729 4620 L 6732 4763 L 6735 4905 L 6938 4908 L 7141 4910 L 7138 4983 L 7135 5055 L 6932 5058 L 6729 5060 L 6732 5178 L 6735 5295 L 6963 5298 L 7190 5300 L 7190 5375 L 7190 5450 L 6875 5450 L 6560 5450 L 6560 4960 z" stroke-linecap="round" />
</g>
<g transform="matrix(0.13 0 0 -0.13 623.69 797.73)"  >
<path style="stroke: none; stroke-width: 1; stroke-dasharray: none; stroke-linecap: butt; stroke-dashoffset: 0; stroke-linejoin: miter; stroke-miterlimit: 4; fill: rgb(0,0,0); fill-rule: nonzero; opacity: 1;" vector-effect="non-scaling-stroke"  transform=" translate(-10285.38, -5160)" d="M 10060 5160 L 10060 4950 L 10188 4950 C 10371 4950 10453 4980 10495 5061 C 10519 5106 10515 5217 10487 5262 C 10436 5346 10370 5370 10190 5370 L 10060 5370 L 10060 5160 z" stroke-linecap="round" />
</g>
<g transform="matrix(0.13 0 0 -0.13 1062.19 798.77)"  >
<path style="stroke: none; stroke-width: 1; stroke-dasharray: none; stroke-linecap: butt; stroke-dashoffset: 0; stroke-linejoin: miter; stroke-miterlimit: 4; fill: rgb(0,0,0); fill-rule: nonzero; opacity: 1;" vector-effect="non-scaling-stroke"  transform=" translate(-13574.13, -5152.22)" d="M 13345 5358 C 13342 5351 13341 5252 13342 5140 L 13345 4935 L 13475 4936 C 13547 4936 13623 4942 13646 4948 C 13736 4974 13793 5035 13804 5120 C 13817 5218 13782 5289 13696 5336 C 13648 5363 13637 5365 13498 5368 C 13379 5371 13349 5370 13345 5358 z" stroke-linecap="round" />
</g>
<g transform="matrix(0.13 0 0 -0.13 502.3 809.4)"  >
<path style="stroke: none; stroke-width: 1; stroke-dasharray: none; stroke-linecap: butt; stroke-dashoffset: 0; stroke-linejoin: miter; stroke-miterlimit: 4; fill: rgb(0,0,0); fill-rule: nonzero; opacity: 1;" vector-effect="non-scaling-stroke"  transform=" translate(-9375, -5072.51)" d="M 9355 5294 C 9291 5141 9262 5069 9219 4956 C 9192 4886 9170 4826 9170 4824 C 9170 4822 9262 4820 9375 4820 C 9488 4820 9580 4823 9580 4828 C 9580 4850 9396 5306 9379 5324 C 9375 5329 9364 5315 9355 5294 z" stroke-linecap="round" />
</g>
<g transform="matrix(0.13 0 0 -0.13 1273.7 809.06)"  >
<path style="stroke: none; stroke-width: 1; stroke-dasharray: none; stroke-linecap: butt; stroke-dashoffset: 0; stroke-linejoin: miter; stroke-miterlimit: 4; fill: rgb(0,0,0); fill-rule: nonzero; opacity: 1;" vector-effect="non-scaling-stroke"  transform=" translate(-15160.5, -5075)" d="M 15106 5212 C 15079 5148 15033 5033 15004 4958 L 14952 4820 L 15161 4820 L 15369 4820 L 15340 4900 C 15324 4943 15285 5041 15254 5117 C 15223 5193 15191 5272 15182 5293 C 15174 5313 15164 5330 15161 5330 C 15158 5330 15133 5277 15106 5212 z" stroke-linecap="round" />
</g>
</svg>