<?xml version="1.0" standalone="no"?>
<!DOCTYPE svg PUBLIC "-//W3C//DTD SVG 20010904//EN"
 "http://www.w3.org/TR/2001/REC-SVG-20010904/DTD/svg10.dtd">
<svg version="1.0" xmlns="http://www.w3.org/2000/svg"
 width="1259.000000pt" height="367.000000pt" viewBox="0 0 1259.000000 367.000000"
 preserveAspectRatio="xMidYMid meet">

<g transform="translate(0.000000,367.000000) scale(0.100000,-0.100000)"
fill="#000000" stroke="none">
<path d="M0 1835 l0 -1835 6285 0 6285 0 0 1835 0 1835 -6285 0 -6285 0 0
-1835z m4344 948 c-3 -14 -116 -649 -360 -2021 l-6 -32 -1219 0 c-671 0 -1219
3 -1219 8 -1 4 81 469 182 1035 l183 1027 1222 0 c1158 0 1221 -1 1217 -17z
m6672 -10 c-3 -16 -83 -458 -176 -983 -94 -525 -175 -979 -181 -1008 l-10 -52
-3300 0 -3299 0 5 22 c6 25 365 2035 365 2043 0 3 1485 5 3301 5 l3301 0 -6
-27z"/>
<path d="M2090 1766 l0 -846 850 0 850 0 0 846 0 846 -247 -5 c-144 -3 -265
-10 -288 -17 -99 -29 -179 -65 -244 -111 l-71 -50 -53 40 c-59 45 -161 95
-239 118 -39 11 -121 17 -305 20 l-253 5 0 -846z m509 719 c76 -18 173 -65
226 -109 l38 -32 -46 -50 c-182 -197 -229 -389 -132 -540 66 -103 182 -152
311 -132 99 15 176 72 226 168 19 38 23 60 23 135 -1 80 -4 98 -32 157 -34 74
-61 112 -139 204 l-53 61 42 32 c61 46 157 91 229 107 38 8 128 13 226 14
l162 0 0 -735 0 -735 -740 0 -740 0 0 735 0 735 168 0 c113 0 188 -5 231 -15z
m387 -267 c50 -54 90 -110 120 -168 39 -75 41 -179 5 -232 -67 -97 -198 -121
-289 -52 -120 92 -102 235 53 423 28 34 57 61 66 61 8 0 29 -15 45 -32z"/>
<path d="M7780 1820 l0 -260 55 0 55 0 0 81 c0 77 1 80 22 77 16 -2 34 -24 64
-78 l41 -75 61 -3 61 -3 -54 93 c-30 50 -59 96 -64 101 -6 6 11 34 41 71 78
97 78 96 13 96 l-55 0 -47 -65 c-28 -39 -54 -65 -65 -65 -17 0 -18 11 -18 145
l0 145 -55 0 -55 0 0 -260z"/>
<path d="M9240 1820 l0 -260 50 0 50 0 0 260 0 260 -50 0 -50 0 0 -260z"/>
<path d="M4610 1815 l0 -255 55 0 54 0 3 108 3 107 103 3 102 3 0 -111 0 -110
60 0 60 0 0 255 0 256 -57 -3 -58 -3 -3 -108 -3 -108 -102 3 -102 3 -3 108 -3
107 -54 0 -55 0 0 -255z"/>
<path d="M6460 1815 l0 -255 50 0 50 0 2 171 3 170 73 -140 c73 -140 74 -141
108 -141 40 0 44 5 130 173 30 59 56 107 57 107 1 0 1 -76 -1 -170 l-3 -170
51 0 50 0 0 255 0 255 -47 0 c-27 0 -53 -4 -60 -8 -6 -4 -48 -79 -94 -166
l-82 -159 -80 159 c-44 87 -85 162 -91 166 -6 4 -35 8 -63 8 l-53 0 0 -255z"/>
<path d="M8607 2015 c-9 -8 -18 -32 -22 -54 -5 -34 -11 -41 -36 -46 -24 -5
-29 -12 -29 -36 0 -24 4 -29 25 -29 l25 0 0 -114 c0 -110 1 -116 27 -146 26
-31 29 -32 90 -28 77 5 91 16 68 52 -12 18 -26 26 -45 26 -36 0 -40 12 -40
121 l0 89 45 0 c45 0 45 0 45 35 0 35 0 35 -45 35 l-45 0 0 55 c0 52 -2 55
-24 55 -14 0 -31 -7 -39 -15z"/>
<path d="M5259 1920 c-90 -16 -144 -83 -144 -180 1 -111 72 -180 184 -180 111
0 176 66 176 180 0 71 -20 118 -65 151 -31 23 -103 37 -151 29z m81 -88 c27
-22 39 -109 21 -155 -23 -59 -109 -55 -130 5 -38 109 36 209 109 150z"/>
<path d="M5687 1907 c-46 -24 -48 -24 -58 -6 -7 14 -21 19 -49 19 l-40 0 0
-235 0 -235 55 0 55 0 0 65 c0 62 1 65 19 55 32 -17 103 -12 138 10 95 57 103
257 13 322 -42 30 -80 32 -133 5z m66 -75 c24 -26 31 -99 15 -147 -16 -47 -52
-66 -93 -47 -24 11 -25 15 -25 96 0 76 2 86 22 100 30 21 61 20 81 -2z"/>
<path d="M6052 1918 c-59 -13 -106 -62 -122 -127 -22 -91 25 -191 103 -220 46
-18 133 -13 177 9 50 25 52 31 30 60 l-18 24 -50 -17 c-58 -21 -94 -15 -122
20 -37 48 -30 52 93 55 l112 3 0 52 c-1 104 -90 165 -203 141z m104 -93 c8
-13 13 -29 9 -35 -3 -5 -35 -10 -71 -10 -70 0 -79 10 -44 48 29 31 84 30 106
-3z"/>
<path d="M7233 1920 c-53 -11 -103 -37 -103 -53 0 -7 6 -22 14 -32 14 -19 16
-19 63 -2 26 9 53 17 60 17 19 0 43 -30 43 -55 0 -20 -7 -24 -47 -30 -58 -8
-123 -35 -143 -60 -8 -9 -15 -35 -15 -57 0 -32 6 -45 30 -65 25 -22 36 -25 86
-21 38 3 65 11 79 23 20 18 21 18 36 -3 11 -16 25 -22 51 -22 l35 0 -4 133
c-4 142 -13 176 -58 208 -32 23 -75 29 -127 19z m77 -239 c0 -32 -13 -46 -50
-56 -63 -15 -79 56 -17 74 57 16 67 14 67 -18z"/>
<path d="M7665 1921 c-11 -5 -29 -18 -39 -30 -24 -27 -34 -27 -38 2 -2 18 -10
23 -45 25 l-43 3 0 -180 0 -181 50 0 50 0 0 114 c0 112 1 115 26 135 15 12 41
21 59 21 31 0 34 3 40 41 9 54 -10 70 -60 50z"/>
<path d="M8290 1920 c-52 -9 -95 -38 -118 -79 -29 -53 -33 -84 -21 -141 12
-59 49 -107 96 -126 48 -21 137 -18 183 6 50 25 52 31 30 60 l-18 24 -50 -17
c-58 -21 -94 -15 -122 20 -37 48 -30 52 93 55 l112 3 3 30 c12 103 -80 184
-188 165z m84 -92 c29 -41 21 -48 -54 -48 -38 0 -70 3 -70 6 0 11 23 49 34 56
24 16 75 8 90 -14z"/>
<path d="M8994 1919 c-17 -5 -37 -16 -44 -24 -17 -20 -27 -19 -33 5 -4 16 -14
20 -46 20 l-41 0 0 -235 0 -235 50 0 50 0 0 66 c0 59 2 65 18 58 9 -4 40 -9
69 -12 47 -3 54 -1 91 32 48 43 67 103 59 180 -12 116 -80 173 -173 145z m41
-83 c15 -11 20 -30 23 -84 4 -65 2 -73 -21 -96 -30 -30 -53 -33 -85 -10 -19
13 -22 24 -22 87 0 77 4 87 35 105 27 15 47 15 70 -2z"/>
<path d="M9535 1921 c-90 -25 -112 -45 -85 -81 l18 -24 52 18 c55 20 100 12
100 -18 0 -8 2 -21 6 -29 4 -11 -7 -16 -48 -21 -81 -11 -136 -39 -152 -78 -18
-43 -10 -83 22 -108 34 -27 116 -27 156 0 30 19 30 19 43 -1 10 -12 26 -19 49
-19 l34 0 0 128 c0 139 -11 179 -60 214 -30 21 -93 30 -135 19z m95 -240 c0
-51 -97 -80 -114 -34 -8 21 20 51 53 56 59 9 61 8 61 -22z"/>
<path d="M9923 1919 c-53 -10 -85 -33 -113 -82 -47 -82 -15 -218 60 -258 47
-25 129 -25 180 1 49 25 52 30 30 58 -22 26 -30 27 -67 5 -63 -36 -117 11
-117 103 0 88 53 126 124 89 27 -14 30 -14 50 7 26 28 25 34 -5 54 -35 23 -91
32 -142 23z"/>
<path d="M10270 1920 c-88 -15 -141 -81 -141 -174 0 -87 37 -150 104 -175 42
-16 134 -13 173 5 50 24 58 37 35 65 l-19 24 -50 -18 c-72 -26 -118 -9 -136
50 -7 22 -6 22 106 25 l113 3 3 39 c8 100 -81 174 -188 156z m84 -92 c29 -41
21 -48 -54 -48 -38 0 -70 3 -70 6 0 11 23 49 34 56 24 16 75 8 90 -14z"/>
</g>
</svg>
