<svg version="1.1" id="Layer_1" xmlns="http://www.w3.org/2000/svg" xmlns:xlink="http://www.w3.org/1999/xlink" x="0px" y="0px"
	 width="100%" viewBox="0 0 400 400" enable-background="new 0 0 400 400" xml:space="preserve">
<path fill="#000000" opacity="1.000000" stroke="none" 
	d="
M229.000000,401.000000 
	C152.690353,401.000000 76.880722,401.000000 1.035541,401.000000 
	C1.035541,267.732025 1.035541,134.464050 1.035541,1.098030 
	C134.226257,1.098030 267.452606,1.098030 400.839478,1.098030 
	C400.839478,134.333176 400.839478,267.666565 400.839478,401.000000 
	C343.797455,401.000000 286.648712,401.000000 229.000000,401.000000 
M256.339203,252.068024 
	C255.574829,252.382309 254.745743,252.593765 254.056595,253.027557 
	C249.503891,255.893402 247.700150,260.819153 249.428116,265.514313 
	C251.159134,270.217834 255.934296,272.898407 261.048462,272.037476 
	C265.521759,271.284424 269.081757,267.258881 269.322998,262.680817 
	C269.608398,257.265015 266.675568,253.567200 260.068451,251.587189 
	C260.349274,251.048172 260.630096,250.509155 261.816467,250.167313 
	C263.815155,250.143967 265.822571,250.231995 267.810974,250.076920 
	C274.420410,249.561432 280.224457,245.117249 281.936371,239.132690 
	C283.834412,232.497665 281.934723,226.800064 276.596405,222.657043 
	C273.659454,220.377686 270.008179,219.018753 266.424896,217.109467 
	C271.266815,198.102554 276.216156,178.674042 281.207703,159.079834 
	C247.062592,159.079834 213.496964,159.079834 179.820862,159.079834 
	C179.820862,161.482071 179.820862,163.589539 179.820862,166.135330 
	C210.439026,166.135330 240.846497,166.135330 271.840576,166.135330 
	C267.355042,183.692474 263.011108,200.695297 258.684448,217.630585 
	C231.324921,217.630585 204.404877,217.630585 177.472443,217.630585 
	C170.872803,192.901398 164.397156,168.462738 157.753510,144.069855 
	C157.216324,142.097443 155.875168,139.292892 154.316513,138.818970 
	C143.526764,135.538208 132.580261,132.772980 121.297653,129.738266 
	C120.645676,132.245361 120.086128,134.397049 119.467606,136.775528 
	C128.544876,139.236053 137.143494,141.842804 145.886551,143.806519 
	C149.597488,144.639984 150.989761,146.487167 151.879959,149.875229 
	C158.052490,173.367966 164.528961,196.782013 170.529526,220.317764 
	C171.602051,224.524551 173.396942,225.278183 177.284958,225.256104 
	C205.450516,225.096268 233.617874,225.098068 261.783295,225.269882 
	C264.972534,225.289337 268.361206,226.226837 271.283478,227.558899 
	C274.638184,229.088104 275.638123,232.390564 275.133698,236.033783 
	C274.604095,239.858856 272.111084,241.904495 268.606476,242.673660 
	C266.686066,243.095123 264.629608,242.966171 262.634460,242.967194 
	C234.301300,242.981659 205.968124,242.975861 177.634964,242.974991 
	C175.882507,242.974930 174.130051,242.974960 172.521393,242.974960 
	C172.521393,245.824570 172.521393,247.895294 172.521393,249.970840 
	C177.193771,249.970840 181.509140,249.970840 186.046738,251.067780 
	C185.152451,251.449478 184.259232,251.833694 183.363708,252.212448 
	C178.331863,254.340683 175.787857,258.643372 176.638260,263.589905 
	C177.495987,268.579010 181.174332,271.913696 186.091553,272.160004 
	C191.078201,272.409790 195.224197,269.529633 196.626999,264.841125 
	C198.041000,260.115204 195.938705,255.417648 191.218979,252.756088 
	C190.334610,252.257385 189.450974,251.757385 187.686218,250.760391 
	C189.835236,250.362411 190.910645,250.163269 192.907898,250.156372 
	C211.609695,250.091110 230.311493,250.025848 249.480804,250.163879 
	C250.314133,250.092743 251.147461,250.021606 252.647278,250.131683 
	C253.100372,250.080612 253.553452,250.029541 254.796890,250.208344 
	C255.550156,250.854187 256.303406,251.500031 256.339203,252.068024 
z"/>
<path fill="#F6F6F6" opacity="1.000000" stroke="none" 
	d="
M254.006546,249.978485 
	C253.553452,250.029541 253.100372,250.080612 252.125900,249.805328 
	C250.740784,249.639511 249.877029,249.800049 249.013290,249.960571 
	C230.311493,250.025848 211.609695,250.091110 192.248932,249.835022 
	C189.668137,249.666077 187.746307,249.818451 185.824493,249.970825 
	C181.509140,249.970840 177.193771,249.970840 172.521393,249.970840 
	C172.521393,247.895294 172.521393,245.824570 172.521393,242.974960 
	C174.130051,242.974960 175.882507,242.974930 177.634964,242.974991 
	C205.968124,242.975861 234.301300,242.981659 262.634460,242.967194 
	C264.629608,242.966171 266.686066,243.095123 268.606476,242.673660 
	C272.111084,241.904495 274.604095,239.858856 275.133698,236.033783 
	C275.638123,232.390564 274.638184,229.088104 271.283478,227.558899 
	C268.361206,226.226837 264.972534,225.289337 261.783295,225.269882 
	C233.617874,225.098068 205.450516,225.096268 177.284958,225.256104 
	C173.396942,225.278183 171.602051,224.524551 170.529526,220.317764 
	C164.528961,196.782013 158.052490,173.367966 151.879959,149.875229 
	C150.989761,146.487167 149.597488,144.639984 145.886551,143.806519 
	C137.143494,141.842804 128.544876,139.236053 119.467606,136.775528 
	C120.086128,134.397049 120.645676,132.245361 121.297653,129.738266 
	C132.580261,132.772980 143.526764,135.538208 154.316513,138.818970 
	C155.875168,139.292892 157.216324,142.097443 157.753510,144.069855 
	C164.397156,168.462738 170.872803,192.901398 177.472443,217.630585 
	C204.404877,217.630585 231.324921,217.630585 258.684448,217.630585 
	C263.011108,200.695297 267.355042,183.692474 271.840576,166.135330 
	C240.846497,166.135330 210.439026,166.135330 179.820862,166.135330 
	C179.820862,163.589539 179.820862,161.482071 179.820862,159.079834 
	C213.496964,159.079834 247.062592,159.079834 281.207703,159.079834 
	C276.216156,178.674042 271.266815,198.102554 266.424896,217.109467 
	C270.008179,219.018753 273.659454,220.377686 276.596405,222.657043 
	C281.934723,226.800064 283.834412,232.497665 281.936371,239.132690 
	C280.224457,245.117249 274.420410,249.561432 267.810974,250.076920 
	C265.822571,250.231995 263.815155,250.143967 260.979950,250.073517 
	C258.097809,249.979324 256.052185,249.978897 254.006546,249.978485 
z"/>
<path fill="#F5F5F5" opacity="1.000000" stroke="none" 
	d="
M185.935608,250.519302 
	C187.746307,249.818451 189.668137,249.666077 191.787994,249.738892 
	C190.910645,250.163269 189.835236,250.362411 187.686218,250.760391 
	C189.450974,251.757385 190.334610,252.257385 191.218979,252.756088 
	C195.938705,255.417648 198.041000,260.115204 196.626999,264.841125 
	C195.224197,269.529633 191.078201,272.409790 186.091553,272.160004 
	C181.174332,271.913696 177.495987,268.579010 176.638260,263.589905 
	C175.787857,258.643372 178.331863,254.340683 183.363708,252.212448 
	C184.259232,251.833694 185.152451,251.449478 185.935608,250.519302 
z"/>
<path fill="#F6F6F6" opacity="1.000000" stroke="none" 
	d="
M260.956940,252.132645 
	C266.675568,253.567200 269.608398,257.265015 269.322998,262.680817 
	C269.081757,267.258881 265.521759,271.284424 261.048462,272.037476 
	C255.934296,272.898407 251.159134,270.217834 249.428116,265.514313 
	C247.700150,260.819153 249.503891,255.893402 254.056595,253.027557 
	C254.745743,252.593765 255.574829,252.382309 256.916901,252.336121 
	C258.648712,252.447006 259.802826,252.289825 260.956940,252.132645 
z"/>
<path fill="#F5F5F5" opacity="1.000000" stroke="none" 
	d="
M260.512695,251.859924 
	C259.802826,252.289825 258.648712,252.447006 257.275635,252.375031 
	C256.303406,251.500031 255.550156,250.854187 254.401718,250.093414 
	C256.052185,249.978897 258.097809,249.979324 260.527161,249.974945 
	C260.630096,250.509155 260.349274,251.048172 260.512695,251.859924 
z"/>
<path fill="#F5F5F5" opacity="1.000000" stroke="none" 
	d="
M249.247040,250.062225 
	C249.877029,249.800049 250.740784,249.639511 251.792664,249.714722 
	C251.147461,250.021606 250.314133,250.092743 249.247040,250.062225 
z"/>
</svg>