<svg id="mainsvg" xmlns="http://www.w3.org/2000/svg" xmlns:xlink="http://www.w3.org/1999/xlink" version="1.1" x="0px" y="0px" enable-background="new 0 0 200 162.5" xml:space="preserve" viewBox="0 0 156 22"><path fill="#000" transform="translate(-1.344, 21.376)" d="M1.34-2.72L2.94-4.58Q4.06-3.39 5.58-2.67Q7.10-1.95 8.74-1.95L8.74-1.95Q10.82-1.95 11.97-2.90Q13.12-3.84 13.12-5.38L13.12-5.38Q13.12-6.18 12.85-6.74Q12.58-7.30 12.11-7.70Q11.65-8.10 11.01-8.42Q10.37-8.74 9.63-9.09L9.63-9.09L6.62-10.40Q5.89-10.72 5.12-11.17Q4.35-11.62 3.74-12.26Q3.14-12.90 2.75-13.78Q2.37-14.66 2.37-15.81L2.37-15.81Q2.37-16.99 2.86-18.02Q3.36-19.04 4.24-19.79Q5.12-20.54 6.32-20.96Q7.52-21.38 8.96-21.38L8.96-21.38Q10.85-21.38 12.45-20.66Q14.05-19.94 15.17-18.78L15.17-18.78L13.73-17.06Q12.77-17.98 11.60-18.51Q10.43-19.04 8.96-19.04L8.96-19.04Q7.20-19.04 6.13-18.22Q5.06-17.41 5.06-15.97L5.06-15.97Q5.06-15.20 5.36-14.67Q5.66-14.14 6.18-13.74Q6.69-13.34 7.30-13.04Q7.90-12.74 8.54-12.48L8.54-12.48L11.52-11.20Q12.42-10.82 13.22-10.32Q14.02-9.82 14.59-9.17Q15.17-8.51 15.50-7.63Q15.84-6.75 15.84-5.60L15.84-5.60Q15.84-4.35 15.34-3.26Q14.85-2.18 13.92-1.36Q12.99-0.54 11.68-0.08Q10.37 0.38 8.70 0.38L8.70 0.38Q6.50 0.38 4.61-0.45Q2.72-1.28 1.34-2.72L1.34-2.72ZM18.56-7.74L18.56-7.74Q18.56-9.70 19.15-11.22Q19.74-12.74 20.74-13.79Q21.73-14.85 23.02-15.39Q24.32-15.94 25.76-15.94L25.76-15.94Q27.20-15.94 28.50-15.39Q29.79-14.85 30.78-13.79Q31.78-12.74 32.37-11.22Q32.96-9.70 32.96-7.74L32.96-7.74Q32.96-5.82 32.37-4.30Q31.78-2.78 30.78-1.74Q29.79-0.70 28.50-0.16Q27.20 0.38 25.76 0.38L25.76 0.38Q24.32 0.38 23.02-0.16Q21.73-0.70 20.74-1.74Q19.74-2.78 19.15-4.30Q18.56-5.82 18.56-7.74ZM21.28-7.74L21.28-7.74Q21.28-6.40 21.60-5.31Q21.92-4.22 22.51-3.44Q23.10-2.66 23.94-2.22Q24.77-1.79 25.76-1.79L25.76-1.79Q26.75-1.79 27.58-2.22Q28.42-2.66 29.01-3.44Q29.60-4.22 29.92-5.31Q30.24-6.40 30.24-7.74L30.24-7.74Q30.24-9.09 29.92-10.19Q29.60-11.30 29.01-12.10Q28.42-12.90 27.58-13.33Q26.75-13.76 25.76-13.76L25.76-13.76Q24.77-13.76 23.94-13.33Q23.10-12.90 22.51-12.10Q21.92-11.30 21.60-10.19Q21.28-9.09 21.28-7.74ZM36.83-5.70L36.83-15.55L39.49-15.55L39.49-6.05Q39.49-3.84 40.18-2.86Q40.86-1.89 42.40-1.89L42.40-1.89Q43.62-1.89 44.54-2.51Q45.47-3.14 46.59-4.51L46.59-4.51L46.59-15.55L49.22-15.55L49.22 0L47.04 0L46.82-2.43L46.72-2.43Q45.63-1.15 44.43-0.38Q43.23 0.38 41.60 0.38L41.60 0.38Q39.10 0.38 37.97-1.15Q36.83-2.69 36.83-5.70L36.83-5.70ZM54.46 0L54.46-15.55L56.64-15.55L56.86-12.74L56.96-12.74Q57.76-14.21 58.90-15.07Q60.03-15.94 61.38-15.94L61.38-15.94Q62.30-15.94 63.04-15.62L63.04-15.62L62.53-13.31Q62.14-13.44 61.82-13.50Q61.50-13.57 61.02-13.57L61.02-13.57Q60.03-13.57 58.96-12.77Q57.89-11.97 57.09-9.98L57.09-9.98L57.09 0L54.46 0ZM64.42-7.74L64.42-7.74Q64.42-9.70 65.02-11.22Q65.63-12.74 66.66-13.79Q67.68-14.85 69.04-15.39Q70.40-15.94 71.90-15.94L71.90-15.94Q73.44-15.94 74.54-15.38Q75.65-14.82 76.45-14.08L76.45-14.08L75.14-12.38Q74.43-12.99 73.68-13.38Q72.93-13.76 72-13.76L72-13.76Q70.94-13.76 70.05-13.33Q69.15-12.90 68.51-12.10Q67.87-11.30 67.50-10.19Q67.14-9.09 67.14-7.74L67.14-7.74Q67.14-6.40 67.49-5.31Q67.84-4.22 68.46-3.44Q69.09-2.66 69.98-2.22Q70.88-1.79 71.94-1.79L71.94-1.79Q73.06-1.79 73.97-2.26Q74.88-2.72 75.58-3.36L75.58-3.36L76.77-1.63Q75.71-0.70 74.42-0.16Q73.12 0.38 71.71 0.38L71.71 0.38Q70.18 0.38 68.83-0.16Q67.49-0.70 66.51-1.74Q65.54-2.78 64.98-4.30Q64.42-5.82 64.42-7.74ZM79.01-7.74L79.01-7.74Q79.01-9.66 79.60-11.18Q80.19-12.70 81.17-13.76Q82.14-14.82 83.39-15.38Q84.64-15.94 85.98-15.94L85.98-15.94Q87.46-15.94 88.62-15.42Q89.79-14.91 90.58-13.95Q91.36-12.99 91.78-11.65Q92.19-10.30 92.19-8.64L92.19-8.64Q92.19-7.78 92.10-7.20L92.10-7.20L81.60-7.20Q81.76-4.67 83.15-3.20Q84.54-1.73 86.78-1.73L86.78-1.73Q87.90-1.73 88.85-2.06Q89.79-2.40 90.66-2.94L90.66-2.94L91.58-1.22Q90.56-0.58 89.31-0.10Q88.06 0.38 86.46 0.38L86.46 0.38Q84.90 0.38 83.54-0.18Q82.18-0.74 81.17-1.78Q80.16-2.82 79.58-4.32Q79.01-5.82 79.01-7.74ZM81.57-8.93L89.89-8.93Q89.89-11.33 88.88-12.59Q87.87-13.86 86.05-13.86L86.05-13.86Q85.22-13.86 84.46-13.52Q83.71-13.18 83.10-12.56Q82.50-11.94 82.10-11.02Q81.70-10.11 81.57-8.93L81.57-8.93ZM94.75-2.72L96.35-4.58Q97.47-3.39 98.99-2.67Q100.51-1.95 102.14-1.95L102.14-1.95Q104.22-1.95 105.38-2.90Q106.53-3.84 106.53-5.38L106.53-5.38Q106.53-6.18 106.26-6.74Q105.98-7.30 105.52-7.70Q105.06-8.10 104.42-8.42Q103.78-8.74 103.04-9.09L103.04-9.09L100.03-10.40Q99.30-10.72 98.53-11.17Q97.76-11.62 97.15-12.26Q96.54-12.90 96.16-13.78Q95.78-14.66 95.78-15.81L95.78-15.81Q95.78-16.99 96.27-18.02Q96.77-19.04 97.65-19.79Q98.53-20.54 99.73-20.96Q100.93-21.38 102.37-21.38L102.37-21.38Q104.26-21.38 105.86-20.66Q107.46-19.94 108.58-18.78L108.58-18.78L107.14-17.06Q106.18-17.98 105.01-18.51Q103.84-19.04 102.37-19.04L102.37-19.04Q100.61-19.04 99.54-18.22Q98.46-17.41 98.46-15.97L98.46-15.97Q98.46-15.20 98.77-14.67Q99.07-14.14 99.58-13.74Q100.10-13.34 100.70-13.04Q101.31-12.74 101.95-12.48L101.95-12.48L104.93-11.20Q105.82-10.82 106.62-10.32Q107.42-9.82 108-9.17Q108.58-8.51 108.91-7.63Q109.25-6.75 109.25-5.60L109.25-5.60Q109.25-4.35 108.75-3.26Q108.26-2.18 107.33-1.36Q106.40-0.54 105.09-0.08Q103.78 0.38 102.11 0.38L102.11 0.38Q99.90 0.38 98.02-0.45Q96.13-1.28 94.75-2.72L94.75-2.72ZM112.35-4.03L112.35-4.03Q112.35-6.59 114.64-7.95Q116.93-9.31 121.92-9.86L121.92-9.86Q121.92-10.59 121.78-11.30Q121.63-12 121.26-12.54Q120.90-13.09 120.29-13.42Q119.68-13.76 118.72-13.76L118.72-13.76Q117.34-13.76 116.18-13.25Q115.01-12.74 114.08-12.10L114.08-12.10L113.02-13.92Q114.11-14.62 115.68-15.28Q117.25-15.94 119.14-15.94L119.14-15.94Q121.98-15.94 123.26-14.19Q124.54-12.45 124.54-9.54L124.54-9.54L124.54 0L122.37 0L122.14-1.86L122.08-1.86Q120.96-0.93 119.66-0.27Q118.37 0.38 116.93 0.38L116.93 0.38Q114.94 0.38 113.65-0.77Q112.35-1.92 112.35-4.03ZM114.94-4.22L114.94-4.22Q114.94-2.88 115.73-2.30Q116.51-1.73 117.66-1.73L117.66-1.73Q118.78-1.73 119.79-2.26Q120.80-2.78 121.92-3.81L121.92-3.81L121.92-8.13Q119.97-7.87 118.62-7.52Q117.28-7.17 116.46-6.69Q115.65-6.21 115.30-5.58Q114.94-4.96 114.94-4.22ZM129.50 0L129.50-15.55L131.68-15.55L131.90-13.31L132-13.31Q133.12-14.43 134.35-15.18Q135.58-15.94 137.22-15.94L137.22-15.94Q139.68-15.94 140.82-14.40Q141.95-12.86 141.95-9.86L141.95-9.86L141.95 0L139.33 0L139.33-9.50Q139.33-11.71 138.62-12.69Q137.92-13.66 136.38-13.66L136.38-13.66Q135.17-13.66 134.24-13.06Q133.31-12.45 132.13-11.26L132.13-11.26L132.13 0L129.50 0ZM145.28-1.76L146.59-3.52Q147.62-2.69 148.69-2.18Q149.76-1.66 151.17-1.66L151.17-1.66Q152.70-1.66 153.47-2.37Q154.24-3.07 154.24-4.10L154.24-4.10Q154.24-4.70 153.92-5.15Q153.60-5.60 153.10-5.94Q152.61-6.27 151.97-6.53Q151.33-6.78 150.69-7.04L150.69-7.04Q149.86-7.33 149.02-7.70Q148.19-8.06 147.54-8.59Q146.88-9.12 146.46-9.82Q146.05-10.53 146.05-11.52L146.05-11.52Q146.05-12.45 146.42-13.26Q146.78-14.08 147.47-14.67Q148.16-15.26 149.15-15.60Q150.14-15.94 151.39-15.94L151.39-15.94Q152.86-15.94 154.10-15.42Q155.33-14.91 156.22-14.18L156.22-14.18L154.98-12.51Q154.18-13.12 153.31-13.50Q152.45-13.89 151.42-13.89L151.42-13.89Q149.95-13.89 149.26-13.22Q148.58-12.54 148.58-11.65L148.58-11.65Q148.58-11.10 148.86-10.70Q149.15-10.30 149.63-10Q150.11-9.70 150.74-9.46Q151.36-9.22 152.03-8.96L152.03-8.96Q152.86-8.64 153.71-8.29Q154.56-7.94 155.23-7.41Q155.90-6.88 156.34-6.11Q156.77-5.34 156.77-4.26L156.77-4.26Q156.77-3.30 156.40-2.46Q156.03-1.63 155.31-0.99Q154.59-0.35 153.52 0.02Q152.45 0.38 151.07 0.38L151.07 0.38Q149.41 0.38 147.90-0.22Q146.40-0.83 145.28-1.76L145.28-1.76Z"/></svg>