<svg id="mainsvg" xmlns="http://www.w3.org/2000/svg" xmlns:xlink="http://www.w3.org/1999/xlink" version="1.1" x="0px" y="0px" enable-background="new 0 0 200 162.5" xml:space="preserve" viewBox="0 0 287 25"><path fill="#000" transform="translate(-1.76, 24)" d="M8.90 0L2.62 0Q2.27 0 2.02-0.26Q1.76-0.51 1.76-0.86L1.76-0.86L1.76-21.54Q1.76-21.89 2.02-22.14Q2.27-22.40 2.62-22.40L2.62-22.40L12.10-22.40Q16.70-22.40 19.30-20.32Q21.89-18.24 21.89-14.62L21.89-14.62Q21.89-12.48 20.91-10.90Q19.94-9.31 18.43-8.35L18.43-8.35L22.37-1.06Q22.46-0.86 22.46-0.70L22.46-0.70Q22.46-0.42 22.26-0.21Q22.05 0 21.76 0L21.76 0L15.20 0Q14.56 0 14.24-0.32Q13.92-0.64 13.82-0.86L13.82-0.86L11.07-6.98L9.76-6.98L9.76-0.86Q9.76-0.51 9.50-0.26Q9.25 0 8.90 0L8.90 0ZM8.32-21.12L8.32-21.12Q8.22-21.34 8.13-21.42Q8.03-21.50 7.81-21.47L7.81-21.47Q7.55-21.44 7.42-21.38Q7.30-21.31 7.23-21.06L7.23-21.06Q7.20-20.80 7.31-20.72Q7.42-20.64 7.65-20.51L7.65-20.51Q7.81-20.42 7.90-20.45Q8-20.48 8.16-20.61L8.16-20.61Q8.29-20.77 8.34-20.86Q8.38-20.96 8.32-21.12ZM11.62-20.54L11.62-20.54Q11.26-20.83 11.01-20.83Q10.75-20.83 10.37-20.58L10.37-20.58Q9.98-20.32 9.86-20.11Q9.73-19.90 9.86-19.46L9.86-19.46Q9.98-18.88 10.10-18.56Q10.21-18.24 10.82-18.21L10.82-18.21Q11.36-18.18 11.44-18.51Q11.52-18.85 11.74-19.39L11.74-19.39Q11.90-19.78 11.92-20.02Q11.94-20.26 11.62-20.54ZM17.98-18.91L17.98-18.91Q17.92-19.81 17.63-20.16Q17.34-20.51 16.51-20.74L16.51-20.74Q15.74-20.93 15.42-20.64Q15.10-20.35 14.66-19.68L14.66-19.68Q14.27-19.10 14.30-18.74Q14.34-18.37 14.78-17.82L14.78-17.82Q15.26-17.25 15.62-17.02Q15.97-16.80 16.67-17.09L16.67-17.09Q17.47-17.38 17.74-17.73Q18.02-18.08 17.98-18.91ZM6.85-18.05L6.85-18.05Q6.40-18.66 6.08-18.98Q5.76-19.30 5.02-19.04L5.02-19.04Q4.32-18.82 4.37-18.35Q4.42-17.89 4.42-17.15L4.42-17.15Q4.42-16.61 4.34-16.19Q4.26-15.78 4.35-15.50Q4.45-15.23 4.96-15.04L4.96-15.04Q5.86-14.75 6.30-14.96Q6.75-15.17 7.33-15.94L7.33-15.94Q7.78-16.58 7.55-16.98Q7.33-17.38 6.85-18.05ZM9.12-18.37L9.02-18.59L8.83-18.46L8.74-18.21L9.06-18.08L9.12-18.37ZM19.81-17.28L19.81-17.57L19.55-17.76L19.30-17.47L19.52-17.22L19.81-17.28ZM9.76-16.45L9.76-13.06L12.10-13.06Q12.83-13.06 13.20-13.55Q13.57-14.05 13.57-14.69L13.57-14.69Q13.57-15.33 13.23-15.89Q12.90-16.45 12.10-16.45L12.10-16.45L9.76-16.45ZM17.63-14.69L17.63-14.69Q17.63-15.20 17.44-15.41Q17.25-15.62 16.77-15.74L16.77-15.74Q16.32-15.90 16.13-15.73Q15.94-15.55 15.68-15.17L15.68-15.17Q15.42-14.82 15.36-14.59Q15.30-14.37 15.55-14.02L15.55-14.02Q15.81-13.63 16.06-13.60Q16.32-13.57 16.74-13.73L16.74-13.73Q17.22-13.89 17.42-14.03Q17.63-14.18 17.63-14.69ZM19.78-14.02L19.55-14.30L19.17-14.11L19.23-13.66L19.71-13.57L19.78-14.02ZM7.17-12.70L6.78-12.90L6.46-12.70L6.66-12.38L6.94-12.35L7.17-12.70ZM5.79-12.38L5.60-12.61L5.31-12.54L5.31-12.22L5.63-12.03L5.79-12.38ZM13.76-12.16L13.76-12.16Q13.47-12.29 13.28-12.10L13.28-12.10Q13.09-11.87 13.25-11.62L13.25-11.62Q13.31-11.46 13.41-11.46Q13.50-11.46 13.66-11.49L13.66-11.49Q13.86-11.52 13.95-11.55Q14.05-11.58 14.08-11.74L14.08-11.74Q14.11-11.94 14.02-12.02Q13.92-12.10 13.76-12.16ZM17.41-10.98L17.41-10.98Q17.28-11.46 16.99-11.47Q16.70-11.49 16.22-11.49L16.22-11.49Q15.81-11.49 15.55-11.46Q15.30-11.42 15.17-10.98L15.17-10.98Q14.98-10.43 14.91-10.11Q14.85-9.79 15.33-9.41L15.33-9.41Q15.78-9.06 16.08-9.22Q16.38-9.38 16.86-9.70L16.86-9.70Q17.28-10.02 17.42-10.26Q17.57-10.50 17.41-10.98ZM10.02-10.91L9.82-11.07L9.54-11.01L9.63-10.72L9.95-10.53L10.02-10.91ZM8.32-10.21L8.22-10.56L7.87-10.43L7.71-10.05L8.13-9.95L8.32-10.21ZM13.57-9.25L13.44-9.60L13.15-9.38L13.18-9.12L13.44-8.96L13.57-9.25ZM5.89-8.74L5.89-8.74Q5.86-9.18 5.60-9.25Q5.34-9.31 4.93-9.41L4.93-9.41Q4.54-9.50 4.34-9.52Q4.13-9.54 3.90-9.22L3.90-9.22Q3.65-8.83 3.62-8.58Q3.58-8.32 3.87-7.97L3.87-7.97Q4.19-7.58 4.43-7.49Q4.67-7.39 5.15-7.55L5.15-7.55Q5.63-7.74 5.78-7.98Q5.92-8.22 5.89-8.74ZM8.86-8.51L8.86-8.51Q8.74-8.80 8.64-8.96Q8.54-9.12 8.22-9.09L8.22-9.09Q7.94-9.06 7.89-8.88Q7.84-8.70 7.78-8.42L7.78-8.42Q7.68-8.03 8-7.84L8-7.84Q8.26-7.65 8.42-7.55Q8.58-7.46 8.83-7.65L8.83-7.65Q9.06-7.87 9.01-8.05Q8.96-8.22 8.86-8.51ZM14.66-6.56L14.66-6.91L14.40-7.20L14.21-6.88L14.24-6.53L14.66-6.56ZM16.70-6.50L16.70-6.50Q16.13-6.56 15.87-6.42Q15.62-6.27 15.39-5.76L15.39-5.76Q15.14-5.18 15.12-4.85Q15.10-4.51 15.58-4.10L15.58-4.10Q16.10-3.65 16.45-3.55Q16.80-3.46 17.41-3.81L17.41-3.81Q17.95-4.13 17.90-4.48Q17.86-4.83 17.73-5.47L17.73-5.47Q17.63-5.98 17.44-6.21Q17.25-6.43 16.70-6.50ZM8.38-5.12L8.51-5.41L8.10-5.34L8.10-5.09L8.38-5.12ZM6.82-3.42L6.82-3.42Q6.75-4.10 6.72-4.48Q6.69-4.86 6.05-5.02L6.05-5.02Q5.38-5.15 5.14-4.86Q4.90-4.58 4.54-4L4.54-4Q4.26-3.52 4.29-3.22Q4.32-2.91 4.70-2.50L4.70-2.50Q5.09-2.05 5.38-1.97Q5.66-1.89 6.18-2.11L6.18-2.11Q6.69-2.34 6.77-2.61Q6.85-2.88 6.82-3.42ZM13.60-4.61L13.38-4.80L13.12-4.64L13.18-4.35L13.41-4.42L13.60-4.61ZM14.37-3.42L14.37-3.42Q14.21-3.62 14.02-3.58L14.02-3.58Q13.86-3.52 13.76-3.49Q13.66-3.46 13.66-3.30L13.66-3.30Q13.66-3.01 13.95-2.88L13.95-2.88Q14.11-2.82 14.18-2.88Q14.24-2.94 14.34-3.07L14.34-3.07Q14.46-3.23 14.37-3.42ZM20.45-2.37L20.45-2.37Q20.38-2.85 20.21-3.02Q20.03-3.20 19.55-3.26L19.55-3.26Q19.14-3.30 19.04-3.07Q18.94-2.85 18.75-2.50L18.75-2.50Q18.59-2.14 18.50-1.94Q18.40-1.73 18.69-1.44L18.69-1.44Q19.01-1.12 19.25-1.06Q19.49-0.99 19.90-1.22L19.90-1.22Q20.32-1.44 20.43-1.66Q20.54-1.89 20.45-2.37ZM30.59 0.32L30.59 0.32Q28.99 0.32 27.57-0.45Q26.14-1.22 25.26-2.82Q24.38-4.42 24.38-6.94L24.38-6.94L24.38-15.78Q24.38-16.13 24.64-16.38Q24.90-16.64 25.25-16.64L25.25-16.64L31.36-16.64Q31.71-16.64 31.97-16.38Q32.22-16.13 32.22-15.78L32.22-15.78L32.22-7.17Q32.22-5.41 33.82-5.41L33.82-5.41Q35.42-5.41 35.42-7.17L35.42-7.17L35.42-15.78Q35.42-16.13 35.68-16.38Q35.94-16.64 36.29-16.64L36.29-16.64L42.37-16.64Q42.72-16.64 42.98-16.38Q43.23-16.13 43.23-15.78L43.23-15.78L43.23-0.86Q43.23-0.51 42.98-0.26Q42.72 0 42.37 0L42.37 0L36.77 0Q36.42 0 36.16-0.26Q35.90-0.51 35.90-0.86L35.90-0.86L35.90-1.92Q35.10-0.74 33.70-0.21Q32.29 0.32 30.59 0.32ZM30.53-15.87L30.53-15.87Q30.21-15.90 30.10-15.78Q29.98-15.65 29.89-15.36L29.89-15.36Q29.76-15.10 29.82-14.98Q29.89-14.85 30.08-14.66L30.08-14.66Q30.30-14.46 30.45-14.38Q30.59-14.30 30.85-14.43L30.85-14.43Q31.14-14.59 31.15-14.77Q31.17-14.94 31.07-15.23L31.07-15.23Q31.01-15.55 30.93-15.70Q30.85-15.84 30.53-15.87ZM37.15-15.26L37.34-15.58L37.02-15.71L36.77-15.52L36.93-15.30L37.15-15.26ZM40.54-14.50L40.54-14.50Q40.13-14.98 39.81-14.96Q39.49-14.94 38.91-14.72L38.91-14.72Q38.18-14.46 37.74-14.32Q37.31-14.18 37.34-13.44L37.34-13.44Q37.38-12.61 37.74-12.35Q38.11-12.10 38.91-11.87L38.91-11.87Q39.58-11.68 39.86-11.94Q40.13-12.19 40.51-12.80L40.51-12.80Q40.86-13.31 40.90-13.65Q40.93-13.98 40.54-14.50ZM28.58-14.18L28.58-14.18Q28.19-14.56 27.92-14.56Q27.65-14.56 27.17-14.34L27.17-14.34Q26.69-14.11 26.51-13.89Q26.34-13.66 26.40-13.15L26.40-13.15Q26.46-12.64 26.69-12.46Q26.91-12.29 27.42-12.19L27.42-12.19Q27.87-12.10 28.05-12.27Q28.22-12.45 28.45-12.86L28.45-12.86Q28.70-13.28 28.80-13.54Q28.90-13.79 28.58-14.18ZM36.67-13.95L36.80-14.34L36.48-14.43L36.22-14.30L36.32-14.05L36.67-13.95ZM41.34-11.42L41.34-11.62L41.12-11.71L41.02-11.46L41.15-11.20L41.34-11.42ZM30.75-11.10L30.75-11.10Q30.62-11.33 30.43-11.30L30.43-11.30Q30.21-11.23 30.21-10.94L30.21-10.94Q30.21-10.78 30.19-10.67Q30.18-10.56 30.37-10.50L30.37-10.50Q30.59-10.40 30.70-10.42Q30.82-10.43 30.94-10.62L30.94-10.62Q31.07-10.75 30.98-10.85Q30.88-10.94 30.75-11.10ZM41.76-10.14L41.76-10.14Q41.76-10.37 41.74-10.48Q41.73-10.59 41.54-10.62L41.54-10.62Q41.31-10.69 41.18-10.67Q41.06-10.66 40.93-10.46L40.93-10.46Q40.80-10.27 40.86-10.16Q40.93-10.05 41.06-9.86L41.06-9.86Q41.18-9.70 41.28-9.65Q41.38-9.60 41.57-9.66L41.57-9.66Q41.76-9.73 41.76-9.84Q41.76-9.95 41.76-10.14ZM37.25-10.59L37.25-10.59Q36.99-10.72 36.86-10.53L36.86-10.53Q36.77-10.43 36.80-10.37Q36.83-10.30 36.90-10.18L36.90-10.18Q36.99-10.02 37.02-9.89Q37.06-9.76 37.22-9.79L37.22-9.79Q37.41-9.86 37.38-9.97Q37.34-10.08 37.38-10.27L37.38-10.27Q37.41-10.53 37.25-10.59ZM26.62-10.14L26.62-10.14Q26.50-10.30 26.38-10.32Q26.27-10.34 26.05-10.30L26.05-10.30Q25.79-10.24 25.76-9.89L25.76-9.89Q25.73-9.70 26.02-9.57L26.02-9.57Q26.24-9.47 26.37-9.63L26.37-9.63Q26.53-9.79 26.62-9.87Q26.72-9.95 26.62-10.14ZM39.26-9.15L39.26-9.15Q39.17-9.31 39.10-9.39Q39.04-9.47 38.85-9.41L38.85-9.41Q38.56-9.31 38.56-8.96L38.56-8.96Q38.56-8.70 38.88-8.61L38.88-8.61Q39.10-8.54 39.26-8.77L39.26-8.77Q39.39-8.96 39.26-9.15ZM31.36-8.74L31.39-9.15L31.07-9.28L30.82-9.09L31.01-8.86L31.36-8.74ZM28.13-8.16L28.13-8.16Q28.10-8.51 27.87-8.54Q27.65-8.58 27.30-8.64L27.30-8.64Q27.04-8.74 26.90-8.70Q26.75-8.67 26.59-8.45L26.59-8.45Q26.43-8.19 26.40-8.02Q26.37-7.84 26.59-7.62L26.59-7.62Q26.78-7.36 26.96-7.33Q27.14-7.30 27.46-7.42L27.46-7.42Q27.81-7.55 27.98-7.66Q28.16-7.78 28.13-8.16ZM41.60-8.16L41.60-8.16Q41.38-8.32 41.23-8.29Q41.09-8.26 40.86-8.10L40.86-8.10Q40.67-7.97 40.66-7.84Q40.64-7.71 40.70-7.49L40.70-7.49Q40.77-7.23 40.85-7.14Q40.93-7.04 41.15-7.04L41.15-7.04Q41.54-7.04 41.70-7.42L41.70-7.42Q41.79-7.68 41.81-7.82Q41.82-7.97 41.60-8.16ZM30.08-7.14L30.08-7.14Q30.02-7.30 29.95-7.39Q29.89-7.49 29.73-7.46L29.73-7.46Q29.47-7.42 29.34-7.39Q29.22-7.36 29.15-7.10L29.15-7.10Q29.12-6.85 29.20-6.74Q29.28-6.62 29.54-6.50L29.54-6.50Q29.73-6.40 29.81-6.50Q29.89-6.59 30.05-6.72L30.05-6.72Q30.21-6.88 30.08-7.14ZM38.75-6.50L38.59-6.78L38.24-6.62L38.34-6.24L38.72-6.18L38.75-6.50ZM27.23-5.63L27.23-5.63Q27.04-5.92 26.75-5.82L26.75-5.82Q26.40-5.73 26.40-5.44L26.40-5.44Q26.40-5.09 26.72-4.96L26.72-4.96Q26.88-4.90 26.94-4.99Q27.01-5.09 27.10-5.22L27.10-5.22Q27.20-5.34 27.26-5.42Q27.33-5.50 27.23-5.63ZM38.88-4.70L38.88-4.70Q38.66-5.18 38.50-5.47Q38.34-5.76 37.79-5.70L37.79-5.70Q37.25-5.63 37.22-5.30Q37.18-4.96 37.09-4.42L37.09-4.42Q36.99-3.94 36.93-3.65Q36.86-3.36 37.31-3.10L37.31-3.10Q37.79-2.85 38.06-2.94Q38.34-3.04 38.75-3.42L38.75-3.42Q39.10-3.74 39.09-4Q39.07-4.26 38.88-4.70ZM40.86-5.60L40.86-5.60Q40.61-5.63 40.48-5.58Q40.35-5.54 40.26-5.31L40.26-5.31Q40.16-5.12 40.24-5.01Q40.32-4.90 40.48-4.74L40.48-4.74Q40.67-4.58 40.78-4.48Q40.90-4.38 41.09-4.48L41.09-4.48Q41.38-4.64 41.47-4.77Q41.57-4.90 41.54-5.18L41.54-5.18Q41.47-5.47 41.31-5.52Q41.15-5.57 40.86-5.60ZM29.92-4.48L29.92-4.48Q29.76-4.93 29.71-5.20Q29.66-5.47 29.18-5.47L29.18-5.47Q28.74-5.47 28.67-5.20Q28.61-4.93 28.48-4.48L28.48-4.48Q28.38-4.16 28.46-4.02Q28.54-3.87 28.80-3.68L28.80-3.68Q29.06-3.49 29.22-3.50Q29.38-3.52 29.63-3.68L29.63-3.68Q29.89-3.87 29.95-4.03Q30.02-4.19 29.92-4.48ZM33.28-3.74L33.34-4.03L33.06-4.22L32.86-3.94L32.96-3.58L33.28-3.74ZM32.74-2.85L32.74-2.85Q32.61-2.91 32.53-2.86Q32.45-2.82 32.35-2.69L32.35-2.69Q32.22-2.56 32.16-2.48Q32.10-2.40 32.19-2.24L32.19-2.24Q32.29-2.05 32.38-1.98Q32.48-1.92 32.67-1.95L32.67-1.95Q32.86-1.98 32.90-2.10Q32.93-2.21 32.96-2.43L32.96-2.43Q32.99-2.72 32.74-2.85ZM35.17-2.43L35.17-2.43Q35.10-2.69 34.93-2.70Q34.75-2.72 34.46-2.75L34.46-2.75Q34.18-2.78 33.98-2.83Q33.79-2.88 33.66-2.62L33.66-2.62Q33.54-2.30 33.60-2.13Q33.66-1.95 33.89-1.73L33.89-1.73Q34.11-1.54 34.24-1.65Q34.37-1.76 34.62-1.89L34.62-1.89Q34.88-2.02 35.04-2.08Q35.20-2.14 35.17-2.43ZM31.68-1.89L31.68-1.89Q31.55-2.05 31.44-2.02Q31.33-1.98 31.14-1.92L31.14-1.92Q30.91-1.86 30.80-1.81Q30.69-1.76 30.69-1.54L30.69-1.54Q30.69-1.31 30.82-1.26Q30.94-1.22 31.14-1.18L31.14-1.18Q31.39-1.09 31.52-1.06Q31.65-1.02 31.81-1.22L31.81-1.22Q31.94-1.41 31.89-1.55Q31.84-1.70 31.68-1.89ZM29.57-1.66L29.57-1.66Q29.44-1.92 29.12-1.86L29.12-1.86Q28.90-1.82 28.80-1.76Q28.70-1.70 28.67-1.50L28.67-1.50Q28.64-1.31 28.77-1.28Q28.90-1.25 29.06-1.18L29.06-1.18Q29.18-1.12 29.28-1.09Q29.38-1.06 29.47-1.18L29.47-1.18Q29.70-1.44 29.57-1.66ZM37.89-0.77L38.14-0.96L37.92-1.28L37.66-1.06L37.63-0.83L37.89-0.77ZM58.02 0.32L58.02 0.32Q56.35 0.32 55.20-0.21Q54.05-0.74 53.28-1.60L53.28-1.60L53.28-0.86Q53.28-0.51 53.02-0.26Q52.77 0 52.42 0L52.42 0L46.98 0Q46.62 0 46.37-0.26Q46.11-0.51 46.11-0.86L46.11-0.86L46.11-21.86Q46.11-22.21 46.37-22.46Q46.62-22.72 46.98-22.72L46.98-22.72L52.90-22.72Q53.25-22.72 53.50-22.46Q53.76-22.21 53.76-21.86L53.76-21.86L53.76-15.46Q54.53-16.16 55.60-16.56Q56.67-16.96 58.02-16.96L58.02-16.96Q59.87-16.96 61.38-16.16Q62.88-15.36 63.79-13.74Q64.70-12.13 64.80-9.60L64.80-9.60Q64.83-8.90 64.83-8.35Q64.83-7.81 64.80-7.07L64.80-7.07Q64.70-4.42 63.78-2.78Q62.85-1.15 61.36-0.42Q59.87 0.32 58.02 0.32ZM51.87-20.67L51.84-21.12L51.58-21.12L51.65-20.86L51.87-20.67ZM51.78-18.94L51.78-18.94Q51.62-19.94 51.26-20.32Q50.91-20.70 49.92-20.83L49.92-20.83Q49.34-20.93 49.12-20.70Q48.90-20.48 48.78-20.06Q48.67-19.65 48.42-19.14L48.42-19.14Q48.16-18.62 48.22-18.34Q48.29-18.05 48.70-17.63L48.70-17.63Q49.28-17.09 49.58-16.72Q49.89-16.35 50.59-16.74L50.59-16.74Q51.42-17.15 51.68-17.58Q51.94-18.02 51.78-18.94ZM52.67-15.81L52.67-15.81Q52.26-16.26 51.94-16.37Q51.62-16.48 51.07-16.19L51.07-16.19Q50.50-15.90 50.34-15.62Q50.18-15.33 50.24-14.69L50.24-14.69Q50.34-14.14 50.67-14.13Q51.01-14.11 51.55-14.02L51.55-14.02Q52.10-13.92 52.43-13.81Q52.77-13.70 53.02-14.18L53.02-14.18Q53.34-14.72 53.23-15.04Q53.12-15.36 52.67-15.81ZM48.35-15.33L48.35-15.33Q48.13-15.62 48.02-15.81Q47.90-16 47.55-15.90L47.55-15.90Q47.20-15.78 47.18-15.57Q47.17-15.36 47.17-14.98L47.17-14.98Q47.17-14.66 47.23-14.51Q47.30-14.37 47.58-14.24L47.58-14.24Q47.94-14.14 48.13-14.16Q48.32-14.18 48.54-14.46L48.54-14.46Q48.74-14.72 48.64-14.88Q48.54-15.04 48.35-15.33ZM59.52-15.71L59.52-15.71Q59.17-15.87 59.01-15.76Q58.85-15.65 58.59-15.36L58.59-15.36Q58.37-15.14 58.38-14.98Q58.40-14.82 58.56-14.56L58.56-14.56Q58.75-14.21 58.86-14.02Q58.98-13.82 59.33-13.92L59.33-13.92Q59.78-13.98 59.90-14.16Q60.03-14.34 60.10-14.78L60.10-14.78Q60.13-15.20 60.02-15.38Q59.90-15.55 59.52-15.71ZM54.72-14.46L54.72-14.46Q54.53-14.59 54.40-14.51Q54.27-14.43 54.05-14.30L54.05-14.30Q53.79-14.11 53.57-14.05Q53.34-13.98 53.44-13.66L53.44-13.66Q53.54-13.31 53.73-13.25Q53.92-13.18 54.27-13.18L54.27-13.18Q54.59-13.18 54.70-13.30Q54.82-13.41 54.91-13.70L54.91-13.70Q55.01-13.98 54.98-14.13Q54.94-14.27 54.72-14.46ZM48.80-13.02L48.80-13.02Q48.51-13.22 48.32-13.25Q48.13-13.28 47.87-13.09L47.87-13.09Q47.58-12.90 47.62-12.72Q47.65-12.54 47.74-12.22L47.74-12.22Q47.84-11.94 47.95-11.82Q48.06-11.71 48.35-11.71L48.35-11.71Q48.67-11.71 48.82-11.79Q48.96-11.87 49.06-12.19L49.06-12.19Q49.15-12.51 49.10-12.67Q49.06-12.83 48.80-13.02ZM60.45-13.06L60.45-13.06Q60.22-13.18 60.10-13.22Q59.97-13.25 59.78-13.09L59.78-13.09Q59.55-12.90 59.50-12.75Q59.46-12.61 59.58-12.35L59.58-12.35Q59.68-12.10 59.82-12.06Q59.97-12.03 60.22-12.06L60.22-12.06Q60.48-12.10 60.54-12.19Q60.61-12.29 60.67-12.51L60.67-12.51Q60.74-12.86 60.45-13.06ZM56.80-12.58L56.80-12.58Q56.70-13.02 56.29-13.09L56.29-13.09Q56.03-13.12 55.92-13.04Q55.81-12.96 55.71-12.70L55.71-12.70Q55.58-12.48 55.57-12.34Q55.55-12.19 55.74-12.03L55.74-12.03Q55.94-11.84 56.08-11.82Q56.22-11.81 56.48-11.94L56.48-11.94Q56.86-12.16 56.80-12.58ZM53.02-12.45L53.28-12.74L52.93-12.93L52.64-12.80L52.70-12.45L53.02-12.45ZM58.85-11.33L58.85-11.33Q58.78-11.62 58.62-11.65Q58.46-11.68 58.18-11.74L58.18-11.74Q57.82-11.81 57.66-11.46L57.66-11.46Q57.54-11.23 57.50-11.10Q57.47-10.98 57.63-10.82L57.63-10.82Q57.82-10.62 57.95-10.66Q58.08-10.69 58.30-10.82L58.30-10.82Q58.56-10.91 58.72-10.98Q58.88-11.04 58.85-11.33ZM55.36-5.41L55.36-5.41Q56.26-5.41 56.56-5.90Q56.86-6.40 56.96-7.26L56.96-7.26Q57.06-8.32 56.96-9.38L56.96-9.38Q56.86-10.24 56.56-10.74Q56.26-11.23 55.36-11.23L55.36-11.23Q54.56-11.23 54.19-10.82Q53.82-10.40 53.76-9.63L53.76-9.63Q53.73-8.93 53.73-8.46Q53.73-8 53.76-7.26L53.76-7.26Q53.82-6.40 54.14-5.90Q54.46-5.41 55.36-5.41ZM62.98-10.56L62.98-10.56Q62.43-11.04 62.06-11.09Q61.70-11.14 61.09-10.78L61.09-10.78Q60.54-10.46 60.58-10.11Q60.61-9.76 60.74-9.15L60.74-9.15Q60.80-8.70 61.04-8.62Q61.28-8.54 61.76-8.48L61.76-8.48Q62.14-8.45 62.32-8.54Q62.50-8.64 62.66-8.99L62.66-8.99Q62.91-9.54 63.17-9.86Q63.42-10.18 62.98-10.56ZM50.30-10.46L50.30-10.46Q50.21-10.82 49.98-10.88Q49.76-10.94 49.38-10.94L49.38-10.94Q49.02-10.94 48.90-10.83Q48.77-10.72 48.64-10.37L48.64-10.37Q48.54-10.08 48.61-9.90Q48.67-9.73 48.93-9.54L48.93-9.54Q49.18-9.38 49.34-9.39Q49.50-9.41 49.76-9.60L49.76-9.60Q50.08-9.82 50.26-9.95Q50.43-10.08 50.30-10.46ZM52.42-10.11L52.61-10.43L52.35-10.72L52.10-10.50L52.13-10.24L52.42-10.11ZM59.26-9.57L59.26-9.57Q58.88-9.66 58.72-9.57Q58.56-9.47 58.34-9.15L58.34-9.15Q58.14-8.86 58.16-8.69Q58.18-8.51 58.40-8.22L58.40-8.22Q58.59-8 58.75-8.08Q58.91-8.16 59.17-8.26L59.17-8.26Q59.46-8.35 59.62-8.40Q59.78-8.45 59.78-8.74L59.78-8.74Q59.78-9.09 59.70-9.28Q59.62-9.47 59.26-9.57ZM51.90-8.35L51.90-8.35Q51.62-8.64 51.41-8.77Q51.20-8.90 50.88-8.67L50.88-8.67Q50.50-8.45 50.53-8.22Q50.56-8 50.66-7.58L50.66-7.58Q50.72-7.26 50.88-7.20Q51.04-7.14 51.39-7.10L51.39-7.10Q51.68-7.07 51.82-7.15Q51.97-7.23 52.06-7.52L52.06-7.52Q52.19-7.81 52.18-7.98Q52.16-8.16 51.90-8.35ZM49.25-6.08L49.25-6.08Q49.18-6.46 49.14-6.69Q49.09-6.91 48.70-6.98L48.70-6.98Q48.32-7.01 48.19-6.83Q48.06-6.66 47.87-6.30L47.87-6.30Q47.71-5.95 47.71-5.76Q47.71-5.57 47.97-5.34L47.97-5.34Q48.29-5.02 48.50-4.90Q48.70-4.77 49.09-4.96L49.09-4.96Q49.47-5.15 49.39-5.41Q49.31-5.66 49.25-6.08ZM63.04-6.53L63.04-6.53Q62.66-6.69 62.45-6.66Q62.24-6.62 61.98-6.30L61.98-6.30Q61.70-5.92 61.54-5.68Q61.38-5.44 61.63-5.02L61.63-5.02Q61.95-4.58 62.22-4.50Q62.50-4.42 63.04-4.54L63.04-4.54Q63.52-4.67 63.65-4.91Q63.78-5.15 63.81-5.66L63.81-5.66Q63.84-6.11 63.63-6.24Q63.42-6.37 63.04-6.53ZM60.80-4.58L60.80-4.58Q60.32-5.47 59.82-5.66Q59.33-5.86 58.34-5.70L58.34-5.70Q57.44-5.54 57.25-5.07Q57.06-4.61 56.96-3.71L56.96-3.71Q56.86-3.04 56.78-2.58Q56.70-2.11 56.85-1.78Q56.99-1.44 57.60-1.15L57.60-1.15Q58.18-0.86 58.53-0.98Q58.88-1.09 59.20-1.44Q59.52-1.79 59.97-2.24L59.97-2.24Q60.61-2.91 60.93-3.33Q61.25-3.74 60.80-4.58ZM48-3.68L48.10-4.10L47.71-4.35L47.49-4.03L47.58-3.71L48-3.68ZM52.77-3.23L52.77-3.23Q52.70-3.39 52.67-3.52Q52.64-3.65 52.45-3.65L52.45-3.65Q52.26-3.65 52.22-3.52Q52.19-3.39 52.13-3.20L52.13-3.20Q52.10-3.01 52.06-2.90Q52.03-2.78 52.19-2.69L52.19-2.69Q52.35-2.56 52.45-2.64Q52.54-2.72 52.70-2.82L52.70-2.82Q52.86-2.98 52.77-3.23ZM62.53-2.46L62.56-2.85L62.24-3.01L61.82-2.78L62.08-2.37L62.53-2.46ZM47.90-2.72L47.90-2.72Q47.68-2.72 47.54-2.75Q47.39-2.78 47.30-2.56L47.30-2.56Q47.23-2.34 47.33-2.26Q47.42-2.18 47.62-2.02L47.62-2.02Q47.78-1.89 47.87-1.84Q47.97-1.79 48.13-1.89L48.13-1.89Q48.48-2.11 48.38-2.46L48.38-2.46Q48.35-2.66 48.22-2.69Q48.10-2.72 47.90-2.72ZM52.51-1.09L52.35-1.28L52.06-1.38L52.03-1.06L52.29-0.86L52.51-1.09ZM73.70-18.40L68.29-18.40Q67.94-18.40 67.68-18.66Q67.42-18.91 67.42-19.26L67.42-19.26L67.42-23.14Q67.42-23.49 67.68-23.74Q67.94-24 68.29-24L68.29-24L73.70-24Q74.05-24 74.30-23.74Q74.56-23.49 74.56-23.14L74.56-23.14L74.56-19.26Q74.56-18.91 74.30-18.66Q74.05-18.40 73.70-18.40L73.70-18.40ZM70.24-21.89L69.89-22.05L69.63-21.89L69.70-21.54L70.11-21.47L70.24-21.89ZM71.04-20.99L71.10-21.22L70.88-21.31L70.56-21.18L70.75-20.83L71.04-20.99ZM69.25-20.42L69.12-20.80L68.74-20.70L68.74-20.42L68.96-20.22L69.25-20.42ZM72.48-20.64L72.48-20.64Q72.29-20.64 72.19-20.64Q72.10-20.64 72.03-20.48L72.03-20.48Q71.97-20.32 72.03-20.24Q72.10-20.16 72.22-20.06L72.22-20.06Q72.35-19.94 72.45-19.86Q72.54-19.78 72.70-19.87L72.70-19.87Q72.99-20.06 72.93-20.42L72.93-20.42Q72.86-20.61 72.77-20.61Q72.67-20.61 72.48-20.64ZM73.86 0L68.13 0Q67.78 0 67.52-0.26Q67.26-0.51 67.26-0.86L67.26-0.86L67.26-15.78Q67.26-16.13 67.52-16.38Q67.78-16.64 68.13-16.64L68.13-16.64L73.86-16.64Q74.21-16.64 74.46-16.38Q74.72-16.13 74.72-15.78L74.72-15.78L74.72-0.86Q74.72-0.51 74.46-0.26Q74.21 0 73.86 0L73.86 0ZM70.82-14.56L70.59-14.88L70.27-14.94L70.14-14.59L70.46-14.30L70.82-14.56ZM73.54-14.11L73.54-14.11Q73.47-14.53 73.12-14.59L73.12-14.59Q72.93-14.62 72.86-14.53Q72.80-14.43 72.70-14.24L72.70-14.24Q72.54-13.95 72.70-13.76L72.70-13.76Q72.96-13.50 73.22-13.63L73.22-13.63Q73.41-13.73 73.49-13.81Q73.57-13.89 73.54-14.11ZM69.38-13.50L69.34-13.82L69.12-13.89L68.83-13.73L69.06-13.44L69.38-13.50ZM72.19-13.12L72.19-13.12Q71.87-13.44 71.63-13.34Q71.39-13.25 71.01-13.09L71.01-13.09Q70.66-12.93 70.50-12.78Q70.34-12.64 70.37-12.26L70.37-12.26Q70.43-11.81 70.56-11.63Q70.69-11.46 71.14-11.39L71.14-11.39Q71.58-11.30 71.81-11.36Q72.03-11.42 72.26-11.81L72.26-11.81Q72.51-12.22 72.51-12.50Q72.51-12.77 72.19-13.12ZM73.76-11.52L73.76-11.52Q73.63-11.62 73.57-11.55Q73.50-11.49 73.41-11.39L73.41-11.39Q73.28-11.30 73.22-11.23Q73.15-11.17 73.22-11.04L73.22-11.04Q73.38-10.72 73.63-10.75L73.63-10.75Q73.89-10.78 73.95-11.14L73.95-11.14Q73.98-11.39 73.76-11.52ZM69.38-10.91L69.38-10.91Q69.31-11.33 68.96-11.39L68.96-11.39Q68.74-11.42 68.66-11.34Q68.58-11.26 68.48-11.07L68.48-11.07Q68.38-10.91 68.45-10.83Q68.51-10.75 68.64-10.62L68.64-10.62Q68.74-10.50 68.82-10.45Q68.90-10.40 69.02-10.46L69.02-10.46Q69.22-10.56 69.31-10.64Q69.41-10.72 69.38-10.91ZM72.13-10.05L72.26-10.34L72.03-10.50L71.78-10.43L71.81-10.11L72.13-10.05ZM71.46-8.90L71.46-8.90Q71.33-9.09 71.20-9.06Q71.07-9.02 70.85-8.93L70.85-8.93Q70.59-8.86 70.45-8.83Q70.30-8.80 70.30-8.54L70.30-8.54Q70.30-8.26 70.40-8.14Q70.50-8.03 70.78-7.94L70.78-7.94Q71.01-7.87 71.09-7.98Q71.17-8.10 71.33-8.29L71.33-8.29Q71.46-8.48 71.54-8.59Q71.62-8.70 71.46-8.90ZM73.98-8.45L73.98-8.45Q73.86-8.70 73.71-8.74Q73.57-8.77 73.31-8.74L73.31-8.74Q73.06-8.70 72.96-8.61Q72.86-8.51 72.80-8.26L72.80-8.26Q72.77-8 72.85-7.89Q72.93-7.78 73.15-7.65L73.15-7.65Q73.50-7.46 73.82-7.74L73.82-7.74Q74.02-7.94 74.06-8.08Q74.11-8.22 73.98-8.45ZM68.45-7.78L68.45-8.06L68.16-8.29L67.90-7.94L68.16-7.68L68.45-7.78ZM70.75-6.94L70.75-6.94Q70.62-7.26 70.40-7.23L70.40-7.23Q70.05-7.20 69.98-6.91L69.98-6.91Q69.95-6.66 70.24-6.50L70.24-6.50Q70.50-6.34 70.72-6.50L70.72-6.50Q70.88-6.66 70.75-6.94ZM68.67-6.43L68.67-6.43Q68.51-6.56 68.42-6.64Q68.32-6.72 68.13-6.59L68.13-6.59Q67.97-6.46 68-6.35Q68.03-6.24 68.13-6.02L68.13-6.02Q68.19-5.82 68.24-5.73Q68.29-5.63 68.48-5.63L68.48-5.63Q68.77-5.63 68.91-5.66Q69.06-5.70 69.12-5.95L69.12-5.95Q69.18-6.18 69.04-6.24Q68.90-6.30 68.67-6.43ZM73.41-6.02L73.41-6.02Q73.31-6.37 73.15-6.50Q72.99-6.62 72.61-6.66L72.61-6.66Q72.26-6.69 72.13-6.54Q72-6.40 71.87-6.08L71.87-6.08Q71.71-5.70 71.70-5.49Q71.68-5.28 71.97-5.06L71.97-5.06Q72.29-4.77 72.51-4.77Q72.74-4.77 73.09-4.99L73.09-4.99Q73.44-5.22 73.47-5.42Q73.50-5.63 73.41-6.02ZM70.08-4.77L70.05-5.06L69.70-5.09L69.70-4.77L69.89-4.51L70.08-4.77ZM68.61-4.64L68.32-4.93L68.13-4.67L68.13-4.42L68.42-4.32L68.61-4.64ZM72.70-3.52L72.77-3.81L72.54-4.13L72.26-3.84L72.35-3.49L72.70-3.52ZM71.04-3.52L71.04-3.52Q70.85-3.84 70.69-3.97Q70.53-4.10 70.14-4L70.14-4Q69.79-3.94 69.73-3.74Q69.66-3.55 69.63-3.17L69.63-3.17Q69.60-2.85 69.71-2.72Q69.82-2.59 70.11-2.50L70.11-2.50Q70.43-2.34 70.62-2.27Q70.82-2.21 71.07-2.50L71.07-2.50Q71.33-2.78 71.30-2.99Q71.26-3.20 71.04-3.52ZM73.95-3.55L73.95-3.87L73.76-4L73.47-3.84L73.66-3.62L73.95-3.55ZM72.58-2.91L72.58-2.91Q72.35-2.94 72.27-2.82Q72.19-2.69 72.10-2.50L72.10-2.50Q72-2.34 72.05-2.24Q72.10-2.14 72.22-2.02L72.22-2.02Q72.38-1.89 72.46-1.79Q72.54-1.70 72.70-1.79L72.70-1.79Q73.06-1.95 72.99-2.34L72.99-2.34Q72.96-2.59 72.90-2.72Q72.83-2.85 72.58-2.91ZM84.06 0L78.46 0Q78.11 0 77.86-0.26Q77.60-0.51 77.60-0.86L77.60-0.86L77.60-21.86Q77.60-22.21 77.86-22.46Q78.11-22.72 78.46-22.72L78.46-22.72L84.06-22.72Q84.42-22.72 84.67-22.46Q84.93-22.21 84.93-21.86L84.93-21.86L84.93-11.49L87.74-16.10Q87.81-16.22 88.03-16.43Q88.26-16.64 88.67-16.64L88.67-16.64L95.14-16.64Q95.46-16.64 95.68-16.42Q95.90-16.19 95.90-15.87L95.90-15.87Q95.90-15.74 95.86-15.60Q95.81-15.46 95.74-15.39L95.74-15.39L91.36-9.15L96.54-1.18Q96.67-0.99 96.67-0.77L96.67-0.77Q96.67-0.45 96.45-0.22Q96.22 0 95.90 0L95.90 0L89.18 0Q88.70 0 88.48-0.24Q88.26-0.48 88.19-0.54L88.19-0.54L84.93-5.98L84.93-0.86Q84.93-0.51 84.67-0.26Q84.42 0 84.06 0L84.06 0ZM79.65-20.80L79.65-20.80Q79.62-21.06 79.50-21.14Q79.39-21.22 79.14-21.28L79.14-21.28Q78.88-21.31 78.74-21.31Q78.59-21.31 78.46-21.06L78.46-21.06Q78.34-20.83 78.46-20.74Q78.59-20.64 78.75-20.48L78.75-20.48Q78.94-20.26 79.20-20.38L79.20-20.38Q79.42-20.48 79.55-20.53Q79.68-20.58 79.65-20.80ZM80.48-19.55L80.48-19.55Q80.26-19.71 80.11-19.76Q79.97-19.81 79.78-19.62L79.78-19.62Q79.55-19.46 79.54-19.30Q79.52-19.14 79.62-18.88L79.62-18.88Q79.71-18.66 79.84-18.67Q79.97-18.69 80.22-18.69L80.22-18.69Q80.45-18.69 80.58-18.72Q80.70-18.75 80.74-18.94L80.74-18.94Q80.83-19.33 80.48-19.55ZM78.91-19.30L78.69-19.65L78.34-19.46L78.30-19.10L78.69-18.94L78.91-19.30ZM82.24-16.80L82.24-16.80Q81.54-17.22 81.12-17.18Q80.70-17.15 80.13-16.64L80.13-16.64Q79.46-16.06 79.25-15.65Q79.04-15.23 79.36-14.43L79.36-14.43Q79.74-13.54 80.14-13.22Q80.54-12.90 81.50-12.96L81.50-12.96Q82.46-13.06 82.78-13.46Q83.10-13.86 83.30-14.82L83.30-14.82Q83.49-15.62 83.23-15.98Q82.98-16.35 82.24-16.80ZM89.38-15.94L89.38-15.94Q89.06-15.94 88.96-15.71L88.96-15.71Q88.90-15.52 88.90-15.41Q88.90-15.30 89.06-15.17L89.06-15.17Q89.18-15.07 89.28-15.14Q89.38-15.20 89.50-15.30L89.50-15.30Q89.73-15.42 89.66-15.65L89.66-15.65Q89.57-15.94 89.38-15.94ZM93.60-15.10L93.60-15.10Q93.44-15.17 93.34-15.20Q93.25-15.23 93.12-15.10L93.12-15.10Q92.96-14.91 93.15-14.62L93.15-14.62Q93.31-14.34 93.57-14.40L93.57-14.40Q93.79-14.46 93.90-14.51Q94.02-14.56 94.05-14.78L94.05-14.78Q94.05-14.98 93.92-15.01Q93.79-15.04 93.60-15.10ZM88.54-14.88L88.54-14.88Q88.26-15.01 88.14-14.83Q88.03-14.66 87.84-14.40L87.84-14.40Q87.68-14.24 87.65-14.11Q87.62-13.98 87.74-13.76L87.74-13.76Q87.90-13.50 88.02-13.33Q88.13-13.15 88.45-13.25L88.45-13.25Q88.80-13.34 88.91-13.50Q89.02-13.66 89.06-14.02L89.06-14.02Q89.09-14.40 88.99-14.58Q88.90-14.75 88.54-14.88ZM92.16-14.34L92.16-14.34Q91.94-14.43 91.81-14.46Q91.68-14.50 91.49-14.34L91.49-14.34Q91.17-13.98 91.42-13.57L91.42-13.57Q91.52-13.38 91.66-13.39Q91.81-13.41 92.06-13.44L92.06-13.44Q92.32-13.50 92.35-13.86L92.35-13.86Q92.38-14.05 92.37-14.14Q92.35-14.24 92.16-14.34ZM79.04-12.99L79.04-12.99Q78.88-13.09 78.66-12.86L78.66-12.86Q78.53-12.74 78.66-12.51L78.66-12.51Q78.72-12.38 78.75-12.30Q78.78-12.22 78.94-12.26L78.94-12.26Q79.14-12.29 79.23-12.34Q79.33-12.38 79.36-12.58L79.36-12.58Q79.39-12.77 79.31-12.83Q79.23-12.90 79.04-12.99ZM80.96-12.26L80.96-12.26Q80.61-12.58 80.19-12.32L80.19-12.32Q79.78-12.06 79.90-11.58L79.90-11.58Q80-11.10 80.51-11.07L80.51-11.07Q80.77-11.04 80.86-11.15Q80.96-11.26 81.09-11.52L81.09-11.52Q81.18-11.78 81.18-11.94Q81.18-12.10 80.96-12.26ZM83.62-12.16L83.62-12.16Q83.33-12.29 83.17-12.29Q83.01-12.29 82.78-12.06L82.78-12.06Q82.59-11.84 82.64-11.70Q82.69-11.55 82.82-11.30L82.82-11.30Q82.94-11.01 83.06-10.90Q83.17-10.78 83.46-10.82L83.46-10.82Q83.74-10.88 83.79-11.04Q83.84-11.20 83.87-11.49L83.87-11.49Q83.90-11.74 83.89-11.89Q83.87-12.03 83.62-12.16ZM89.12-10.72L89.12-10.72Q89.12-11.07 88.83-11.14L88.83-11.14Q88.58-11.23 88.38-10.94L88.38-10.94Q88.26-10.75 88.42-10.50L88.42-10.50Q88.54-10.37 88.80-10.43L88.80-10.43Q88.96-10.50 89.04-10.53Q89.12-10.56 89.12-10.72ZM82.37-10.34L82.37-10.34Q82.21-10.37 82.14-10.29Q82.08-10.21 82.02-10.05L82.02-10.05Q81.89-9.89 81.84-9.81Q81.79-9.73 81.92-9.57L81.92-9.57Q82.14-9.28 82.46-9.41L82.46-9.41Q82.85-9.57 82.82-9.92L82.82-9.92Q82.78-10.14 82.69-10.21Q82.59-10.27 82.37-10.34ZM86.88-8.90L86.88-8.90Q86.78-9.60 86.53-9.87Q86.27-10.14 85.57-10.30L85.57-10.30Q84.99-10.43 84.85-10.08Q84.70-9.73 84.42-9.22L84.42-9.22Q84.13-8.70 83.89-8.40Q83.65-8.10 84.06-7.68L84.06-7.68Q84.51-7.17 84.85-7.20Q85.18-7.23 85.79-7.52L85.79-7.52Q86.40-7.78 86.67-8.02Q86.94-8.26 86.88-8.90ZM80.67-7.84L80.58-8.13L80.19-8.35L79.97-7.90L80.38-7.65L80.67-7.84ZM89.79-7.33L89.63-7.68L89.28-7.62L89.18-7.26L89.50-7.14L89.79-7.33ZM88.38-7.20L88.38-7.20Q88.26-7.26 88.16-7.30Q88.06-7.33 87.94-7.23L87.94-7.23Q87.84-7.10 87.86-7.02Q87.87-6.94 87.94-6.78L87.94-6.78Q88-6.59 88.26-6.62L88.26-6.62Q88.42-6.62 88.51-6.64Q88.61-6.66 88.64-6.82L88.64-6.82Q88.67-6.98 88.61-7.04Q88.54-7.10 88.38-7.20ZM83.78-6.59L83.58-6.78L83.39-6.69L83.30-6.40L83.58-6.37L83.78-6.59ZM82.27-6.05L82.27-6.05Q81.63-6.27 81.28-6.16Q80.93-6.05 80.51-5.50L80.51-5.50Q80.06-4.96 79.97-4.59Q79.87-4.22 80.29-3.62L80.29-3.62Q80.61-3.10 80.98-3.26Q81.34-3.42 81.95-3.58L81.95-3.58Q82.37-3.71 82.53-3.87Q82.69-4.03 82.72-4.48L82.72-4.48Q82.75-5.09 82.80-5.46Q82.85-5.82 82.27-6.05ZM91.62-3.78L91.62-3.78Q91.52-4.35 91.38-4.64Q91.23-4.93 90.66-5.02L90.66-5.02Q89.95-5.12 89.58-5.04Q89.22-4.96 88.90-4.35L88.90-4.35Q88.61-3.74 88.88-3.46Q89.15-3.17 89.63-2.72L89.63-2.72Q90.14-2.21 90.43-1.89Q90.72-1.57 91.36-1.92L91.36-1.92Q91.97-2.24 91.86-2.67Q91.74-3.10 91.62-3.78ZM94.62-1.54L94.53-1.82L94.21-1.76L94.24-1.47L94.43-1.41L94.62-1.54ZM111.10 0L105.31 0Q104.96 0 104.70-0.26Q104.45-0.51 104.45-0.86L104.45-0.86L104.45-21.54Q104.45-21.89 104.70-22.14Q104.96-22.40 105.31-22.40L105.31-22.40L110.37-22.40Q111.01-22.40 111.33-22.05Q111.65-21.70 111.74-21.54L111.74-21.54L116.38-13.86L121.02-21.54Q121.12-21.70 121.44-22.05Q121.76-22.40 122.40-22.40L122.40-22.40L127.46-22.40Q127.81-22.40 128.06-22.14Q128.32-21.89 128.32-21.54L128.32-21.54L128.32-0.86Q128.32-0.51 128.06-0.26Q127.81 0 127.46 0L127.46 0L121.66 0Q121.31 0 121.06-0.26Q120.80-0.51 120.80-0.86L120.80-0.86L120.80-9.63L118.69-6.18Q118.53-5.92 118.26-5.65Q117.98-5.38 117.50-5.38L117.50-5.38L115.26-5.38Q114.78-5.38 114.51-5.65Q114.24-5.92 114.08-6.18L114.08-6.18L111.97-9.63L111.97-0.86Q111.97-0.51 111.71-0.26Q111.46 0 111.10 0L111.10 0ZM126.98-21.50L126.98-21.50Q126.66-21.70 126.34-21.38L126.34-21.38Q126.21-21.25 126.26-21.14Q126.30-21.02 126.40-20.83L126.40-20.83Q126.50-20.67 126.54-20.58Q126.59-20.48 126.78-20.51L126.78-20.51Q127.01-20.54 127.12-20.61Q127.23-20.67 127.26-20.90L127.26-20.90Q127.33-21.31 126.98-21.50ZM122.24-21.09L122.24-21.09Q122.02-21.18 121.90-21.09Q121.79-20.99 121.63-20.80L121.63-20.80Q121.50-20.64 121.54-20.53Q121.57-20.42 121.66-20.26L121.66-20.26Q121.82-20 122.11-20.06L122.11-20.06Q122.40-20.16 122.43-20.45L122.43-20.45Q122.43-20.70 122.45-20.85Q122.46-20.99 122.24-21.09ZM106.02-20.32L105.92-20.83L105.50-20.70L105.18-20.38L105.60-20.13L106.02-20.32ZM124.77-18.82L124.77-18.82Q124.38-18.91 124.30-18.69Q124.22-18.46 124.03-18.18L124.03-18.18Q123.84-17.86 123.71-17.70Q123.58-17.54 123.81-17.25L123.81-17.25Q124.06-16.96 124.26-16.94Q124.45-16.93 124.83-17.09L124.83-17.09Q125.15-17.22 125.23-17.39Q125.31-17.57 125.28-17.92L125.28-17.92Q125.25-18.30 125.18-18.51Q125.12-18.72 124.77-18.82ZM107.10-17.92L107.10-17.92Q107.04-18.21 106.98-18.34Q106.91-18.46 106.62-18.46L106.62-18.46Q106.34-18.46 106.22-18.38Q106.11-18.30 105.98-18.02L105.98-18.02Q105.89-17.79 105.98-17.68Q106.08-17.57 106.27-17.41L106.27-17.41Q106.56-17.15 106.88-17.38L106.88-17.38Q107.20-17.57 107.10-17.92ZM110.50-18.02L110.50-18.02Q110.43-18.24 110.11-18.21L110.11-18.21Q109.95-18.21 109.84-18.19Q109.73-18.18 109.66-18.02L109.66-18.02Q109.63-17.82 109.74-17.79Q109.86-17.76 110.02-17.66L110.02-17.66Q110.14-17.57 110.22-17.49Q110.30-17.41 110.46-17.54L110.46-17.54Q110.59-17.63 110.58-17.74Q110.56-17.86 110.50-18.02ZM122.34-17.28L122.34-17.28Q122.08-17.28 121.94-17.30Q121.79-17.31 121.70-17.06L121.70-17.06Q121.60-16.77 121.63-16.62Q121.66-16.48 121.89-16.29L121.89-16.29Q122.11-16.10 122.24-16.19Q122.37-16.29 122.59-16.45L122.59-16.45Q122.82-16.58 122.91-16.67Q123.01-16.77 122.94-17.02L122.94-17.02Q122.88-17.25 122.74-17.26Q122.59-17.28 122.34-17.28ZM112.64-15.94L112.64-15.94Q112.38-16.19 112.21-16.27Q112.03-16.35 111.74-16.19L111.74-16.19Q111.39-16 111.28-15.82Q111.17-15.65 111.26-15.23L111.26-15.23Q111.33-14.88 111.50-14.80Q111.68-14.72 112.06-14.66L112.06-14.66Q112.35-14.62 112.45-14.77Q112.54-14.91 112.67-15.17L112.67-15.17Q112.80-15.42 112.83-15.58Q112.86-15.74 112.64-15.94ZM109.31-15.87L109.31-15.87Q108.45-16.19 108.00-16.02Q107.55-15.84 106.98-15.14L106.98-15.14Q106.69-14.72 106.75-14.46Q106.82-14.21 107.07-13.92Q107.33-13.63 107.58-13.22L107.58-13.22Q107.97-12.67 108.19-12.34Q108.42-12 109.06-12.19L109.06-12.19Q109.73-12.38 109.78-12.77Q109.82-13.15 109.86-13.86L109.86-13.86Q109.89-14.37 109.95-14.75Q110.02-15.14 109.90-15.41Q109.79-15.68 109.31-15.87ZM125.86-15.81L125.86-15.81Q125.63-15.84 125.50-15.84Q125.38-15.84 125.28-15.62L125.28-15.62Q125.18-15.42 125.31-15.36Q125.44-15.30 125.60-15.17L125.60-15.17Q125.73-15.01 125.79-14.88Q125.86-14.75 126.05-14.85L126.05-14.85Q126.40-15.01 126.34-15.46L126.34-15.46Q126.30-15.65 126.19-15.71Q126.08-15.78 125.86-15.81ZM124.80-13.73L124.80-13.73Q124.64-13.92 124.48-13.90Q124.32-13.89 124.06-13.79L124.06-13.79Q123.87-13.73 123.87-13.60Q123.87-13.47 123.87-13.28L123.87-13.28Q123.87-12.96 124.13-12.90L124.13-12.90Q124.42-12.80 124.58-12.70Q124.74-12.61 124.90-12.86L124.90-12.86Q125.09-13.12 125.06-13.30Q125.02-13.47 124.80-13.73ZM119.26-13.34L119.26-13.34Q118.85-13.60 118.59-13.55Q118.34-13.50 117.95-13.18L117.95-13.18Q117.44-12.77 117.07-12.56Q116.70-12.35 116.93-11.74L116.93-11.74Q117.18-11.07 117.55-10.98Q117.92-10.88 118.66-10.91L118.66-10.91Q119.23-10.94 119.41-11.20Q119.58-11.46 119.78-12.03L119.78-12.03Q119.90-12.51 119.79-12.77Q119.68-13.02 119.26-13.34ZM122.43-12.80L122.43-12.80Q122.21-13.02 122.02-12.93L122.02-12.93Q121.79-12.80 121.82-12.51L121.82-12.51Q121.86-12.32 121.90-12.21Q121.95-12.10 122.14-12.06L122.14-12.06Q122.34-12.03 122.38-12.14Q122.43-12.26 122.53-12.42L122.53-12.42Q122.62-12.61 122.43-12.80ZM113.06-12.80L113.06-12.80Q112.96-12.93 112.74-12.80L112.74-12.80Q112.58-12.74 112.50-12.70Q112.42-12.67 112.42-12.54L112.42-12.54Q112.45-12.29 112.77-12.22L112.77-12.22Q113.09-12.16 113.18-12.38L113.18-12.38Q113.28-12.51 113.23-12.59Q113.18-12.67 113.06-12.80ZM124.74-11.52L124.74-11.52Q124.74-11.74 124.78-11.87Q124.83-12 124.64-12.06L124.64-12.06Q124.42-12.13 124.34-12.03Q124.26-11.94 124.10-11.78L124.10-11.78Q123.97-11.55 124.13-11.30L124.13-11.30Q124.26-11.14 124.34-11.07Q124.42-11.01 124.61-11.07L124.61-11.07Q124.77-11.10 124.75-11.22Q124.74-11.33 124.74-11.52ZM115.55-11.62L115.55-11.62Q115.17-11.78 114.98-11.62Q114.78-11.46 114.53-11.10L114.53-11.10Q114.24-10.75 114.08-10.54Q113.92-10.34 114.18-9.95L114.18-9.95Q114.46-9.50 114.72-9.42Q114.98-9.34 115.46-9.47L115.46-9.47Q115.90-9.60 115.92-9.86Q115.94-10.11 115.97-10.56L115.97-10.56Q116.00-10.98 115.98-11.22Q115.97-11.46 115.55-11.62ZM106.08-11.04L106.05-11.30L105.82-11.49L105.73-11.20L105.82-11.01L106.08-11.04ZM127.10-9.82L127.10-9.82Q126.91-10.43 126.62-10.61Q126.34-10.78 125.70-10.78L125.70-10.78Q125.09-10.78 124.85-10.58Q124.61-10.37 124.42-9.79L124.42-9.79Q124.26-9.25 124.38-8.99Q124.51-8.74 124.99-8.38L124.99-8.38Q125.38-8.10 125.63-8.19Q125.89-8.29 126.27-8.58L126.27-8.58Q126.72-8.90 126.99-9.10Q127.26-9.31 127.10-9.82ZM111.23-10.62L111.10-10.78L110.94-10.66L110.91-10.43L111.17-10.40L111.23-10.62ZM107.42-9.60L107.42-9.60Q107.04-9.86 106.82-10Q106.59-10.14 106.24-9.89L106.24-9.89Q105.86-9.60 105.89-9.34Q105.92-9.09 106.08-8.64L106.08-8.64Q106.21-8.19 106.37-8.02Q106.53-7.84 106.98-7.84L106.98-7.84Q107.55-7.84 107.89-7.89Q108.22-7.94 108.38-8.48L108.38-8.48Q108.54-9.02 108.21-9.15Q107.87-9.28 107.42-9.60ZM110.82-9.12L110.82-9.54L110.46-9.76L110.30-9.41L110.40-9.15L110.82-9.12ZM117.12-9.12L117.12-9.12Q116.86-9.25 116.74-9.15Q116.61-9.06 116.42-8.86L116.42-8.86Q116.16-8.61 116.35-8.26L116.35-8.26Q116.45-8.06 116.53-7.97Q116.61-7.87 116.86-7.90L116.86-7.90Q117.12-7.94 117.25-8.02Q117.38-8.10 117.44-8.35L117.44-8.35Q117.47-8.67 117.42-8.83Q117.38-8.99 117.12-9.12ZM124.42-7.04L124.42-7.04Q124.03-7.36 123.81-7.18Q123.58-7.01 123.17-6.75L123.17-6.75Q122.72-6.46 122.38-6.34Q122.05-6.21 122.21-5.66L122.21-5.66Q122.34-5.09 122.64-4.98Q122.94-4.86 123.55-4.83L123.55-4.83Q124.03-4.80 124.18-5.04Q124.32-5.28 124.48-5.73L124.48-5.73Q124.67-6.18 124.74-6.45Q124.80-6.72 124.42-7.04ZM126.53-6.50L126.34-6.91L125.92-6.82L125.79-6.37L126.21-6.30L126.53-6.50ZM108.58-5.63L108.58-5.63Q108.58-5.89 108.58-6.02Q108.58-6.14 108.35-6.21L108.35-6.21Q108.13-6.27 108.05-6.16Q107.97-6.05 107.84-5.86L107.84-5.86Q107.71-5.63 107.90-5.41L107.90-5.41Q108.10-5.12 108.35-5.22L108.35-5.22Q108.58-5.31 108.58-5.63ZM126.34-2.91L126.34-2.91Q126.11-3.30 125.97-3.49Q125.82-3.68 125.38-3.58L125.38-3.58Q124.93-3.49 124.77-3.30Q124.61-3.10 124.54-2.62L124.54-2.62Q124.51-2.18 124.64-1.98Q124.77-1.79 125.18-1.60L125.18-1.60Q125.66-1.38 125.95-1.26Q126.24-1.15 126.59-1.57L126.59-1.57Q126.94-1.92 126.77-2.19Q126.59-2.46 126.34-2.91ZM108.80-3.04L109.06-3.36L108.74-3.55L108.29-3.58L108.32-3.04L108.80-3.04ZM122.56-2.59L122.27-2.88L121.95-2.72L121.95-2.34L122.34-2.21L122.56-2.59ZM140.35 0.32L140.35 0.32Q131.55 0.32 131.07-6.82L131.07-6.82Q130.98-8.32 131.07-9.82L131.07-9.82Q131.33-13.34 133.76-15.15Q136.19-16.96 140.35-16.96L140.35-16.96Q144.51-16.96 146.96-15.15Q149.41-13.34 149.63-9.82L149.63-9.82Q149.73-8.32 149.63-6.82L149.63-6.82Q149.15 0.32 140.35 0.32ZM143.65-15.71L143.65-15.71Q143.55-15.94 143.39-15.87Q143.23-15.81 142.98-15.81L142.98-15.81Q142.78-15.81 142.69-15.78Q142.59-15.74 142.56-15.58L142.56-15.58Q142.46-15.33 142.42-15.17Q142.37-15.01 142.59-14.88L142.59-14.88Q142.82-14.72 142.98-14.75Q143.14-14.78 143.36-14.98L143.36-14.98Q143.58-15.17 143.66-15.30Q143.74-15.42 143.65-15.71ZM138.05-15.33L138.05-15.33Q137.89-15.62 137.71-15.58Q137.54-15.55 137.22-15.52L137.22-15.52Q136.93-15.49 136.75-15.46Q136.58-15.42 136.51-15.14L136.51-15.14Q136.45-14.78 136.53-14.62Q136.61-14.46 136.90-14.30L136.90-14.30Q137.25-14.11 137.44-14.08Q137.63-14.05 137.92-14.30L137.92-14.30Q138.21-14.56 138.21-14.77Q138.21-14.98 138.05-15.33ZM139.74-14.37L139.90-14.59L139.65-14.78L139.39-14.56L139.49-14.24L139.74-14.37ZM143.14-13.86L143.14-13.86Q143.04-14.08 142.91-14.11Q142.78-14.14 142.53-14.11L142.53-14.11Q142.34-14.08 142.32-13.97Q142.30-13.86 142.27-13.66L142.27-13.66Q142.24-13.44 142.19-13.30Q142.14-13.15 142.34-13.06L142.34-13.06Q142.59-12.93 142.75-12.93Q142.91-12.93 143.10-13.12L143.10-13.12Q143.30-13.31 143.28-13.46Q143.26-13.60 143.14-13.86ZM138.98-13.73L138.98-13.73Q138.82-13.89 138.72-13.97Q138.62-14.05 138.46-13.95L138.46-13.95Q138.27-13.89 138.32-13.76Q138.37-13.63 138.40-13.44L138.40-13.44Q138.43-13.18 138.62-13.15L138.62-13.15Q138.82-13.12 138.93-13.09Q139.04-13.06 139.14-13.22L139.14-13.22Q139.23-13.41 139.17-13.50Q139.10-13.60 138.98-13.73ZM146.72-12.32L146.72-12.32Q146.14-13.09 145.68-13.36Q145.22-13.63 144.32-13.31L144.32-13.31Q143.46-12.99 143.42-12.46Q143.39-11.94 143.42-11.01L143.42-11.01Q143.46-10.34 143.78-10.16Q144.10-9.98 144.77-9.82L144.77-9.82Q145.38-9.63 145.74-9.62Q146.11-9.60 146.46-10.14L146.46-10.14Q146.94-10.85 147.09-11.26Q147.23-11.68 146.72-12.32ZM134.69-10.75L134.69-10.75Q134.34-11.36 134.11-11.68Q133.89-12 133.22-11.87L133.22-11.87Q132.58-11.71 132.59-11.30Q132.61-10.88 132.54-10.21L132.54-10.21Q132.48-9.60 132.45-9.23Q132.42-8.86 132.99-8.61L132.99-8.61Q133.70-8.32 134.08-8.35Q134.46-8.38 134.98-8.96L134.98-8.96Q135.39-9.47 135.22-9.82Q135.04-10.18 134.69-10.75ZM140.35-4.80L140.35-4.80Q141.28-4.80 141.50-5.33Q141.73-5.86 141.79-6.98L141.79-6.98Q141.82-7.46 141.82-8.32Q141.82-9.18 141.79-9.66L141.79-9.66Q141.73-10.72 141.50-11.28Q141.28-11.84 140.35-11.84L140.35-11.84Q139.46-11.84 139.22-11.28Q138.98-10.72 138.91-9.66L138.91-9.66Q138.88-9.18 138.88-8.32Q138.88-7.46 138.91-6.98L138.91-6.98Q138.98-5.86 139.22-5.33Q139.46-4.80 140.35-4.80ZM138.27-11.46L138.27-11.46Q138.21-11.68 138.06-11.68Q137.92-11.68 137.70-11.71L137.70-11.71Q137.34-11.74 137.25-11.52L137.25-11.52Q137.18-11.36 137.23-11.28Q137.28-11.20 137.44-11.07L137.44-11.07Q137.57-10.94 137.65-10.88Q137.73-10.82 137.92-10.91L137.92-10.91Q138.11-11.04 138.21-11.14Q138.30-11.23 138.27-11.46ZM136.26-11.36L136.32-11.62L135.97-11.71L135.84-11.39L136.10-11.26L136.26-11.36ZM136.54-8.86L136.54-8.86Q136.29-8.86 136.19-8.58L136.19-8.58Q136.06-8.26 136.29-8.10L136.29-8.10Q136.54-7.90 136.80-8.10L136.80-8.10Q137.09-8.29 136.99-8.58L136.99-8.58Q136.96-8.77 136.85-8.82Q136.74-8.86 136.54-8.86ZM148.51-7.01L148.51-7.01Q148.26-7.68 147.82-7.62Q147.39-7.55 146.69-7.49L146.69-7.49Q146.11-7.42 145.87-7.26Q145.63-7.10 145.50-6.56L145.50-6.56Q145.38-5.98 145.47-5.70Q145.57-5.41 146.08-5.09L146.08-5.09Q146.72-4.70 147.09-4.53Q147.46-4.35 148.03-4.83L148.03-4.83Q148.64-5.41 148.74-5.82Q148.83-6.24 148.51-7.01ZM136.51-6.88L136.38-7.14L136.10-7.20L136.00-6.91L136.26-6.69L136.51-6.88ZM133.34-6.27L133.34-6.27Q133.12-6.43 132.98-6.40Q132.83-6.37 132.61-6.18L132.61-6.18Q132.29-5.92 132.42-5.54L132.42-5.54Q132.51-5.25 132.61-5.12Q132.70-4.99 132.99-4.99L132.99-4.99Q133.25-4.99 133.26-5.17Q133.28-5.34 133.34-5.60L133.34-5.60Q133.44-5.86 133.49-6Q133.54-6.14 133.34-6.27ZM134.56-5.47L134.66-5.76L134.34-5.95L134.05-5.70L134.30-5.44L134.56-5.47ZM137.60-5.12L137.73-5.54L137.38-5.76L137.02-5.50L137.25-5.22L137.60-5.12ZM140.42-2.78L140.42-2.78Q140.42-3.23 140.27-3.41Q140.13-3.58 139.71-3.71L139.71-3.71Q139.26-3.87 139.04-3.82Q138.82-3.78 138.53-3.39L138.53-3.39Q138.30-3.10 138.48-2.93Q138.66-2.75 138.91-2.43L138.91-2.43Q139.07-2.21 139.20-2.14Q139.33-2.08 139.58-2.18L139.58-2.18Q139.97-2.30 140.19-2.35Q140.42-2.40 140.42-2.78ZM134.18-3.39L134.18-3.39Q133.98-3.74 133.54-3.68L133.54-3.68Q133.31-3.62 133.28-3.49Q133.25-3.36 133.22-3.10L133.22-3.10Q133.18-2.88 133.18-2.75Q133.18-2.62 133.41-2.53L133.41-2.53Q133.63-2.43 133.73-2.53Q133.82-2.62 133.98-2.78L133.98-2.78Q134.14-2.98 134.22-3.07Q134.30-3.17 134.18-3.39ZM141.95-3.30L141.95-3.30Q141.70-3.42 141.54-3.50Q141.38-3.58 141.18-3.39L141.18-3.39Q140.99-3.20 141.10-3.06Q141.22-2.91 141.31-2.66L141.31-2.66Q141.41-2.46 141.49-2.37Q141.57-2.27 141.76-2.30L141.76-2.30Q142.08-2.34 142.26-2.37Q142.43-2.40 142.50-2.72L142.50-2.72Q142.53-3.01 142.37-3.09Q142.21-3.17 141.95-3.30ZM145.31-3.07L145.31-3.07Q145.09-3.33 144.91-3.28Q144.74-3.23 144.42-3.10L144.42-3.10Q144.13-2.94 143.97-2.82Q143.81-2.69 143.84-2.37L143.84-2.37Q143.94-1.89 144.00-1.63Q144.06-1.38 144.54-1.28L144.54-1.28Q144.99-1.22 145.09-1.49Q145.18-1.76 145.38-2.18L145.38-2.18Q145.54-2.46 145.55-2.66Q145.57-2.85 145.31-3.07ZM136.19-2.98L136.19-2.98Q136.00-3.07 135.89-3.02Q135.78-2.98 135.62-2.85L135.62-2.85Q135.46-2.69 135.39-2.59Q135.33-2.50 135.39-2.27L135.39-2.27Q135.49-2.08 135.60-2.03Q135.71-1.98 135.94-2.02L135.94-2.02Q136.13-2.05 136.19-2.13Q136.26-2.21 136.32-2.40L136.32-2.40Q136.35-2.62 136.37-2.74Q136.38-2.85 136.19-2.98ZM142.62-1.12L142.62-1.54L142.18-1.60L141.98-1.18L142.34-1.02L142.62-1.12ZM160.90 0.32L160.90 0.32Q152.10 0.32 151.62-6.82L151.62-6.82Q151.52-8.32 151.62-9.82L151.62-9.82Q151.87-13.34 154.30-15.15Q156.74-16.96 160.90-16.96L160.90-16.96Q165.06-16.96 167.50-15.15Q169.95-13.34 170.18-9.82L170.18-9.82Q170.27-8.32 170.18-6.82L170.18-6.82Q169.70 0.32 160.90 0.32ZM164.19-15.71L164.19-15.71Q164.10-15.94 163.94-15.87Q163.78-15.81 163.52-15.81L163.52-15.81Q163.33-15.81 163.23-15.78Q163.14-15.74 163.10-15.58L163.10-15.58Q163.01-15.33 162.96-15.17Q162.91-15.01 163.14-14.88L163.14-14.88Q163.36-14.72 163.52-14.75Q163.68-14.78 163.90-14.98L163.90-14.98Q164.13-15.17 164.21-15.30Q164.29-15.42 164.19-15.71ZM158.59-15.33L158.59-15.33Q158.43-15.62 158.26-15.58Q158.08-15.55 157.76-15.52L157.76-15.52Q157.47-15.49 157.30-15.46Q157.12-15.42 157.06-15.14L157.06-15.14Q156.99-14.78 157.07-14.62Q157.15-14.46 157.44-14.30L157.44-14.30Q157.79-14.11 157.98-14.08Q158.18-14.05 158.46-14.30L158.46-14.30Q158.75-14.56 158.75-14.77Q158.75-14.98 158.59-15.33ZM160.29-14.37L160.45-14.59L160.19-14.78L159.94-14.56L160.03-14.24L160.29-14.37ZM163.68-13.86L163.68-13.86Q163.58-14.08 163.46-14.11Q163.33-14.14 163.07-14.11L163.07-14.11Q162.88-14.08 162.86-13.97Q162.85-13.86 162.82-13.66L162.82-13.66Q162.78-13.44 162.74-13.30Q162.69-13.15 162.88-13.06L162.88-13.06Q163.14-12.93 163.30-12.93Q163.46-12.93 163.65-13.12L163.65-13.12Q163.84-13.31 163.82-13.46Q163.81-13.60 163.68-13.86ZM159.52-13.73L159.52-13.73Q159.36-13.89 159.26-13.97Q159.17-14.05 159.01-13.95L159.01-13.95Q158.82-13.89 158.86-13.76Q158.91-13.63 158.94-13.44L158.94-13.44Q158.98-13.18 159.17-13.15L159.17-13.15Q159.36-13.12 159.47-13.09Q159.58-13.06 159.68-13.22L159.68-13.22Q159.78-13.41 159.71-13.50Q159.65-13.60 159.52-13.73ZM167.26-12.32L167.26-12.32Q166.69-13.09 166.22-13.36Q165.76-13.63 164.86-13.31L164.86-13.31Q164-12.99 163.97-12.46Q163.94-11.94 163.97-11.01L163.97-11.01Q164-10.34 164.32-10.16Q164.64-9.98 165.31-9.82L165.31-9.82Q165.92-9.63 166.29-9.62Q166.66-9.60 167.01-10.14L167.01-10.14Q167.49-10.85 167.63-11.26Q167.78-11.68 167.26-12.32ZM155.23-10.75L155.23-10.75Q154.88-11.36 154.66-11.68Q154.43-12 153.76-11.87L153.76-11.87Q153.12-11.71 153.14-11.30Q153.15-10.88 153.09-10.21L153.09-10.21Q153.02-9.60 152.99-9.23Q152.96-8.86 153.54-8.61L153.54-8.61Q154.24-8.32 154.62-8.35Q155.01-8.38 155.52-8.96L155.52-8.96Q155.94-9.47 155.76-9.82Q155.58-10.18 155.23-10.75ZM160.90-4.80L160.90-4.80Q161.82-4.80 162.05-5.33Q162.27-5.86 162.34-6.98L162.34-6.98Q162.37-7.46 162.37-8.32Q162.37-9.18 162.34-9.66L162.34-9.66Q162.27-10.72 162.05-11.28Q161.82-11.84 160.90-11.84L160.90-11.84Q160-11.84 159.76-11.28Q159.52-10.72 159.46-9.66L159.46-9.66Q159.42-9.18 159.42-8.32Q159.42-7.46 159.46-6.98L159.46-6.98Q159.52-5.86 159.76-5.33Q160-4.80 160.90-4.80ZM158.82-11.46L158.82-11.46Q158.75-11.68 158.61-11.68Q158.46-11.68 158.24-11.71L158.24-11.71Q157.89-11.74 157.79-11.52L157.79-11.52Q157.73-11.36 157.78-11.28Q157.82-11.20 157.98-11.07L157.98-11.07Q158.11-10.94 158.19-10.88Q158.27-10.82 158.46-10.91L158.46-10.91Q158.66-11.04 158.75-11.14Q158.85-11.23 158.82-11.46ZM156.80-11.36L156.86-11.62L156.51-11.71L156.38-11.39L156.64-11.26L156.80-11.36ZM157.09-8.86L157.09-8.86Q156.83-8.86 156.74-8.58L156.74-8.58Q156.61-8.26 156.83-8.10L156.83-8.10Q157.09-7.90 157.34-8.10L157.34-8.10Q157.63-8.29 157.54-8.58L157.54-8.58Q157.50-8.77 157.39-8.82Q157.28-8.86 157.09-8.86ZM169.06-7.01L169.06-7.01Q168.80-7.68 168.37-7.62Q167.94-7.55 167.23-7.49L167.23-7.49Q166.66-7.42 166.42-7.26Q166.18-7.10 166.05-6.56L166.05-6.56Q165.92-5.98 166.02-5.70Q166.11-5.41 166.62-5.09L166.62-5.09Q167.26-4.70 167.63-4.53Q168-4.35 168.58-4.83L168.58-4.83Q169.18-5.41 169.28-5.82Q169.38-6.24 169.06-7.01ZM157.06-6.88L156.93-7.14L156.64-7.20L156.54-6.91L156.80-6.69L157.06-6.88ZM153.89-6.27L153.89-6.27Q153.66-6.43 153.52-6.40Q153.38-6.37 153.15-6.18L153.15-6.18Q152.83-5.92 152.96-5.54L152.96-5.54Q153.06-5.25 153.15-5.12Q153.25-4.99 153.54-4.99L153.54-4.99Q153.79-4.99 153.81-5.17Q153.82-5.34 153.89-5.60L153.89-5.60Q153.98-5.86 154.03-6Q154.08-6.14 153.89-6.27ZM155.10-5.47L155.20-5.76L154.88-5.95L154.59-5.70L154.85-5.44L155.10-5.47ZM158.14-5.12L158.27-5.54L157.92-5.76L157.57-5.50L157.79-5.22L158.14-5.12ZM160.96-2.78L160.96-2.78Q160.96-3.23 160.82-3.41Q160.67-3.58 160.26-3.71L160.26-3.71Q159.81-3.87 159.58-3.82Q159.36-3.78 159.07-3.39L159.07-3.39Q158.85-3.10 159.02-2.93Q159.20-2.75 159.46-2.43L159.46-2.43Q159.62-2.21 159.74-2.14Q159.87-2.08 160.13-2.18L160.13-2.18Q160.51-2.30 160.74-2.35Q160.96-2.40 160.96-2.78ZM154.72-3.39L154.72-3.39Q154.53-3.74 154.08-3.68L154.08-3.68Q153.86-3.62 153.82-3.49Q153.79-3.36 153.76-3.10L153.76-3.10Q153.73-2.88 153.73-2.75Q153.73-2.62 153.95-2.53L153.95-2.53Q154.18-2.43 154.27-2.53Q154.37-2.62 154.53-2.78L154.53-2.78Q154.69-2.98 154.77-3.07Q154.85-3.17 154.72-3.39ZM162.50-3.30L162.50-3.30Q162.24-3.42 162.08-3.50Q161.92-3.58 161.73-3.39L161.73-3.39Q161.54-3.20 161.65-3.06Q161.76-2.91 161.86-2.66L161.86-2.66Q161.95-2.46 162.03-2.37Q162.11-2.27 162.30-2.30L162.30-2.30Q162.62-2.34 162.80-2.37Q162.98-2.40 163.04-2.72L163.04-2.72Q163.07-3.01 162.91-3.09Q162.75-3.17 162.50-3.30ZM165.86-3.07L165.86-3.07Q165.63-3.33 165.46-3.28Q165.28-3.23 164.96-3.10L164.96-3.10Q164.67-2.94 164.51-2.82Q164.35-2.69 164.38-2.37L164.38-2.37Q164.48-1.89 164.54-1.63Q164.61-1.38 165.09-1.28L165.09-1.28Q165.54-1.22 165.63-1.49Q165.73-1.76 165.92-2.18L165.92-2.18Q166.08-2.46 166.10-2.66Q166.11-2.85 165.86-3.07ZM156.74-2.98L156.74-2.98Q156.54-3.07 156.43-3.02Q156.32-2.98 156.16-2.85L156.16-2.85Q156-2.69 155.94-2.59Q155.87-2.50 155.94-2.27L155.94-2.27Q156.03-2.08 156.14-2.03Q156.26-1.98 156.48-2.02L156.48-2.02Q156.67-2.05 156.74-2.13Q156.80-2.21 156.86-2.40L156.86-2.40Q156.90-2.62 156.91-2.74Q156.93-2.85 156.74-2.98ZM163.17-1.12L163.17-1.54L162.72-1.60L162.53-1.18L162.88-1.02L163.17-1.12ZM179.55 0L173.47 0Q173.12 0 172.86-0.26Q172.61-0.51 172.61-0.86L172.61-0.86L172.61-15.78Q172.61-16.13 172.86-16.38Q173.12-16.64 173.47-16.64L173.47-16.64L179.07-16.64Q179.42-16.64 179.68-16.38Q179.94-16.13 179.94-15.78L179.94-15.78L179.94-14.72Q180.74-15.65 182.14-16.30Q183.55-16.96 185.25-16.96L185.25-16.96Q186.88-16.96 188.29-16.19Q189.70-15.42 190.58-13.82Q191.46-12.22 191.46-9.70L191.46-9.70L191.46-0.86Q191.46-0.51 191.20-0.26Q190.94 0 190.59 0L190.59 0L184.48 0Q184.13 0 183.87-0.26Q183.62-0.51 183.62-0.86L183.62-0.86L183.62-9.47Q183.62-11.23 182.02-11.23L182.02-11.23Q180.42-11.23 180.42-9.47L180.42-9.47L180.42-0.86Q180.42-0.51 180.16-0.26Q179.90 0 179.55 0L179.55 0ZM175.20-16.06L175.20-16.06Q174.91-16.10 174.77-16.05Q174.62-16 174.50-15.74L174.50-15.74Q174.37-15.49 174.42-15.34Q174.46-15.20 174.69-15.01L174.69-15.01Q174.88-14.78 175.02-14.72Q175.17-14.66 175.42-14.78L175.42-14.78Q175.71-14.94 175.78-15.09Q175.84-15.23 175.81-15.52L175.81-15.52Q175.74-15.84 175.62-15.92Q175.49-16 175.20-16.06ZM176.80-14.82L176.96-15.23L176.64-15.39L176.38-15.23L176.35-14.82L176.80-14.82ZM178.08-13.06L178.14-13.41L177.89-13.60L177.60-13.44L177.73-13.15L178.08-13.06ZM179.58-12.77L179.62-13.18L179.26-13.41L179.04-13.06L179.20-12.77L179.58-12.77ZM175.52-13.18L175.52-13.18Q175.42-13.31 175.34-13.33Q175.26-13.34 175.07-13.31L175.07-13.31Q174.78-13.25 174.75-13.06L174.75-13.06Q174.72-12.80 174.98-12.67L174.98-12.67Q175.17-12.58 175.36-12.77L175.36-12.77Q175.49-12.90 175.54-12.96Q175.58-13.02 175.52-13.18ZM183.62-13.25L183.62-13.25Q183.39-13.34 183.25-13.34Q183.10-13.34 182.98-13.15L182.98-13.15Q182.82-12.90 182.78-12.75Q182.75-12.61 182.94-12.35L182.94-12.35Q183.10-12.16 183.25-12.21Q183.39-12.26 183.65-12.35L183.65-12.35Q184-12.48 184-12.83L184-12.83Q184-13.15 183.62-13.25ZM181.09-13.09L181.09-13.09Q180.80-13.18 180.64-13.20Q180.48-13.22 180.29-12.96L180.29-12.96Q180.10-12.74 180.16-12.59Q180.22-12.45 180.38-12.19L180.38-12.19Q180.51-11.97 180.64-11.92Q180.77-11.87 181.02-11.94L181.02-11.94Q181.28-12 181.39-12.10Q181.50-12.19 181.50-12.48L181.50-12.48Q181.50-12.77 181.42-12.88Q181.34-12.99 181.09-13.09ZM187.87-12.32L187.87-12.32Q187.55-12.58 187.36-12.70Q187.17-12.83 186.82-12.64L186.82-12.64Q186.43-12.42 186.46-12.19Q186.50-11.97 186.59-11.55L186.59-11.55Q186.66-11.14 186.72-10.88Q186.78-10.62 187.20-10.56L187.20-10.56Q187.65-10.53 187.79-10.74Q187.94-10.94 188.13-11.36L188.13-11.36Q188.26-11.71 188.19-11.89Q188.13-12.06 187.87-12.32ZM178.69-12.03L178.69-12.03Q178.53-12.29 178.42-12.46Q178.30-12.64 177.98-12.54L177.98-12.54Q177.66-12.48 177.63-12.29Q177.60-12.10 177.57-11.74L177.57-11.74Q177.54-11.30 177.98-11.10L177.98-11.10Q178.21-11.04 178.30-11.14Q178.40-11.23 178.56-11.42L178.56-11.42Q178.69-11.58 178.75-11.70Q178.82-11.81 178.69-12.03ZM175.23-11.42L175.23-11.42Q174.85-11.52 174.66-11.20L174.66-11.20Q174.50-10.94 174.43-10.80Q174.37-10.66 174.53-10.43L174.53-10.43Q174.72-10.21 174.88-10.27Q175.04-10.34 175.30-10.43L175.30-10.43Q175.49-10.53 175.52-10.62Q175.55-10.72 175.55-10.94L175.55-10.94Q175.55-11.17 175.49-11.26Q175.42-11.36 175.23-11.42ZM190.40-9.66L190.40-9.98L190.21-10.08L189.92-9.95L190.08-9.66L190.40-9.66ZM173.79-9.28L173.86-9.60L173.60-9.82L173.38-9.57L173.50-9.34L173.79-9.28ZM178.98-9.06L178.98-9.06Q178.91-9.41 178.59-9.47L178.59-9.47Q178.24-9.54 178.08-9.22L178.08-9.22Q177.92-8.90 178.14-8.67L178.14-8.67Q178.30-8.51 178.40-8.53Q178.50-8.54 178.69-8.61L178.69-8.61Q178.85-8.70 178.93-8.78Q179.01-8.86 178.98-9.06ZM177.22-8.13L177.22-8.13Q176.90-8.58 176.64-8.70Q176.38-8.83 175.84-8.67L175.84-8.67Q175.33-8.54 175.30-8.26Q175.26-7.97 175.23-7.46L175.23-7.46Q175.20-6.94 175.23-6.66Q175.26-6.37 175.74-6.18L175.74-6.18Q176.19-6.02 176.37-6.27Q176.54-6.53 176.83-6.91L176.83-6.91Q177.15-7.30 177.33-7.50Q177.50-7.71 177.22-8.13ZM187.87-8.10L187.87-8.10Q187.30-8.54 186.91-8.67Q186.53-8.80 185.95-8.35L185.95-8.35Q185.25-7.84 184.94-7.46Q184.64-7.07 184.90-6.24L184.90-6.24Q185.18-5.38 185.63-5.18Q186.08-4.99 187.01-4.99L187.01-4.99Q187.78-4.99 188-5.34Q188.22-5.70 188.48-6.43L188.48-6.43Q188.67-7.07 188.54-7.39Q188.42-7.71 187.87-8.10ZM178.91-6.02L178.91-6.02Q178.69-6.05 178.59-5.86L178.59-5.86Q178.50-5.70 178.42-5.60Q178.34-5.50 178.46-5.38L178.46-5.38Q178.72-5.12 179.07-5.31L179.07-5.31Q179.23-5.38 179.23-5.49Q179.23-5.60 179.20-5.79L179.20-5.79Q179.17-5.95 178.91-6.02ZM190.66-4.58L190.85-4.93L190.43-5.02L190.27-4.70L190.37-4.42L190.66-4.58ZM179.07-4.16L178.98-4.45L178.59-4.54L178.59-4.16L178.82-3.97L179.07-4.16ZM175.49-3.84L175.39-4.16L175.10-4.32L174.94-4.03L175.14-3.84L175.49-3.84ZM187.30-3.33L187.39-3.52L187.20-3.78L186.94-3.52L187.10-3.30L187.30-3.33ZM175.90-2.85L175.90-2.85Q175.68-3.04 175.54-3.10Q175.39-3.17 175.14-3.04L175.14-3.04Q174.88-2.88 174.88-2.72Q174.88-2.56 174.94-2.27L174.94-2.27Q175.04-1.98 175.10-1.84Q175.17-1.70 175.46-1.66L175.46-1.66Q175.78-1.63 175.92-1.73Q176.06-1.82 176.19-2.11L176.19-2.11Q176.32-2.37 176.22-2.51Q176.13-2.66 175.90-2.85ZM179.17-2.50L179.17-2.50Q178.85-2.78 178.50-2.59L178.50-2.59Q178.21-2.40 178.03-2.30Q177.86-2.21 177.95-1.89L177.95-1.89Q178.02-1.50 178.14-1.33Q178.27-1.15 178.69-1.12L178.69-1.12Q179.04-1.09 179.14-1.28Q179.23-1.47 179.36-1.82L179.36-1.82Q179.49-2.08 179.42-2.21Q179.36-2.34 179.17-2.50ZM186.34-2.21L186.34-2.21Q186.05-2.34 185.89-2.11L185.89-2.11Q185.73-1.92 185.92-1.66L185.92-1.66Q186.11-1.38 186.34-1.47L186.34-1.47Q186.56-1.54 186.56-1.86L186.56-1.86Q186.56-2.14 186.34-2.21ZM190.50-1.98L190.50-1.98Q190.30-2.18 190.14-2.11L190.14-2.11Q189.98-2.02 189.89-1.95Q189.79-1.89 189.82-1.70L189.82-1.70Q189.86-1.54 189.97-1.50Q190.08-1.47 190.24-1.44L190.24-1.44Q190.56-1.41 190.69-1.60L190.69-1.60Q190.75-1.76 190.69-1.82Q190.62-1.89 190.50-1.98ZM174.27-1.28L174.34-1.73L173.92-1.76L173.63-1.50L173.82-1.09L174.27-1.28ZM201.12 0L195.04 0Q194.69 0 194.43-0.26Q194.18-0.51 194.18-0.86L194.18-0.86L194.18-15.78Q194.18-16.13 194.43-16.38Q194.69-16.64 195.04-16.64L195.04-16.64L200.64-16.64Q200.99-16.64 201.25-16.38Q201.50-16.13 201.50-15.78L201.50-15.78L201.50-14.66Q202.53-15.55 203.79-16.10Q205.06-16.64 206.50-16.64L206.50-16.64L208.03-16.64Q208.38-16.64 208.64-16.38Q208.90-16.13 208.90-15.78L208.90-15.78L208.90-10.78Q208.90-10.43 208.64-10.18Q208.38-9.92 208.03-9.92L208.03-9.92L203.90-9.92Q201.98-9.92 201.98-8L201.98-8L201.98-0.86Q201.98-0.51 201.73-0.26Q201.47 0 201.12 0L201.12 0ZM199.68-14.85L199.68-14.85Q199.55-15.17 199.41-15.30Q199.26-15.42 198.91-15.42L198.91-15.42Q198.50-15.42 198.29-15.36Q198.08-15.30 197.95-14.91L197.95-14.91Q197.79-14.43 197.78-14.16Q197.76-13.89 198.18-13.57L198.18-13.57Q198.59-13.28 198.86-13.34Q199.14-13.41 199.55-13.70L199.55-13.70Q199.90-13.95 199.86-14.19Q199.81-14.43 199.68-14.85ZM204.80-14.85L204.86-15.17L204.61-15.23L204.35-15.14L204.48-14.88L204.80-14.85ZM203.78-14.37L203.78-14.37Q203.07-14.66 202.69-14.51Q202.30-14.37 201.82-13.76L201.82-13.76Q201.34-13.18 201.33-12.80Q201.31-12.42 201.73-11.78L201.73-11.78Q202.11-11.14 202.48-10.99Q202.85-10.85 203.58-11.04L203.58-11.04Q204.29-11.23 204.46-11.57Q204.64-11.90 204.67-12.61L204.67-12.61Q204.70-13.38 204.59-13.74Q204.48-14.11 203.78-14.37ZM195.94-13.31L195.65-13.47L195.42-13.31L195.49-13.06L195.81-13.02L195.94-13.31ZM207.78-12.45L207.78-12.45Q207.71-12.74 207.58-12.82Q207.46-12.90 207.14-12.96L207.14-12.96Q206.78-12.99 206.58-13.02Q206.37-13.06 206.21-12.74L206.21-12.74Q206.02-12.38 206.05-12.18Q206.08-11.97 206.37-11.65L206.37-11.65Q206.66-11.39 206.86-11.41Q207.07-11.42 207.39-11.62L207.39-11.62Q207.71-11.78 207.76-11.94Q207.81-12.10 207.78-12.45ZM198.72-11.39L198.72-11.39Q198.66-12 198.35-12.13Q198.05-12.26 197.47-12.38L197.47-12.38Q196.80-12.54 196.40-12.67Q196.00-12.80 195.65-12.19L195.65-12.19Q195.30-11.58 195.54-11.26Q195.78-10.94 196.22-10.40L196.22-10.40Q196.67-9.89 196.96-9.68Q197.25-9.47 197.86-9.73L197.86-9.73Q198.50-10.02 198.64-10.35Q198.78-10.69 198.72-11.39ZM201.47-10.53L201.47-10.53Q201.25-10.85 201.07-10.94Q200.90-11.04 200.51-10.94L200.51-10.94Q200.16-10.85 200.11-10.64Q200.06-10.43 200.06-10.08L200.06-10.08Q200.06-9.73 200.13-9.57Q200.19-9.41 200.48-9.31L200.48-9.31Q200.83-9.18 201.01-9.23Q201.18-9.28 201.41-9.57L201.41-9.57Q201.63-9.86 201.66-10.05Q201.70-10.24 201.47-10.53ZM195.65-9.41L195.65-9.41Q195.42-9.47 195.36-9.36Q195.30-9.25 195.17-9.09L195.17-9.09Q195.07-8.93 195.02-8.85Q194.98-8.77 195.10-8.61L195.10-8.61Q195.30-8.32 195.58-8.42L195.58-8.42Q195.94-8.51 195.94-8.86L195.94-8.86Q195.94-9.09 195.90-9.22Q195.87-9.34 195.65-9.41ZM197.44-8.64L197.44-8.64Q197.28-8.77 197.17-8.85Q197.06-8.93 196.83-8.80L196.83-8.80Q196.64-8.67 196.66-8.54Q196.67-8.42 196.70-8.19L196.70-8.19Q196.77-7.97 196.82-7.86Q196.86-7.74 197.09-7.71L197.09-7.71Q197.31-7.68 197.38-7.79Q197.44-7.90 197.54-8.13L197.54-8.13Q197.66-8.45 197.44-8.64ZM199.39-8.64L199.39-8.64Q199.26-8.77 199.17-8.82Q199.07-8.86 198.91-8.77L198.91-8.77Q198.72-8.67 198.70-8.58Q198.69-8.48 198.72-8.29L198.72-8.29Q198.78-8 199.10-7.97L199.10-7.97Q199.30-7.94 199.41-7.95Q199.52-7.97 199.62-8.13L199.62-8.13Q199.68-8.32 199.62-8.40Q199.55-8.48 199.39-8.64ZM200.99-7.87L200.99-7.87Q200.99-8.06 200.88-8.11Q200.77-8.16 200.58-8.22L200.58-8.22Q200.38-8.26 200.27-8.29Q200.16-8.32 200.06-8.16L200.06-8.16Q199.94-8 199.97-7.89Q200.00-7.78 200.13-7.62L200.13-7.62Q200.26-7.42 200.35-7.38Q200.45-7.33 200.64-7.39L200.64-7.39Q200.99-7.52 200.99-7.87ZM196.35-6.72L196.35-6.72Q196.32-6.91 196.03-6.94L196.03-6.94Q195.78-6.98 195.68-6.82L195.68-6.82Q195.58-6.59 195.74-6.40L195.74-6.40Q195.97-6.21 196.19-6.30L196.19-6.30Q196.38-6.43 196.35-6.72ZM198.21-6.27L198.21-6.27Q197.60-6.46 197.28-6.35Q196.96-6.24 196.61-5.70L196.61-5.70Q196.22-5.18 196.18-4.83Q196.13-4.48 196.51-3.97L196.51-3.97Q196.86-3.49 197.18-3.63Q197.50-3.78 198.05-3.94L198.05-3.94Q198.53-4.10 198.77-4.24Q199.01-4.38 199.01-4.86L199.01-4.86Q199.01-5.47 198.90-5.78Q198.78-6.08 198.21-6.27ZM200.58-5.76L200.58-5.76Q200.48-6.08 200.22-6.08L200.22-6.08Q200.03-6.08 200.00-5.98Q199.97-5.89 199.90-5.73L199.90-5.73Q199.84-5.44 200.00-5.31L200.00-5.31Q200.13-5.22 200.21-5.26Q200.29-5.31 200.38-5.41L200.38-5.41Q200.51-5.50 200.58-5.55Q200.64-5.60 200.58-5.76ZM196.83-2.40L196.83-2.40Q196.77-2.66 196.61-2.67Q196.45-2.69 196.16-2.75L196.16-2.75Q195.81-2.82 195.65-2.50L195.65-2.50Q195.52-2.27 195.46-2.13Q195.39-1.98 195.58-1.76L195.58-1.76Q195.84-1.54 196.00-1.49Q196.16-1.44 196.45-1.60L196.45-1.60Q196.74-1.73 196.80-1.89Q196.86-2.05 196.83-2.40ZM200.99-2.46L200.99-2.46Q200.86-2.69 200.72-2.69Q200.58-2.69 200.32-2.66L200.32-2.66Q200.13-2.62 200.08-2.53Q200.03-2.43 200.00-2.24L200.00-2.24Q199.97-2.02 199.95-1.87Q199.94-1.73 200.16-1.63L200.16-1.63Q200.38-1.50 200.51-1.55Q200.64-1.60 200.83-1.76L200.83-1.76Q201.02-1.98 201.07-2.11Q201.12-2.24 200.99-2.46ZM219.58 0.32L219.58 0.32Q210.78 0.32 210.30-6.82L210.30-6.82Q210.21-8.32 210.30-9.82L210.30-9.82Q210.56-13.34 212.99-15.15Q215.42-16.96 219.58-16.96L219.58-16.96Q223.74-16.96 226.19-15.15Q228.64-13.34 228.86-9.82L228.86-9.82Q228.96-8.32 228.86-6.82L228.86-6.82Q228.38 0.32 219.58 0.32ZM222.88-15.71L222.88-15.71Q222.78-15.94 222.62-15.87Q222.46-15.81 222.21-15.81L222.21-15.81Q222.02-15.81 221.92-15.78Q221.82-15.74 221.79-15.58L221.79-15.58Q221.70-15.33 221.65-15.17Q221.60-15.01 221.82-14.88L221.82-14.88Q222.05-14.72 222.21-14.75Q222.37-14.78 222.59-14.98L222.59-14.98Q222.82-15.17 222.90-15.30Q222.98-15.42 222.88-15.71ZM217.28-15.33L217.28-15.33Q217.12-15.62 216.94-15.58Q216.77-15.55 216.45-15.52L216.45-15.52Q216.16-15.49 215.98-15.46Q215.81-15.42 215.74-15.14L215.74-15.14Q215.68-14.78 215.76-14.62Q215.84-14.46 216.13-14.30L216.13-14.30Q216.48-14.11 216.67-14.08Q216.86-14.05 217.15-14.30L217.15-14.30Q217.44-14.56 217.44-14.77Q217.44-14.98 217.28-15.33ZM218.98-14.37L219.14-14.59L218.88-14.78L218.62-14.56L218.72-14.24L218.98-14.37ZM222.37-13.86L222.37-13.86Q222.27-14.08 222.14-14.11Q222.02-14.14 221.76-14.11L221.76-14.11Q221.57-14.08 221.55-13.97Q221.54-13.86 221.50-13.66L221.50-13.66Q221.47-13.44 221.42-13.30Q221.38-13.15 221.57-13.06L221.57-13.06Q221.82-12.93 221.98-12.93Q222.14-12.93 222.34-13.12L222.34-13.12Q222.53-13.31 222.51-13.46Q222.50-13.60 222.37-13.86ZM218.21-13.73L218.21-13.73Q218.05-13.89 217.95-13.97Q217.86-14.05 217.70-13.95L217.70-13.95Q217.50-13.89 217.55-13.76Q217.60-13.63 217.63-13.44L217.63-13.44Q217.66-13.18 217.86-13.15L217.86-13.15Q218.05-13.12 218.16-13.09Q218.27-13.06 218.37-13.22L218.37-13.22Q218.46-13.41 218.40-13.50Q218.34-13.60 218.21-13.73ZM225.95-12.32L225.95-12.32Q225.38-13.09 224.91-13.36Q224.45-13.63 223.55-13.31L223.55-13.31Q222.69-12.99 222.66-12.46Q222.62-11.94 222.66-11.01L222.66-11.01Q222.69-10.34 223.01-10.16Q223.33-9.98 224-9.82L224-9.82Q224.61-9.63 224.98-9.62Q225.34-9.60 225.70-10.14L225.70-10.14Q226.18-10.85 226.32-11.26Q226.46-11.68 225.95-12.32ZM213.92-10.75L213.92-10.75Q213.57-11.36 213.34-11.68Q213.12-12 212.45-11.87L212.45-11.87Q211.81-11.71 211.82-11.30Q211.84-10.88 211.78-10.21L211.78-10.21Q211.71-9.60 211.68-9.23Q211.65-8.86 212.22-8.61L212.22-8.61Q212.93-8.32 213.31-8.35Q213.70-8.38 214.21-8.96L214.21-8.96Q214.62-9.47 214.45-9.82Q214.27-10.18 213.92-10.75ZM219.58-4.80L219.58-4.80Q220.51-4.80 220.74-5.33Q220.96-5.86 221.02-6.98L221.02-6.98Q221.06-7.46 221.06-8.32Q221.06-9.18 221.02-9.66L221.02-9.66Q220.96-10.72 220.74-11.28Q220.51-11.84 219.58-11.84L219.58-11.84Q218.69-11.84 218.45-11.28Q218.21-10.72 218.14-9.66L218.14-9.66Q218.11-9.18 218.11-8.32Q218.11-7.46 218.14-6.98L218.14-6.98Q218.21-5.86 218.45-5.33Q218.69-4.80 219.58-4.80ZM217.50-11.46L217.50-11.46Q217.44-11.68 217.30-11.68Q217.15-11.68 216.93-11.71L216.93-11.71Q216.58-11.74 216.48-11.52L216.48-11.52Q216.42-11.36 216.46-11.28Q216.51-11.20 216.67-11.07L216.67-11.07Q216.80-10.94 216.88-10.88Q216.96-10.82 217.15-10.91L217.15-10.91Q217.34-11.04 217.44-11.14Q217.54-11.23 217.50-11.46ZM215.49-11.36L215.55-11.62L215.20-11.71L215.07-11.39L215.33-11.26L215.49-11.36ZM215.78-8.86L215.78-8.86Q215.52-8.86 215.42-8.58L215.42-8.58Q215.30-8.26 215.52-8.10L215.52-8.10Q215.78-7.90 216.03-8.10L216.03-8.10Q216.32-8.29 216.22-8.58L216.22-8.58Q216.19-8.77 216.08-8.82Q215.97-8.86 215.78-8.86ZM227.74-7.01L227.74-7.01Q227.49-7.68 227.06-7.62Q226.62-7.55 225.92-7.49L225.92-7.49Q225.34-7.42 225.10-7.26Q224.86-7.10 224.74-6.56L224.74-6.56Q224.61-5.98 224.70-5.70Q224.80-5.41 225.31-5.09L225.31-5.09Q225.95-4.70 226.32-4.53Q226.69-4.35 227.26-4.83L227.26-4.83Q227.87-5.41 227.97-5.82Q228.06-6.24 227.74-7.01ZM215.74-6.88L215.62-7.14L215.33-7.20L215.23-6.91L215.49-6.69L215.74-6.88ZM212.58-6.27L212.58-6.27Q212.35-6.43 212.21-6.40Q212.06-6.37 211.84-6.18L211.84-6.18Q211.52-5.92 211.65-5.54L211.65-5.54Q211.74-5.25 211.84-5.12Q211.94-4.99 212.22-4.99L212.22-4.99Q212.48-4.99 212.50-5.17Q212.51-5.34 212.58-5.60L212.58-5.60Q212.67-5.86 212.72-6Q212.77-6.14 212.58-6.27ZM213.79-5.47L213.89-5.76L213.57-5.95L213.28-5.70L213.54-5.44L213.79-5.47ZM216.83-5.12L216.96-5.54L216.61-5.76L216.26-5.50L216.48-5.22L216.83-5.12ZM219.65-2.78L219.65-2.78Q219.65-3.23 219.50-3.41Q219.36-3.58 218.94-3.71L218.94-3.71Q218.50-3.87 218.27-3.82Q218.05-3.78 217.76-3.39L217.76-3.39Q217.54-3.10 217.71-2.93Q217.89-2.75 218.14-2.43L218.14-2.43Q218.30-2.21 218.43-2.14Q218.56-2.08 218.82-2.18L218.82-2.18Q219.20-2.30 219.42-2.35Q219.65-2.40 219.65-2.78ZM213.41-3.39L213.41-3.39Q213.22-3.74 212.77-3.68L212.77-3.68Q212.54-3.62 212.51-3.49Q212.48-3.36 212.45-3.10L212.45-3.10Q212.42-2.88 212.42-2.75Q212.42-2.62 212.64-2.53L212.64-2.53Q212.86-2.43 212.96-2.53Q213.06-2.62 213.22-2.78L213.22-2.78Q213.38-2.98 213.46-3.07Q213.54-3.17 213.41-3.39ZM221.18-3.30L221.18-3.30Q220.93-3.42 220.77-3.50Q220.61-3.58 220.42-3.39L220.42-3.39Q220.22-3.20 220.34-3.06Q220.45-2.91 220.54-2.66L220.54-2.66Q220.64-2.46 220.72-2.37Q220.80-2.27 220.99-2.30L220.99-2.30Q221.31-2.34 221.49-2.37Q221.66-2.40 221.73-2.72L221.73-2.72Q221.76-3.01 221.60-3.09Q221.44-3.17 221.18-3.30ZM224.54-3.07L224.54-3.07Q224.32-3.33 224.14-3.28Q223.97-3.23 223.65-3.10L223.65-3.10Q223.36-2.94 223.20-2.82Q223.04-2.69 223.07-2.37L223.07-2.37Q223.17-1.89 223.23-1.63Q223.30-1.38 223.78-1.28L223.78-1.28Q224.22-1.22 224.32-1.49Q224.42-1.76 224.61-2.18L224.61-2.18Q224.77-2.46 224.78-2.66Q224.80-2.85 224.54-3.07ZM215.42-2.98L215.42-2.98Q215.23-3.07 215.12-3.02Q215.01-2.98 214.85-2.85L214.85-2.85Q214.69-2.69 214.62-2.59Q214.56-2.50 214.62-2.27L214.62-2.27Q214.72-2.08 214.83-2.03Q214.94-1.98 215.17-2.02L215.17-2.02Q215.36-2.05 215.42-2.13Q215.49-2.21 215.55-2.40L215.55-2.40Q215.58-2.62 215.60-2.74Q215.62-2.85 215.42-2.98ZM221.86-1.12L221.86-1.54L221.41-1.60L221.22-1.18L221.57-1.02L221.86-1.12ZM239.78 0.32L239.78 0.32Q237.34 0.32 235.36-0.53Q233.38-1.38 232.16-3.01Q230.94-4.64 230.82-7.01L230.82-7.01Q230.78-7.52 230.78-8.29Q230.78-9.06 230.82-9.60L230.82-9.60Q230.94-11.97 232.14-13.62Q233.34-15.26 235.34-16.11Q237.34-16.96 239.78-16.96L239.78-16.96Q242.30-16.96 244.08-16.24Q245.86-15.52 246.96-14.48Q248.06-13.44 248.59-12.42Q249.12-11.39 249.15-10.75L249.15-10.75Q249.18-10.40 248.91-10.14Q248.64-9.89 248.29-9.89L248.29-9.89L242.05-9.89Q241.70-9.89 241.49-10.06Q241.28-10.24 241.12-10.53L241.12-10.53Q240.90-10.98 240.66-11.23Q240.42-11.49 239.94-11.49L239.94-11.49Q239.20-11.49 238.94-10.94Q238.69-10.40 238.66-9.44L238.66-9.44Q238.62-8.06 238.66-7.17L238.66-7.17Q238.72-6.14 238.96-5.65Q239.20-5.15 239.94-5.15L239.94-5.15Q240.51-5.15 240.72-5.41Q240.93-5.66 241.12-6.11L241.12-6.11Q241.38-6.75 242.05-6.75L242.05-6.75L248.29-6.75Q248.64-6.75 248.91-6.50Q249.18-6.24 249.15-5.89L249.15-5.89Q249.12-5.47 248.82-4.72Q248.51-3.97 247.86-3.10Q247.20-2.24 246.11-1.46Q245.02-0.67 243.46-0.18Q241.89 0.32 239.78 0.32ZM241.47-16.19L241.47-16.19Q241.22-16.38 241.04-16.30Q240.86-16.22 240.58-16.03L240.58-16.03Q240.38-15.87 240.40-15.73Q240.42-15.58 240.51-15.33L240.51-15.33Q240.58-15.10 240.67-15.01Q240.77-14.91 240.99-14.91L240.99-14.91Q241.31-14.91 241.47-14.94Q241.63-14.98 241.73-15.26L241.73-15.26Q241.82-15.62 241.81-15.81Q241.79-16 241.47-16.19ZM239.33-15.87L239.33-15.87Q239.14-16.13 239.01-16.26Q238.88-16.38 238.59-16.26L238.59-16.26Q238.30-16.16 238.30-15.98Q238.30-15.81 238.30-15.49L238.30-15.49Q238.30-15.26 238.42-15.18Q238.53-15.10 238.75-15.07L238.75-15.07Q239.04-14.98 239.20-14.93Q239.36-14.88 239.49-15.10L239.49-15.10Q239.65-15.36 239.58-15.50Q239.52-15.65 239.33-15.87ZM234.69-14.53L234.69-14.53Q234.43-14.82 234.11-14.69L234.11-14.69Q233.95-14.59 233.95-14.48Q233.95-14.37 233.98-14.18L233.98-14.18Q234.02-13.98 234.03-13.89Q234.05-13.79 234.24-13.73L234.24-13.73Q234.62-13.66 234.78-13.95L234.78-13.95Q234.94-14.24 234.69-14.53ZM236.45-14.56L236.45-14.56Q236.29-14.69 236.18-14.64Q236.06-14.59 235.90-14.46L235.90-14.46Q235.68-14.30 235.81-14.02L235.81-14.02Q235.87-13.82 235.92-13.74Q235.97-13.66 236.16-13.66L236.16-13.66Q236.38-13.66 236.50-13.71Q236.61-13.76 236.67-13.98L236.67-13.98Q236.80-14.34 236.45-14.56ZM245.79-13.82L245.79-13.82Q245.70-14.11 245.58-14.24Q245.47-14.37 245.15-14.40L245.15-14.40Q244.90-14.43 244.86-14.26Q244.83-14.08 244.70-13.82L244.70-13.82Q244.58-13.54 244.80-13.34L244.80-13.34Q244.99-13.15 245.28-13.34L245.28-13.34Q245.50-13.47 245.66-13.52Q245.82-13.57 245.79-13.82ZM238.78-13.98L238.69-14.34L238.27-14.24L238.30-13.82L238.66-13.66L238.78-13.98ZM243.30-13.63L243.30-13.63Q243.07-13.66 243.04-13.54Q243.01-13.41 242.91-13.22L242.91-13.22Q242.82-13.02 243.01-12.86L243.01-12.86Q243.17-12.70 243.25-12.59Q243.33-12.48 243.52-12.58L243.52-12.58Q243.71-12.70 243.66-12.83Q243.62-12.96 243.58-13.15L243.58-13.15Q243.52-13.38 243.50-13.49Q243.49-13.60 243.30-13.63ZM240.64-12.86L240.48-13.12L240.06-13.18L240.10-12.77L240.42-12.48L240.64-12.86ZM232.99-13.15L232.99-13.15Q232.83-13.15 232.78-13.07Q232.74-12.99 232.67-12.83L232.67-12.83Q232.61-12.67 232.58-12.58Q232.54-12.48 232.67-12.35L232.67-12.35Q232.83-12.22 232.94-12.19Q233.06-12.16 233.22-12.26L233.22-12.26Q233.44-12.38 233.50-12.50Q233.57-12.61 233.50-12.83L233.50-12.83Q233.47-13.06 233.34-13.09Q233.22-13.12 232.99-13.15ZM235.52-10.14L235.52-10.14Q235.36-10.85 235.33-11.30Q235.30-11.74 234.56-11.84L234.56-11.84Q233.76-11.90 233.44-11.62Q233.12-11.33 232.80-10.59L232.80-10.59Q232.48-9.89 232.58-9.50Q232.67-9.12 233.25-8.64L233.25-8.64Q233.73-8.16 234.10-8.26Q234.46-8.35 235.07-8.70L235.07-8.70Q235.55-8.99 235.60-9.28Q235.65-9.57 235.52-10.14ZM242.05-10.91L242.21-11.23L241.95-11.36L241.66-11.33L241.73-11.01L242.05-10.91ZM246.08-10.88L245.89-11.17L245.60-11.17L245.41-10.85L245.76-10.72L246.08-10.88ZM244.03-10.82L243.78-11.10L243.42-11.17L243.46-10.85L243.65-10.69L244.03-10.82ZM236.48-6.66L236.48-6.66Q236.35-6.82 236.26-6.78Q236.16-6.75 235.97-6.72L235.97-6.72Q235.81-6.66 235.70-6.62Q235.58-6.59 235.58-6.43L235.58-6.43Q235.58-6.24 235.68-6.21Q235.78-6.18 235.94-6.11L235.94-6.11Q236.13-6.05 236.22-6Q236.32-5.95 236.45-6.11L236.45-6.11Q236.67-6.37 236.48-6.66ZM233.54-6.53L233.34-6.75L233.12-6.75L232.99-6.50L233.25-6.37L233.54-6.53ZM232.48-6.08L232.48-6.08Q232.42-6.24 232.38-6.34Q232.35-6.43 232.19-6.43L232.19-6.43Q231.90-6.43 231.81-6.11L231.81-6.11Q231.74-5.95 231.81-5.89Q231.87-5.82 232.00-5.73L232.00-5.73Q232.26-5.54 232.42-5.66L232.42-5.66Q232.54-5.76 232.53-5.84Q232.51-5.92 232.48-6.08ZM242.62-5.50L242.62-5.50Q242.40-5.66 242.29-5.57Q242.18-5.47 241.95-5.31L241.95-5.31Q241.76-5.18 241.66-5.10Q241.57-5.02 241.63-4.77L241.63-4.77Q241.70-4.54 241.82-4.53Q241.95-4.51 242.21-4.51L242.21-4.51Q242.53-4.51 242.62-4.80L242.62-4.80Q242.72-5.06 242.77-5.20Q242.82-5.34 242.62-5.50ZM238.50-5.06L238.50-5.06Q238.24-5.47 237.97-5.39Q237.70-5.31 237.22-5.18L237.22-5.18Q236.70-5.09 236.38-5.06Q236.06-5.02 236.00-4.51L236.00-4.51Q235.94-3.87 236.10-3.58Q236.26-3.30 236.83-3.07L236.83-3.07Q237.41-2.82 237.73-2.91Q238.05-3.01 238.43-3.49L238.43-3.49Q238.82-3.94 238.82-4.24Q238.82-4.54 238.50-5.06ZM245.70-5.18L245.70-5.18Q245.38-5.44 245.09-5.28L245.09-5.28Q244.70-5.06 244.77-4.67L244.77-4.67Q244.83-4.35 244.88-4.18Q244.93-4 245.25-3.97L245.25-3.97Q245.57-3.94 245.66-4.10Q245.76-4.26 245.89-4.54L245.89-4.54Q246.02-4.77 245.94-4.90Q245.86-5.02 245.70-5.18ZM234.43-4.74L234.34-4.99L234.14-5.18L233.98-4.96L234.08-4.67L234.43-4.74ZM243.94-4.19L243.94-4.19Q243.81-4.29 243.71-4.26Q243.62-4.22 243.46-4.13L243.46-4.13Q243.26-4.03 243.33-3.78L243.33-3.78Q243.36-3.62 243.41-3.52Q243.46-3.42 243.62-3.42L243.62-3.42Q243.90-3.39 244.03-3.68L244.03-3.68Q244.16-4 243.94-4.19ZM233.98-3.58L233.98-3.58Q233.86-3.78 233.71-3.79Q233.57-3.81 233.34-3.71L233.34-3.71Q233.15-3.65 233.10-3.55Q233.06-3.46 233.06-3.23L233.06-3.23Q233.06-2.94 233.38-2.85L233.38-2.85Q233.54-2.78 233.60-2.85Q233.66-2.91 233.76-3.04L233.76-3.04Q233.89-3.23 234.00-3.33Q234.11-3.42 233.98-3.58ZM235.87-2.69L235.97-3.04L235.58-3.17L235.36-2.85L235.58-2.56L235.87-2.69ZM241.66-2.02L241.54-2.30L241.22-2.43L240.96-2.08L241.34-1.86L241.66-2.02ZM243.23-2.05L243.23-2.05Q242.94-2.24 242.69-2.05L242.69-2.05Q242.50-1.89 242.45-1.79Q242.40-1.70 242.46-1.47L242.46-1.47Q242.56-1.25 242.66-1.15Q242.75-1.06 243.01-1.06L243.01-1.06Q243.23-1.06 243.30-1.18Q243.36-1.31 243.42-1.54L243.42-1.54Q243.52-1.82 243.23-2.05ZM238.94-1.57L238.94-1.57Q238.82-1.82 238.72-1.95Q238.62-2.08 238.34-2.05L238.34-2.05Q238.08-2.02 238.08-1.86Q238.08-1.70 238.02-1.44L238.02-1.44Q237.98-1.22 237.94-1.09Q237.89-0.96 238.08-0.83L238.08-0.83Q238.30-0.70 238.42-0.75Q238.53-0.80 238.72-0.96L238.72-0.96Q238.91-1.12 238.98-1.23Q239.04-1.34 238.94-1.57ZM241.86-0.77L242.05-0.96L241.79-1.12L241.60-1.02L241.57-0.74L241.86-0.77ZM257.66 0L252.06 0Q251.71 0 251.46-0.26Q251.20-0.51 251.20-0.86L251.20-0.86L251.20-21.86Q251.20-22.21 251.46-22.46Q251.71-22.72 252.06-22.72L252.06-22.72L257.66-22.72Q258.02-22.72 258.27-22.46Q258.53-22.21 258.53-21.86L258.53-21.86L258.53-11.49L261.34-16.10Q261.41-16.22 261.63-16.43Q261.86-16.64 262.27-16.64L262.27-16.64L268.74-16.64Q269.06-16.64 269.28-16.42Q269.50-16.19 269.50-15.87L269.50-15.87Q269.50-15.74 269.46-15.60Q269.41-15.46 269.34-15.39L269.34-15.39L264.96-9.15L270.14-1.18Q270.27-0.99 270.27-0.77L270.27-0.77Q270.27-0.45 270.05-0.22Q269.82 0 269.50 0L269.50 0L262.78 0Q262.30 0 262.08-0.24Q261.86-0.48 261.79-0.54L261.79-0.54L258.53-5.98L258.53-0.86Q258.53-0.51 258.27-0.26Q258.02 0 257.66 0L257.66 0ZM253.25-20.80L253.25-20.80Q253.22-21.06 253.10-21.14Q252.99-21.22 252.74-21.28L252.74-21.28Q252.48-21.31 252.34-21.31Q252.19-21.31 252.06-21.06L252.06-21.06Q251.94-20.83 252.06-20.74Q252.19-20.64 252.35-20.48L252.35-20.48Q252.54-20.26 252.80-20.38L252.80-20.38Q253.02-20.48 253.15-20.53Q253.28-20.58 253.25-20.80ZM254.08-19.55L254.08-19.55Q253.86-19.71 253.71-19.76Q253.57-19.81 253.38-19.62L253.38-19.62Q253.15-19.46 253.14-19.30Q253.12-19.14 253.22-18.88L253.22-18.88Q253.31-18.66 253.44-18.67Q253.57-18.69 253.82-18.69L253.82-18.69Q254.05-18.69 254.18-18.72Q254.30-18.75 254.34-18.94L254.34-18.94Q254.43-19.33 254.08-19.55ZM252.51-19.30L252.29-19.65L251.94-19.46L251.90-19.10L252.29-18.94L252.51-19.30ZM255.84-16.80L255.84-16.80Q255.14-17.22 254.72-17.18Q254.30-17.15 253.73-16.64L253.73-16.64Q253.06-16.06 252.85-15.65Q252.64-15.23 252.96-14.43L252.96-14.43Q253.34-13.54 253.74-13.22Q254.14-12.90 255.10-12.96L255.10-12.96Q256.06-13.06 256.38-13.46Q256.70-13.86 256.90-14.82L256.90-14.82Q257.09-15.62 256.83-15.98Q256.58-16.35 255.84-16.80ZM262.98-15.94L262.98-15.94Q262.66-15.94 262.56-15.71L262.56-15.71Q262.50-15.52 262.50-15.41Q262.50-15.30 262.66-15.17L262.66-15.17Q262.78-15.07 262.88-15.14Q262.98-15.20 263.10-15.30L263.10-15.30Q263.33-15.42 263.26-15.65L263.26-15.65Q263.17-15.94 262.98-15.94ZM267.20-15.10L267.20-15.10Q267.04-15.17 266.94-15.20Q266.85-15.23 266.72-15.10L266.72-15.10Q266.56-14.91 266.75-14.62L266.75-14.62Q266.91-14.34 267.17-14.40L267.17-14.40Q267.39-14.46 267.50-14.51Q267.62-14.56 267.65-14.78L267.65-14.78Q267.65-14.98 267.52-15.01Q267.39-15.04 267.20-15.10ZM262.14-14.88L262.14-14.88Q261.86-15.01 261.74-14.83Q261.63-14.66 261.44-14.40L261.44-14.40Q261.28-14.24 261.25-14.11Q261.22-13.98 261.34-13.76L261.34-13.76Q261.50-13.50 261.62-13.33Q261.73-13.15 262.05-13.25L262.05-13.25Q262.40-13.34 262.51-13.50Q262.62-13.66 262.66-14.02L262.66-14.02Q262.69-14.40 262.59-14.58Q262.50-14.75 262.14-14.88ZM265.76-14.34L265.76-14.34Q265.54-14.43 265.41-14.46Q265.28-14.50 265.09-14.34L265.09-14.34Q264.77-13.98 265.02-13.57L265.02-13.57Q265.12-13.38 265.26-13.39Q265.41-13.41 265.66-13.44L265.66-13.44Q265.92-13.50 265.95-13.86L265.95-13.86Q265.98-14.05 265.97-14.14Q265.95-14.24 265.76-14.34ZM252.64-12.99L252.64-12.99Q252.48-13.09 252.26-12.86L252.26-12.86Q252.13-12.74 252.26-12.51L252.26-12.51Q252.32-12.38 252.35-12.30Q252.38-12.22 252.54-12.26L252.54-12.26Q252.74-12.29 252.83-12.34Q252.93-12.38 252.96-12.58L252.96-12.58Q252.99-12.77 252.91-12.83Q252.83-12.90 252.64-12.99ZM254.56-12.26L254.56-12.26Q254.21-12.58 253.79-12.32L253.79-12.32Q253.38-12.06 253.50-11.58L253.50-11.58Q253.60-11.10 254.11-11.07L254.11-11.07Q254.37-11.04 254.46-11.15Q254.56-11.26 254.69-11.52L254.69-11.52Q254.78-11.78 254.78-11.94Q254.78-12.10 254.56-12.26ZM257.22-12.16L257.22-12.16Q256.93-12.29 256.77-12.29Q256.61-12.29 256.38-12.06L256.38-12.06Q256.19-11.84 256.24-11.70Q256.29-11.55 256.42-11.30L256.42-11.30Q256.54-11.01 256.66-10.90Q256.77-10.78 257.06-10.82L257.06-10.82Q257.34-10.88 257.39-11.04Q257.44-11.20 257.47-11.49L257.47-11.49Q257.50-11.74 257.49-11.89Q257.47-12.03 257.22-12.16ZM262.72-10.72L262.72-10.72Q262.72-11.07 262.43-11.14L262.43-11.14Q262.18-11.23 261.98-10.94L261.98-10.94Q261.86-10.75 262.02-10.50L262.02-10.50Q262.14-10.37 262.40-10.43L262.40-10.43Q262.56-10.50 262.64-10.53Q262.72-10.56 262.72-10.72ZM255.97-10.34L255.97-10.34Q255.81-10.37 255.74-10.29Q255.68-10.21 255.62-10.05L255.62-10.05Q255.49-9.89 255.44-9.81Q255.39-9.73 255.52-9.57L255.52-9.57Q255.74-9.28 256.06-9.41L256.06-9.41Q256.45-9.57 256.42-9.92L256.42-9.92Q256.38-10.14 256.29-10.21Q256.19-10.27 255.97-10.34ZM260.48-8.90L260.48-8.90Q260.38-9.60 260.13-9.87Q259.87-10.14 259.17-10.30L259.17-10.30Q258.59-10.43 258.45-10.08Q258.30-9.73 258.02-9.22L258.02-9.22Q257.73-8.70 257.49-8.40Q257.25-8.10 257.66-7.68L257.66-7.68Q258.11-7.17 258.45-7.20Q258.78-7.23 259.39-7.52L259.39-7.52Q260-7.78 260.27-8.02Q260.54-8.26 260.48-8.90ZM254.27-7.84L254.18-8.13L253.79-8.35L253.57-7.90L253.98-7.65L254.27-7.84ZM263.39-7.33L263.23-7.68L262.88-7.62L262.78-7.26L263.10-7.14L263.39-7.33ZM261.98-7.20L261.98-7.20Q261.86-7.26 261.76-7.30Q261.66-7.33 261.54-7.23L261.54-7.23Q261.44-7.10 261.46-7.02Q261.47-6.94 261.54-6.78L261.54-6.78Q261.60-6.59 261.86-6.62L261.86-6.62Q262.02-6.62 262.11-6.64Q262.21-6.66 262.24-6.82L262.24-6.82Q262.27-6.98 262.21-7.04Q262.14-7.10 261.98-7.20ZM257.38-6.59L257.18-6.78L256.99-6.69L256.90-6.40L257.18-6.37L257.38-6.59ZM255.87-6.05L255.87-6.05Q255.23-6.27 254.88-6.16Q254.53-6.05 254.11-5.50L254.11-5.50Q253.66-4.96 253.57-4.59Q253.47-4.22 253.89-3.62L253.89-3.62Q254.21-3.10 254.58-3.26Q254.94-3.42 255.55-3.58L255.55-3.58Q255.97-3.71 256.13-3.87Q256.29-4.03 256.32-4.48L256.32-4.48Q256.35-5.09 256.40-5.46Q256.45-5.82 255.87-6.05ZM265.22-3.78L265.22-3.78Q265.12-4.35 264.98-4.64Q264.83-4.93 264.26-5.02L264.26-5.02Q263.55-5.12 263.18-5.04Q262.82-4.96 262.50-4.35L262.50-4.35Q262.21-3.74 262.48-3.46Q262.75-3.17 263.23-2.72L263.23-2.72Q263.74-2.21 264.03-1.89Q264.32-1.57 264.96-1.92L264.96-1.92Q265.57-2.24 265.46-2.67Q265.34-3.10 265.22-3.78ZM268.22-1.54L268.13-1.82L267.81-1.76L267.84-1.47L268.03-1.41L268.22-1.54ZM279.58 0.32L279.58 0.32Q277.28 0.32 275.66-0.14Q274.05-0.61 273.04-1.33Q272.03-2.05 271.55-2.83Q271.07-3.62 271.04-4.26L271.04-4.26Q271.01-4.61 271.25-4.86Q271.49-5.12 271.81-5.12L271.81-5.12L277.50-5.12Q277.92-5.09 278.26-4.85Q278.59-4.61 278.96-4.38Q279.33-4.16 279.81-4.16L279.81-4.16Q280.06-4.16 280.30-4.29Q280.54-4.42 280.54-4.64L280.54-4.64Q280.54-4.93 280.37-5.15Q280.19-5.38 279.50-5.62Q278.82-5.86 277.22-6.14L277.22-6.14Q275.74-6.43 274.40-7.04Q273.06-7.65 272.21-8.74Q271.36-9.82 271.36-11.49L271.36-11.49Q271.36-12.86 272.29-14.11Q273.22-15.36 275.02-16.16Q276.83-16.96 279.46-16.96L279.46-16.96Q282.11-16.96 283.97-16.19Q285.82-15.42 286.82-14.37Q287.81-13.31 287.84-12.38L287.84-12.38Q287.87-12.03 287.65-11.78Q287.42-11.52 287.14-11.52L287.14-11.52L281.76-11.52Q281.31-11.52 280.96-11.76Q280.61-12 280.26-12.24Q279.90-12.48 279.42-12.48L279.42-12.48Q279.20-12.48 278.99-12.34Q278.78-12.19 278.78-11.97L278.78-11.97Q278.78-11.71 278.98-11.47Q279.17-11.23 279.90-11.02Q280.64-10.82 282.30-10.56L282.30-10.56Q284.61-10.24 285.98-9.38Q287.36-8.51 287.95-7.39Q288.54-6.27 288.54-5.18L288.54-5.18Q288.54-2.62 286.22-1.15Q283.90 0.32 279.58 0.32ZM278.88-15.58L278.69-15.94L278.37-15.78L278.34-15.49L278.66-15.20L278.88-15.58ZM281.60-15.42L281.60-15.42Q281.34-15.49 281.26-15.36Q281.18-15.23 281.06-15.01L281.06-15.01Q280.93-14.78 280.83-14.66Q280.74-14.53 280.90-14.34L280.90-14.34Q281.09-14.11 281.23-14.18Q281.38-14.24 281.63-14.34L281.63-14.34Q281.86-14.43 282-14.51Q282.14-14.59 282.11-14.85L282.11-14.85Q282.08-15.33 281.60-15.42ZM276.61-15.07L276.51-15.33L276.32-15.42L276.22-15.23L276.32-15.01L276.61-15.07ZM284.54-14.98L284.54-14.98Q284.26-15.04 284.13-14.96Q284-14.88 283.87-14.62L283.87-14.62Q283.65-14.24 283.94-13.92L283.94-13.92Q284.10-13.73 284.22-13.74Q284.35-13.76 284.58-13.86L284.58-13.86Q284.93-14.02 284.90-14.34L284.90-14.34Q284.86-14.62 284.83-14.78Q284.80-14.94 284.54-14.98ZM277.82-14.43L277.82-14.43Q277.38-14.72 277.10-14.61Q276.83-14.50 276.42-14.14L276.42-14.14Q276-13.79 275.89-13.55Q275.78-13.31 275.97-12.80L275.97-12.80Q276.13-12.38 276.42-12.43Q276.70-12.48 277.18-12.51L277.18-12.51Q277.66-12.54 277.97-12.51Q278.27-12.48 278.40-12.96L278.40-12.96Q278.53-13.54 278.43-13.82Q278.34-14.11 277.82-14.43ZM283.52-12.83L283.46-13.09L283.14-13.09L283.04-12.74L283.36-12.64L283.52-12.83ZM286.02-12.54L285.82-12.80L285.50-12.61L285.57-12.22L285.92-12.29L286.02-12.54ZM274.21-12.19L274.21-12.19Q274.08-12.32 274.02-12.42Q273.95-12.51 273.79-12.42L273.79-12.42Q273.47-12.26 273.54-11.94L273.54-11.94Q273.60-11.62 273.95-11.55L273.95-11.55Q274.24-11.52 274.40-11.81L274.40-11.81Q274.46-11.97 274.40-12.03Q274.34-12.10 274.21-12.19ZM277.92-9.28L277.92-9.28Q277.73-9.66 277.60-9.89Q277.47-10.11 277.06-10.05L277.06-10.05Q276.58-9.98 276.43-9.78Q276.29-9.57 276.19-9.12L276.19-9.12Q276.13-8.70 276.30-8.56Q276.48-8.42 276.83-8.22L276.83-8.22Q277.18-8.03 277.41-7.98Q277.63-7.94 277.92-8.22L277.92-8.22Q278.18-8.48 278.13-8.69Q278.08-8.90 277.92-9.28ZM274.11-9.31L274.18-9.57L274.02-9.76L273.82-9.60L273.79-9.31L274.11-9.31ZM282.11-9.47L282.11-9.47Q281.92-9.50 281.90-9.39Q281.89-9.28 281.79-9.12L281.79-9.12Q281.70-8.96 281.82-8.80L281.82-8.80Q282.02-8.64 282.14-8.70L282.14-8.70Q282.43-8.83 282.40-9.06L282.40-9.06Q282.37-9.25 282.34-9.34Q282.30-9.44 282.11-9.47ZM284.26-6.88L284.26-6.88Q283.39-7.10 282.93-7.07Q282.46-7.04 281.95-6.30L281.95-6.30Q281.47-5.57 281.57-5.10Q281.66-4.64 282.21-3.90L282.21-3.90Q282.66-3.33 283.06-3.52Q283.46-3.71 284.16-3.97L284.16-3.97Q284.86-4.22 285.33-4.34Q285.79-4.45 285.76-5.18L285.76-5.18Q285.73-6.05 285.39-6.34Q285.06-6.62 284.26-6.88ZM281.25-6.34L281.25-6.34Q281.22-6.59 280.90-6.69L280.90-6.69Q280.70-6.72 280.59-6.72Q280.48-6.72 280.38-6.56L280.38-6.56Q280.22-6.30 280.45-6.02L280.45-6.02Q280.64-5.79 280.96-5.92L280.96-5.92Q281.28-6.05 281.25-6.34ZM278.21-3.94L278.21-3.94Q277.98-4.13 277.82-4.21Q277.66-4.29 277.41-4.13L277.41-4.13Q277.15-3.97 277.23-3.81Q277.31-3.65 277.38-3.36L277.38-3.36Q277.47-3.07 277.47-2.90Q277.47-2.72 277.76-2.69L277.76-2.69Q278.11-2.66 278.27-2.75Q278.43-2.85 278.56-3.17L278.56-3.17Q278.69-3.46 278.58-3.58Q278.46-3.71 278.21-3.94ZM275.14-2.56L275.14-2.56Q274.88-2.59 274.75-2.58Q274.62-2.56 274.50-2.34L274.50-2.34Q274.40-2.11 274.50-2Q274.59-1.89 274.75-1.73L274.75-1.73Q274.98-1.54 275.07-1.39Q275.17-1.25 275.42-1.38L275.42-1.38Q275.68-1.50 275.65-1.68Q275.62-1.86 275.58-2.14L275.58-2.14Q275.52-2.50 275.14-2.56ZM282.94-2.05L283.07-2.37L282.75-2.53L282.53-2.30L282.66-2.05L282.94-2.05ZM282.34-1.38L282.27-1.57L282.02-1.60L282.02-1.34L282.21-1.09L282.34-1.38Z"/></svg>