<svg id="mainsvg" xmlns="http://www.w3.org/2000/svg" xmlns:xlink="http://www.w3.org/1999/xlink" version="1.1" x="0px" y="0px" enable-background="new 0 0 200 162.5" xml:space="preserve" viewBox="0 0 137 34"><path fill="#000" transform="translate(-0.578125, 25.890625)" d="M16.77-17.83L16.77-17.83Q16.77-17.05 16.48-16.41Q16.19-15.78 15.67-15.33Q15.16-14.88 14.46-14.63Q13.77-14.38 12.95-14.38L12.95-14.38Q12.06-14.38 11.43-14.59Q10.80-14.81 10.37-15.15Q9.94-15.48 9.69-15.90Q9.44-16.31 9.30-16.70Q9.17-17.09 9.13-17.42Q9.09-17.75 9.09-17.92L9.09-17.92Q9.28-17.61 9.53-17.52Q9.78-17.44 9.95-17.44L9.95-17.44Q10.39-17.44 10.57-17.67Q10.75-17.91 10.75-18.17L10.75-18.17Q10.75-18.34 10.68-18.53Q10.61-18.72 10.43-18.88Q10.25-19.05 9.95-19.16Q9.64-19.27 9.19-19.27L9.19-19.27Q8.88-19.27 8.55-19.15Q8.22-19.03 7.95-18.79Q7.67-18.55 7.50-18.19Q7.33-17.83 7.33-17.34L7.33-17.34Q7.33-16.88 7.52-16.41Q7.72-15.95 8.05-15.55Q8.39-15.14 8.85-14.81Q9.31-14.48 9.86-14.27L9.86-14.27Q10.72-13.91 11.63-13.56Q12.55-13.22 13.41-12.81Q14.27-12.41 15.02-11.88Q15.78-11.36 16.35-10.64Q16.92-9.92 17.26-8.96Q17.59-8 17.59-6.72L17.59-6.72Q17.59-4.89 16.85-3.38Q16.11-1.88 14.87-0.80Q13.63 0.27 11.99 0.85Q10.36 1.44 8.58 1.44L8.58 1.44Q6.97 1.44 5.52 0.96Q4.06 0.48 2.97-0.34Q1.88-1.17 1.23-2.29Q0.58-3.41 0.58-4.70L0.58-4.70Q0.58-5.66 0.89-6.38Q1.20-7.09 1.76-7.57Q2.31-8.05 3.05-8.28Q3.80-8.52 4.64-8.52L4.64-8.52Q5.30-8.52 5.93-8.38Q6.56-8.23 7.12-7.96Q7.67-7.69 8.12-7.30Q8.56-6.91 8.83-6.41L8.83-6.41Q8.50-6.50 8.25-6.50L8.25-6.50Q7.83-6.50 7.58-6.25Q7.33-6 7.33-5.50L7.33-5.50Q7.33-5.23 7.45-5.01Q7.58-4.78 7.77-4.61Q7.97-4.44 8.23-4.34Q8.48-4.25 8.77-4.25L8.77-4.25Q9.08-4.25 9.34-4.38Q9.61-4.52 9.81-4.73Q10.02-4.95 10.13-5.22Q10.23-5.48 10.23-5.77L10.23-5.77Q10.23-6.31 9.90-6.88Q9.56-7.44 8.92-7.88L8.92-7.88Q7.70-8.63 6.63-9.17Q5.55-9.72 4.64-10.21Q3.73-10.70 3.01-11.20Q2.28-11.70 1.77-12.36Q1.27-13.02 1-13.90Q0.73-14.78 0.73-16.03L0.73-16.03Q0.73-17.53 1.31-18.84Q1.89-20.16 2.99-21.13Q4.09-22.11 5.69-22.67Q7.28-23.23 9.31-23.23L9.31-23.23Q11.36-23.23 12.78-22.74Q14.20-22.25 15.09-21.47Q15.97-20.69 16.37-19.73Q16.77-18.77 16.77-17.83ZM18.53-17.92L18.53-17.92Q18.89-17.89 19.34-17.86L19.34-17.86Q19.73-17.83 20.26-17.81Q20.78-17.80 21.41-17.80L21.41-17.80Q22.28-17.80 23.29-17.85Q24.30-17.91 25.28-18.08L25.28-18.08Q25.09-17.72 24.96-17.12Q24.83-16.52 24.73-15.72L24.73-15.72Q25.38-17.13 26.45-17.91Q27.52-18.69 29.16-18.69L29.16-18.69Q29.52-18.69 30.07-18.64Q30.63-18.59 31.24-18.33Q31.86-18.06 32.48-17.51Q33.09-16.95 33.59-15.94Q34.08-14.92 34.38-13.38Q34.69-11.84 34.69-9.59L34.69-9.59Q34.69-7.72 34.41-6.24Q34.14-4.77 33.68-3.64Q33.22-2.52 32.60-1.73Q31.98-0.94 31.30-0.44Q30.63 0.06 29.91 0.29Q29.20 0.52 28.55 0.52L28.55 0.52Q27.78 0.52 27.13 0.20Q26.48-0.11 25.98-0.66Q25.48-1.22 25.13-1.99Q24.77-2.77 24.58-3.69L24.58-3.69Q24.59-2.97 24.64-2.02Q24.69-1.06 24.75-0.04Q24.81 0.98 24.89 2.02Q24.97 3.05 25.06 3.93Q25.16 4.81 25.27 5.47Q25.39 6.13 25.53 6.41L25.53 6.41Q24.28 6.19 23.20 6.12Q22.13 6.05 21.25 6.05L21.25 6.05Q20.69 6.05 20.23 6.06Q19.78 6.08 19.47 6.11L19.47 6.11Q19.09 6.14 18.81 6.17L18.81 6.17Q18.97 5.39 19.11 4.13Q19.25 2.88 19.35 1.30Q19.45-0.27 19.52-2.07Q19.58-3.88 19.58-5.77L19.58-5.77Q19.58-7.50 19.52-9.22Q19.47-10.94 19.34-12.52Q19.22-14.09 19.02-15.48Q18.81-16.86 18.53-17.92ZM24.95-10.23L24.95-10.23L24.95-7.72Q24.95-7.30 25-6.86Q25.05-6.42 25.21-6.06Q25.38-5.70 25.69-5.48Q26-5.25 26.53-5.25L26.53-5.25Q26.91-5.25 27.17-5.55Q27.44-5.84 27.61-6.31Q27.78-6.78 27.89-7.36Q28-7.94 28.05-8.51Q28.09-9.08 28.11-9.57Q28.13-10.06 28.13-10.34L28.13-10.34Q28.13-10.77 28.09-11.38Q28.05-11.98 27.91-12.56Q27.77-13.14 27.48-13.55Q27.19-13.95 26.69-13.95L26.69-13.95Q26.13-13.95 25.78-13.55Q25.44-13.16 25.26-12.59Q25.08-12.02 25.02-11.37Q24.95-10.72 24.95-10.23ZM43.42-0.06L43.42-0.06Q43.16-0.08 42.80-0.11L42.80-0.11Q42.48-0.13 42.06-0.14Q41.64-0.16 41.09-0.16L41.09-0.16Q40.08-0.16 38.75-0.07Q37.42 0.02 35.88 0.25L35.88 0.25Q36.17-0.34 36.38-1.24Q36.58-2.14 36.71-3.16Q36.84-4.19 36.91-5.23Q36.98-6.28 37.02-7.16Q37.05-8.03 37.05-8.64Q37.06-9.25 37.06-9.41L37.06-9.41Q37.03-11.44 36.92-13.20L36.92-13.20Q36.88-13.95 36.80-14.72Q36.73-15.48 36.64-16.16Q36.55-16.84 36.43-17.38Q36.31-17.92 36.16-18.23L36.16-18.23Q37.42-18.02 38.50-17.94Q39.58-17.86 40.45-17.86L40.45-17.86Q41.02-17.86 41.46-17.88Q41.91-17.91 42.22-17.94L42.22-17.94Q42.59-17.97 42.88-18.02L42.88-18.02Q42.59-16.61 42.41-14.63Q42.23-12.64 42.23-10.38L42.23-10.38Q42.23-9.08 42.30-7.75Q42.36-6.42 42.50-5.10Q42.64-3.78 42.87-2.51Q43.09-1.23 43.42-0.06ZM36.25-22.41L36.25-22.41Q36.25-23.13 36.52-23.76Q36.80-24.39 37.27-24.87Q37.75-25.34 38.39-25.62Q39.03-25.89 39.75-25.89L39.75-25.89Q40.47-25.89 41.10-25.62Q41.73-25.34 42.21-24.87Q42.69-24.39 42.96-23.76Q43.23-23.13 43.23-22.41L43.23-22.41Q43.23-21.69 42.96-21.05Q42.69-20.41 42.21-19.93Q41.73-19.45 41.10-19.18Q40.47-18.91 39.75-18.91L39.75-18.91Q39.03-18.91 38.39-19.18Q37.75-19.45 37.27-19.93Q36.80-20.41 36.52-21.05Q36.25-21.69 36.25-22.41ZM58.20-13.25L58.20-13.25Q58.20-12.59 57.98-11.94Q57.75-11.28 57.33-10.76Q56.91-10.23 56.29-9.90Q55.67-9.56 54.91-9.56L54.91-9.56Q54.22-9.56 53.73-9.80Q53.25-10.03 52.94-10.41Q52.63-10.78 52.48-11.27Q52.33-11.77 52.33-12.28L52.33-12.28Q52.33-13.38 52.86-14.17L52.86-14.17Q52.94-13.91 53.09-13.77Q53.23-13.64 53.36-13.58L53.36-13.58Q53.52-13.52 53.67-13.50L53.67-13.50Q54.13-13.50 54.25-13.70Q54.38-13.91 54.41-14.17L54.41-14.17Q54.41-14.44 54.20-14.69Q54-14.94 53.50-14.94L53.50-14.94Q53.36-14.94 53.10-14.90Q52.84-14.86 52.52-14.70Q52.20-14.55 51.88-14.24Q51.55-13.94 51.27-13.40Q51-12.86 50.83-12.05Q50.66-11.25 50.66-10.11L50.66-10.11Q50.66-8.94 51-8.21Q51.34-7.48 51.82-7.09Q52.30-6.69 52.83-6.55Q53.36-6.41 53.73-6.41L53.73-6.41Q54.06-6.41 54.56-6.52Q55.06-6.64 55.55-6.95Q56.05-7.27 56.45-7.82Q56.86-8.38 57-9.25L57-9.25Q57.42-8.63 57.67-7.76Q57.92-6.89 57.92-5.95L57.92-5.95Q57.92-4.67 57.45-3.45Q56.97-2.23 56.10-1.29Q55.23-0.34 54.02 0.23Q52.80 0.80 51.33 0.80L51.33 0.80Q50.23 0.80 49.30 0.45Q48.36 0.09 47.60-0.53Q46.84-1.16 46.25-2.01Q45.66-2.86 45.26-3.85Q44.86-4.84 44.66-5.94Q44.45-7.03 44.45-8.13L44.45-8.13Q44.45-9.34 44.72-10.61Q44.98-11.88 45.48-13.05Q45.97-14.22 46.69-15.25Q47.41-16.28 48.31-17.04Q49.22-17.80 50.31-18.24Q51.41-18.69 52.64-18.69L52.64-18.69Q53.75-18.69 54.59-18.42Q55.44-18.16 56.06-17.72Q56.69-17.28 57.09-16.71Q57.50-16.14 57.75-15.54Q58-14.94 58.10-14.34Q58.20-13.75 58.20-13.25ZM74.84-17.95L74.84-17.95Q74.67-17.30 74.55-16.38Q74.44-15.45 74.34-14.39Q74.25-13.33 74.20-12.17Q74.14-11.02 74.09-9.92L74.09-9.92Q74-7.34 73.98-4.48L73.98-4.48Q73.98-2.89 73.79-1.34Q73.59 0.20 73.16 1.59Q72.73 2.97 72.05 4.15Q71.38 5.33 70.40 6.18Q69.42 7.03 68.13 7.52Q66.84 8 65.22 8L65.22 8Q63.70 8 62.59 7.69Q61.48 7.38 60.76 6.80Q60.03 6.23 59.68 5.44Q59.33 4.64 59.33 3.69L59.33 3.69Q59.33 2.73 59.66 1.96Q59.98 1.19 60.52 0.66Q61.05 0.13 61.72-0.16Q62.39-0.45 63.08-0.45L63.08-0.45Q63.95-0.45 64.73 0.05Q65.52 0.55 65.92 1.63L65.92 1.63Q65.83 1.55 65.71 1.52Q65.59 1.50 65.47 1.50L65.47 1.50Q65.30 1.50 65.12 1.58Q64.94 1.66 64.80 1.80Q64.66 1.94 64.57 2.12Q64.48 2.30 64.48 2.50L64.48 2.50Q64.48 2.73 64.58 2.90Q64.67 3.06 64.80 3.16Q64.94 3.25 65.10 3.29Q65.27 3.33 65.41 3.33L65.41 3.33Q65.63 3.33 65.95 3.23Q66.28 3.14 66.63 2.84Q66.98 2.55 67.34 2.02Q67.69 1.48 67.96 0.60Q68.23-0.28 68.40-1.55Q68.56-2.81 68.55-4.58L68.55-4.58Q68.14-3.48 67.70-2.80Q67.25-2.13 66.76-1.75Q66.27-1.38 65.73-1.25Q65.19-1.13 64.58-1.13L64.58-1.13Q63.81-1.13 62.98-1.40Q62.14-1.67 61.45-2.37Q60.75-3.06 60.30-4.27Q59.84-5.47 59.84-7.33L59.84-7.33Q59.84-7.58 59.85-7.68Q59.86-7.78 59.86-7.84Q59.86-7.89 59.88-7.97Q59.89-8.05 59.89-8.27Q59.89-8.50 59.90-8.92Q59.91-9.34 59.91-10.11L59.91-10.11Q59.91-11 59.88-12.13Q59.84-13.25 59.74-14.33Q59.64-15.41 59.45-16.29Q59.27-17.17 58.97-17.59L58.97-17.59Q60.23-17.38 61.35-17.30Q62.47-17.22 63.39-17.22L63.39-17.22Q64-17.22 64.49-17.24Q64.98-17.27 65.34-17.30L65.34-17.30Q65.75-17.33 66.08-17.38L66.08-17.38Q65.95-17.11 65.80-16.36Q65.66-15.61 65.52-14.56Q65.38-13.52 65.28-12.27Q65.19-11.03 65.19-9.77L65.19-9.77Q65.19-8.81 65.33-8.14Q65.47-7.47 65.71-7.04Q65.95-6.61 66.27-6.41Q66.59-6.20 66.97-6.20L66.97-6.20Q67.56-6.20 67.91-6.69Q68.27-7.17 68.52-7.91L68.52-7.91Q68.48-8.88 68.41-10.17Q68.33-11.47 68.20-12.88Q68.06-14.28 67.85-15.71Q67.64-17.14 67.33-18.38L67.33-18.38Q67.81-18.20 68.48-18.06L68.48-18.06Q69.06-17.94 69.89-17.85Q70.72-17.77 71.84-17.77L71.84-17.77Q73.17-17.77 74.84-17.95ZM99.33 0.25L99.33 0.25Q98.31 0.17 97.43 0.15Q96.55 0.13 95.80 0.13L95.80 0.13Q94.33 0.13 93.34 0.21Q92.36 0.30 91.73 0.39L91.73 0.39Q91 0.50 90.56 0.64L90.56 0.64Q90.63 0.16 90.69-0.27Q90.75-0.69 90.79-1.09Q90.83-1.48 90.85-1.88Q90.88-2.28 90.88-2.72L90.88-2.72Q90.88-4.44 90.74-5.58Q90.61-6.72 90.36-7.48Q90.11-8.25 89.75-8.72Q89.39-9.19 88.95-9.56L88.95-9.56Q88.92-8.86 88.91-8.20Q88.89-7.55 88.89-6.81L88.89-6.81Q88.89-6.09 88.92-5.31Q88.95-4.53 89.03-3.66Q89.11-2.78 89.27-1.79Q89.42-0.80 89.66 0.36L89.66 0.36Q89.64 0.30 89.25 0.22Q88.86 0.14 88.20 0.08Q87.55 0.02 86.70-0.02Q85.84-0.06 84.92-0.06L84.92-0.06Q83.72-0.06 82.52 0.02Q81.31 0.11 80.34 0.36L80.34 0.36Q80.72-0.13 81.02-0.87Q81.33-1.61 81.56-2.50Q81.80-3.39 81.96-4.38Q82.13-5.36 82.25-6.31L82.25-6.31Q82.53-8.55 82.63-11.08L82.63-11.08Q82.63-11.70 82.63-12.66Q82.64-13.61 82.60-14.73Q82.56-15.86 82.48-17.05Q82.39-18.23 82.20-19.33Q82-20.42 81.69-21.33Q81.38-22.23 80.89-22.78L80.89-22.78Q82.02-22.61 83.08-22.55Q84.14-22.50 84.89-22.50L84.89-22.50Q85.55-22.50 86.10-22.53Q86.66-22.56 87.20-22.59Q87.75-22.63 88.34-22.66Q88.94-22.69 89.66-22.69L89.66-22.69Q90.64-22.69 91.64-22.59Q92.64-22.48 93.55-22.23Q94.47-21.97 95.26-21.52Q96.05-21.08 96.63-20.40Q97.22-19.72 97.55-18.77Q97.89-17.81 97.89-16.55L97.89-16.55Q97.89-15.84 97.71-15.14Q97.53-14.44 97.13-13.76Q96.72-13.08 96.07-12.46Q95.42-11.84 94.48-11.33L94.48-11.33Q95.59-10.88 96.16-10.20Q96.73-9.53 96.98-8.67Q97.23-7.81 97.26-6.80Q97.28-5.80 97.31-4.70L97.31-4.70Q97.38-3.53 97.61-2.53L97.61-2.53Q97.70-2.11 97.85-1.67Q98-1.23 98.21-0.86Q98.42-0.48 98.70-0.19Q98.97 0.11 99.33 0.25ZM88.95-13.22L88.95-13.22Q89.30-13.47 89.73-13.85Q90.16-14.23 90.52-14.70Q90.89-15.16 91.14-15.67Q91.39-16.19 91.39-16.70L91.39-16.70Q91.39-17.20 91.10-17.52Q90.81-17.83 90.45-17.83L90.45-17.83Q89.95-17.83 89.66-17.37Q89.36-16.91 89.20-16.28Q89.03-15.66 88.98-15.02Q88.92-14.39 88.92-14.05L88.92-14.05Q88.92-13.86 88.92-13.65Q88.92-13.44 88.95-13.22ZM107.45-0.06L107.45-0.06Q107.19-0.08 106.83-0.11L106.83-0.11Q106.52-0.13 106.09-0.14Q105.67-0.16 105.13-0.16L105.13-0.16Q104.11-0.16 102.78-0.07Q101.45 0.02 99.91 0.25L99.91 0.25Q100.20-0.34 100.41-1.24Q100.61-2.14 100.74-3.16Q100.88-4.19 100.95-5.23Q101.02-6.28 101.05-7.16Q101.08-8.03 101.09-8.64Q101.09-9.25 101.09-9.41L101.09-9.41Q101.06-11.44 100.95-13.20L100.95-13.20Q100.91-13.95 100.84-14.72Q100.77-15.48 100.67-16.16Q100.58-16.84 100.46-17.38Q100.34-17.92 100.19-18.23L100.19-18.23Q101.45-18.02 102.53-17.94Q103.61-17.86 104.48-17.86L104.48-17.86Q105.05-17.86 105.49-17.88Q105.94-17.91 106.25-17.94L106.25-17.94Q106.63-17.97 106.91-18.02L106.91-18.02Q106.63-16.61 106.45-14.63Q106.27-12.64 106.27-10.38L106.27-10.38Q106.27-9.08 106.33-7.75Q106.39-6.42 106.53-5.10Q106.67-3.78 106.90-2.51Q107.13-1.23 107.45-0.06ZM100.28-22.41L100.28-22.41Q100.28-23.13 100.55-23.76Q100.83-24.39 101.30-24.87Q101.78-25.34 102.42-25.62Q103.06-25.89 103.78-25.89L103.78-25.89Q104.50-25.89 105.13-25.62Q105.77-25.34 106.24-24.87Q106.72-24.39 106.99-23.76Q107.27-23.13 107.27-22.41L107.27-22.41Q107.27-21.69 106.99-21.05Q106.72-20.41 106.24-19.93Q105.77-19.45 105.13-19.18Q104.50-18.91 103.78-18.91L103.78-18.91Q103.06-18.91 102.42-19.18Q101.78-19.45 101.30-19.93Q100.83-20.41 100.55-21.05Q100.28-21.69 100.28-22.41ZM122.23-13.25L122.23-13.25Q122.23-12.59 122.01-11.94Q121.78-11.28 121.36-10.76Q120.94-10.23 120.32-9.90Q119.70-9.56 118.94-9.56L118.94-9.56Q118.25-9.56 117.77-9.80Q117.28-10.03 116.97-10.41Q116.66-10.78 116.51-11.27Q116.36-11.77 116.36-12.28L116.36-12.28Q116.36-13.38 116.89-14.17L116.89-14.17Q116.97-13.91 117.12-13.77Q117.27-13.64 117.39-13.58L117.39-13.58Q117.55-13.52 117.70-13.50L117.70-13.50Q118.16-13.50 118.28-13.70Q118.41-13.91 118.44-14.17L118.44-14.17Q118.44-14.44 118.23-14.69Q118.03-14.94 117.53-14.94L117.53-14.94Q117.39-14.94 117.13-14.90Q116.88-14.86 116.55-14.70Q116.23-14.55 115.91-14.24Q115.58-13.94 115.30-13.40Q115.03-12.86 114.86-12.05Q114.69-11.25 114.69-10.11L114.69-10.11Q114.69-8.94 115.03-8.21Q115.38-7.48 115.85-7.09Q116.33-6.69 116.86-6.55Q117.39-6.41 117.77-6.41L117.77-6.41Q118.09-6.41 118.59-6.52Q119.09-6.64 119.59-6.95Q120.08-7.27 120.48-7.82Q120.89-8.38 121.03-9.25L121.03-9.25Q121.45-8.63 121.70-7.76Q121.95-6.89 121.95-5.95L121.95-5.95Q121.95-4.67 121.48-3.45Q121-2.23 120.13-1.29Q119.27-0.34 118.05 0.23Q116.83 0.80 115.36 0.80L115.36 0.80Q114.27 0.80 113.33 0.45Q112.39 0.09 111.63-0.53Q110.88-1.16 110.28-2.01Q109.69-2.86 109.29-3.85Q108.89-4.84 108.69-5.94Q108.48-7.03 108.48-8.13L108.48-8.13Q108.48-9.34 108.75-10.61Q109.02-11.88 109.51-13.05Q110-14.22 110.72-15.25Q111.44-16.28 112.34-17.04Q113.25-17.80 114.34-18.24Q115.44-18.69 116.67-18.69L116.67-18.69Q117.78-18.69 118.63-18.42Q119.47-18.16 120.09-17.72Q120.72-17.28 121.13-16.71Q121.53-16.14 121.78-15.54Q122.03-14.94 122.13-14.34Q122.23-13.75 122.23-13.25ZM136.98-14.53L136.98-14.53Q136.98-13.36 136.65-12.25Q136.31-11.14 135.47-10.28Q134.63-9.42 133.20-8.91Q131.77-8.39 129.56-8.39L129.56-8.39Q129.63-7.63 129.88-7.11Q130.14-6.59 130.50-6.28Q130.86-5.97 131.27-5.81Q131.67-5.66 132.02-5.59Q132.36-5.53 132.59-5.53Q132.83-5.53 132.83-5.53L132.83-5.53Q133.80-5.64 134.56-6.03L134.56-6.03Q134.89-6.19 135.20-6.43Q135.52-6.67 135.77-7.01Q136.03-7.34 136.20-7.77Q136.36-8.20 136.39-8.77L136.39-8.77Q136.80-7.75 136.96-6.87Q137.13-5.98 137.13-5.22L137.13-5.22Q137.13-3.81 136.62-2.63Q136.11-1.45 135.22-0.59Q134.33 0.27 133.10 0.74Q131.88 1.22 130.44 1.22L130.44 1.22Q129.03 1.22 127.73 0.73Q126.42 0.25 125.41-0.80Q124.41-1.86 123.80-3.55Q123.20-5.23 123.20-7.64L123.20-7.64Q123.20-10.25 123.95-12.27Q124.70-14.28 125.97-15.65Q127.23-17.02 128.90-17.73Q130.56-18.44 132.39-18.44L132.39-18.44Q133.30-18.44 134.13-18.23Q134.97-18.03 135.60-17.56Q136.23-17.09 136.61-16.35Q136.98-15.61 136.98-14.53ZM129.50-10.97L129.50-10.97Q129.94-10.98 130.52-11.15Q131.09-11.31 131.61-11.61Q132.13-11.91 132.48-12.34Q132.83-12.78 132.83-13.34L132.83-13.34Q132.83-13.70 132.58-13.92Q132.33-14.14 131.94-14.14L131.94-14.14Q131.39-14.14 130.96-13.83Q130.53-13.52 130.23-13.05Q129.92-12.58 129.73-12.02Q129.55-11.45 129.50-10.97Z"/></svg>