<svg id="mainsvg" xmlns="http://www.w3.org/2000/svg" xmlns:xlink="http://www.w3.org/1999/xlink" version="1.1" x="0px" y="0px" enable-background="new 0 0 200 162.5" xml:space="preserve" viewBox="0 0 107 26"><path fill="#000" transform="translate(-2.496, 24.832)" d="M11.20 0.48L11.20 0.48Q8.93 0.48 7.30-0.18Q5.66-0.83 4.59-2.02Q3.52-3.20 3.01-4.80Q2.50-6.40 2.50-8.32L2.50-8.32L2.50-22.18L6.56-22.18L6.56-8.70Q6.56-7.20 6.90-6.13Q7.23-5.06 7.86-4.38Q8.48-3.71 9.33-3.39Q10.18-3.07 11.23-3.07L11.23-3.07Q12.29-3.07 13.15-3.39Q14.02-3.71 14.64-4.38Q15.26-5.06 15.60-6.13Q15.94-7.20 15.94-8.70L15.94-8.70L15.94-22.18L20-22.18L20-8.32Q20-6.40 19.47-4.80Q18.94-3.20 17.87-2.02Q16.80-0.83 15.14-0.18Q13.47 0.48 11.20 0.48ZM36.06-8.42L36.06-8.42Q36.06-10.88 35.09-12.32Q34.11-13.76 32-13.76L32-13.76Q31.04-13.76 30.19-13.47Q29.34-13.18 28.83-12.83L28.83-12.83L28.83-3.20Q29.25-3.10 29.90-3.02Q30.56-2.94 31.49-2.94L31.49-2.94Q33.63-2.94 34.85-4.40Q36.06-5.86 36.06-8.42ZM40.03-8.35L40.03-8.35Q40.03-6.34 39.44-4.72Q38.85-3.10 37.74-1.95Q36.64-0.80 35.07-0.19Q33.50 0.42 31.52 0.42L31.52 0.42Q29.60 0.42 27.86 0.13Q26.11-0.16 24.96-0.51L24.96-0.51L24.96-24.19L28.83-24.83L28.83-16.16Q29.50-16.51 30.48-16.80Q31.46-17.09 32.64-17.09L32.64-17.09Q34.40-17.09 35.79-16.46Q37.18-15.84 38.11-14.69Q39.04-13.54 39.54-11.92Q40.03-10.30 40.03-8.35ZM57.76-16.74L57.76-0.51Q56.64-0.22 54.85 0.08Q53.06 0.38 50.91 0.38L50.91 0.38Q48.90 0.38 47.54-0.19Q46.18-0.77 45.36-1.79Q44.54-2.82 44.19-4.24Q43.84-5.66 43.84-7.36L43.84-7.36L43.84-16.74L47.71-16.74L47.71-7.97Q47.71-5.28 48.50-4.13Q49.28-2.98 51.23-2.98L51.23-2.98Q51.94-2.98 52.72-3.04Q53.50-3.10 53.89-3.20L53.89-3.20L53.89-16.74L57.76-16.74ZM62.69 0L62.69-16.19Q63.81-16.51 65.60-16.80Q67.39-17.09 69.57-17.09L69.57-17.09Q71.62-17.09 72.99-16.53Q74.37-15.97 75.18-14.96Q76-13.95 76.34-12.53Q76.67-11.10 76.67-9.41L76.67-9.41L76.67 0L72.80 0L72.80-8.80Q72.80-10.14 72.62-11.09Q72.45-12.03 72.05-12.62Q71.65-13.22 70.96-13.49Q70.27-13.76 69.28-13.76L69.28-13.76Q68.54-13.76 67.74-13.66Q66.94-13.57 66.56-13.50L66.56-13.50L66.56 0L62.69 0ZM81.22-6.66L81.22-21.15L85.09-21.79L85.09-16.74L91.04-16.74L91.04-13.50L85.09-13.50L85.09-6.69Q85.09-4.67 85.73-3.81Q86.37-2.94 87.90-2.94L87.90-2.94Q88.96-2.94 89.78-3.17Q90.59-3.39 91.07-3.58L91.07-3.58L91.71-0.51Q91.04-0.22 89.95 0.08Q88.86 0.38 87.39 0.38L87.39 0.38Q85.60 0.38 84.40-0.10Q83.20-0.58 82.50-1.49Q81.79-2.40 81.50-3.70Q81.22-4.99 81.22-6.66L81.22-6.66ZM108.51-16.74L108.51-0.51Q107.39-0.22 105.60 0.08Q103.81 0.38 101.66 0.38L101.66 0.38Q99.65 0.38 98.29-0.19Q96.93-0.77 96.11-1.79Q95.30-2.82 94.94-4.24Q94.59-5.66 94.59-7.36L94.59-7.36L94.59-16.74L98.46-16.74L98.46-7.97Q98.46-5.28 99.25-4.13Q100.03-2.98 101.98-2.98L101.98-2.98Q102.69-2.98 103.47-3.04Q104.26-3.10 104.64-3.20L104.64-3.20L104.64-16.74L108.51-16.74Z"/></svg>