<svg id="mainsvg" xmlns="http://www.w3.org/2000/svg" xmlns:xlink="http://www.w3.org/1999/xlink" version="1.1" x="0px" y="0px" enable-background="new 0 0 200 162.5" xml:space="preserve" viewBox="0 0 79 22"><path fill="#000" transform="translate(-1.6320000000000001, 21.44)" d="M6.78 0L1.63 0L1.63-20.61L6.78-20.61L6.78-12.61L13.89-20.61L19.78-20.61L12.42-12.19L20.22 0L14.72 0L9.22-8.90L6.78-6.24L6.78 0ZM27.58 0.32L27.58 0.32Q26.14 0.32 24.91-0.19Q23.68-0.70 22.94-1.78Q22.21-2.85 22.21-4.45L22.21-4.45Q22.21-6.78 23.79-8.11Q25.38-9.44 28.54-9.44L28.54-9.44L32.77-9.44L32.77-9.79Q32.77-10.94 32-11.44Q31.23-11.94 29.12-11.94L29.12-11.94Q26.53-11.94 24.03-11.14L24.03-11.14L24.03-14.46Q25.15-14.91 26.77-15.20Q28.38-15.49 30.18-15.49L30.18-15.49Q33.70-15.49 35.70-14.05Q37.70-12.61 37.70-9.47L37.70-9.47L37.70 0L33.18 0L32.93-1.28Q32.10-0.51 30.80-0.10Q29.50 0.32 27.58 0.32ZM29.22-2.85L29.22-2.85Q30.43-2.85 31.33-3.26Q32.22-3.68 32.77-4.32L32.77-4.32L32.77-6.46L29.12-6.46Q26.85-6.46 26.85-4.64L26.85-4.64Q26.85-3.81 27.42-3.33Q28-2.85 29.22-2.85ZM45.95 0L40.80 0L40.80-15.17L45.60-15.17L45.76-13.86Q46.69-14.50 48.10-14.99Q49.50-15.49 51.10-15.49L51.10-15.49Q54.05-15.49 55.39-14.08Q56.74-12.67 56.74-9.73L56.74-9.73L56.74 0L51.58 0L51.58-9.31Q51.58-10.59 51.04-11.14Q50.50-11.68 49.09-11.68L49.09-11.68Q48.26-11.68 47.39-11.30Q46.53-10.91 45.95-10.34L45.95-10.34L45.95 0ZM66.46-17.57L60.86-17.57L60.86-21.44L66.46-21.44L66.46-17.57ZM66.43 0L61.28 0L61.28-11.36L59.04-11.36L59.49-15.17L66.43-15.17L66.43 0ZM75.97 0.32L75.97 0.32Q73.15 0.32 71.82-1.12Q70.50-2.56 70.50-5.09L70.50-5.09L70.50-11.26L68.45-11.26L68.45-15.17L70.50-15.17L70.50-18.34L75.65-19.71L75.65-15.17L79.33-15.17L79.10-11.26L75.65-11.26L75.65-5.44Q75.65-4.35 76.19-3.92Q76.74-3.49 77.82-3.49L77.82-3.49Q78.75-3.49 79.71-3.81L79.71-3.81L79.71-0.32Q78.21 0.32 75.97 0.32Z"/></svg>