<svg id="mainsvg" xmlns="http://www.w3.org/2000/svg" xmlns:xlink="http://www.w3.org/1999/xlink" version="1.1" x="0px" y="0px" enable-background="new 0 0 200 162.5" xml:space="preserve" viewBox="0 0 146 28"><path fill="#000" transform="translate(-0.896, 21.984)" d="M8.03 0.38Q4.51 0.38 0.90-0.70L0.90-0.70Q1.06-3.87 1.41-6.59L1.41-6.59L3.87-7.07L5.47-4.35Q7.39-3.68 8.86-3.68L8.86-3.68Q9.38-3.68 11.04-3.97L11.04-3.97Q11.10-4.61 11.10-4.83L11.10-4.83Q11.10-5.60 10.85-6Q10.59-6.40 9.73-6.90Q8.86-7.39 6.62-8.38L6.62-8.38Q3.87-9.73 2.66-11.28Q1.44-12.83 1.44-14.94L1.44-14.94Q1.44-18.24 3.68-20.10Q5.92-21.95 9.82-21.95L9.82-21.95Q11.71-21.95 13.58-21.58Q15.46-21.22 16.86-20.58L16.86-20.58Q16.80-18.78 16.58-16.13L16.58-16.13L16.48-14.75L14.14-14.40L11.71-17.50Q10.56-17.86 8.83-17.86L8.83-17.86Q7.74-17.86 7.20-17.66L7.20-17.66Q7.04-17.02 7.04-16.67L7.04-16.67Q7.04-15.97 7.39-15.44Q7.74-14.91 8.64-14.35Q9.54-13.79 11.30-12.96L11.30-12.96Q13.86-11.74 15.17-10.82Q16.48-9.89 17.01-8.88Q17.54-7.87 17.54-6.43L17.54-6.43Q17.54-3.26 15.01-1.44Q12.48 0.38 8.03 0.38L8.03 0.38ZM24.86 0.45Q22.30 0.45 21.06-1.07Q19.81-2.59 19.81-5.66L19.81-5.66L19.81-11.39Q19.81-12.10 19.70-12.30Q19.58-12.51 19.14-12.77L19.14-12.77L17.70-13.54L17.86-15.94Q18.30-16 18.50-16.06L18.50-16.06Q18.85-16.13 21.01-16.51Q23.17-16.90 24.61-16.96L24.61-16.96Q24.96-16.16 25.15-15.10L25.15-15.10L25.15-7.04Q25.15-5.63 25.23-5.06Q25.31-4.48 25.74-4.18Q26.18-3.87 27.23-3.87L27.23-3.87Q28.77-3.87 30.21-4.42L30.21-4.42L30.21-11.39Q30.21-12.10 30.11-12.30Q30.02-12.51 29.60-12.77L29.60-12.77L28.19-13.54L28.32-15.94Q30.91-16.42 32.37-16.67Q33.82-16.93 35.04-16.96L35.04-16.96Q35.39-16.16 35.58-15.10L35.58-15.10L35.58-4.61Q35.58-4.03 35.68-3.81Q35.78-3.58 36.13-3.36L36.13-3.36L37.41-2.62L37.31-0.64Q35.94-0.29 34.14-0.02Q32.35 0.26 30.82 0.32L30.82 0.32Q30.69-0.06 30.53-0.64L30.53-0.64Q30.50-0.90 30.37-1.25L30.37-1.25L30.27-1.25Q28.96-0.48 27.50-0.02Q26.05 0.45 24.86 0.45L24.86 0.45ZM46.14 0.38Q42.40 0.38 40.37-1.89Q38.34-4.16 38.34-8.16L38.34-8.16Q38.34-10.94 39.33-12.94Q40.32-14.94 42.14-16Q43.97-17.06 46.40-17.06L46.40-17.06Q50.02-17.06 51.95-14.75Q53.89-12.45 53.79-8.19L53.79-8.19L44.06-6.40Q44.51-5.06 45.33-4.43Q46.14-3.81 47.49-3.81L47.49-3.81Q48.42-3.81 49.70-4.08Q50.98-4.35 52.29-4.83L52.29-4.83L53.02-1.66Q51.84-0.77 49.95-0.19Q48.06 0.38 46.14 0.38L46.14 0.38ZM43.74-9.57L48.54-10.88Q48.48-12.10 47.86-12.66Q47.23-13.22 46.11-13.22L46.11-13.22Q45.18-13.22 44.35-12.96L44.35-12.96Q43.68-11.39 43.74-9.57L43.74-9.57ZM55.62 0L55.33-3.30L63.62-13.06L59.74-12.77L58.11-10.59L55.97-10.94Q56.22-14.66 56.48-16.74L56.48-16.74L69.38-16.74L69.82-12.96L62.14-3.68L66.18-3.97L68.06-6.21L70.27-5.76Q70.11-3.33 69.66 0L69.66 0L55.62 0ZM70.91 5.12L70.91 2.11L86.59 2.11L86.59 5.12L70.91 5.12ZM97.92 0.45Q92.61 0.45 90.00-2.24Q87.39-4.93 87.39-10.40L87.39-10.40Q87.39-13.95 88.70-16.56Q90.02-19.17 92.45-20.58Q94.88-21.98 98.24-21.98L98.24-21.98Q108.93-21.98 108.93-11.07L108.93-11.07Q108.93-7.49 107.62-4.90Q106.30-2.30 103.82-0.93Q101.34 0.45 97.92 0.45L97.92 0.45ZM98.59-3.97Q100.42-3.97 102.08-4.90L102.08-4.90Q102.43-5.89 102.62-7.38Q102.82-8.86 102.82-10.30L102.82-10.30Q102.82-13.86 101.49-15.68Q100.16-17.50 97.60-17.50L97.60-17.50Q95.78-17.50 94.08-16.83L94.08-16.83Q93.73-16.22 93.54-14.83Q93.34-13.44 93.34-11.65L93.34-11.65Q93.34-7.94 94.69-5.95Q96.03-3.97 98.59-3.97L98.59-3.97ZM110.69-0.03L110.53-3.07L112.51-3.65L112.51-11.39Q112.51-12.10 112.42-12.30Q112.32-12.51 111.90-12.77L111.90-12.77L110.50-13.54L110.59-15.94L111.30-16.06Q115.49-16.90 117.34-16.96L117.34-16.96Q117.60-16.29 117.76-15.49L117.76-15.49Q119.71-16.38 120.94-16.72Q122.18-17.06 123.26-17.06L123.26-17.06Q128.35-17.06 128.35-10.98L128.35-10.98L128.35-4.70Q128.35-4.03 128.45-3.81Q128.54-3.58 128.99-3.33L128.99-3.33L130.53-2.43L130.40-0.03L121.57-0.03L121.41-3.07L122.98-3.52L122.98-9.57Q122.98-11.01 122.88-11.58Q122.78-12.16 122.35-12.48Q121.92-12.80 120.83-12.80L120.83-12.80Q119.68-12.80 117.92-12.45L117.92-12.45L117.92-4.70Q117.92-4.03 118.02-3.81Q118.11-3.58 118.53-3.33L118.53-3.33L120.10-2.43L119.97-0.03L110.69-0.03ZM139.10 0.38Q135.36 0.38 133.33-1.89Q131.30-4.16 131.30-8.16L131.30-8.16Q131.30-10.94 132.29-12.94Q133.28-14.94 135.10-16Q136.93-17.06 139.36-17.06L139.36-17.06Q142.98-17.06 144.91-14.75Q146.85-12.45 146.75-8.19L146.75-8.19L137.02-6.40Q137.47-5.06 138.29-4.43Q139.10-3.81 140.45-3.81L140.45-3.81Q141.38-3.81 142.66-4.08Q143.94-4.35 145.25-4.83L145.25-4.83L145.98-1.66Q144.80-0.77 142.91-0.19Q141.02 0.38 139.10 0.38L139.10 0.38ZM136.70-9.57L141.50-10.88Q141.44-12.10 140.82-12.66Q140.19-13.22 139.07-13.22L139.07-13.22Q138.14-13.22 137.31-12.96L137.31-12.96Q136.64-11.39 136.70-9.57L136.70-9.57Z"/></svg>