<svg id="mainsvg" xmlns="http://www.w3.org/2000/svg" xmlns:xlink="http://www.w3.org/1999/xlink" version="1.1" x="0px" y="0px" enable-background="new 0 0 200 162.5" xml:space="preserve" viewBox="0 0 290 33"><path fill="#000" transform="translate(-0.896, 24.64)" d="M9.25 0L0.90 0L0.90-0.32L2.88-0.32Q3.33-0.32 3.70-0.46Q4.06-0.61 4.29-1.06Q4.51-1.50 4.51-2.40L4.51-2.40L4.51-20.58Q4.51-21.44 4.29-21.86Q4.06-22.27 3.70-22.40Q3.33-22.53 2.88-22.53L2.88-22.53L0.90-22.53L0.90-22.85L9.02-22.85L20.35-5.60L20.35-20.58Q20.35-21.44 20.13-21.86Q19.90-22.27 19.54-22.40Q19.17-22.53 18.72-22.53L18.72-22.53L16.32-22.53L16.32-22.85L24.67-22.85L24.67-22.53L22.30-22.53Q21.86-22.53 21.49-22.38Q21.12-22.24 20.90-21.81Q20.67-21.38 20.67-20.45L20.67-20.45L20.67 0L18.75 0L4.83-21.18L4.83-2.40Q4.83-1.50 5.06-1.06Q5.28-0.61 5.65-0.46Q6.02-0.32 6.46-0.32L6.46-0.32L9.25-0.32L9.25 0ZM34.98 0.32L34.98 0.32Q31.14 0.32 28.93-1.90Q26.72-4.13 26.72-8.64L26.72-8.64Q26.72-13.15 28.83-15.36Q30.94-17.57 35.07-17.57L35.07-17.57Q38.91-17.57 41.12-15.36Q43.33-13.15 43.33-8.64L43.33-8.64Q43.33-4.13 41.20-1.90Q39.07 0.32 34.98 0.32ZM35.04 0L35.04 0Q36.29 0 37.01-0.83Q37.73-1.66 38.05-3.55Q38.37-5.44 38.37-8.64L38.37-8.64Q38.37-11.84 38.05-13.71Q37.73-15.58 36.99-16.42Q36.26-17.25 35.01-17.25L35.01-17.25Q33.79-17.25 33.06-16.42Q32.32-15.58 32-13.71Q31.68-11.84 31.68-8.64L31.68-8.64Q31.68-5.44 32-3.55Q32.32-1.66 33.06-0.83Q33.79 0 35.04 0ZM52.61 0.32L52.61 0.32Q50.46 0.32 49.18-0.80Q47.90-1.92 47.90-4.74L47.90-4.74L47.90-16.83L45.50-16.83L45.50-17.15Q47.07-17.15 48.26-17.47Q49.44-17.79 50.30-18.50L50.30-18.50Q51.10-19.14 51.63-20.11Q52.16-21.09 52.45-22.40L52.45-22.40L52.77-22.40L52.77-17.15L56.86-17.15L56.86-16.83L52.77-16.83L52.77-3.30Q52.77-1.79 53.34-1.09Q53.92-0.38 55.04-0.38L55.04-0.38Q55.49-0.38 56.02-0.48Q56.54-0.58 57.15-0.80L57.15-0.80L57.15-0.48Q56.64-0.26 55.47 0.03Q54.30 0.32 52.61 0.32ZM67.55 0.32L67.55 0.32Q63.71 0.32 61.50-1.90Q59.30-4.13 59.30-8.64L59.30-8.64Q59.30-13.15 61.41-15.36Q63.52-17.57 67.65-17.57L67.65-17.57Q71.49-17.57 73.70-15.36Q75.90-13.15 75.90-8.64L75.90-8.64Q75.90-4.13 73.78-1.90Q71.65 0.32 67.55 0.32ZM67.62 0L67.62 0Q68.86 0 69.58-0.83Q70.30-1.66 70.62-3.55Q70.94-5.44 70.94-8.64L70.94-8.64Q70.94-11.84 70.62-13.71Q70.30-15.58 69.57-16.42Q68.83-17.25 67.58-17.25L67.58-17.25Q66.37-17.25 65.63-16.42Q64.90-15.58 64.58-13.71Q64.26-11.84 64.26-8.64L64.26-8.64Q64.26-5.44 64.58-3.55Q64.90-1.66 65.63-0.83Q66.37 0 67.62 0ZM92.77 0.32L92.77 0.32Q90.78 0.32 89.41-0.08Q88.03-0.48 87.18-1.15Q86.34-1.82 85.95-2.64Q85.57-3.46 85.57-4.26L85.57-4.26Q85.57-5.31 86.08-5.94Q86.59-6.56 87.42-6.85Q88.26-7.14 89.18-7.14L89.18-7.14Q89.18-4.19 89.74-2.66Q90.30-1.12 91.26-0.56Q92.22 0 93.47 0L93.47 0Q95.39 0 96.62-1.02Q97.86-2.05 97.86-4.10L97.86-4.10Q97.86-5.60 97.18-6.58Q96.51-7.55 95.25-8.29Q93.98-9.02 92.19-9.76L92.19-9.76Q90.53-10.43 89.38-11.17Q88.22-11.90 87.52-12.75Q86.82-13.60 86.51-14.58Q86.21-15.55 86.21-16.74L86.21-16.74Q86.21-18.69 87.20-20.13Q88.19-21.57 90.05-22.37Q91.90-23.17 94.46-23.17L94.46-23.17Q96.51-23.17 97.94-22.67Q99.36-22.18 100.11-21.34Q100.86-20.51 100.86-19.49L100.86-19.49Q100.86-18.34 99.89-17.57Q98.91-16.80 96.93-16.80L96.93-16.80Q96.93-19.90 96.14-21.34Q95.36-22.78 93.47-22.78L93.47-22.78Q92.64-22.78 91.81-22.46Q90.98-22.14 90.43-21.34Q89.89-20.54 89.89-19.07L89.89-19.07Q89.89-17.86 90.43-16.91Q90.98-15.97 92.22-15.15Q93.47-14.34 95.62-13.47L95.62-13.47Q97.82-12.58 99.18-11.62Q100.54-10.66 101.15-9.46Q101.76-8.26 101.76-6.69L101.76-6.69Q101.76-4.64 100.72-3.06Q99.68-1.47 97.66-0.58Q95.65 0.32 92.77 0.32ZM113.31 0.32L113.31 0.32Q109.15 0.32 107.01-2Q104.86-4.32 104.86-8.48L104.86-8.48Q104.86-12.99 106.94-15.28Q109.02-17.57 112.80-17.57L112.80-17.57Q116.29-17.57 118.29-15.62Q120.29-13.66 120.29-9.86L120.29-9.86L120.29-9.09L109.79-9.09Q109.79-5.86 110.22-3.86Q110.66-1.86 111.60-0.94Q112.54-0.03 114.05-0.03L114.05-0.03Q115.17-0.03 116.08-0.51Q116.99-0.99 117.62-2.05Q118.24-3.10 118.43-4.86L118.43-4.86Q119.07-4.74 119.34-4.32Q119.62-3.90 119.62-3.36L119.62-3.36Q119.62-2.46 118.91-1.62Q118.21-0.77 116.82-0.22Q115.42 0.32 113.31 0.32ZM109.79-9.41L115.42-9.41Q115.42-12.32 115.20-14.03Q114.98-15.74 114.40-16.50Q113.82-17.25 112.80-17.25L112.80-17.25Q111.78-17.25 111.10-16.50Q110.43-15.74 110.13-14.03Q109.82-12.32 109.79-9.41L109.79-9.41ZM132.96 0L122.27 0L122.27-0.32L122.56-0.32Q123.04-0.32 123.57-0.46Q124.10-0.61 124.46-1.06Q124.83-1.50 124.83-2.40L124.83-2.40L124.83-14.88Q124.83-15.74 124.45-16.16Q124.06-16.58 123.54-16.70Q123.01-16.83 122.56-16.83L122.56-16.83L122.43-16.83L122.43-17.15L129.70-17.15L129.70-14.40L129.76-14.40Q130.11-15.46 130.69-16.14Q131.26-16.83 132.14-17.18Q133.02-17.54 134.21-17.54L134.21-17.54Q136-17.54 136.94-16.80Q137.89-16.06 137.89-14.75L137.89-14.75Q137.89-13.38 136.80-12.61Q135.71-11.84 133.82-11.84L133.82-11.84Q133.82-14.27 133.34-15.18Q132.86-16.10 131.97-16.10L131.97-16.10Q131.49-16.10 131.07-15.84Q130.66-15.58 130.35-14.99Q130.05-14.40 129.87-13.42Q129.70-12.45 129.70-10.98L129.70-10.98L129.70-2.40Q129.70-1.50 130.06-1.06Q130.43-0.61 130.98-0.46Q131.52-0.32 131.97-0.32L131.97-0.32L132.96-0.32L132.96 0ZM149.09 0L138.91 0L138.91-0.32L139.30-0.32Q139.78-0.32 140.30-0.46Q140.83-0.61 141.20-1.06Q141.57-1.50 141.57-2.40L141.57-2.40L141.57-14.88Q141.57-15.74 141.18-16.16Q140.80-16.58 140.27-16.70Q139.74-16.83 139.30-16.83L139.30-16.83L138.91-16.83L138.91-17.15L146.43-17.15L146.43-2.40Q146.43-1.50 146.80-1.06Q147.17-0.61 147.71-0.46Q148.26-0.32 148.70-0.32L148.70-0.32L149.09-0.32L149.09 0ZM143.84-20.03L143.84-20.03Q142.91-20.03 142.26-20.59Q141.60-21.15 141.60-22.34L141.60-22.34Q141.60-23.55 142.26-24.10Q142.91-24.64 143.84-24.64L143.84-24.64Q144.77-24.64 145.44-24.10Q146.11-23.55 146.11-22.34L146.11-22.34Q146.11-21.15 145.44-20.59Q144.77-20.03 143.84-20.03ZM161.86 0L150.24 0L150.24-0.32L150.94-0.32Q151.42-0.32 151.95-0.46Q152.48-0.61 152.85-1.06Q153.22-1.50 153.22-2.40L153.22-2.40L153.22-16.83L150.37-16.83L150.37-17.15L153.22-17.15L153.22-18.34Q153.22-21.31 154.80-22.96Q156.38-24.61 160.26-24.61L160.26-24.61Q162.02-24.61 163.07-24.29Q164.13-23.97 164.61-23.44Q165.09-22.91 165.09-22.21L165.09-22.21Q165.09-21.54 164.66-21.09Q164.22-20.64 163.34-20.42Q162.46-20.19 161.15-20.19L161.15-20.19Q161.15-22.53 160.82-23.41Q160.48-24.29 159.62-24.29L159.62-24.29Q158.75-24.29 158.42-23.46Q158.08-22.62 158.08-20.42L158.08-20.42L158.08-17.15L162.50-17.15L162.50-16.83L158.08-16.83L158.08-2.40Q158.08-1.50 158.45-1.06Q158.82-0.61 159.36-0.46Q159.90-0.32 160.35-0.32L160.35-0.32L161.86-0.32L161.86 0ZM181.31 0L170.75 0L170.75-0.32L172.10-0.32Q172.58-0.32 172.94-0.46Q173.31-0.61 173.52-1.06Q173.73-1.50 173.73-2.40L173.73-2.40L173.73-20.58Q173.73-21.44 173.50-21.86Q173.28-22.27 172.91-22.40Q172.54-22.53 172.10-22.53L172.10-22.53L170.75-22.53L170.75-22.85L181.31-22.85Q184.86-22.85 187.39-21.62Q189.92-20.38 191.28-17.94Q192.64-15.49 192.64-11.84L192.64-11.84Q192.64-8.35 191.36-5.68Q190.08-3.01 187.57-1.50Q185.06 0 181.31 0L181.31 0ZM178.78-0.32L180.58-0.32Q182.98-0.32 184.45-1.47Q185.92-2.62 186.58-5.17Q187.23-7.71 187.23-11.84L187.23-11.84Q187.23-15.68 186.58-18.03Q185.92-20.38 184.46-21.46Q183.01-22.53 180.61-22.53L180.61-22.53L178.78-22.53L178.78-0.32ZM205.12 0L194.94 0L194.94-0.32L195.33-0.32Q195.81-0.32 196.34-0.46Q196.86-0.61 197.23-1.06Q197.60-1.50 197.60-2.40L197.60-2.40L197.60-14.88Q197.60-15.74 197.22-16.16Q196.83-16.58 196.30-16.70Q195.78-16.83 195.33-16.83L195.33-16.83L194.94-16.83L194.94-17.15L202.46-17.15L202.46-2.40Q202.46-1.50 202.83-1.06Q203.20-0.61 203.74-0.46Q204.29-0.32 204.74-0.32L204.74-0.32L205.12-0.32L205.12 0ZM199.87-20.03L199.87-20.03Q198.94-20.03 198.29-20.59Q197.63-21.15 197.63-22.34L197.63-22.34Q197.63-23.55 198.29-24.10Q198.94-24.64 199.87-24.64L199.87-24.64Q200.80-24.64 201.47-24.10Q202.14-23.55 202.14-22.34L202.14-22.34Q202.14-21.15 201.47-20.59Q200.80-20.03 199.87-20.03ZM212.74 0.32L212.74 0.32Q210.66 0.32 209.30-0.18Q207.94-0.67 207.28-1.52Q206.62-2.37 206.62-3.42L206.62-3.42Q206.62-4.48 207.14-4.99Q207.65-5.50 208.35-5.68Q209.06-5.86 209.60-5.86L209.60-5.86Q209.60-3.68 209.97-2.38Q210.34-1.09 211.12-0.54Q211.90 0 213.12 0L213.12 0Q214.66 0 215.60-0.77Q216.54-1.54 216.54-3.17L216.54-3.17Q216.54-4.26 216.10-4.86Q215.65-5.47 214.70-5.94Q213.76-6.40 212.29-6.94L212.29-6.94Q210.85-7.49 209.63-8.13Q208.42-8.77 207.68-9.78Q206.94-10.78 206.94-12.42L206.94-12.42Q206.94-15.01 208.82-16.27Q210.69-17.54 213.86-17.54L213.86-17.54Q215.87-17.54 217.09-17.10Q218.30-16.67 218.86-15.97Q219.42-15.26 219.42-14.43L219.42-14.43Q219.42-13.50 218.67-12.93Q217.92-12.35 216.16-12.35L216.16-12.35Q216.16-15.07 215.46-16.14Q214.75-17.22 213.34-17.22L213.34-17.22Q212.67-17.22 212.00-16.96Q211.33-16.70 210.88-16.08Q210.43-15.46 210.43-14.30L210.43-14.30Q210.43-13.28 210.90-12.67Q211.36-12.06 212.38-11.58Q213.41-11.10 215.14-10.46L215.14-10.46Q216.61-9.92 217.70-9.26Q218.78-8.61 219.39-7.63Q220.00-6.66 220.00-5.15L220.00-5.15Q220.00-2.62 218.16-1.15Q216.32 0.32 212.74 0.32ZM232.74 7.68L222.24 7.68L222.24 7.36L222.62 7.36Q223.10 7.36 223.63 7.22Q224.16 7.07 224.53 6.62Q224.90 6.18 224.90 5.28L224.90 5.28L224.90-14.88Q224.90-15.74 224.51-16.16Q224.13-16.58 223.60-16.70Q223.07-16.83 222.62-16.83L222.62-16.83L222.53-16.83L222.53-17.15L229.73-17.15L229.73-13.15L229.79-13.15Q230.14-15.39 231.39-16.46Q232.64-17.54 234.56-17.54L234.56-17.54Q237.63-17.54 239.30-15.41Q240.96-13.28 240.96-8.64L240.96-8.64Q240.96-4 239.30-1.84Q237.63 0.32 234.40 0.32L234.40 0.32Q232.61 0.32 231.38-0.82Q230.14-1.95 229.79-4.38L229.79-4.38L229.73-4.38Q229.76-3.39 229.76-2.26Q229.76-1.12 229.76 0L229.76 0L229.76 5.28Q229.76 6.18 230.13 6.62Q230.50 7.07 231.04 7.22Q231.58 7.36 232.03 7.36L232.03 7.36L232.74 7.36L232.74 7.68ZM233.06-0.48L233.06-0.48Q234.05-0.48 234.70-1.44Q235.36-2.40 235.70-4.32Q236.03-6.24 236.03-9.09L236.03-9.09Q236.03-11.62 235.70-13.31Q235.36-15.01 234.72-15.87Q234.08-16.74 233.12-16.74L233.12-16.74Q232.03-16.74 231.28-15.87Q230.53-15.01 230.14-13.31Q229.76-11.62 229.76-9.09L229.76-9.09Q229.76-6.24 230.13-4.32Q230.50-2.40 231.23-1.44Q231.97-0.48 233.06-0.48ZM252.64 0L242.46 0L242.46-0.32L242.85-0.32Q243.33-0.32 243.86-0.46Q244.38-0.61 244.75-1.06Q245.12-1.50 245.12-2.40L245.12-2.40L245.12-22.05Q245.12-22.91 244.74-23.33Q244.35-23.74 243.82-23.87Q243.30-24 242.85-24L242.85-24L242.46-24L242.46-24.32L249.98-24.32L249.98-2.40Q249.98-1.50 250.35-1.06Q250.72-0.61 251.26-0.46Q251.81-0.32 252.26-0.32L252.26-0.32L252.64-0.32L252.64 0ZM259.74 0.32L259.74 0.32Q257.34 0.32 255.98-1.04Q254.62-2.40 254.62-4.67L254.62-4.67Q254.62-7.14 256.42-8.22Q258.21-9.31 261.79-9.44L261.79-9.44L264.42-9.54L264.42-13.60Q264.42-15.01 264.22-15.79Q264.03-16.58 263.62-16.91Q263.20-17.25 262.46-17.25L262.46-17.25Q261.18-17.25 260.74-16.16Q260.29-15.07 260.29-12.16L260.29-12.16Q258.14-12.16 257.06-12.66Q255.97-13.15 255.97-14.34L255.97-14.34Q255.97-15.49 256.86-16.21Q257.76-16.93 259.26-17.25Q260.77-17.57 262.56-17.57L262.56-17.57Q265.92-17.57 267.60-16.35Q269.28-15.14 269.28-12.13L269.28-12.13L269.28-2.59Q269.28-1.73 269.46-1.23Q269.63-0.74 270.06-0.53Q270.50-0.32 271.20-0.32L271.20-0.32L271.33-0.32L271.33 0L264.48 0L264.48-3.23L264.42-3.23Q264-1.86 263.30-1.09Q262.59-0.32 261.68 0Q260.77 0.32 259.74 0.32ZM261.38-0.58L261.38-0.58Q262.30-0.58 262.99-1.28Q263.68-1.98 264.05-3.10Q264.42-4.22 264.42-5.47L264.42-5.47L264.42-9.22L262.98-9.15Q261.06-9.06 260.32-8.05Q259.58-7.04 259.58-4.77L259.58-4.77Q259.58-3.23 259.78-2.30Q259.97-1.38 260.37-0.98Q260.77-0.58 261.38-0.58ZM273.34 7.68L273.34 7.36Q275.52 7.36 276.91 6.99Q278.30 6.62 279.17 5.87Q280.03 5.12 280.64 3.95Q281.25 2.78 281.92 1.18L281.92 1.18L274.14-15.30Q273.89-15.87 273.65-16.21Q273.41-16.54 273.15-16.69Q272.90-16.83 272.54-16.83L272.54-16.83L272.35-16.83L272.35-17.15L281.54-17.15L281.57-16.83L280.93-16.83Q280.00-16.83 279.55-16.61Q279.10-16.38 279.10-15.84L279.10-15.84Q279.10-15.55 279.20-15.20Q279.30-14.85 279.49-14.40L279.49-14.40L282.62-7.20Q282.91-6.59 283.10-6.14Q283.30-5.70 283.42-5.39Q283.55-5.09 283.66-4.82Q283.78-4.54 283.90-4.26L283.90-4.26Q284.16-4.93 284.38-5.52Q284.61-6.11 284.77-6.59L284.77-6.59L287.49-13.95Q287.68-14.46 287.78-14.86Q287.87-15.26 287.87-15.58L287.87-15.58Q287.87-16.29 287.38-16.56Q286.88-16.83 285.76-16.83L285.76-16.83L284.42-16.83L284.42-17.15L290.88-17.15L290.88-16.83L290.82-16.83Q290.11-16.83 289.60-16.61Q289.09-16.38 288.70-15.84Q288.32-15.30 287.97-14.34L287.97-14.34L282.66 0.13Q281.82 2.43 281.06 3.90Q280.29 5.38 279.33 6.21Q278.37 7.04 276.96 7.36Q275.55 7.68 273.44 7.68L273.44 7.68L273.34 7.68Z"/></svg>