<svg id="mainsvg" xmlns="http://www.w3.org/2000/svg" xmlns:xlink="http://www.w3.org/1999/xlink" version="1.1" x="0px" y="0px" enable-background="new 0 0 200 162.5" xml:space="preserve" viewBox="0 0 83 24"><path fill="#000" transform="translate(-1.28125, 22.53125)" d="M1.28-0.88L1.28-0.88L1.69-22.50L3.38-22.50L13.59-3.09L13.59-5.56Q13.59-15 13.94-22.53L13.94-22.53L15.72-22.19Q16.06-15.41 16.28 0.16L16.28 0.16Q15.63 0.44 14.91 0.44L14.91 0.44Q13.84 0.44 12.69-0.19L12.69-0.19Q10.78-3.13 7.95-8.78Q5.13-14.44 3.94-16.53L3.94-16.53Q3.97-14.41 3.98-8.78Q4-3.16 4.09-0.25L4.09-0.25Q3.81 0.72 3 0.72L3 0.72Q2.44 0.72 1.92 0.25Q1.41-0.22 1.28-0.88ZM31.44-3.03L31.44-3.03L31.75-1.66Q30.38-1.16 27.67-0.55Q24.97 0.06 23.66 0.06L23.66 0.06Q22.31 0.06 21.31-0.83Q20.31-1.72 19.81-3.11Q19.31-4.50 19.08-5.86Q18.84-7.22 18.84-8.53L18.84-8.53Q18.84-16.34 25.91-16.34L25.91-16.34Q27.59-16.34 28.88-15.27Q30.16-14.19 30.16-12.47L30.16-12.47Q30.16-11.53 29.64-10.81Q29.13-10.09 28.39-9.67Q27.66-9.25 26.52-8.91Q25.38-8.56 24.50-8.41Q23.63-8.25 22.41-8.06Q21.19-7.88 20.72-7.78L20.72-7.78Q20.75-6.88 20.83-6.19Q20.91-5.50 21.14-4.70Q21.38-3.91 21.77-3.39Q22.16-2.88 22.84-2.53Q23.53-2.19 24.47-2.19L24.47-2.19Q25.59-2.19 27.22-2.39Q28.84-2.59 30.11-2.81Q31.38-3.03 31.44-3.03ZM20.84-9.72L20.84-9.72Q25.09-10.94 27.81-12.28L27.81-12.28Q27.59-13.31 27.22-13.78Q26.84-14.25 26.09-14.25L26.09-14.25Q24.19-14.25 22.64-12.94Q21.09-11.63 20.84-9.72ZM42.28-15.69L42.28-15.69L43.78-15.41L43.78-15.09Q43.78-12.97 44.05-7.91Q44.31-2.84 44.53-0.09L44.53-0.09Q43.91 0.16 43.34 0.16L43.34 0.16Q42.84 0.16 42.22 0L42.22 0L41.97-0.81Q39.97 0.31 38.16 0.31L38.16 0.31Q36.81 0.31 35.83-0.31Q34.84-0.94 34.31-1.86Q33.78-2.78 33.47-4.14Q33.16-5.50 33.08-6.61Q33-7.72 33-9.09L33-9.09Q33-13.09 33.50-16.44L33.50-16.44L34.91-16.13Q35.13-15.09 35.13-13.88L35.13-13.88Q35.13-13.19 35.05-11.50Q34.97-9.81 34.97-8.94L34.97-8.94Q34.97-7.41 35.11-6.30Q35.25-5.19 35.64-4.14Q36.03-3.09 36.84-2.53Q37.66-1.97 38.88-1.97L38.88-1.97Q40.25-1.97 41.84-2.59L41.84-2.59Q41.91-3.75 41.97-8.52Q42.03-13.28 42.28-15.69ZM57.59-15.50L57.59-15.50L57.44-14.16Q56.13-14.34 55.19-14.34L55.19-14.34Q53.03-14.34 51.63-13.05Q50.22-11.75 49.70-9.98Q49.19-8.22 49.19-6.06L49.19-6.06Q49.19-5.06 49.31-4.28Q49.44-3.50 49.77-2.75Q50.09-2 50.80-1.58Q51.50-1.16 52.53-1.16L52.53-1.16Q53.91-1.16 56.03-1.69L56.03-1.69Q56.69-1.94 57.06-1.94L57.06-1.94Q57.81-1.94 57.97-0.19L57.97-0.19Q55.22 0.69 52.88 0.69L52.88 0.69Q49.47 0.69 48.27-0.98Q47.06-2.66 47.06-6.41L47.06-6.41Q47.06-8.59 47.36-10.23Q47.66-11.88 48.41-13.30Q49.16-14.72 50.58-15.47Q52-16.22 54.06-16.22L54.06-16.22Q56.38-16.22 57.59-15.50ZM59.72-22.50L59.72-22.50L61.34-22.13Q61.44-20.84 61.48-18.03Q61.53-15.22 61.59-14.16L61.59-14.16Q63.28-15.94 65.66-15.94L65.66-15.94Q67.78-15.94 69.33-14.44Q70.88-12.94 70.88-10.44L70.88-10.44L70.88-0.16Q70.47 0.03 69.84 0.03L69.84 0.03Q69.16 0.03 68.59-0.09L68.59-0.09Q68.59-0.34 68.61-0.86Q68.63-1.38 68.63-1.63L68.63-1.63Q68.63-2.84 68.53-5.83Q68.44-8.81 68.44-10.81L68.44-10.81Q67.97-13.69 65.53-13.69L65.53-13.69Q64.47-13.69 63.44-13.11Q62.41-12.53 61.94-11.75L61.94-11.75Q62.03-9.78 62.06-5.81Q62.09-1.84 62.16-0.09L62.16-0.09Q61.41 0.03 60.88 0.03L60.88 0.03Q60.09 0.03 59.56-0.16L59.56-0.16Q59.63-1.69 59.63-5L59.63-5Q59.63-6.47 59.59-10.39Q59.56-14.31 59.58-17.14Q59.59-19.97 59.72-22.50ZM74.56-13.50L74.56-13.50L73.94-15.09Q74.75-15.91 76-16.39Q77.25-16.88 78.47-16.88L78.47-16.88Q83.75-16.88 83.75-7.75L83.75-7.75Q83.75-6.50 83.61-4.06Q83.47-1.63 83.47-0.41L83.47-0.41Q83.22 0.56 82.50 0.56L82.50 0.56Q81.94 0.56 81.47 0Q81-0.56 81-1.25L81-1.25Q81-1.47 81.03-1.56L81.03-1.56Q79.09 0.31 76.91 0.31L76.91 0.31Q75.25 0.31 74.02-0.89Q72.78-2.09 72.78-3.81L72.78-3.81Q72.78-6.72 75.05-9.06Q77.31-11.41 80.19-11.41L80.19-11.41Q80.31-11.41 80.44-11.39Q80.56-11.38 80.73-11.34Q80.91-11.31 81-11.31L81-11.31Q80.75-14.97 78.09-14.97L78.09-14.97Q76.53-14.97 74.56-13.50ZM81.09-3.72L81.09-3.72Q81.16-5.91 81.16-7.03L81.16-7.03Q81.16-7.97 81.09-9.66L81.09-9.66L80.84-9.66Q78.63-9.63 76.80-8Q74.97-6.38 74.97-4.06L74.97-4.06Q74.97-3.06 75.58-2.47Q76.19-1.88 77.06-1.88L77.06-1.88Q78.44-1.88 81.09-3.72Z"/></svg>