<svg id="mainsvg" xmlns="http://www.w3.org/2000/svg" xmlns:xlink="http://www.w3.org/1999/xlink" version="1.1" x="0px" y="0px" enable-background="new 0 0 200 162.5" xml:space="preserve" viewBox="0 0 293 28"><path fill="#000" transform="translate(-1.44, 23.36)" d="M15.20 3.81L2.91 3.81Q2.14 3.81 1.79 3.46Q1.44 3.10 1.44 2.34L1.44 2.34L1.44-18.40Q1.44-18.82 1.55-19.10Q1.66-19.39 1.89-19.58L1.89-19.58L6.02-23.07Q6.18-23.20 6.45-23.28Q6.72-23.36 7.04-23.36L7.04-23.36L17.25-23.36Q20.58-23.36 22.14-22.06Q23.71-20.77 23.71-18.14L23.71-18.14L23.71-16.61Q23.71-15.49 23.41-14.69Q23.10-13.89 22.50-13.41L22.50-13.41L22.40-13.34Q24.13-12.96 24.99-11.70Q25.86-10.43 25.86-8.19L25.86-8.19L25.86-5.25Q25.86-3.81 25.44-2.77Q25.02-1.73 24.19-1.02L24.19-1.02L20.06 2.46Q19.26 3.14 18.05 3.47Q16.83 3.81 15.20 3.81L15.20 3.81ZM7.04 0L19.33 0Q22.50 0 24.02-1.28Q25.54-2.56 25.54-5.25L25.54-5.25L25.54-8.19Q25.54-10.53 24.54-11.74Q23.55-12.96 21.50-13.15L21.50-13.15Q22.46-13.57 22.93-14.42Q23.39-15.26 23.39-16.61L23.39-16.61L23.39-18.14Q23.39-20.64 21.89-21.84Q20.38-23.04 17.25-23.04L17.25-23.04L7.04-23.04Q6.43-23.04 6.16-22.77Q5.89-22.50 5.89-21.89L5.89-21.89L5.89-1.15Q5.89-0.54 6.16-0.27Q6.43 0 7.04 0L7.04 0ZM18.05-2.88L18.05-2.88L9.44-2.88L9.44-20.16L15.94-20.16Q17.25-20.16 18.08-19.89Q18.91-19.62 19.36-19.15Q19.81-18.69 19.97-18.08Q20.13-17.47 20.13-16.77L20.13-16.77L20.13-14.72Q20.13-13.76 19.79-12.96Q19.46-12.16 18.08-11.81L18.08-11.81Q19.39-11.81 20.22-11.54Q21.06-11.26 21.50-10.77Q21.95-10.27 22.10-9.60Q22.24-8.93 22.24-8.13L22.24-8.13L22.24-6.08Q22.24-5.38 22.08-4.78Q21.92-4.19 21.49-3.78Q21.06-3.36 20.22-3.12Q19.39-2.88 18.05-2.88ZM15.94-19.84L15.94-19.84L9.76-19.84L9.76-11.81L15.94-11.81Q17.25-11.81 18.02-12.05Q18.78-12.29 19.18-12.69Q19.58-13.09 19.70-13.62Q19.81-14.14 19.81-14.72L19.81-14.72L19.81-16.77Q19.81-18.05 19.07-18.94Q18.34-19.84 15.94-19.84ZM13.09-14.14L13.09-17.60L15.81-17.60Q16.42-17.60 16.72-17.28Q17.02-16.96 17.02-16.32L17.02-16.32L17.02-15.42Q17.02-14.78 16.72-14.46Q16.42-14.14 15.81-14.14L15.81-14.14L13.09-14.14ZM18.08-11.49L18.08-11.49L9.76-11.49L9.76-3.20L18.05-3.20Q20.45-3.20 21.18-3.98Q21.92-4.77 21.92-6.08L21.92-6.08L21.92-8.13Q21.92-9.57 21.20-10.53Q20.48-11.49 18.08-11.49ZM13.09-5.44L13.09-9.22L17.25-9.22Q17.86-9.22 18.16-8.91Q18.46-8.61 18.46-7.97L18.46-7.97L18.46-6.72Q18.46-6.08 18.16-5.76Q17.86-5.44 17.25-5.44L17.25-5.44L13.09-5.44ZM37.89 4.29L37.89 4.29Q34.78 4.29 32.78 3.63Q30.78 2.98 29.66 1.89Q28.54 0.80 28.11-0.61Q27.68-2.02 27.68-3.52L27.68-3.52L27.68-18.40Q27.68-18.82 27.79-19.10Q27.90-19.39 28.13-19.58L28.13-19.58L32.26-23.07Q32.42-23.20 32.69-23.28Q32.96-23.36 33.28-23.36L33.28-23.36L38.30-23.36Q39.07-23.36 39.42-23.01Q39.78-22.66 39.78-21.89L39.78-21.89L39.78-7.30Q39.78-7.01 39.87-6.77Q39.97-6.53 40.29-6.40L40.29-6.40L40.29-18.40Q40.29-18.82 40.38-19.10Q40.48-19.39 40.67-19.55L40.67-19.55L40.70-19.58L44.86-23.07Q45.02-23.20 45.28-23.28Q45.54-23.36 45.89-23.36L45.89-23.36L50.75-23.36Q51.52-23.36 51.87-23.01Q52.22-22.66 52.22-21.89L52.22-21.89L52.22-6.05Q52.22-4.58 51.81-3.33Q51.39-2.08 50.30-1.18L50.30-1.18L46.14 2.27Q45.02 3.23 43.04 3.76Q41.06 4.29 37.89 4.29ZM51.90-6.05L51.90-6.05L51.90-21.89Q51.90-22.50 51.63-22.77Q51.36-23.04 50.75-23.04L50.75-23.04L45.89-23.04Q45.28-23.04 45.01-22.77Q44.74-22.50 44.74-21.89L44.74-21.89L44.74-7.30Q44.74-6.66 44.26-6.22Q43.78-5.79 42.08-5.79L42.08-5.79Q40.42-5.79 39.94-6.22Q39.46-6.66 39.46-7.30L39.46-7.30L39.46-21.89Q39.46-22.50 39.18-22.77Q38.91-23.04 38.30-23.04L38.30-23.04L33.28-23.04Q32.67-23.04 32.40-22.77Q32.13-22.50 32.13-21.89L32.13-21.89L32.13-6.05Q32.13-4.58 32.56-3.38Q32.99-2.18 34.10-1.33Q35.20-0.48 37.12 0Q39.04 0.48 42.02 0.48L42.02 0.48Q44.99 0.48 46.91 0Q48.83-0.48 49.94-1.33Q51.04-2.18 51.47-3.38Q51.90-4.58 51.90-6.05ZM35.65-6.82L35.65-20.16L35.97-20.16L35.97-6.82Q35.97-5.02 37.23-3.92Q38.50-2.82 42.05-2.82L42.05-2.82Q45.60-2.82 46.88-3.92Q48.16-5.02 48.16-6.82L48.16-6.82L48.16-20.16L48.48-20.16L48.48-6.82Q48.48-4.90 47.14-3.70Q45.79-2.50 42.05-2.50L42.05-2.50Q38.30-2.50 36.98-3.70Q35.65-4.90 35.65-6.82L35.65-6.82ZM63.58-19.90L63.58-19.90L75.36-6.66L75.36-20.16L75.68-20.16L75.68-2.88L75.36-2.88L75.36-6.18L63.26-19.74Q63.23-19.78 63.18-19.81Q63.14-19.84 63.10-19.84L63.10-19.84Q63.07-19.84 63.06-19.81Q63.04-19.78 63.04-19.74L63.04-19.74L63.04-2.88L62.72-2.88L62.72-19.81Q62.72-20 62.85-20.10Q62.98-20.19 63.10-20.19L63.10-20.19Q63.23-20.19 63.33-20.13Q63.42-20.06 63.58-19.90ZM60.51 0L65.31 0Q65.92 0 66.19-0.27Q66.46-0.54 66.46-1.15L66.46-1.15L66.46-11.71L71.94-5.09L71.94-1.15Q71.94-0.54 72.21-0.27Q72.48 0 73.09 0L73.09 0L77.89 0Q78.50 0 78.77-0.27Q79.04-0.54 79.04-1.15L79.04-1.15L79.04-21.89Q79.04-22.50 78.77-22.77Q78.50-23.04 77.89-23.04L77.89-23.04L73.09-23.04Q72.48-23.04 72.21-22.77Q71.94-22.50 71.94-21.89L71.94-21.89L71.94-15.07L65.73-22.18Q65.31-22.66 64.88-22.85Q64.45-23.04 63.84-23.04L63.84-23.04L60.51-23.04Q59.90-23.04 59.63-22.77Q59.36-22.50 59.36-21.89L59.36-21.89L59.36-1.15Q59.36-0.54 59.63-0.27Q59.90 0 60.51 0L60.51 0ZM66.34 0.03L66.34 0.03L62.18 3.49Q62.05 3.62 61.78 3.71Q61.50 3.81 61.18 3.81L61.18 3.81L56.38 3.81Q55.62 3.81 55.26 3.46Q54.91 3.10 54.91 2.34L54.91 2.34L54.91-18.40Q54.91-18.82 55.02-19.10Q55.14-19.39 55.36-19.58L55.36-19.58L59.49-23.07Q59.65-23.20 59.92-23.28Q60.19-23.36 60.51-23.36L60.51-23.36L63.84-23.36Q64.54-23.36 65.02-23.14Q65.50-22.91 65.98-22.40L65.98-22.40L68.19-19.84L72.06-23.07Q72.22-23.20 72.50-23.28Q72.77-23.36 73.09-23.36L73.09-23.36L77.89-23.36Q78.66-23.36 79.01-23.01Q79.36-22.66 79.36-21.89L79.36-21.89L79.36-1.15Q79.36-0.74 79.25-0.45Q79.14-0.16 78.91 0.03L78.91 0.03L74.75 3.49Q74.62 3.62 74.35 3.71Q74.08 3.81 73.76 3.81L73.76 3.81L68.96 3.81Q68.19 3.81 67.84 3.46Q67.49 3.10 67.49 2.34L67.49 2.34L67.49-1.47L66.78-2.34L66.78-1.15Q66.78-0.74 66.67-0.45Q66.56-0.16 66.34 0.03ZM100.13 3.81L100.13 3.81L90.05 3.81Q85.86 3.81 83.86 1.63Q81.86-0.54 81.86-4L81.86-4L81.86-13.02Q81.86-14.78 82.37-16.06Q82.88-17.34 83.87-18.21L83.87-18.21L88-21.70Q88.99-22.53 90.54-22.94Q92.10-23.36 94.18-23.36L94.18-23.36L102.18-23.36Q102.94-23.36 103.30-23.01Q103.65-22.66 103.65-21.89L103.65-21.89L103.65-18.02Q103.65-17.60 103.54-17.31Q103.42-17.02 103.20-16.83L103.20-16.83L99.04-13.38Q98.91-13.25 98.64-13.15Q98.37-13.06 98.05-13.06L98.05-13.06L93.89-13.06L93.89-8.45Q93.92-8.51 94-8.59Q94.08-8.67 94.14-8.74L94.14-8.74L98.27-12.22Q98.43-12.35 98.70-12.43Q98.98-12.51 99.30-12.51L99.30-12.51L104.26-12.51Q105.02-12.51 105.38-12.16Q105.73-11.81 105.73-11.04L105.73-11.04L105.73-1.15Q105.73-0.74 105.62-0.45Q105.50-0.16 105.28 0.03L105.28 0.03L101.12 3.49Q100.99 3.62 100.72 3.71Q100.45 3.81 100.13 3.81ZM94.18 0L104.26 0Q104.86 0 105.14-0.27Q105.41-0.54 105.41-1.15L105.41-1.15L105.41-11.04Q105.41-11.65 105.14-11.92Q104.86-12.19 104.26-12.19L104.26-12.19L99.30-12.19Q98.69-12.19 98.42-11.92Q98.14-11.65 98.14-11.04L98.14-11.04L98.14-6.05L95.04-6.05Q94.30-6.05 93.94-6.43Q93.57-6.82 93.57-7.62L93.57-7.62L93.57-15.26Q93.57-16.06 94.05-16.46Q94.53-16.86 95.52-16.86L95.52-16.86L102.18-16.86Q102.78-16.86 103.06-17.14Q103.33-17.41 103.33-18.02L103.33-18.02L103.33-21.89Q103.33-22.50 103.06-22.77Q102.78-23.04 102.18-23.04L102.18-23.04L94.18-23.04Q90.18-23.04 88.24-21.44Q86.30-19.84 86.30-16.51L86.30-16.51L86.30-6.53Q86.30-3.20 88.24-1.60Q90.18 0 94.18 0L94.18 0ZM101.92-2.88L95.55-2.88Q93.79-2.88 92.67-3.10Q91.55-3.33 90.91-3.82Q90.27-4.32 90.03-5.10Q89.79-5.89 89.79-7.01L89.79-7.01L89.79-15.97Q89.79-18.24 90.82-19.20Q91.84-20.16 94.91-20.16L94.91-20.16L100.45-20.16L100.45-19.84L94.91-19.84Q92.10-19.84 91.10-18.96Q90.11-18.08 90.11-15.97L90.11-15.97L90.11-7.01Q90.11-4.93 91.22-4.06Q92.32-3.20 95.55-3.20L95.55-3.20L101.60-3.20L101.60-9.31L101.92-9.31L101.92-2.88ZM124.38 3.81L124.38 3.81L109.54 3.81Q108.77 3.81 108.42 3.46Q108.06 3.10 108.06 2.34L108.06 2.34L108.06-18.40Q108.06-18.82 108.18-19.10Q108.29-19.39 108.51-19.58L108.51-19.58L112.64-23.07Q112.80-23.20 113.07-23.28Q113.34-23.36 113.66-23.36L113.66-23.36L128.51-23.36Q129.28-23.36 129.63-23.01Q129.98-22.66 129.98-21.89L129.98-21.89L129.98-18.14Q129.98-17.73 129.87-17.44Q129.76-17.15 129.54-16.96L129.54-16.96L126.78-14.69Q127.10-14.53 127.25-14.21Q127.39-13.89 127.39-13.38L127.39-13.38L127.39-9.95Q127.39-9.54 127.28-9.25Q127.17-8.96 126.94-8.77L126.94-8.77L124.10-6.37L128.51-6.37Q129.28-6.37 129.63-6.02Q129.98-5.66 129.98-4.90L129.98-4.90L129.98-1.15Q129.98-0.74 129.87-0.45Q129.76-0.16 129.54 0.03L129.54 0.03L125.38 3.49Q125.25 3.62 124.98 3.71Q124.70 3.81 124.38 3.81ZM113.66 0L128.51 0Q129.12 0 129.39-0.27Q129.66-0.54 129.66-1.15L129.66-1.15L129.66-4.90Q129.66-5.50 129.39-5.78Q129.12-6.05 128.51-6.05L128.51-6.05L119.68-6.05L119.68-8.80L125.92-8.80Q126.53-8.80 126.80-9.07Q127.07-9.34 127.07-9.95L127.07-9.95L127.07-13.38Q127.07-13.98 126.80-14.26Q126.53-14.53 125.92-14.53L125.92-14.53L119.68-14.53L119.68-16.99L128.51-16.99Q129.12-16.99 129.39-17.26Q129.66-17.54 129.66-18.14L129.66-18.14L129.66-21.89Q129.66-22.50 129.39-22.77Q129.12-23.04 128.51-23.04L128.51-23.04L113.66-23.04Q113.06-23.04 112.78-22.77Q112.51-22.50 112.51-21.89L112.51-21.89L112.51-1.15Q112.51-0.54 112.78-0.27Q113.06 0 113.66 0L113.66 0ZM116.32-3.20L126.78-3.20L126.78-2.88L116-2.88L116-20.16L126.78-20.16L126.78-19.84L116.32-19.84L116.32-11.81L124.19-11.81L124.19-11.49L116.32-11.49L116.32-3.20ZM148.51 3.81L148.51 3.81L133.66 3.81Q132.90 3.81 132.54 3.46Q132.19 3.10 132.19 2.34L132.19 2.34L132.19-18.40Q132.19-18.82 132.30-19.10Q132.42-19.39 132.64-19.58L132.64-19.58L136.77-23.07Q136.93-23.20 137.20-23.28Q137.47-23.36 137.79-23.36L137.79-23.36L152.64-23.36Q153.41-23.36 153.76-23.01Q154.11-22.66 154.11-21.89L154.11-21.89L154.11-18.14Q154.11-17.73 154-17.44Q153.89-17.15 153.66-16.96L153.66-16.96L150.91-14.69Q151.23-14.53 151.38-14.21Q151.52-13.89 151.52-13.38L151.52-13.38L151.52-9.95Q151.52-9.54 151.41-9.25Q151.30-8.96 151.07-8.77L151.07-8.77L148.22-6.37L152.64-6.37Q153.41-6.37 153.76-6.02Q154.11-5.66 154.11-4.90L154.11-4.90L154.11-1.15Q154.11-0.74 154-0.45Q153.89-0.16 153.66 0.03L153.66 0.03L149.50 3.49Q149.38 3.62 149.10 3.71Q148.83 3.81 148.51 3.81ZM137.79 0L152.64 0Q153.25 0 153.52-0.27Q153.79-0.54 153.79-1.15L153.79-1.15L153.79-4.90Q153.79-5.50 153.52-5.78Q153.25-6.05 152.64-6.05L152.64-6.05L143.81-6.05L143.81-8.80L150.05-8.80Q150.66-8.80 150.93-9.07Q151.20-9.34 151.20-9.95L151.20-9.95L151.20-13.38Q151.20-13.98 150.93-14.26Q150.66-14.53 150.05-14.53L150.05-14.53L143.81-14.53L143.81-16.99L152.64-16.99Q153.25-16.99 153.52-17.26Q153.79-17.54 153.79-18.14L153.79-18.14L153.79-21.89Q153.79-22.50 153.52-22.77Q153.25-23.04 152.64-23.04L152.64-23.04L137.79-23.04Q137.18-23.04 136.91-22.77Q136.64-22.50 136.64-21.89L136.64-21.89L136.64-1.15Q136.64-0.54 136.91-0.27Q137.18 0 137.79 0L137.79 0ZM140.45-3.20L150.91-3.20L150.91-2.88L140.13-2.88L140.13-20.16L150.91-20.16L150.91-19.84L140.45-19.84L140.45-11.81L148.32-11.81L148.32-11.49L140.45-11.49L140.45-3.20ZM177.73 3.81L167.62 3.81Q166.85 3.81 166.50 3.46Q166.14 3.10 166.14 2.34L166.14 2.34L166.14-1.41Q166.14-1.82 166.26-2.11Q166.37-2.40 166.59-2.59L166.59-2.59L169.79-5.28Q168.10-5.79 167.12-7.02Q166.14-8.26 166.14-10.56L166.14-10.56L166.14-13.92Q166.14-15.36 166.62-16.48Q167.10-17.60 168-18.37L168-18.37L172.16-21.86Q173.02-22.56 174.30-22.96Q175.58-23.36 177.22-23.36L177.22-23.36L186.18-23.36Q186.94-23.36 187.30-23.01Q187.65-22.66 187.65-21.89L187.65-21.89L187.65-18.08Q187.65-17.66 187.54-17.38Q187.42-17.09 187.20-16.90L187.20-16.90L184.32-14.50Q186.34-14.05 187.57-12.82Q188.80-11.58 188.80-8.99L188.80-8.99L188.80-5.63Q188.80-4.19 188.32-3.07Q187.84-1.95 186.91-1.18L186.91-1.18L182.78 2.27Q181.89 3.01 180.61 3.41Q179.33 3.81 177.73 3.81L177.73 3.81ZM171.74 0L181.86 0Q184.93 0 186.70-1.46Q188.48-2.91 188.48-5.63L188.48-5.63L188.48-8.99Q188.48-11.68 187.10-12.83Q185.73-13.98 183.49-14.30L183.49-14.30L178.72-14.94Q178.30-14.98 178.08-15.26Q177.86-15.55 177.86-15.97L177.86-15.97Q177.86-16.38 178.08-16.66Q178.30-16.93 178.72-16.93L178.72-16.93L186.18-16.93Q186.78-16.93 187.06-17.20Q187.33-17.47 187.33-18.08L187.33-18.08L187.33-21.89Q187.33-22.50 187.06-22.77Q186.78-23.04 186.18-23.04L186.18-23.04L177.22-23.04Q174.11-23.04 172.35-21.58Q170.59-20.13 170.59-17.41L170.59-17.41L170.59-14.05Q170.59-11.36 171.95-10.21Q173.31-9.06 175.55-8.74L175.55-8.74L180.35-8.06Q180.77-8.03 180.98-7.78Q181.18-7.52 181.18-6.98L181.18-6.98Q181.18-6.59 180.98-6.32Q180.77-6.05 180.35-6.05L180.35-6.05L171.74-6.05Q171.14-6.05 170.86-5.78Q170.59-5.50 170.59-4.90L170.59-4.90L170.59-1.15Q170.59-0.54 170.86-0.27Q171.14 0 171.74 0L171.74 0ZM177.34-20.16L184.45-20.16L184.45-19.84L177.34-19.84Q176-19.84 175.20-19.10Q174.40-18.37 174.40-17.25L174.40-17.25L174.40-14.62Q174.40-13.50 174.85-13.06Q175.30-12.61 176.03-12.48L176.03-12.48L182.78-11.10Q183.74-10.91 184.37-10.27Q184.99-9.63 184.99-7.97L184.99-7.97L184.99-6.11Q184.99-4.70 184.03-3.79Q183.07-2.88 181.44-2.88L181.44-2.88L173.47-2.88L173.47-3.20L181.44-3.20Q182.91-3.20 183.79-4.02Q184.67-4.83 184.67-6.11L184.67-6.11L184.67-7.97Q184.67-9.47 184.14-10.03Q183.62-10.59 182.72-10.78L182.72-10.78L175.97-12.16Q175.14-12.32 174.61-12.82Q174.08-13.31 174.08-14.62L174.08-14.62L174.08-17.25Q174.08-18.53 174.98-19.34Q175.87-20.16 177.34-20.16L177.34-20.16ZM198.94-2.88L198.62-2.88L198.62-20.16L198.94-20.16L198.94-11.68L211.23-11.68L211.23-20.16L211.55-20.16L211.55-2.88L211.23-2.88L211.23-11.36L198.94-11.36L198.94-2.88ZM196.32 0L201.28 0Q201.89 0 202.16-0.27Q202.43-0.54 202.43-1.15L202.43-1.15L202.43-8.26L207.78-8.26L207.78-1.15Q207.78-0.54 208.05-0.27Q208.32 0 208.93 0L208.93 0L213.89 0Q214.50 0 214.77-0.27Q215.04-0.54 215.04-1.15L215.04-1.15L215.04-21.89Q215.04-22.50 214.77-22.77Q214.50-23.04 213.89-23.04L213.89-23.04L208.93-23.04Q208.32-23.04 208.05-22.77Q207.78-22.50 207.78-21.89L207.78-21.89L207.78-14.94L202.43-14.94L202.43-21.89Q202.43-22.50 202.16-22.77Q201.89-23.04 201.28-23.04L201.28-23.04L196.32-23.04Q195.71-23.04 195.44-22.77Q195.17-22.50 195.17-21.89L195.17-21.89L195.17-1.15Q195.17-0.54 195.44-0.27Q195.71 0 196.32 0L196.32 0ZM202.30 0.03L202.30 0.03L198.14 3.49Q198.02 3.62 197.74 3.71Q197.47 3.81 197.15 3.81L197.15 3.81L192.19 3.81Q191.42 3.81 191.07 3.46Q190.72 3.10 190.72 2.34L190.72 2.34L190.72-18.40Q190.72-18.82 190.83-19.10Q190.94-19.39 191.17-19.58L191.17-19.58L195.30-23.07Q195.46-23.20 195.73-23.28Q196-23.36 196.32-23.36L196.32-23.36L201.28-23.36Q202.05-23.36 202.40-23.01Q202.75-22.66 202.75-21.89L202.75-21.89L202.75-15.26L203.33-15.26L203.33-18.40Q203.33-18.82 203.44-19.10Q203.55-19.39 203.78-19.58L203.78-19.58L207.90-23.07Q208.06-23.20 208.34-23.28Q208.61-23.36 208.93-23.36L208.93-23.36L213.89-23.36Q214.66-23.36 215.01-23.01Q215.36-22.66 215.36-21.89L215.36-21.89L215.36-1.15Q215.36-0.74 215.25-0.45Q215.14-0.16 214.91 0.03L214.91 0.03L210.75 3.49Q210.62 3.62 210.35 3.71Q210.08 3.81 209.76 3.81L209.76 3.81L204.80 3.81Q204.03 3.81 203.68 3.46Q203.33 3.10 203.33 2.34L203.33 2.34L203.33-4.45L202.75-4.45L202.75-1.15Q202.75-0.74 202.64-0.45Q202.53-0.16 202.30 0.03ZM225.89-9.70L225.89-9.70L225.89-8.70L238.37-8.70L238.37-9.70Q238.37-10.56 238.22-11.30Q238.08-12.03 237.86-12.67L237.86-12.67L235.65-17.89Q235.30-18.72 234.91-19.28Q234.53-19.84 233.63-19.84L233.63-19.84L230.50-19.84Q229.54-19.84 229.15-19.28Q228.77-18.72 228.45-17.92L228.45-17.92L226.40-12.67Q226.18-12.03 226.03-11.30Q225.89-10.56 225.89-9.70ZM229.50-11.46L231.01-16.32Q231.14-16.61 231.28-16.74Q231.42-16.86 231.62-16.86L231.62-16.86L232.42-16.86Q232.61-16.86 232.75-16.74Q232.90-16.61 233.02-16.32L233.02-16.32L234.53-11.46L229.50-11.46ZM238.69-2.88L238.37-2.88L238.37-8.38L225.89-8.38L225.89-2.88L225.57-2.88L225.57-9.70Q225.57-10.59 225.71-11.34Q225.86-12.10 226.11-12.80L226.11-12.80L228.16-18.05Q228.51-18.94 228.96-19.55Q229.41-20.16 230.50-20.16L230.50-20.16L233.63-20.16Q234.69-20.16 235.12-19.55Q235.55-18.94 235.94-18.02L235.94-18.02L238.14-12.80Q238.40-12.10 238.54-11.34Q238.69-10.59 238.69-9.70L238.69-9.70L238.69-2.88ZM229.18-1.15L229.18-1.15L229.18-5.63L234.85-5.63L234.85-1.15Q234.85-0.54 235.15-0.27Q235.46 0 236.10 0L236.10 0L240.93 0Q241.54 0 241.81-0.27Q242.08-0.54 242.08-1.15L242.08-1.15L242.08-9.60Q242.08-10.56 241.78-11.81Q241.47-13.06 240.83-14.72L240.83-14.72L238.05-21.98Q237.86-22.53 237.46-22.78Q237.06-23.04 236.45-23.04L236.45-23.04L227.84-23.04Q227.20-23.04 226.80-22.78Q226.40-22.53 226.21-21.98L226.21-21.98L223.42-14.72Q222.78-13.06 222.48-11.81Q222.18-10.56 222.18-9.60L222.18-9.60L222.18-1.15Q222.18-0.54 222.45-0.27Q222.72 0 223.33 0L223.33 0L228.03 0Q228.64 0 228.91-0.27Q229.18-0.54 229.18-1.15ZM229.06 0.03L224.90 3.49Q224.77 3.62 224.50 3.71Q224.22 3.81 223.90 3.81L223.90 3.81L219.20 3.81Q218.43 3.81 218.08 3.46Q217.73 3.10 217.73 2.34L217.73 2.34L217.73-6.11Q217.73-7.10 218.03-8.37Q218.34-9.63 219.01-11.36L219.01-11.36L221.76-18.59Q221.86-18.88 222-19.09Q222.14-19.30 222.30-19.46L222.30-19.46L222.34-19.49L226.43-22.91Q226.69-23.14 227.04-23.25Q227.39-23.36 227.84-23.36L227.84-23.36L236.45-23.36Q237.18-23.36 237.65-23.06Q238.11-22.75 238.34-22.11L238.34-22.11L241.12-14.85Q241.79-13.12 242.10-11.86Q242.40-10.59 242.40-9.60L242.40-9.60L242.40-1.15Q242.40-0.74 242.29-0.45Q242.18-0.16 241.95 0.03L241.95 0.03L237.79 3.49Q237.66 3.62 237.39 3.71Q237.12 3.81 236.80 3.81L236.80 3.81L231.97 3.81Q231.17 3.81 230.78 3.44Q230.40 3.07 230.40 2.34L230.40 2.34L230.40-1.82L229.50-1.82L229.50-1.15Q229.50-0.74 229.39-0.45Q229.28-0.16 229.06 0.03L229.06 0.03ZM267.33-1.34L263.17 2.11Q262.18 2.94 260.64 3.38Q259.10 3.81 257.02 3.81L257.02 3.81L246.24 3.81Q245.47 3.81 245.12 3.46Q244.77 3.10 244.77 2.34L244.77 2.34L244.77-18.40Q244.77-18.82 244.88-19.10Q244.99-19.39 245.22-19.58L245.22-19.58L249.34-23.07Q249.50-23.20 249.78-23.28Q250.05-23.36 250.37-23.36L250.37-23.36L261.15-23.36Q265.34-23.36 267.34-21.66Q269.34-19.97 269.34-16.51L269.34-16.51L269.34-6.53Q269.34-4.80 268.83-3.50Q268.32-2.21 267.33-1.34L267.33-1.34ZM250.37 0L261.15 0Q265.15 0 267.09-1.60Q269.02-3.20 269.02-6.53L269.02-6.53L269.02-16.51Q269.02-19.84 267.09-21.44Q265.15-23.04 261.15-23.04L261.15-23.04L250.37-23.04Q249.76-23.04 249.49-22.77Q249.22-22.50 249.22-21.89L249.22-21.89L249.22-1.15Q249.22-0.54 249.49-0.27Q249.76 0 250.37 0L250.37 0ZM260.45-2.88L252.70-2.88L252.70-20.16L260.45-20.16Q262.08-20.16 263.09-19.81Q264.10-19.46 264.64-18.86Q265.18-18.27 265.38-17.46Q265.57-16.64 265.57-15.71L265.57-15.71L265.57-7.23Q265.57-6.30 265.39-5.50Q265.22-4.70 264.67-4.13Q264.13-3.55 263.10-3.22Q262.08-2.88 260.45-2.88L260.45-2.88ZM260.45-19.84L260.45-19.84L253.02-19.84L253.02-3.20L260.45-3.20Q261.98-3.20 262.93-3.50Q263.87-3.81 264.38-4.34Q264.90-4.86 265.07-5.62Q265.25-6.37 265.25-7.23L265.25-7.23L265.25-15.71Q265.25-16.58 265.06-17.34Q264.86-18.11 264.35-18.66Q263.84-19.20 262.90-19.52Q261.95-19.84 260.45-19.84ZM256.48-6.05L256.48-16.93L260.29-16.93Q261.06-16.93 261.42-16.56Q261.79-16.19 261.79-15.39L261.79-15.39L261.79-7.62Q261.79-6.82 261.42-6.43Q261.06-6.05 260.29-6.05L260.29-6.05L256.48-6.05ZM257.34-6.37L257.34-11.90Q257.34-12.32 257.22-12.61Q257.09-12.90 256.80-13.02L256.80-13.02L256.80-6.37L257.34-6.37ZM288.16 3.81L288.16 3.81L273.31 3.81Q272.54 3.81 272.19 3.46Q271.84 3.10 271.84 2.34L271.84 2.34L271.84-18.40Q271.84-18.82 271.95-19.10Q272.06-19.39 272.29-19.58L272.29-19.58L276.42-23.07Q276.58-23.20 276.85-23.28Q277.12-23.36 277.44-23.36L277.44-23.36L292.29-23.36Q293.06-23.36 293.41-23.01Q293.76-22.66 293.76-21.89L293.76-21.89L293.76-18.14Q293.76-17.73 293.65-17.44Q293.54-17.15 293.31-16.96L293.31-16.96L290.56-14.69Q290.88-14.53 291.02-14.21Q291.17-13.89 291.17-13.38L291.17-13.38L291.17-9.95Q291.17-9.54 291.06-9.25Q290.94-8.96 290.72-8.77L290.72-8.77L287.87-6.37L292.29-6.37Q293.06-6.37 293.41-6.02Q293.76-5.66 293.76-4.90L293.76-4.90L293.76-1.15Q293.76-0.74 293.65-0.45Q293.54-0.16 293.31 0.03L293.31 0.03L289.15 3.49Q289.02 3.62 288.75 3.71Q288.48 3.81 288.16 3.81ZM277.44 0L292.29 0Q292.90 0 293.17-0.27Q293.44-0.54 293.44-1.15L293.44-1.15L293.44-4.90Q293.44-5.50 293.17-5.78Q292.90-6.05 292.29-6.05L292.29-6.05L283.46-6.05L283.46-8.80L289.70-8.80Q290.30-8.80 290.58-9.07Q290.85-9.34 290.85-9.95L290.85-9.95L290.85-13.38Q290.85-13.98 290.58-14.26Q290.30-14.53 289.70-14.53L289.70-14.53L283.46-14.53L283.46-16.99L292.29-16.99Q292.90-16.99 293.17-17.26Q293.44-17.54 293.44-18.14L293.44-18.14L293.44-21.89Q293.44-22.50 293.17-22.77Q292.90-23.04 292.29-23.04L292.29-23.04L277.44-23.04Q276.83-23.04 276.56-22.77Q276.29-22.50 276.29-21.89L276.29-21.89L276.29-1.15Q276.29-0.54 276.56-0.27Q276.83 0 277.44 0L277.44 0ZM280.10-3.20L290.56-3.20L290.56-2.88L279.78-2.88L279.78-20.16L290.56-20.16L290.56-19.84L280.10-19.84L280.10-11.81L287.97-11.81L287.97-11.49L280.10-11.49L280.10-3.20Z"/></svg>