<svg id="mainsvg" xmlns="http://www.w3.org/2000/svg" xmlns:xlink="http://www.w3.org/1999/xlink" version="1.1" x="0px" y="0px" enable-background="new 0 0 200 162.5" xml:space="preserve" viewBox="0 0 120 25"><path fill="#000" transform="translate(-1.76, 24)" d="M24.42-19.65L24.42-19.65L24.03-19.62Q24.29-9.60 24.77-5.38L24.77-5.38Q24.90-4.35 25.68-3.31Q26.46-2.27 26.46-1.55Q26.46-0.83 26.03-0.32Q25.60 0.19 24.88 0.19Q24.16 0.19 23.66-0.69Q23.17-1.57 23.07-2.59L23.07-2.59Q22.24-13.31 21.15-18.75L21.15-18.75Q18.24-17.28 15.46-13.66L15.46-13.66Q17.98-9.66 17.98-6.86Q17.98-4.06 16.10-2.03Q14.21 0 12.58 0Q10.94 0 10.06-1.06Q9.18-2.11 9.18-3.66Q9.18-5.22 10.22-7.60Q11.26-9.98 12.96-12.58L12.96-12.58Q11.46-14.78 9.54-16.50Q7.62-18.21 5.79-18.85L5.79-18.85Q5.02-13.44 4.78-10.70Q4.54-7.97 4.42-4.78Q4.29-1.60 4.26-1.07Q4.22-0.54 3.87-0.18Q3.52 0.19 3.04 0.19Q2.56 0.19 2.16-0.18Q1.76-0.54 1.76-1.22Q1.76-1.89 2.24-5.02L2.24-5.02Q3.30-11.58 3.42-19.23L3.42-19.23Q2.11-19.52 2.11-20.86L2.11-20.86Q2.11-21.47 2.69-21.87Q3.26-22.27 4.10-22.27L4.10-22.27Q6.56-22.27 9.42-20.18Q12.29-18.08 14.59-14.91L14.59-14.91Q17.02-18.14 19.62-20.21Q22.21-22.27 24.42-22.27L24.42-22.27Q25.92-22.27 25.92-21.06L25.92-21.06Q25.92-20.48 25.42-20.06Q24.93-19.65 24.42-19.65ZM15.46-5.73L15.46-5.73Q15.46-8.16 13.76-11.23L13.76-11.23Q11.17-7.07 11.17-4.96L11.17-4.96Q11.17-3.81 11.76-2.94Q12.35-2.08 13.25-2.08Q14.14-2.08 14.80-3.22Q15.46-4.35 15.46-5.73ZM41.25-4.29Q41.47-3.71 42.19-2.74Q42.91-1.76 42.91-1.15Q42.91-0.54 42.59-0.18Q42.27 0.19 41.73 0.19L41.73 0.19Q40.42 0.19 39.39-2.53L39.39-2.53L39.14-3.23Q37.50 0.19 34.24 0.19L34.24 0.19Q32.61 0.19 31.54-0.85Q30.46-1.89 30.46-3.46L30.46-3.46Q30.46-5.89 32.13-7.65Q33.79-9.41 36.48-9.54L36.48-9.54Q35.84-10.66 35.06-11.22Q34.27-11.78 33.63-11.87Q32.99-11.97 32.43-11.98Q31.87-12 31.55-12.22Q31.23-12.45 31.23-13.10Q31.23-13.76 31.76-14.18Q32.29-14.59 33.02-14.59L33.02-14.59Q35.10-14.59 37.12-12.51Q39.14-10.43 40.64-5.98L40.64-5.98L41.25-4.29ZM35.68-7.84Q34.53-7.84 33.62-7.07Q32.70-6.30 32.70-5.09Q32.70-3.87 33.52-3.06Q34.34-2.24 35.49-2.24Q36.64-2.24 37.47-3.06Q38.30-3.87 38.30-4.99L38.30-4.99Q38.30-5.79 38.02-6.48Q37.73-7.17 37.66-7.33L37.66-7.33Q36.83-7.84 35.68-7.84ZM51.39-12.10L51.39-12.10Q49.28-12.10 47.95-10.64Q46.62-9.18 46.62-7.17Q46.62-5.15 48.02-3.74Q49.41-2.34 51.42-2.34L51.42-2.34Q53.22-2.34 54.66-3.65L54.66-3.65Q55.17-4.10 55.42-4.10Q55.68-4.10 55.87-3.90Q56.06-3.71 56.06-3.49L56.06-3.49Q56.06-2.56 54.26-1.18Q52.45 0.19 50.16 0.19Q47.87 0.19 46.19-1.66Q44.51-3.52 44.51-6.27L44.51-6.27Q44.51-9.79 47.17-12.19Q49.82-14.59 53.02-14.59L53.02-14.59Q54.37-14.59 55.22-14.13Q56.06-13.66 56.06-12.94Q56.06-12.22 55.63-11.78Q55.20-11.33 54.78-11.33Q54.37-11.33 53.36-11.71Q52.35-12.10 51.39-12.10ZM60.72-10.66Q59.30-9.25 59.30-7.20Q59.30-5.15 60.72-3.73Q62.14-2.30 64.18-2.30Q66.21-2.30 67.58-3.73Q68.96-5.15 68.96-7.20Q68.96-9.25 67.58-10.66Q66.21-12.06 64.18-12.06Q62.14-12.06 60.72-10.66ZM61.98 0.19Q59.94 0.19 58.56-1.41Q57.18-3.01 57.18-5.42Q57.18-7.84 58.69-10.10Q60.19-12.35 62.21-13.47Q64.22-14.59 66.27-14.59Q68.32-14.59 69.70-12.99Q71.07-11.39 71.07-8.98Q71.07-6.56 69.57-4.30Q68.06-2.05 66.05-0.93Q64.03 0.19 61.98 0.19ZM76.45-9.15L76.45-9.15L76.64-1.34Q76.64-0.67 76.26-0.24Q75.87 0.19 75.26 0.19Q74.66 0.19 74.22-0.24Q73.79-0.67 73.79-1.34L73.79-1.34L74.02-7.68Q74.02-7.68 73.79-13.02L73.79-13.02Q73.79-13.70 74.22-14.14Q74.66-14.59 75.26-14.59Q75.87-14.59 76.26-14.16Q76.64-13.73 76.64-13.09Q76.64-12.45 76.61-12.13L76.61-12.13Q78.40-14.59 80.74-14.59L80.74-14.59Q84.10-14.59 85.06-10.08L85.06-10.08L86.27-4.58Q86.46-3.84 87.06-2.99Q87.65-2.14 87.65-1.47L87.65-1.47Q87.65 0.19 86.05 0.19Q84.45 0.19 83.97-2.34L83.97-2.34L82.75-9.02Q82.14-12.22 79.46-12.22L79.46-12.22Q78.08-12.22 77.31-11.30Q76.54-10.37 76.45-9.15ZM94.34 0.19Q92.32 0.19 90.94-1.41Q89.57-3.01 89.57-5.10Q89.57-7.20 90.40-9.02Q91.23-10.85 92.51-12.03Q93.79-13.22 95.28-13.90Q96.77-14.59 98.35-14.59Q99.94-14.59 101.28-13.41L101.28-13.41Q101.25-15.81 101.06-18.67Q100.86-21.54 100.86-22.27Q100.86-23.01 101.25-23.50Q101.63-24 102.24-24Q102.85-24 103.28-23.47Q103.71-22.94 103.71-22.06Q103.71-21.18 103.44-17.97Q103.17-14.75 103.17-11.94Q103.17-9.12 103.39-7.06Q103.62-4.99 103.87-4.26L103.87-4.26Q104.61-2.30 104.61-1.63L104.61-1.63Q104.61 0.19 103.20 0.19L103.20 0.19Q101.50 0.19 101.22-3.42L101.22-3.42Q99.94-1.73 98.14-0.77Q96.35 0.19 94.34 0.19ZM93.10-10.66Q91.68-9.25 91.68-7.20Q91.68-5.15 93.10-3.73Q94.53-2.30 96.56-2.30Q98.59-2.30 99.97-3.73Q101.34-5.15 101.34-7.33Q101.34-9.50 100.10-10.78Q98.85-12.06 96.69-12.06Q94.53-12.06 93.10-10.66ZM110.54-10.66Q109.12-9.25 109.12-7.20Q109.12-5.15 110.54-3.73Q111.97-2.30 114-2.30Q116.03-2.30 117.41-3.73Q118.78-5.15 118.78-7.20Q118.78-9.25 117.41-10.66Q116.03-12.06 114-12.06Q111.97-12.06 110.54-10.66ZM111.81 0.19Q109.76 0.19 108.38-1.41Q107.01-3.01 107.01-5.42Q107.01-7.84 108.51-10.10Q110.02-12.35 112.03-13.47Q114.05-14.59 116.10-14.59Q118.14-14.59 119.52-12.99Q120.90-11.39 120.90-8.98Q120.90-6.56 119.39-4.30Q117.89-2.05 115.87-0.93Q113.86 0.19 111.81 0.19Z"/></svg>