<svg id="mainsvg" xmlns="http://www.w3.org/2000/svg" xmlns:xlink="http://www.w3.org/1999/xlink" version="1.1" x="0px" y="0px" enable-background="new 0 0 200 162.5" xml:space="preserve" viewBox="0 0 170 24"><path fill="#000" transform="translate(-1.92, 22.72)" d="M1.92 0L1.92-22.40L15.36-22.40Q18.72-22.40 20.24-20.88Q21.76-19.36 21.76-16L21.76-16L21.76-13.12Q21.76-10.46 20.88-8.99Q20-7.52 18.08-7.04L18.08-7.04L22.08 0L15.84 0L12.16-6.72L7.68-6.72L7.68 0L1.92 0ZM16-13.12L16-16Q16-17.92 14.08-17.92L14.08-17.92L7.68-17.92L7.68-11.20L14.08-11.20Q16-11.20 16-13.12L16-13.12ZM31.36-4.32L32.48-4.32Q34.18-4.32 36.32-4.96L36.32-4.96L36.32-16.96L41.92-16.96L41.92 0L36.96 0L36.64-1.60Q35.14-0.61 33.55-0.14Q31.97 0.32 30.88 0.32L30.88 0.32L29.44 0.32Q27.26 0.32 25.95-0.99Q24.64-2.30 24.64-4.48L24.64-4.48L24.64-16.96L30.24-16.96L30.24-5.44Q30.24-4.96 30.56-4.64Q30.88-4.32 31.36-4.32L31.36-4.32ZM44.48-0.32L44.48-4.48Q50.98-4 54.72-4L54.72-4Q55.20-4 55.52-4.32Q55.84-4.64 55.84-5.12L55.84-5.12L55.84-6.24L48.96-6.24Q46.78-6.24 45.47-7.55Q44.16-8.86 44.16-11.04L44.16-11.04L44.16-12.16Q44.16-14.34 45.47-15.65Q46.78-16.96 48.96-16.96L48.96-16.96L59.84-16.96L59.84-12.80L50.88-12.80Q50.40-12.80 50.08-12.48Q49.76-12.16 49.76-11.68L49.76-11.68Q49.76-11.20 50.08-10.88Q50.40-10.56 50.88-10.56L50.88-10.56L56.64-10.56Q58.82-10.56 60.13-9.25Q61.44-7.94 61.44-5.76L61.44-5.76L61.44-4.48Q61.44-2.30 60.13-0.99Q58.82 0.32 56.64 0.32L56.64 0.32Q50.98 0.32 44.48-0.32L44.48-0.32ZM63.04-0.32L63.04-4.48Q69.54-4 73.28-4L73.28-4Q73.76-4 74.08-4.32Q74.40-4.64 74.40-5.12L74.40-5.12L74.40-6.24L67.52-6.24Q65.34-6.24 64.03-7.55Q62.72-8.86 62.72-11.04L62.72-11.04L62.72-12.16Q62.72-14.34 64.03-15.65Q65.34-16.96 67.52-16.96L67.52-16.96L78.40-16.96L78.40-12.80L69.44-12.80Q68.96-12.80 68.64-12.48Q68.32-12.16 68.32-11.68L68.32-11.68Q68.32-11.20 68.64-10.88Q68.96-10.56 69.44-10.56L69.44-10.56L75.20-10.56Q77.38-10.56 78.69-9.25Q80-7.94 80-5.76L80-5.76L80-4.48Q80-2.30 78.69-0.99Q77.38 0.32 75.20 0.32L75.20 0.32Q69.54 0.32 63.04-0.32L63.04-0.32ZM99.52-12.16L99.52-4.80Q99.52-2.40 98.16-1.04Q96.80 0.32 94.40 0.32L94.40 0.32L87.04 0.32Q84.64 0.32 83.28-1.04Q81.92-2.40 81.92-4.80L81.92-4.80L81.92-12.16Q81.92-14.56 83.28-15.92Q84.64-17.28 87.04-17.28L87.04-17.28L94.40-17.28Q96.80-17.28 98.16-15.92Q99.52-14.56 99.52-12.16L99.52-12.16ZM93.92-5.28L93.92-11.68Q93.92-12.96 92.64-12.96L92.64-12.96L88.80-12.96Q87.52-12.96 87.52-11.68L87.52-11.68L87.52-5.28Q87.52-4 88.80-4L88.80-4L92.64-4Q93.92-4 93.92-5.28L93.92-5.28ZM126.72-6.08L126.72-16.32Q126.72-18.24 124.80-18.24L124.80-18.24L119.36-18.24Q117.44-18.24 117.44-16.32L117.44-16.32L117.44-6.08Q117.44-4.16 119.36-4.16L119.36-4.16L124.80-4.16Q126.72-4.16 126.72-6.08L126.72-6.08ZM132.48-16.32L132.48-6.08Q132.48-2.72 130.96-1.20Q129.44 0.32 126.08 0.32L126.08 0.32L118.08 0.32Q114.72 0.32 113.20-1.20Q111.68-2.72 111.68-6.08L111.68-6.08L111.68-16.32Q111.68-19.68 113.20-21.20Q114.72-22.72 118.08-22.72L118.08-22.72L126.08-22.72Q129.44-22.72 130.96-21.20Q132.48-19.68 132.48-16.32L132.48-16.32ZM145.92-12.64L144.80-12.64Q143.10-12.64 140.96-12L140.96-12L140.96 0L135.36 0L135.36-16.96L140.32-16.96L140.64-15.36Q142.14-16.35 143.73-16.82Q145.31-17.28 146.40-17.28L146.40-17.28L147.84-17.28Q150.02-17.28 151.33-15.97Q152.64-14.66 152.64-12.48L152.64-12.48L152.64 0L147.04 0L147.04-11.52Q147.04-12 146.72-12.32Q146.40-12.64 145.92-12.64L145.92-12.64ZM164.96-13.28L162.08-13.28Q160.80-13.28 160.80-12L160.80-12L160.80-10.24L166.24-10.24L166.24-12Q166.24-13.28 164.96-13.28L164.96-13.28ZM171.20-4.32L171.20-0.32Q165.02 0.32 160 0.32L160 0.32Q157.82 0.32 156.51-0.99Q155.20-2.30 155.20-4.48L155.20-4.48L155.20-12.16Q155.20-14.56 156.56-15.92Q157.92-17.28 160.32-17.28L160.32-17.28L166.72-17.28Q169.12-17.28 170.48-15.92Q171.84-14.56 171.84-12.16L171.84-12.16L171.84-6.24L160.80-6.24L160.80-4.96Q160.80-4.48 161.12-4.16Q161.44-3.84 161.92-3.84L161.92-3.84Q165.09-3.84 171.20-4.32L171.20-4.32Z"/></svg>