<svg id="mainsvg" xmlns="http://www.w3.org/2000/svg" xmlns:xlink="http://www.w3.org/1999/xlink" version="1.1" x="0px" y="0px" enable-background="new 0 0 200 162.5" xml:space="preserve" viewBox="0 0 242 31"><path fill="#000" transform="translate(-1.024, 23.488)" d="M9.98-1.98L9.98-1.98Q11.33-1.98 12.38-3.44Q13.44-4.90 13.98-7.23L13.98-7.23Q9.06-8.10 9.06-13.70L9.06-13.70Q9.06-17.12 10.83-19.52Q12.61-21.92 15.31-21.92Q18.02-21.92 19.52-19.76Q21.02-17.60 21.02-14.18L21.02-14.18Q21.02-12.32 20.29-9.63L20.29-9.63Q21.79-9.82 23.30-10.66L23.30-10.66L23.84-10.94Q24.45-9.98 24.54-8.77L24.54-8.77L24.58-8.32Q23.87-7.90 22.37-7.46Q20.86-7.01 19.49-6.91L19.49-6.91Q18.05-3.62 15.44-1.62Q12.83 0.38 8.96 0.38Q5.09 0.38 3.06-2.10Q1.02-4.58 1.02-8.94Q1.02-13.31 3.17-16.98Q5.31-20.64 9.38-22.69L9.38-22.69L10.46-20.96Q8.61-18.50 7.97-15.68Q7.33-12.86 7.33-8.90L7.33-8.90Q7.33-1.98 9.98-1.98ZM13.82-18.50L13.82-18.50Q13.09-18.50 12.37-17.22Q11.65-15.94 11.65-14.08Q11.65-12.22 12.40-11.10Q13.15-9.98 14.43-9.82L14.43-9.82Q14.85-12.51 14.85-15.50Q14.85-18.50 13.82-18.50ZM30.72-1.79Q29.70-0.90 28.03-0.26Q26.37 0.38 25.01 0.38Q23.65 0.38 22.78-0.40Q21.92-1.18 21.92-2.66Q21.92-4.13 23.54-10.86Q25.15-17.60 25.15-20.86L25.15-20.86Q25.15-21.57 24.96-22.66L24.96-22.66Q27.97-23.49 30.78-23.49L30.78-23.49Q31.07-22.98 31.07-21.82L31.07-21.82Q31.07-19.65 29.46-12.34Q27.84-5.02 27.84-3.90Q27.84-2.78 28.22-2.78L28.22-2.78Q28.54-2.78 29.60-3.20L29.60-3.20L29.95-3.36L30.72-1.79ZM31.26-5.79L31.26-5.79Q31.26-9.76 33.68-11.97Q36.10-14.18 39.65-14.18L39.65-14.18Q42.11-14.18 43.60-13.10Q45.09-12.03 45.09-10.24L45.09-10.24Q45.09-8.93 44.29-7.90Q43.49-6.88 42.34-6.34L42.34-6.34Q39.90-5.25 38.11-5.02L38.11-5.02L37.31-4.93Q37.66-2.82 39.42-2.82L39.42-2.82Q40.19-2.82 41.12-3.15Q42.05-3.49 42.59-3.84L42.59-3.84L43.14-4.16L44.16-2.78Q44.16-2.78 43.81-2.43L43.81-2.43Q43.62-2.24 42.90-1.68Q42.18-1.12 41.39-0.70Q40.61-0.29 39.39 0.05Q38.18 0.38 36.96 0.38L36.96 0.38Q34.24 0.38 32.75-1.20Q31.26-2.78 31.26-5.79ZM37.18-7.04Q38.11-7.17 39.04-8.56Q39.97-9.95 39.97-10.90Q39.97-11.84 39.42-11.84L39.42-11.84Q38.62-11.84 37.95-10.59Q37.28-9.34 37.18-7.04L37.18-7.04ZM50.59 0.38L50.59 0.38Q48.10 0.38 46.66-1.20Q45.22-2.78 45.22-5.66L45.22-5.66Q45.22-9.18 47.30-11.63Q49.38-14.08 52.77-14.08L52.77-14.08L54.21-13.95Q54.98-14.18 55.65-14.18L55.65-14.18Q57.25-14.18 57.94-13.09Q58.62-12 58.72-9.98L58.72-9.98Q60.06-10.05 61.28-10.40L61.28-10.40L61.73-10.53Q61.95-10.30 62.05-9.18L62.05-9.18L62.08-8.83Q60.64-8.10 58.56-7.68L58.56-7.68Q57.86-4.29 55.78-1.95Q53.70 0.38 50.59 0.38ZM51.23-5.79L51.23-5.79Q51.23-2.82 52.74-2.82L52.74-2.82Q53.79-2.82 54.90-4.16Q56-5.50 56.42-7.42L56.42-7.42Q53.15-7.42 53.15-10.56L53.15-10.56Q53.15-11.10 53.25-11.68L53.25-11.68Q52.93-11.68 52.77-11.58L52.77-11.58Q52.22-11.01 51.73-9.26Q51.23-7.52 51.23-5.79ZM74.91 0.64Q72.86 0.64 71.50-0.34Q70.14-1.31 70.14-3.02Q70.14-4.74 71.44-5.86Q72.74-6.98 74.69-7.55L74.69-7.55Q74.02-8.74 72.29-11.36L72.29-11.36Q71.10-11.14 70.21-11.14L70.21-11.14Q67.33-11.14 65.70-12.58Q64.06-14.02 64.06-16.45L64.06-16.45Q64.06-17.73 64.42-18.78L64.42-18.78L64.54-19.17Q66.27-19.14 67.20-18.78L67.20-18.78Q66.66-17.60 66.66-16.34Q66.66-15.07 67.66-14.22Q68.67-13.38 70.08-13.38L70.08-13.38Q70.56-13.38 71.04-13.47L71.04-13.47Q69.73-15.87 69.73-17.54L69.73-17.54Q69.73-19.94 71.86-21.33Q73.98-22.72 76.69-22.72Q79.39-22.72 80.86-21.58Q82.34-20.45 82.34-18.77Q82.34-17.09 81.12-15.66Q79.90-14.24 78.40-13.34L78.40-13.34Q80.35-10.75 81.25-8L81.25-8Q83.52-7.90 86.94-6.88L86.94-6.88Q86.85-5.38 85.73-3.84L85.73-3.84Q84.10-5.06 81.70-5.44L81.70-5.44Q81.66-2.94 79.62-1.15Q77.57 0.64 74.91 0.64L74.91 0.64ZM77.06-15.39Q78.05-15.84 78.70-16.75Q79.36-17.66 79.36-18.53Q79.36-19.39 78.78-19.82Q78.21-20.26 77.31-20.26Q76.42-20.26 75.84-19.82Q75.26-19.39 75.26-18.69L75.26-18.69Q75.26-17.63 77.06-15.39L77.06-15.39ZM74.32-2.05Q74.94-2.05 75.34-2.75Q75.74-3.46 75.74-4.16Q75.74-4.86 75.55-5.63L75.55-5.63Q72.96-5.18 72.96-3.55L72.96-3.55Q72.96-2.94 73.33-2.50Q73.70-2.05 74.32-2.05ZM94.46-12.03L94.46-12.03Q93.47-12.03 92.77-10.27Q92.06-8.51 92.06-6.72L92.06-6.72Q92.06-2.78 94.34-2.78L94.34-2.78Q95.78-2.78 97.60-4.16L97.60-4.16L98.62-2.75Q97.28-1.28 95.41-0.45Q93.54 0.38 91.68 0.38L91.68 0.38Q89.18 0.38 87.63-1.14Q86.08-2.66 86.08-5.73L86.08-5.73Q86.08-9.44 88.37-11.81Q90.66-14.18 94.37-14.18L94.37-14.18Q96.77-14.18 98.14-13.20Q99.52-12.22 99.52-10.74Q99.52-9.25 98.62-8.16L98.62-8.16Q97.57-8.16 96.34-8.56Q95.10-8.96 94.37-9.57L94.37-9.57L94.85-11.97Q94.66-12.03 94.46-12.03ZM100.58 0.19L100.58 0.19L100.32 0.19Q100.22-0.26 100.22-1.20Q100.22-2.14 101.01-6.10Q101.79-10.05 101.79-10.58Q101.79-11.10 101.50-11.66Q101.22-12.22 100.93-12.51L100.93-12.51L100.64-12.80L100.70-13.28Q102.62-13.89 107.07-13.89L107.07-13.89Q107.49-13.09 107.58-12L107.58-12Q109.54-14.18 111.04-14.18L111.04-14.18Q112.99-14.18 113.18-10.88L113.18-10.88Q113.12-10.82 113.02-10.67Q112.93-10.53 112.58-10.18Q112.22-9.82 111.84-9.54L111.84-9.54Q110.75-8.80 109.54-8.67L109.54-8.67Q109.50-8.67 109.10-9.38Q108.70-10.08 108.43-10.08Q108.16-10.08 107.42-9.50L107.42-9.50Q107.33-8.93 107.06-7.55Q106.78-6.18 106.62-5.28L106.62-5.28Q106.14-2.91 106.14-1.31L106.14-1.31L106.18-0.35Q104.77 0.19 100.58 0.19ZM120.16-12.02Q120.16-10.59 119.36-7.63Q118.56-4.67 118.56-3.78Q118.56-2.88 118.91-2.88Q119.26-2.88 120.19-3.20L120.19-3.20L120.48-3.33L121.06-1.73Q119.97-0.90 118.35-0.26Q116.74 0.38 115.42 0.38Q114.11 0.38 113.36-0.35Q112.61-1.09 112.61-2.48Q112.61-3.87 113.39-6.74Q114.18-9.60 114.18-10.37L114.18-10.37Q114.18-11.55 113.34-12.61L113.34-12.61L113.09-12.96L113.18-13.50Q114.85-14.02 119.65-14.02L119.65-14.02Q120.16-13.44 120.16-12.02ZM117.78-16.51Q116.32-16.51 115.50-17.28Q114.69-18.05 114.69-19.25Q114.69-20.45 115.70-21.26Q116.70-22.08 118.14-22.08Q119.58-22.08 120.38-21.41Q121.18-20.74 121.18-19.52Q121.18-18.30 120.21-17.41Q119.23-16.51 117.78-16.51ZM121.09 7.17L121.09 7.17Q120.83 6.75 120.83 5.41Q120.83 4.06 122.06-1.89Q123.30-7.84 123.30-9.34Q123.30-10.85 123.01-11.63Q122.72-12.42 122.43-12.64L122.43-12.64L122.14-12.86L122.21-13.34Q124.13-13.95 128.70-13.95L128.70-13.95Q128.96-13.47 129.12-12.70L129.12-12.70Q131.17-14.18 132.99-14.18Q134.82-14.18 135.98-12.78Q137.15-11.39 137.15-8.06Q137.15-4.74 135.41-2.18Q133.66 0.38 130.30 0.38L130.30 0.38Q128.83 0.38 127.42-0.19L127.42-0.19Q126.69 3.42 126.69 6.18L126.69 6.18Q124.38 7.01 121.09 7.17ZM128.83-2.30L128.83-2.30Q129.70-2.30 130.30-3.58L130.30-3.58Q131.39-5.82 131.39-9.02L131.39-9.02Q131.39-10.91 130.46-10.91L130.46-10.91Q129.98-10.91 129.18-10.56L129.18-10.56Q128.99-7.87 127.90-2.46L127.90-2.46Q128.45-2.30 128.83-2.30ZM149.44-11.33L149.44-11.33L146.69-11.55Q145.41-5.82 145.30-4.90Q145.18-3.97 145.18-3.38Q145.18-2.78 145.57-2.78L145.57-2.78Q146.02-2.78 147.26-3.36L147.26-3.36L148.03-1.82Q147.01-0.90 145.44-0.26Q143.87 0.38 142.42 0.38Q140.96 0.38 140.10-0.37Q139.23-1.12 139.23-2.50Q139.23-3.87 140.03-6.91Q140.83-9.95 141.09-11.42L141.09-11.42Q140.32-11.36 138.82-11.20L138.82-11.20Q138.69-11.87 138.69-12.46Q138.69-13.06 138.85-13.79L138.85-13.79L141.41-13.79Q141.44-14.21 141.44-16.58L141.44-16.58L141.38-17.89Q144.48-18.91 147.30-18.91L147.30-18.91Q147.52-18.40 147.52-17.14Q147.52-15.87 147.10-13.79L147.10-13.79L149.98-13.79Q149.98-12.48 149.44-11.33ZM164.42 0.64Q162.37 0.64 161.01-0.34Q159.65-1.31 159.65-3.02Q159.65-4.74 160.94-5.86Q162.24-6.98 164.19-7.55L164.19-7.55Q163.52-8.74 161.79-11.36L161.79-11.36Q160.61-11.14 159.71-11.14L159.71-11.14Q156.83-11.14 155.20-12.58Q153.57-14.02 153.57-16.45L153.57-16.45Q153.57-17.73 153.92-18.78L153.92-18.78L154.05-19.17Q155.78-19.14 156.70-18.78L156.70-18.78Q156.16-17.60 156.16-16.34Q156.16-15.07 157.17-14.22Q158.18-13.38 159.58-13.38L159.58-13.38Q160.06-13.38 160.54-13.47L160.54-13.47Q159.23-15.87 159.23-17.54L159.23-17.54Q159.23-19.94 161.36-21.33Q163.49-22.72 166.19-22.72Q168.90-22.72 170.37-21.58Q171.84-20.45 171.84-18.77Q171.84-17.09 170.62-15.66Q169.41-14.24 167.90-13.34L167.90-13.34Q169.86-10.75 170.75-8L170.75-8Q173.02-7.90 176.45-6.88L176.45-6.88Q176.35-5.38 175.23-3.84L175.23-3.84Q173.60-5.06 171.20-5.44L171.20-5.44Q171.17-2.94 169.12-1.15Q167.07 0.64 164.42 0.64L164.42 0.64ZM166.56-15.39Q167.55-15.84 168.21-16.75Q168.86-17.66 168.86-18.53Q168.86-19.39 168.29-19.82Q167.71-20.26 166.82-20.26Q165.92-20.26 165.34-19.82Q164.77-19.39 164.77-18.69L164.77-18.69Q164.77-17.63 166.56-15.39L166.56-15.39ZM163.82-2.05Q164.45-2.05 164.85-2.75Q165.25-3.46 165.25-4.16Q165.25-4.86 165.06-5.63L165.06-5.63Q162.46-5.18 162.46-3.55L162.46-3.55Q162.46-2.94 162.83-2.50Q163.20-2.05 163.82-2.05ZM176.51-3.49L176.51-3.49L176.83-10.53Q176.83-11.20 176.64-11.70Q176.45-12.19 175.71-13.06L175.71-13.06L175.81-13.57Q178.24-14.18 179.84-14.18Q181.44-14.18 182.13-13.41Q182.82-12.64 182.82-11.28Q182.82-9.92 182.34-7.30Q181.86-4.67 181.86-3.76Q181.86-2.85 182.37-2.85L182.37-2.85Q183.07-2.85 184.13-3.68L184.13-3.68Q184.16-4.22 184.42-6.82Q184.67-9.41 184.67-10.67Q184.67-11.94 184.48-12.90L184.48-12.90Q185.22-13.28 187.04-13.60Q188.86-13.92 190.11-13.92L190.11-13.92Q190.40-13.34 190.40-12.11Q190.40-10.88 189.86-7.82Q189.31-4.77 189.31-3.82Q189.31-2.88 189.82-2.88L189.82-2.88Q190.59-2.88 191.81-4.40Q193.02-5.92 193.41-7.17L193.41-7.17L191.07-9.47Q191.20-10.78 191.65-11.95Q192.10-13.12 192.48-13.63L192.48-13.63L192.83-14.14Q196.70-14.14 196.70-11.01L196.70-11.01Q196.70-9.50 195.89-7.52Q195.07-5.54 193.82-3.79Q192.58-2.05 190.85-0.83Q189.12 0.38 187.49 0.38L187.49 0.38Q185.22 0.38 184.38-1.57L184.38-1.57Q182.05 0.35 179.58 0.35L179.58 0.35Q178.11 0.35 177.31-0.51Q176.51-1.38 176.51-3.49ZM212.64-12.96Q211.97-10.88 211.49-8.02Q211.01-5.15 211.01-4.02Q211.01-2.88 211.36-2.88L211.36-2.88L212.96-3.33L213.54-1.73Q212.51-0.93 210.93-0.27Q209.34 0.38 208.13 0.38L208.13 0.38Q206.05 0.38 205.50-1.41L205.50-1.41Q202.98 0.38 201.04 0.38Q199.10 0.38 198.05-1.02Q196.99-2.43 196.99-5.06L196.99-5.06Q196.99-8.67 198.85-11.42Q200.70-14.18 203.74-14.18L203.74-14.18Q205.41-14.18 207.14-13.25L207.14-13.25Q207.39-13.82 207.55-14.08L207.55-14.08Q209.86-14.08 212.64-12.96L212.64-12.96ZM203.01-5.46Q203.01-3.84 203.23-3.42Q203.46-3.01 204.06-3.01Q204.67-3.01 205.25-3.49L205.25-3.49Q205.38-7.20 206.46-11.26L206.46-11.26Q205.98-11.55 205.36-11.55Q204.74-11.55 204.24-10.85Q203.74-10.14 203.49-9.09L203.49-9.09Q203.01-7.07 203.01-5.46ZM224.83-4.32L224.83-4.32Q224.83-2.34 222.99-0.98Q221.15 0.38 218.69 0.38Q216.22 0.38 214.64-0.45Q213.06-1.28 213.06-2.03Q213.06-2.78 214.03-3.95Q215.01-5.12 216.03-5.31L216.03-5.31Q217.50-4.51 218.69-1.76L218.69-1.76Q219.62-1.76 219.62-2.37L219.62-2.37Q219.62-2.82 219.36-3.20Q219.10-3.58 218.98-3.81Q218.85-4.03 218.53-4.43Q218.21-4.83 218.05-5.02L218.05-5.02Q217.25-5.98 216.61-6.78L216.61-6.78Q215.07-8.70 215.07-10.16Q215.07-11.62 216-12.54L216-12.54Q217.60-14.18 220.70-14.18L220.70-14.18Q222.66-14.18 223.81-13.42Q224.96-12.67 224.96-11.18Q224.96-9.70 223.20-7.78L223.20-7.78Q224.83-5.89 224.83-4.32ZM222.69-10.19Q223.07-10.78 223.07-11.26Q223.07-11.74 222.66-12Q222.24-12.26 221.66-12.26Q221.09-12.26 220.78-11.98Q220.48-11.71 220.48-11.26Q220.48-10.82 221.86-9.28L221.86-9.28Q222.30-9.60 222.69-10.19ZM235.90-21.79L235.90-21.79Q235.90-19.55 234.27-12.58L234.27-12.58Q237.02-14.14 238.61-14.14Q240.19-14.14 240.96-13.30Q241.73-12.45 241.73-11.18Q241.73-9.92 241.02-7.22Q240.32-4.51 240.32-3.68Q240.32-2.85 240.58-2.85L240.58-2.85L242.24-3.30L242.82-1.70Q241.82-0.96 240.08-0.29Q238.34 0.38 236.99 0.38L236.99 0.38Q234.40 0.38 234.40-2.56L234.40-2.56Q234.40-3.90 235.07-6.53Q235.74-9.15 235.74-9.84Q235.74-10.53 235.26-10.53L235.26-10.53Q234.59-10.53 233.63-9.89L233.63-9.89Q232.19-3.78 232.19-1.38L232.19-1.38L232.22-0.61Q228.96 0.26 226.37 0.26L226.37 0.26Q226.18 0.16 226.18-0.77L226.18-0.77Q226.18-2.75 228.08-10.59Q229.98-18.43 229.98-21.15L229.98-21.15Q229.98-21.98 229.86-22.62L229.86-22.62Q232.96-23.49 235.68-23.49L235.68-23.49Q235.90-22.94 235.90-21.79Z"/></svg>