<svg id="mainsvg" xmlns="http://www.w3.org/2000/svg" xmlns:xlink="http://www.w3.org/1999/xlink" version="1.1" x="0px" y="0px" enable-background="new 0 0 200 162.5" xml:space="preserve" viewBox="0 0 172 30"><path fill="#000" transform="translate(-0.890625, 24.640625)" d="M21.70 0L18.75 0L6.27-17.63L6.27-3.78Q6.27-3.09 6.40-2.69Q6.53-2.28 6.75-2.06Q6.97-1.84 7.27-1.77Q7.58-1.70 7.91-1.70L7.91-1.70L9.25-1.70L9.25 0L0.89 0L0.89-1.70L2.23-1.70Q2.58-1.70 2.88-1.77Q3.17-1.84 3.40-2.06Q3.63-2.28 3.75-2.69Q3.88-3.09 3.88-3.78L3.88-3.78L3.88-19.20Q3.88-19.84 3.74-20.23Q3.61-20.61 3.38-20.81Q3.16-21.02 2.86-21.09Q2.56-21.16 2.23-21.16L2.23-21.16L0.89-21.16L0.89-22.84L8-22.84L19.30-6.88L19.30-19.20Q19.30-19.84 19.16-20.23Q19.03-20.61 18.80-20.81Q18.58-21.02 18.28-21.09Q17.98-21.16 17.66-21.16L17.66-21.16L16.31-21.16L16.31-22.84L24.67-22.84L24.67-21.16L23.33-21.16Q23-21.16 22.70-21.09Q22.41-21.02 22.18-20.80Q21.95-20.58 21.83-20.17Q21.70-19.77 21.70-19.08L21.70-19.08L21.70 0ZM43.33-8.64L43.33-8.64Q43.33-4.13 41.21-1.91Q39.09 0.31 34.98 0.31L34.98 0.31Q33.06 0.31 31.53-0.24Q30-0.80 28.93-1.91Q27.86-3.02 27.29-4.70Q26.72-6.39 26.72-8.64L26.72-8.64Q26.72-13.16 28.84-15.36Q30.95-17.56 35.08-17.56L35.08-17.56Q37-17.56 38.52-17.02Q40.05-16.47 41.12-15.36Q42.19-14.25 42.76-12.57Q43.33-10.89 43.33-8.64ZM31.69-8.64L31.69-8.64Q31.69-6.94 31.87-5.64Q32.05-4.34 32.45-3.47Q32.84-2.59 33.48-2.15Q34.13-1.70 35.05-1.70L35.05-1.70Q35.97-1.70 36.60-2.15Q37.23-2.59 37.63-3.47Q38.03-4.34 38.20-5.64Q38.38-6.94 38.38-8.64L38.38-8.64Q38.38-10.36 38.20-11.65Q38.02-12.94 37.62-13.80Q37.22-14.66 36.58-15.09Q35.94-15.52 35.02-15.52L35.02-15.52Q34.09-15.52 33.45-15.09Q32.81-14.66 32.42-13.80Q32.03-12.94 31.86-11.65Q31.69-10.36 31.69-8.64ZM54.88-2.27L54.88-2.27Q55.50-2.27 56.07-2.35Q56.64-2.44 57.14-2.56L57.14-2.56L57.14-0.48Q56.89-0.36 56.46-0.22Q56.03-0.08 55.46 0.04Q54.89 0.16 54.17 0.23Q53.45 0.31 52.61 0.31L52.61 0.31Q51.53 0.31 50.66 0.05Q49.78-0.20 49.17-0.80Q48.56-1.41 48.23-2.37Q47.91-3.33 47.91-4.73L47.91-4.73L47.91-14.97L45.50-14.97L45.50-16.61Q46.53-16.61 47.34-17.02Q48.16-17.42 48.64-17.95L48.64-17.95Q49.63-18.98 50.11-21.13L50.11-21.13L52.77-21.13L52.77-17.16L56.86-17.16L56.86-14.97L52.77-14.97L52.77-5.06Q52.77-3.61 53.26-2.94Q53.75-2.27 54.88-2.27ZM75.89-8.64L75.89-8.64Q75.89-4.13 73.77-1.91Q71.66 0.31 67.55 0.31L67.55 0.31Q65.63 0.31 64.09-0.24Q62.56-0.80 61.49-1.91Q60.42-3.02 59.85-4.70Q59.28-6.39 59.28-8.64L59.28-8.64Q59.28-13.16 61.40-15.36Q63.52-17.56 67.64-17.56L67.64-17.56Q69.56-17.56 71.09-17.02Q72.61-16.47 73.68-15.36Q74.75-14.25 75.32-12.57Q75.89-10.89 75.89-8.64ZM64.25-8.64L64.25-8.64Q64.25-6.94 64.43-5.64Q64.61-4.34 65.01-3.47Q65.41-2.59 66.05-2.15Q66.69-1.70 67.61-1.70L67.61-1.70Q68.53-1.70 69.16-2.15Q69.80-2.59 70.20-3.47Q70.59-4.34 70.77-5.64Q70.94-6.94 70.94-8.64L70.94-8.64Q70.94-10.36 70.76-11.65Q70.58-12.94 70.18-13.80Q69.78-14.66 69.14-15.09Q68.50-15.52 67.58-15.52L67.58-15.52Q66.66-15.52 66.02-15.09Q65.38-14.66 64.98-13.80Q64.59-12.94 64.42-11.65Q64.25-10.36 64.25-8.64ZM92.23 2.66L92.23 4.55L77.23 4.55L77.23 2.66L92.23 2.66ZM100.53 0.31L100.53 0.31Q98.38 0.31 96.94-0.09Q95.50-0.50 94.63-1.14Q93.77-1.78 93.40-2.58Q93.03-3.38 93.03-4.16L93.03-4.16Q93.03-4.98 93.34-5.55Q93.64-6.11 94.15-6.47Q94.66-6.83 95.30-6.98Q95.95-7.14 96.66-7.14L96.66-7.14Q96.66-5.77 96.98-4.73Q97.31-3.69 97.89-2.99Q98.47-2.30 99.27-1.95Q100.08-1.59 101.03-1.59L101.03-1.59Q101.97-1.59 102.70-1.86Q103.44-2.13 103.95-2.59Q104.47-3.06 104.73-3.70Q105-4.33 105-5.06L105-5.06Q105-5.88 104.67-6.51Q104.34-7.14 103.68-7.68Q103.02-8.22 102.01-8.71Q101-9.20 99.66-9.77L99.66-9.77Q97.98-10.45 96.84-11.18Q95.69-11.91 94.98-12.75Q94.28-13.59 93.98-14.58Q93.67-15.56 93.67-16.73L93.67-16.73Q93.67-18.20 94.27-19.39Q94.86-20.58 95.91-21.42Q96.95-22.27 98.39-22.72Q99.83-23.17 101.52-23.17L101.52-23.17Q103.28-23.17 104.56-22.88Q105.84-22.59 106.68-22.09Q107.52-21.59 107.92-20.91Q108.33-20.23 108.33-19.45L108.33-19.45Q108.33-18.89 108.09-18.41Q107.84-17.92 107.35-17.56Q106.86-17.20 106.12-17Q105.38-16.80 104.39-16.80L104.39-16.80Q104.39-17.47 104.21-18.24Q104.03-19.02 103.63-19.68Q103.22-20.34 102.57-20.78Q101.92-21.22 101-21.22L101-21.22Q100.36-21.22 99.78-21.03Q99.20-20.84 98.77-20.47Q98.34-20.09 98.09-19.54Q97.84-18.98 97.84-18.27L97.84-18.27Q97.84-17.59 98.06-17Q98.28-16.41 98.87-15.84Q99.45-15.27 100.48-14.70Q101.50-14.13 103.13-13.47L103.13-13.47Q104.77-12.80 105.92-12.09Q107.08-11.39 107.82-10.59Q108.56-9.78 108.90-8.82Q109.23-7.86 109.23-6.69L109.23-6.69Q109.23-5.14 108.63-3.85Q108.02-2.56 106.88-1.64Q105.73-0.72 104.13-0.20Q102.53 0.31 100.53 0.31ZM120.33-15.48L120.33-15.48Q118.98-15.48 118.20-14.16Q117.41-12.83 117.33-10.27L117.33-10.27L122.86-10.27Q122.86-11.48 122.72-12.45Q122.58-13.42 122.27-14.09Q121.97-14.77 121.49-15.13Q121.02-15.48 120.33-15.48ZM120.63 0.31L120.63 0.31Q118.59 0.31 117.04-0.28Q115.48-0.88 114.44-2Q113.39-3.13 112.86-4.76Q112.33-6.39 112.33-8.48L112.33-8.48Q112.33-10.73 112.86-12.44Q113.39-14.14 114.41-15.28Q115.42-16.42 116.90-16.99Q118.38-17.56 120.27-17.56L120.27-17.56Q122-17.56 123.39-17.07Q124.78-16.58 125.75-15.61Q126.72-14.64 127.23-13.20Q127.75-11.77 127.75-9.86L127.75-9.86L127.75-8.22L117.27-8.22Q117.31-6.61 117.62-5.45Q117.92-4.30 118.46-3.55Q119-2.80 119.77-2.44Q120.55-2.08 121.55-2.08L121.55-2.08Q122.38-2.08 123.08-2.27Q123.78-2.47 124.35-2.82Q124.92-3.17 125.35-3.65Q125.78-4.13 126.06-4.67L126.06-4.67Q126.92-4.20 126.92-3.11L126.92-3.11Q126.92-2.42 126.55-1.80Q126.17-1.19 125.39-0.72Q124.61-0.25 123.43 0.03Q122.25 0.31 120.63 0.31ZM140.42-1.70L140.42 0L129.73 0L129.73-1.70L129.83-1.70Q130.38-1.70 130.83-1.78Q131.28-1.86 131.61-2.10Q131.94-2.34 132.12-2.80Q132.30-3.25 132.30-4L132.30-4L132.30-13.28Q132.30-13.98 132.13-14.41Q131.97-14.84 131.66-15.08Q131.36-15.31 130.94-15.38Q130.52-15.45 129.98-15.45L129.98-15.45L129.89-15.45L129.89-17.16L136.36-17.16L137-14.66L137.16-14.66Q137.47-15.38 137.84-15.91Q138.22-16.45 138.74-16.81Q139.27-17.17 139.98-17.35Q140.69-17.53 141.67-17.53L141.67-17.53Q143.56-17.53 144.45-16.87Q145.34-16.20 145.34-14.94L145.34-14.94Q145.34-13.47 144.28-12.66Q143.22-11.84 141.28-11.84L141.28-11.84Q141.28-12.50 141.21-13Q141.14-13.50 140.96-13.83Q140.78-14.16 140.48-14.33Q140.17-14.50 139.72-14.50L139.72-14.50Q139.16-14.50 138.75-14.22Q138.34-13.94 138.06-13.49Q137.78-13.05 137.60-12.48Q137.42-11.92 137.32-11.35Q137.22-10.78 137.19-10.27Q137.16-9.75 137.16-9.38L137.16-9.38L137.16-3.84Q137.16-3.14 137.33-2.71Q137.50-2.28 137.80-2.06Q138.09-1.84 138.51-1.77Q138.92-1.70 139.39-1.70L139.39-1.70L140.42-1.70ZM148.58-22.34L148.58-22.34Q148.58-22.95 148.79-23.39Q149-23.83 149.37-24.10Q149.73-24.38 150.23-24.51Q150.72-24.64 151.30-24.64L151.30-24.64Q151.84-24.64 152.34-24.51Q152.84-24.38 153.22-24.10Q153.59-23.83 153.82-23.39Q154.05-22.95 154.05-22.34L154.05-22.34Q154.05-21.75 153.82-21.31Q153.59-20.88 153.22-20.59Q152.84-20.31 152.34-20.17Q151.84-20.03 151.30-20.03L151.30-20.03Q150.72-20.03 150.23-20.17Q149.73-20.31 149.37-20.59Q149-20.88 148.79-21.31Q148.58-21.75 148.58-22.34ZM146.38-1.70L146.75-1.70Q147.11-1.70 147.51-1.77Q147.91-1.84 148.24-2.06Q148.58-2.28 148.80-2.69Q149.03-3.09 149.03-3.78L149.03-3.78L149.03-13.50Q149.03-14.14 148.80-14.52Q148.58-14.91 148.23-15.12Q147.89-15.33 147.49-15.39Q147.09-15.45 146.75-15.45L146.75-15.45L146.38-15.45L146.38-17.16L153.89-17.16L153.89-3.78Q153.89-3.09 154.12-2.69Q154.34-2.28 154.68-2.06Q155.02-1.84 155.42-1.77Q155.83-1.70 156.17-1.70L156.17-1.70L156.55-1.70L156.55 0L146.38 0L146.38-1.70ZM169.31 0L157.70 0L157.70-1.70L158.41-1.70Q158.75-1.70 159.15-1.77Q159.55-1.84 159.88-2.06Q160.22-2.28 160.45-2.69Q160.67-3.09 160.67-3.78L160.67-3.78L160.67-14.97L157.83-14.97L157.83-17.16L160.67-17.16L160.67-18.34Q160.67-19.83 161.05-20.99Q161.44-22.16 162.24-22.96Q163.05-23.77 164.28-24.19Q165.52-24.61 167.20-24.61L167.20-24.61Q168.75-24.61 169.78-24.43Q170.81-24.25 171.42-23.93Q172.03-23.61 172.29-23.19Q172.55-22.77 172.55-22.27L172.55-22.27Q172.55-21.19 171.57-20.69Q170.59-20.19 168.61-20.19L168.61-20.19Q168.61-20.58 168.53-21.03Q168.45-21.48 168.27-21.88Q168.08-22.27 167.77-22.52Q167.47-22.78 167.02-22.78L167.02-22.78Q166.63-22.78 166.34-22.57Q166.06-22.36 165.88-21.90Q165.70-21.44 165.63-20.70Q165.55-19.97 165.55-18.91L165.55-18.91L165.55-17.16L169.95-17.16L169.95-14.97L165.55-14.97L165.55-3.78Q165.55-3.09 165.77-2.69Q166-2.28 166.34-2.06Q166.67-1.84 167.07-1.77Q167.47-1.70 167.81-1.70L167.81-1.70L169.31-1.70L169.31 0Z"/></svg>