<svg id="mainsvg" xmlns="http://www.w3.org/2000/svg" xmlns:xlink="http://www.w3.org/1999/xlink" version="1.1" x="0px" y="0px" enable-background="new 0 0 200 162.5" xml:space="preserve" viewBox="0 0 246 23"><path fill="#000" transform="translate(-2.59375, 21.984375)" d="M20.95-20.55L20.95-18.30Q20.34-18.59 19.55-18.93Q18.75-19.27 17.73-19.53Q16.70-19.80 15.42-19.98Q14.14-20.16 12.58-20.16L12.58-20.16Q10.69-20.16 9.21-19.94Q7.73-19.72 6.71-19.26Q5.69-18.80 5.15-18.09Q4.61-17.39 4.61-16.42L4.61-16.42Q4.61-15.61 5.12-15Q5.63-14.39 6.49-13.92Q7.36-13.45 8.52-13.07Q9.69-12.69 10.99-12.35Q12.30-12.02 13.68-11.67Q15.06-11.33 16.37-10.93Q17.67-10.53 18.84-10.04Q20-9.55 20.87-8.89Q21.73-8.23 22.24-7.39Q22.75-6.55 22.75-5.44L22.75-5.44Q22.75-4.23 22.30-3.34Q21.84-2.44 21.07-1.79Q20.30-1.14 19.26-0.71Q18.22-0.28 17.04-0.03Q15.86 0.22 14.60 0.32Q13.34 0.42 12.13 0.42L12.13 0.42Q9.33 0.42 7.05 0.02Q4.78-0.39 2.72-1.09L2.72-1.09L2.72-3.48Q4.84-2.22 7.21-1.75Q9.58-1.28 12.19-1.28L12.19-1.28Q14.03-1.28 15.59-1.50Q17.16-1.72 18.30-2.20Q19.44-2.67 20.07-3.44Q20.70-4.20 20.70-5.31L20.70-5.31Q20.70-6.20 20.20-6.88Q19.69-7.55 18.82-8.05Q17.95-8.56 16.79-8.95Q15.63-9.34 14.33-9.68Q13.03-10.02 11.65-10.34Q10.27-10.66 8.97-11.03Q7.67-11.41 6.51-11.88Q5.34-12.34 4.48-12.98Q3.61-13.61 3.10-14.44Q2.59-15.27 2.59-16.36L2.59-16.36Q2.59-17.44 3-18.27Q3.41-19.11 4.12-19.72Q4.83-20.33 5.78-20.74Q6.73-21.16 7.82-21.40Q8.91-21.64 10.08-21.75Q11.25-21.86 12.39-21.86L12.39-21.86Q13.64-21.86 14.76-21.75Q15.88-21.64 16.91-21.46Q17.95-21.28 18.95-21.05Q19.94-20.81 20.95-20.55L20.95-20.55ZM50.72-21.47L50.72-7.84Q50.72-5.73 49.73-4.20Q48.75-2.66 47.02-1.64Q45.30-0.63 42.95-0.13Q40.59 0.36 37.86 0.36L37.86 0.36Q34.89 0.36 32.41-0.02Q29.92-0.41 28.06-1.09L28.06-1.09L28.06-3.36Q29.06-2.94 30.13-2.58Q31.19-2.22 32.39-1.95Q33.59-1.67 34.96-1.52Q36.33-1.38 37.92-1.38L37.92-1.38Q40.17-1.38 42.14-1.80Q44.11-2.23 45.57-3.05Q47.03-3.88 47.88-5.08Q48.73-6.28 48.73-7.84L48.73-7.84L48.73-11.91Q47.98-10.89 46.90-9.96Q45.81-9.03 44.48-8.32Q43.14-7.61 41.58-7.18Q40.02-6.75 38.28-6.75L38.28-6.75Q36.31-6.75 34.79-7.12Q33.27-7.48 32.13-8.13Q31-8.77 30.22-9.65Q29.44-10.53 28.96-11.57Q28.48-12.61 28.27-13.75Q28.06-14.89 28.06-16.06L28.06-16.06L28.06-21.47L30.05-21.47L30.05-16.48Q30.05-14.69 30.48-13.22Q30.91-11.75 31.89-10.70Q32.88-9.66 34.48-9.09Q36.08-8.52 38.44-8.52L38.44-8.52Q40.27-8.52 41.80-9.01Q43.33-9.50 44.59-10.34Q45.86-11.17 46.89-12.27Q47.92-13.36 48.73-14.56L48.73-14.56L48.73-21.47L50.72-21.47ZM80.69 0L78.73 0L78.73-14.17Q78.73-15.95 78.26-17.10Q77.78-18.25 76.90-18.92Q76.02-19.59 74.75-19.86Q73.48-20.13 71.91-20.13L71.91-20.13Q70.08-20.13 68.32-19.68Q66.56-19.23 65-18.55Q63.44-17.88 62.13-17.05Q60.81-16.22 59.91-15.45L59.91-15.45L59.91 0L57.95 0L57.95-21.47L59.91-21.47L59.91-17.70Q61-18.39 62.32-19.15Q63.64-19.91 65.16-20.54Q66.69-21.17 68.42-21.58Q70.16-21.98 72.08-21.98L72.08-21.98Q74.25-21.98 75.87-21.46Q77.48-20.94 78.55-19.98Q79.63-19.02 80.16-17.65Q80.69-16.28 80.69-14.59L80.69-14.59L80.69 0ZM109.83-1.70L109.83-1.70Q108.70-1.23 107.60-0.84Q106.50-0.45 105.31-0.17Q104.13 0.11 102.81 0.27Q101.50 0.42 99.95 0.42L99.95 0.42Q98.05 0.42 96.29 0.11Q94.53-0.20 93.02-0.83Q91.50-1.45 90.27-2.38Q89.03-3.31 88.15-4.55Q87.27-5.78 86.79-7.33Q86.31-8.88 86.31-10.72L86.31-10.72Q86.31-12.56 86.79-14.11Q87.27-15.66 88.15-16.89Q89.03-18.13 90.27-19.05Q91.50-19.98 93.02-20.61Q94.53-21.23 96.28-21.55Q98.03-21.86 99.95-21.86L99.95-21.86Q101.50-21.86 102.81-21.70Q104.13-21.55 105.31-21.27Q106.50-20.98 107.60-20.60Q108.70-20.22 109.83-19.75L109.83-19.75L109.83-17.41Q108.94-17.97 107.92-18.47Q106.91-18.97 105.73-19.34Q104.55-19.72 103.20-19.94Q101.86-20.16 100.33-20.16L100.33-20.16Q97.23-20.16 94.97-19.48Q92.70-18.81 91.23-17.59Q89.75-16.36 89.04-14.62Q88.33-12.88 88.33-10.72L88.33-10.72Q88.33-8.56 89.04-6.83Q89.75-5.09 91.23-3.87Q92.70-2.64 94.97-1.98Q97.23-1.31 100.33-1.31L100.33-1.31Q101.86-1.31 103.23-1.53Q104.59-1.75 105.79-2.13Q106.98-2.50 107.99-2.99Q109-3.48 109.83-4.03L109.83-4.03L109.83-1.70ZM141.39-10.72L141.39-10.72Q141.39-7.83 140.34-5.73Q139.30-3.63 137.47-2.26Q135.64-0.89 133.16-0.23Q130.67 0.42 127.80 0.42L127.80 0.42Q124.91 0.42 122.41-0.23Q119.91-0.89 118.06-2.26Q116.22-3.63 115.17-5.73Q114.13-7.83 114.13-10.72L114.13-10.72Q114.13-12.64 114.61-14.21Q115.09-15.78 115.97-17.02Q116.84-18.27 118.09-19.17Q119.33-20.08 120.85-20.68Q122.38-21.28 124.13-21.57Q125.88-21.86 127.80-21.86L127.80-21.86Q130.67-21.86 133.16-21.20Q135.64-20.55 137.47-19.18Q139.30-17.81 140.34-15.71Q141.39-13.61 141.39-10.72ZM139.38-10.72L139.38-10.72Q139.38-13 138.63-14.75Q137.89-16.50 136.44-17.70Q134.98-18.89 132.82-19.51Q130.66-20.13 127.80-20.13L127.80-20.13Q124.94-20.13 122.76-19.50Q120.58-18.88 119.11-17.68Q117.64-16.48 116.89-14.73Q116.14-12.97 116.14-10.72L116.14-10.72Q116.14-8.44 116.89-6.69Q117.64-4.94 119.11-3.74Q120.58-2.55 122.76-1.93Q124.94-1.31 127.80-1.31L127.80-1.31Q130.66-1.31 132.82-1.93Q134.98-2.55 136.44-3.74Q137.89-4.94 138.63-6.69Q139.38-8.44 139.38-10.72ZM168.05-14.88L168.05-14.88Q168.05-13.27 167.52-12.03Q167-10.80 165.88-9.95Q164.75-9.11 162.98-8.68Q161.20-8.25 158.70-8.25L158.70-8.25L149.06-8.25L149.06 0L147.11 0L147.11-21.47L158.70-21.47Q161.20-21.47 162.98-21.04Q164.75-20.61 165.88-19.78Q167-18.95 167.52-17.72Q168.05-16.48 168.05-14.88ZM166.03-14.88L166.03-14.88Q166.03-16.41 165.52-17.34Q165.02-18.28 163.96-18.79Q162.91-19.30 161.29-19.47Q159.67-19.64 157.45-19.64L157.45-19.64L149.06-19.64L149.06-10.08L157.45-10.08Q158.31-10.08 159.29-10.07Q160.27-10.06 161.22-10.16Q162.17-10.27 163.04-10.52Q163.91-10.78 164.57-11.31Q165.23-11.84 165.63-12.70Q166.03-13.56 166.03-14.88ZM194.69 0L192.75 0L192.75-2.38Q191.63-1.77 190.20-1.25Q188.77-0.73 187.18-0.36Q185.59 0.02 183.92 0.22Q182.25 0.42 180.64 0.42L180.64 0.42Q178.55 0.42 176.88 0.05Q175.22-0.33 174.06-1.07Q172.91-1.81 172.28-2.91Q171.66-4.02 171.66-5.47L171.66-5.47Q171.66-6.91 172.38-8.01Q173.11-9.11 174.45-9.93Q175.80-10.75 177.70-11.32Q179.59-11.89 181.94-12.29Q184.28-12.69 187.01-12.95Q189.73-13.20 192.75-13.38L192.75-13.38L192.75-15.02Q192.75-16.02 192.38-16.78Q192-17.55 191.33-18.12Q190.66-18.69 189.75-19.07Q188.84-19.45 187.79-19.69Q186.73-19.92 185.57-20.02Q184.41-20.13 183.23-20.13L183.23-20.13Q181.66-20.13 180.36-19.97Q179.06-19.81 177.94-19.54Q176.81-19.27 175.78-18.91Q174.75-18.55 173.70-18.14L173.70-18.14L173.70-20.42Q175.88-21 178.34-21.43Q180.80-21.86 183.56-21.86L183.56-21.86Q185.91-21.86 187.94-21.46Q189.97-21.06 191.47-20.19Q192.97-19.31 193.83-17.93Q194.69-16.55 194.69-14.56L194.69-14.56L194.69 0ZM192.75-4.42L192.75-11.64Q187.64-11.36 184.02-10.84Q180.41-10.33 178.11-9.58Q175.81-8.83 174.74-7.83Q173.67-6.83 173.67-5.56L173.67-5.56Q173.67-4.53 174.20-3.73Q174.72-2.94 175.70-2.40Q176.69-1.86 178.09-1.59Q179.50-1.31 181.25-1.31L181.25-1.31Q182.28-1.31 183.38-1.43Q184.48-1.55 185.58-1.76Q186.67-1.97 187.73-2.26Q188.80-2.55 189.73-2.89Q190.67-3.23 191.45-3.63Q192.22-4.02 192.75-4.42L192.75-4.42ZM220.20-19.69L210.44-19.69L210.44 0L208.50 0L208.50-19.69L198.73-19.69L198.73-21.47L220.20-21.47L220.20-19.69ZM246.06-3.39L246.06-1.13Q244.75-0.72 243.63-0.43Q242.50-0.14 241.41 0.04Q240.31 0.22 239.18 0.30Q238.05 0.39 236.69 0.39L236.69 0.39Q233.53 0.39 230.98-0.38Q228.44-1.14 226.65-2.57Q224.86-4 223.89-6.03Q222.92-8.06 222.92-10.59L222.92-10.59Q222.92-13.05 223.85-15.09Q224.78-17.14 226.45-18.61Q228.13-20.08 230.45-20.89Q232.78-21.70 235.59-21.70L235.59-21.70Q238.52-21.70 240.80-20.92Q243.08-20.14 244.64-18.69Q246.20-17.23 247.02-15.16Q247.83-13.09 247.83-10.50L247.83-10.50L247.83-10.02L224.94-10.02Q225.11-8.02 225.94-6.41Q226.77-4.80 228.29-3.67Q229.81-2.55 232.04-1.95Q234.27-1.34 237.23-1.34L237.23-1.34Q238.50-1.34 239.80-1.52Q241.09-1.69 242.28-1.98Q243.47-2.27 244.45-2.63Q245.44-3 246.06-3.39L246.06-3.39ZM224.94-11.72L245.91-11.72Q245.80-13.36 245.17-14.85Q244.55-16.34 243.30-17.48Q242.06-18.63 240.15-19.30Q238.23-19.97 235.56-19.97L235.56-19.97Q233.05-19.97 231.16-19.30Q229.27-18.63 227.95-17.49Q226.64-16.36 225.89-14.87Q225.14-13.38 224.94-11.72L224.94-11.72Z"/></svg>