<svg id="mainsvg" xmlns="http://www.w3.org/2000/svg" xmlns:xlink="http://www.w3.org/1999/xlink" version="1.1" x="0px" y="0px" enable-background="new 0 0 200 162.5" xml:space="preserve" viewBox="0 0 118 28"><path fill="#000" transform="translate(-0.864, 26.912)" d="M6.40 0L0.86 0Q0.96-3.04 0.99-6.06Q1.02-9.09 1.02-11.81L1.02-11.81Q1.02-15.68 0.98-19.17Q0.93-22.66 0.86-26.18L0.86-26.18Q2.43-26.34 4.02-26.45Q5.60-26.56 7.23-26.56L7.23-26.56Q9.57-26.56 11.62-26.22Q13.66-25.89 15.17-24.98Q16.67-24.06 17.55-22.46Q18.43-20.86 18.43-18.34L18.43-18.34Q18.43-15.20 17.14-13.41Q15.84-11.62 13.63-10.72L13.63-10.72L18.85 0L13.15 0L8.90-9.76Q7.58-9.66 6.18-9.66L6.18-9.66Q6.18-7.20 6.21-4.83Q6.24-2.46 6.40 0L6.40 0ZM6.18-20.67L6.18-14.53Q7.17-14.43 8-14.43L8-14.43Q10.18-14.43 11.09-15.25Q12-16.06 12-17.70L12-17.70Q12-18.69 11.73-19.30Q11.46-19.90 10.99-20.26Q10.53-20.61 9.90-20.74Q9.28-20.86 8.58-20.86L8.58-20.86Q8.06-20.86 7.44-20.82Q6.82-20.77 6.18-20.67L6.18-20.67ZM35.30-19.14L35.14 0L30.75 0L30.75-1.57Q29.60-0.64 28.32-0.14Q27.04 0.35 25.82 0.35L25.82 0.35Q24.38 0.35 23.17-0.35Q21.95-1.06 21.07-2.32Q20.19-3.58 19.68-5.34Q19.17-7.10 19.17-9.18L19.17-9.18Q19.17-11.36 19.71-13.25Q20.26-15.14 21.20-16.53Q22.14-17.92 23.44-18.70Q24.74-19.49 26.24-19.49L26.24-19.49Q27.55-19.49 28.74-18.93Q29.92-18.37 30.75-17.54L30.75-17.54L30.75-19.14L35.30-19.14ZM25.28-11.55L25.28-11.55Q25.28-10.24 26-9.44Q26.72-8.64 27.84-8.64L27.84-8.64Q29.06-8.64 29.90-9.50Q30.75-10.37 30.75-11.71L30.75-11.71Q30.75-12.32 30.54-12.86Q30.34-13.41 29.95-13.81Q29.57-14.21 29.06-14.43Q28.54-14.66 27.97-14.66L27.97-14.66Q26.82-14.66 26.05-13.79Q25.28-12.93 25.28-11.55ZM36.83-19.14L41.47-19.14L41.47-17.41Q42.24-18.37 43.34-18.93Q44.45-19.49 45.60-19.49L45.60-19.49Q47.01-19.49 48.10-18.72Q49.18-17.95 49.54-16.90L49.54-16.90Q49.70-16.42 49.81-15.57Q49.92-14.72 49.92-13.66L49.92-13.66L49.92 0L45.22 0L45.22-9.28Q45.22-10.72 44.69-11.22Q44.16-11.71 43.46-11.71L43.46-11.71Q42.53-11.71 42-11.12Q41.47-10.53 41.47-9.60L41.47-9.60L41.47 0L36.83 0Q36.83-1.06 36.85-2.22Q36.86-3.39 36.86-4.56Q36.86-5.73 36.86-6.88Q36.86-8.03 36.86-9.06L36.86-9.06Q36.86-9.66 36.86-10.88Q36.86-12.10 36.85-13.54Q36.83-14.98 36.83-16.48Q36.83-17.98 36.83-19.14L36.83-19.14ZM60.29-19.49L60.29-19.49Q62.18-19.49 63.71-18.94L63.71-18.94Q63.71-18.40 63.73-17.78Q63.74-17.15 63.74-16.51L63.74-16.51Q63.74-15.84 63.73-15.17Q63.71-14.50 63.71-13.92L63.71-13.92Q62.66-14.82 61.12-14.82L61.12-14.82Q60.16-14.82 59.52-14.51Q58.88-14.21 58.48-13.73Q58.08-13.25 57.92-12.69Q57.76-12.13 57.76-11.62L57.76-11.62Q57.76-10.91 58.02-10.29Q58.27-9.66 58.72-9.18Q59.17-8.70 59.76-8.43Q60.35-8.16 61.02-8.16L61.02-8.16Q61.66-8.16 62.37-8.42Q63.07-8.67 63.71-9.12L63.71-9.12Q63.71-8.06 63.73-6.93Q63.74-5.79 63.74-4.64L63.74-4.64Q63.74-3.52 63.73-2.35Q63.71-1.18 63.71-0.03L63.71-0.03Q61.92 0.35 60.16 0.35L60.16 0.35Q57.98 0.35 56.29-0.34Q54.59-1.02 53.41-2.30Q52.22-3.58 51.60-5.42Q50.98-7.26 50.98-9.54L50.98-9.54Q50.98-11.68 51.55-13.52Q52.13-15.36 53.30-16.67Q54.46-17.98 56.21-18.74Q57.95-19.49 60.29-19.49ZM65.22-26.91L70.21-26.91Q70.11-25.12 70.05-23.79Q69.98-22.46 69.95-21.36Q69.92-20.26 69.90-19.31Q69.89-18.37 69.89-17.41L69.89-17.41Q70.66-18.37 71.74-18.93Q72.83-19.49 73.95-19.49L73.95-19.49Q74.66-19.49 75.31-19.28Q75.97-19.07 76.51-18.72Q77.06-18.37 77.46-17.87Q77.86-17.38 78.05-16.80L78.05-16.80Q78.18-16.35 78.26-15.50Q78.34-14.66 78.34-13.66L78.34-13.66L78.34 0L73.63 0L73.63-9.60Q73.63-10.56 73.17-11.12Q72.70-11.68 71.94-11.68L71.94-11.68Q71.14-11.68 70.51-11.17Q69.89-10.66 69.89-9.92L69.89-9.92L69.89 0L65.18 0Q65.25-4.26 65.25-9.10Q65.25-13.95 65.25-19.52L65.25-19.52Q65.25-21.25 65.25-22.42Q65.25-23.58 65.25-24.38Q65.25-25.18 65.23-25.76Q65.22-26.34 65.22-26.91L65.22-26.91ZM95.42-10.08L86.46-10.08Q86.88-8.70 87.84-7.84Q88.80-6.98 90.50-6.98L90.50-6.98Q91.01-6.98 91.60-7.06Q92.19-7.14 92.77-7.28Q93.34-7.42 93.86-7.60Q94.37-7.78 94.75-7.94L94.75-7.94Q94.82-7.01 94.83-5.97Q94.85-4.93 94.85-3.90L94.85-3.90Q94.85-2.21 94.75-0.86L94.75-0.86Q92.26 0.35 89.15 0.35L89.15 0.35Q87.71 0.35 86.24 0.03Q84.77-0.29 83.39-1.18L83.39-1.18Q82.18-1.98 81.39-3.06Q80.61-4.13 80.16-5.26Q79.71-6.40 79.55-7.49Q79.39-8.58 79.39-9.44L79.39-9.44Q79.39-10.72 79.70-12.11Q80-13.50 80.64-14.77Q81.28-16.03 82.27-17.09Q83.26-18.14 84.61-18.75L84.61-18.75Q86.24-19.49 88.06-19.49L88.06-19.49Q89.98-19.49 91.52-18.72Q93.06-17.95 94.02-16.61L94.02-16.61Q94.94-15.33 95.18-13.76Q95.42-12.19 95.42-10.08L95.42-10.08ZM88.29-16.03L88.29-16.03Q87.62-16.03 87.01-15.47Q86.40-14.91 86.21-13.50L86.21-13.50L90.40-13.50Q90.27-14.78 89.65-15.41Q89.02-16.03 88.29-16.03ZM96.64-19.14L100.67-19.14L100.90-16.70Q101.28-17.31 101.82-17.82Q102.37-18.34 102.96-18.70Q103.55-19.07 104.14-19.28Q104.74-19.49 105.25-19.49L105.25-19.49Q105.31-18.66 105.36-17.58Q105.41-16.51 105.41-15.39L105.41-15.39Q105.41-14.11 105.36-12.86Q105.31-11.62 105.25-10.56L105.25-10.56Q104.96-10.69 104.45-10.75Q103.94-10.82 103.58-10.82L103.58-10.82Q102.40-10.82 101.84-10.26Q101.28-9.70 101.28-8.86L101.28-8.86L101.28 0L96.58 0Q96.61-5.18 96.62-9.84Q96.64-14.50 96.64-19.14L96.64-19.14ZM108.48-17.95L108.48-17.95Q109.57-18.82 110.82-19.15Q112.06-19.49 113.34-19.49L113.34-19.49Q114.27-19.49 115.18-19.33Q116.10-19.17 116.93-18.91L116.93-18.91Q116.99-16.96 117.01-15.73Q117.02-14.50 117.02-13.82L117.02-13.82Q117.02-12.86 116.99-12.46Q116.96-12.06 116.93-11.71L116.93-11.71Q116.86-11.71 116.61-11.78Q116.35-11.84 116-11.90Q115.65-11.97 115.25-12.02Q114.85-12.06 114.46-12.06L114.46-12.06Q113.89-12.06 113.49-11.92Q113.09-11.78 113.09-11.36L113.09-11.36Q113.09-11.01 113.34-10.70Q113.60-10.40 113.97-10.10Q114.34-9.79 114.77-9.52Q115.20-9.25 115.58-9.02L115.58-9.02Q116.45-8.45 117.20-7.47Q117.95-6.50 117.95-4.90L117.95-4.90Q117.95-3.49 117.33-2.50Q116.70-1.50 115.74-0.86Q114.78-0.22 113.58 0.06Q112.38 0.35 111.23 0.35L111.23 0.35Q110.78 0.35 110.21 0.32Q109.63 0.29 109.04 0.19Q108.45 0.10 107.87-0.05Q107.30-0.19 106.82-0.42L106.82-0.42Q106.66-0.96 106.59-1.58Q106.53-2.21 106.53-2.82L106.53-2.82Q106.53-3.10 106.54-3.52Q106.56-3.94 106.59-4.37Q106.62-4.80 106.69-5.22Q106.75-5.63 106.82-5.92L106.82-5.92Q107.17-5.76 107.63-5.58Q108.10-5.41 108.61-5.25Q109.12-5.09 109.62-4.98Q110.11-4.86 110.56-4.86L110.56-4.86Q111.20-4.86 111.55-5.12Q111.90-5.38 111.90-5.82L111.90-5.82Q111.90-6.21 111.68-6.51Q111.46-6.82 111.14-7.09Q110.82-7.36 110.43-7.57Q110.05-7.78 109.73-7.94L109.73-7.94Q109.12-8.26 108.48-8.64Q107.84-9.02 107.33-9.58Q106.82-10.14 106.50-10.94Q106.18-11.74 106.18-12.90L106.18-12.90Q106.18-14.24 106.70-15.58Q107.23-16.93 108.48-17.95Z"/></svg>