<svg id="mainsvg" xmlns="http://www.w3.org/2000/svg" xmlns:xlink="http://www.w3.org/1999/xlink" version="1.1" x="0px" y="0px" enable-background="new 0 0 200 162.5" xml:space="preserve" viewBox="0 0 183 24"><path fill="#000" transform="translate(0, 22.88)" d="M6.24 0L6.24-0.48L8.16-0.96L8.16-8.32L1.60-21.44L0-21.92L0-22.40L4-22.40Q5.66-22.40 6.67-21.70Q7.68-20.99 8.32-19.68L8.32-19.68L13.06-10.24L17.92-20.96L15.52-21.92L15.52-22.40L21.60-22.40L21.60-21.92L19.04-20.96L13.44-8.64L13.44-0.96L15.36-0.48L15.36 0L6.24 0ZM31.20 0.48Q27.10 0.48 24.83-1.78Q22.56-4.03 22.56-8L22.56-8Q22.56-10.59 23.55-12.51Q24.54-14.43 26.32-15.46Q28.10-16.48 30.40-16.48L30.40-16.48Q32.70-16.48 34.45-15.62Q36.19-14.75 37.14-13.30Q38.08-11.84 38.08-10.08L38.08-10.08Q38.08-9.28 37.92-8.70L37.92-8.70L37.76-8.16Q36.38-7.87 34.78-7.68L34.78-7.68Q31.42-7.20 28-7.20L28-7.20Q28-3.49 29.02-1.90Q30.05-0.32 31.84-0.32L31.84-0.32Q33.09-0.32 34.16-0.91Q35.23-1.50 35.86-2.48Q36.48-3.46 36.48-4.48L36.48-4.48L37.28-4.48Q37.28-3.20 36.51-2.05Q35.74-0.90 34.37-0.21Q32.99 0.48 31.20 0.48L31.20 0.48ZM28-8Q30.05-8 31.33-8.16L31.33-8.16Q31.87-8.19 32.48-8.32L32.48-8.32Q32.51-8.48 32.64-9.02L32.64-9.02Q32.80-9.82 32.80-10.72L32.80-10.72Q32.80-13.38 32.10-14.61Q31.39-15.84 30.40-15.84L30.40-15.84Q28-15.84 28-8L28-8ZM48 0.48Q46.02 0.48 44.45-0.38L44.45-0.38Q43.68-0.80 43.20-1.28L43.20-1.28Q42.69-0.58 42.08-0.19L42.08-0.19Q41.79 0 41.44 0.16L41.44 0.16L40.64 0.16L40.64-5.28L41.92-5.28Q42.34-3.94 43.14-2.78L43.14-2.78Q44.83-0.32 47.36-0.32L47.36-0.32Q48.70-0.32 49.39-0.98Q50.08-1.63 50.08-2.88L50.08-2.88Q50.08-3.94 49.14-4.66Q48.19-5.38 46.18-6.43L46.18-6.43Q44.45-7.30 43.38-7.98Q42.30-8.67 41.55-9.71Q40.80-10.75 40.80-12.16L40.80-12.16Q40.80-14.08 42.45-15.28Q44.10-16.48 47.52-16.48L47.52-16.48Q49.22-16.48 50.66-15.58L50.66-15.58Q51.36-15.17 51.87-14.72L51.87-14.72Q52.29-15.30 52.99-15.81L52.99-15.81Q53.54-16.13 53.63-16.16L53.63-16.16L54.43-16.16L54.43-10.72L53.15-10.72Q52.67-12.10 51.97-13.18L51.97-13.18Q50.37-15.68 48.16-15.68L48.16-15.68Q47.30-15.68 46.69-15.04Q46.08-14.40 46.08-13.44L46.08-13.44Q46.08-12.22 47.10-11.41Q48.13-10.59 50.21-9.54L50.21-9.54Q51.90-8.67 52.91-8.02Q53.92-7.36 54.64-6.40Q55.36-5.44 55.36-4.16L55.36-4.16Q55.36 0.48 48 0.48L48 0.48ZM66.40 0.48Q62.30 0.48 60.03-1.78Q57.76-4.03 57.76-8L57.76-8Q57.76-10.59 58.75-12.51Q59.74-14.43 61.52-15.46Q63.30-16.48 65.60-16.48L65.60-16.48Q67.90-16.48 69.65-15.62Q71.39-14.75 72.34-13.30Q73.28-11.84 73.28-10.08L73.28-10.08Q73.28-9.28 73.12-8.70L73.12-8.70L72.96-8.16Q71.58-7.87 69.98-7.68L69.98-7.68Q66.62-7.20 63.20-7.20L63.20-7.20Q63.20-3.49 64.22-1.90Q65.25-0.32 67.04-0.32L67.04-0.32Q68.29-0.32 69.36-0.91Q70.43-1.50 71.06-2.48Q71.68-3.46 71.68-4.48L71.68-4.48L72.48-4.48Q72.48-3.20 71.71-2.05Q70.94-0.90 69.57-0.21Q68.19 0.48 66.40 0.48L66.40 0.48ZM63.20-8Q65.25-8 66.53-8.16L66.53-8.16Q67.07-8.19 67.68-8.32L67.68-8.32Q67.71-8.48 67.84-9.02L67.84-9.02Q68-9.82 68-10.72L68-10.72Q68-13.38 67.30-14.61Q66.59-15.84 65.60-15.84L65.60-15.84Q63.20-15.84 63.20-8L63.20-8ZM83.36 0.32L75.36-15.04L73.76-15.52L73.76-16L77.76-16Q79.42-16 80.40-15.31Q81.38-14.62 82.08-13.28L82.08-13.28L85.89-5.89L89.44-14.56L87.04-15.52L87.04-16L92.96-16L92.96-15.52L90.40-14.56L84.32 0.32L83.36 0.32ZM99.84 0.48Q96.99 0.48 95.46-0.74Q93.92-1.95 93.92-3.84L93.92-3.84Q93.92-5.09 94.46-6.30L94.46-6.30Q94.69-6.88 95.04-7.36L95.04-7.36Q96.35-7.68 97.89-7.94L97.89-7.94Q101.34-8.51 104-8.64L104-8.64L104-9.60Q104-13.15 103.14-14.50Q102.27-15.84 100.48-15.84L100.48-15.84Q99.81-15.84 99.33-15.68L99.33-15.68L98.88-15.52L98.88-10.72L98.46-10.62Q97.95-10.56 97.60-10.56L97.60-10.56Q96.51-10.56 95.86-11.22Q95.20-11.87 95.20-12.96L95.20-12.96Q95.20-14.43 96.69-15.46Q98.18-16.48 101.12-16.48L101.12-16.48Q103.62-16.48 105.42-15.60Q107.23-14.72 108.18-13.17Q109.12-11.62 109.12-9.60L109.12-9.60L109.12-0.96L111.04-0.48L111.04 0L108.16 0Q106.24 0 105.18-1.18L105.18-1.18Q104.74-1.66 104.48-2.40L104.48-2.40Q104.03-1.60 103.42-0.96L103.42-0.96Q101.98 0.48 99.84 0.48L99.84 0.48ZM101.12-0.64Q102.30-0.64 103.26-1.92L103.26-1.92Q103.62-2.40 104-3.20L104-3.20L104-7.84Q102.53-7.84 101.18-7.68L101.18-7.68Q100.19-7.55 99.84-7.52L99.84-7.52Q99.68-7.17 99.52-6.56L99.52-6.56Q99.20-5.34 99.20-4.16L99.20-4.16Q99.20-2.37 99.74-1.50Q100.29-0.64 101.12-0.64L101.12-0.64ZM132.48 0.48Q129.34 0.48 126.99-0.88Q124.64-2.24 123.36-4.86Q122.08-7.49 122.08-11.20L122.08-11.20Q122.08-14.91 123.36-17.54Q124.64-20.16 126.99-21.52Q129.34-22.88 132.48-22.88L132.48-22.88Q135.62-22.88 137.97-21.52Q140.32-20.16 141.60-17.54Q142.88-14.91 142.88-11.20L142.88-11.20Q142.88-7.49 141.60-4.86Q140.32-2.24 137.97-0.88Q135.62 0.48 132.48 0.48L132.48 0.48ZM132.48-0.16Q133.73-0.16 134.80-1.22Q135.87-2.27 136.58-4.74Q137.28-7.20 137.28-11.20L137.28-11.20Q137.28-15.20 136.58-17.66Q135.87-20.13 134.80-21.18Q133.73-22.24 132.48-22.24L132.48-22.24Q131.23-22.24 130.16-21.18Q129.09-20.13 128.38-17.66Q127.68-15.20 127.68-11.20L127.68-11.20Q127.68-7.20 128.38-4.74Q129.09-2.27 130.16-1.22Q131.23-0.16 132.48-0.16L132.48-0.16ZM145.60 0L145.60-0.48L147.52-0.96L147.52-15.04L145.60-15.52L145.60-16L148.48-16Q150.37-16 151.46-14.78L151.46-14.78Q151.87-14.30 152.16-13.60L152.16-13.60Q152.61-14.43 153.22-15.04L153.22-15.04Q154.66-16.48 156.80-16.48L156.80-16.48Q158.59-16.48 160.02-15.73Q161.44-14.98 162.24-13.76Q163.04-12.54 163.04-11.20L163.04-11.20L163.04-0.96L164.96-0.48L164.96 0L160.80 0Q157.92 0 157.92-2.88L157.92-2.88L157.92-11.20Q157.92-13.22 157.20-14.29Q156.48-15.36 155.52-15.36L155.52-15.36Q154.30-15.36 153.34-14.08L153.34-14.08Q152.93-13.54 152.64-12.80L152.64-12.80L152.64-0.96L154.56-0.48L154.56 0L145.60 0ZM175.52 0.48Q171.42 0.48 169.15-1.78Q166.88-4.03 166.88-8L166.88-8Q166.88-10.59 167.87-12.51Q168.86-14.43 170.64-15.46Q172.42-16.48 174.72-16.48L174.72-16.48Q177.02-16.48 178.77-15.62Q180.51-14.75 181.46-13.30Q182.40-11.84 182.40-10.08L182.40-10.08Q182.40-9.28 182.24-8.70L182.24-8.70L182.08-8.16Q180.70-7.87 179.10-7.68L179.10-7.68Q175.74-7.20 172.32-7.20L172.32-7.20Q172.32-3.49 173.34-1.90Q174.37-0.32 176.16-0.32L176.16-0.32Q177.41-0.32 178.48-0.91Q179.55-1.50 180.18-2.48Q180.80-3.46 180.80-4.48L180.80-4.48L181.60-4.48Q181.60-3.20 180.83-2.05Q180.06-0.90 178.69-0.21Q177.31 0.48 175.52 0.48L175.52 0.48ZM172.32-8Q174.37-8 175.65-8.16L175.65-8.16Q176.19-8.19 176.80-8.32L176.80-8.32Q176.83-8.48 176.96-9.02L176.96-9.02Q177.12-9.82 177.12-10.72L177.12-10.72Q177.12-13.38 176.42-14.61Q175.71-15.84 174.72-15.84L174.72-15.84Q172.32-15.84 172.32-8L172.32-8Z"/></svg>