<svg id="mainsvg" xmlns="http://www.w3.org/2000/svg" xmlns:xlink="http://www.w3.org/1999/xlink" version="1.1" x="0px" y="0px" enable-background="new 0 0 200 162.5" xml:space="preserve" viewBox="0 0 157 23"><path fill="#000" transform="translate(-0.736, 22.752)" d="M8.32 0.10L8.32 0.10L8.32-3.10Q8.77-3.10 9.30-3.36Q9.82-3.62 10.30-4.05Q10.78-4.48 11.10-5.07Q11.42-5.66 11.42-6.40L11.42-6.40Q11.42-7.39 10.86-8.08Q10.30-8.77 9.46-9.22Q8.61-9.66 7.70-9.95Q6.78-10.24 6.03-10.43Q5.28-10.62 4.93-10.72L4.93-10.72Q3.94-11.07 3.02-11.78Q2.11-12.48 1.55-13.62Q0.99-14.75 0.99-16.29L0.99-16.29Q0.99-17.98 1.63-19.14Q2.27-20.29 3.20-21.01Q4.13-21.73 5.09-22.06Q6.05-22.40 6.66-22.40L6.66-22.40L6.66-19.17Q6.37-19.10 5.95-18.91Q5.54-18.72 5.17-18.35Q4.80-17.98 4.54-17.49Q4.29-16.99 4.29-16.32L4.29-16.32Q4.29-15.55 4.70-15.02Q5.12-14.50 5.81-14.14Q6.50-13.79 7.34-13.50Q8.19-13.22 9.09-12.94Q9.98-12.67 10.75-12.29L10.75-12.29Q11.81-11.84 12.74-11.12Q13.66-10.40 14.26-9.33Q14.85-8.26 14.85-6.66L14.85-6.66Q14.85-4.86 13.95-3.33Q13.06-1.79 11.57-0.85Q10.08 0.10 8.32 0.10ZM6.66-3.10L6.66 0.10Q5.31 0.10 4.24-0.45Q3.17-0.99 2.38-1.82Q1.60-2.66 1.17-3.52Q0.74-4.38 0.74-5.06L0.74-5.06L3.87-6.14Q3.97-5.25 4.43-4.59Q4.90-3.94 5.50-3.58Q6.11-3.23 6.66-3.10L6.66-3.10ZM13.95-17.70L10.78-16.64Q10.66-17.47 10.22-18Q9.79-18.53 9.28-18.82Q8.77-19.10 8.32-19.17L8.32-19.17L8.32-22.40Q9.60-22.40 10.62-21.89Q11.65-21.38 12.38-20.61Q13.12-19.84 13.52-19.04Q13.92-18.24 13.95-17.70L13.95-17.70ZM25.02 0L23.55 0Q21.47 0 20.34-0.72Q19.20-1.44 18.75-2.72Q18.30-4 18.30-5.73L18.30-5.73L18.30-14.37L16.13-14.37L16.13-17.54L18.30-17.54L18.30-22.75L21.60-22.75L21.60-17.54L23.68-17.54L23.68-14.34L21.60-14.34L21.60-5.44Q21.60-4.61 22-3.98Q22.40-3.36 23.65-3.36L23.65-3.36L24.26-3.36L25.02 0ZM30.27 0L26.98 0L26.98-17.50L30.27-17.50L30.27 0ZM28.58-18.98L28.58-18.98Q27.84-18.98 27.28-19.52Q26.72-20.06 26.72-20.80L26.72-20.80Q26.72-21.54 27.28-22.08Q27.84-22.62 28.58-22.62L28.58-22.62Q29.34-22.62 29.89-22.08Q30.43-21.54 30.43-20.80L30.43-20.80Q30.43-20.06 29.89-19.52Q29.34-18.98 28.58-18.98ZM38.66-3.14L38.66 0Q37.15 0 36.10-0.51Q35.04-1.02 34.40-1.81Q33.76-2.59 33.47-3.41Q33.18-4.22 33.18-4.80L33.18-4.80L33.18-12.86Q33.18-13.54 33.50-14.35Q33.82-15.17 34.50-15.92Q35.17-16.67 36.21-17.17Q37.25-17.66 38.66-17.66L38.66-17.66L38.66-14.53Q37.92-14.53 37.41-14.24Q36.90-13.95 36.66-13.55Q36.42-13.15 36.42-12.80L36.42-12.80L36.42-4.80Q36.42-4.38 36.69-4Q36.96-3.62 37.46-3.38Q37.95-3.14 38.66-3.14L38.66-3.14ZM40.10 0.03L40.10 0.03L40.10-3.14Q40.77-3.14 41.30-3.36Q41.82-3.58 42.14-4.05Q42.46-4.51 42.50-5.22L42.50-5.22L42.50-6.08L45.54-4.90Q45.54-3.58 44.75-2.45Q43.97-1.31 42.72-0.62Q41.47 0.06 40.10 0.03ZM45.15-12.77L42.14-11.62L42.11-12.48Q42.08-13.22 41.79-13.65Q41.50-14.08 41.06-14.29Q40.61-14.50 40.10-14.50L40.10-14.50L40.10-17.66Q41.50-17.66 42.64-16.99Q43.78-16.32 44.46-15.22Q45.15-14.11 45.15-12.77L45.15-12.77ZM61.18 0L57.44 0L51.84-8.86L57.38-17.66L61.15-17.66L55.52-8.86L61.18 0ZM50.98 0L47.58 0L47.58-22.72L50.98-22.72L50.98 0ZM84.86 0L83.20 0L70.62-20.16L70.62-22.40L73.50-22.40L84.86-4.16L84.86 0ZM74.08 0L70.62 0L70.62-16.83L70.88-16.83L74.08-11.71L74.08 0ZM84.86-7.52L84.61-7.52L81.41-12.67L81.41-22.40L84.86-22.40L84.86-7.52ZM93.02-3.17L93.02 0.03Q91.81 0.03 90.78-0.40Q89.76-0.83 89.01-1.60Q88.26-2.37 87.84-3.34Q87.42-4.32 87.42-5.41L87.42-5.41L87.42-12.10Q87.42-13.18 87.81-14.19Q88.19-15.20 88.93-15.98Q89.66-16.77 90.69-17.22Q91.71-17.66 93.02-17.66L93.02-17.66L93.02-14.50Q92.26-14.50 91.74-14.11Q91.23-13.73 90.96-13.14Q90.69-12.54 90.69-11.84L90.69-11.84L90.69-5.66Q90.69-5.06 90.98-4.48Q91.26-3.90 91.79-3.54Q92.32-3.17 93.02-3.17L93.02-3.17ZM94.53 0.03L94.53 0.03L94.53-3.17Q95.23-3.17 95.74-3.54Q96.26-3.90 96.53-4.46Q96.80-5.02 96.80-5.63L96.80-5.63L96.80-11.84Q96.80-12.51 96.54-13.12Q96.29-13.73 95.76-14.11Q95.23-14.50 94.53-14.50L94.53-14.50L94.53-17.66Q95.81-17.66 96.83-17.22Q97.86-16.77 98.58-15.98Q99.30-15.20 99.68-14.19Q100.06-13.18 100.06-12.10L100.06-12.10L100.06-5.41Q100.06-4.32 99.65-3.33Q99.23-2.34 98.48-1.58Q97.73-0.83 96.72-0.40Q95.71 0.03 94.53 0.03ZM116.61 0L114.66 0L114.66-3.04L115.78-3.04Q116.90-3.04 117.66-3.34Q118.43-3.65 118.93-4.18Q119.42-4.70 119.65-5.34Q119.87-5.98 119.87-6.59L119.87-6.59Q119.87-7.84 119.07-8.78Q118.27-9.73 116.51-9.73L116.51-9.73L114.66-9.73L114.66-12.74L116.51-12.74Q117.73-12.74 118.45-13.17Q119.17-13.60 119.50-14.30Q119.84-15.01 119.84-15.84L119.84-15.84Q119.84-16.67 119.44-17.47Q119.04-18.27 118.22-18.82Q117.41-19.36 116.13-19.36L116.13-19.36L114.66-19.36L114.66-22.40L116.54-22.40Q118.34-22.40 119.62-21.84Q120.90-21.28 121.70-20.35Q122.50-19.42 122.88-18.30Q123.26-17.18 123.26-16.06L123.26-16.06Q123.26-14.53 122.66-13.25Q122.05-11.97 121.06-11.23L121.06-11.23Q121.73-10.72 122.22-10Q122.72-9.28 123.01-8.37Q123.30-7.46 123.30-6.37L123.30-6.37Q123.30-4.70 122.54-3.25Q121.79-1.79 120.30-0.90Q118.82 0 116.61 0L116.61 0ZM112.99 0L109.57 0L109.57-22.40L112.99-22.40L112.99 0ZM129.44 0L126.14 0L126.14-17.50L129.44-17.50L129.44 0ZM127.74-18.98L127.74-18.98Q127.01-18.98 126.45-19.52Q125.89-20.06 125.89-20.80L125.89-20.80Q125.89-21.54 126.45-22.08Q127.01-22.62 127.74-22.62L127.74-22.62Q128.51-22.62 129.06-22.08Q129.60-21.54 129.60-20.80L129.60-20.80Q129.60-20.06 129.06-19.52Q128.51-18.98 127.74-18.98ZM135.97 0L132.45 0L132.45-22.72L135.97-22.72L135.97 0ZM142.18 0L138.66 0L138.66-22.72L142.18-22.72L142.18 0ZM151.14 0.16L151.14 0.16L151.14-2.94Q151.68-2.94 152.30-3.18Q152.93-3.42 153.38-3.92Q153.82-4.42 153.82-5.18L153.82-5.18Q153.82-5.89 153.18-6.34Q152.54-6.78 151.57-7.07Q150.59-7.36 149.47-7.63Q148.35-7.90 147.39-8.22L147.39-8.22Q146.75-8.48 146.05-8.99Q145.34-9.50 144.83-10.37Q144.32-11.23 144.32-12.54L144.32-12.54Q144.32-14.05 144.88-15.06Q145.44-16.06 146.29-16.67Q147.14-17.28 148.05-17.54Q148.96-17.79 149.66-17.79L149.66-17.79L149.66-14.72Q148.93-14.72 148.42-14.43Q147.90-14.14 147.65-13.70Q147.39-13.25 147.39-12.77L147.39-12.77Q147.39-12.06 148.05-11.58Q148.70-11.10 150.03-10.70Q151.36-10.30 153.44-9.79L153.44-9.79Q153.98-9.70 154.59-9.38Q155.20-9.06 155.74-8.54Q156.29-8.03 156.64-7.25Q156.99-6.46 156.99-5.38L156.99-5.38Q156.99-3.65 156.21-2.40Q155.42-1.15 154.08-0.50Q152.74 0.16 151.14 0.16ZM149.73-2.94L149.73 0.16Q147.84 0.16 146.61-0.58Q145.38-1.31 144.77-2.43Q144.16-3.55 144.16-4.64L144.16-4.64L147.23-5.22Q147.23-4.54 147.63-4.05Q148.03-3.55 148.61-3.26Q149.18-2.98 149.73-2.94L149.73-2.94ZM156.67-12.90L153.63-12.38Q153.63-13.31 153.14-13.81Q152.64-14.30 152.02-14.51Q151.39-14.72 151.07-14.72L151.07-14.72L151.10-17.79Q152.77-17.79 154.02-17.04Q155.26-16.29 155.97-15.17Q156.67-14.05 156.67-12.90L156.67-12.90Z"/></svg>