<svg id="mainsvg" xmlns="http://www.w3.org/2000/svg" xmlns:xlink="http://www.w3.org/1999/xlink" version="1.1" x="0px" y="0px" enable-background="new 0 0 200 162.5" xml:space="preserve" viewBox="0 0 204 31"><path fill="#000" transform="translate(-1.125, 22.8125)" d="M1.13 0L1.13-0.06Q1.30-0.31 1.52-0.80Q1.73-1.30 1.86-2.05L1.86-2.05Q2.03-3.14 2.24-4.51Q2.45-5.88 2.68-7.38Q2.91-8.88 3.13-10.45Q3.36-12.02 3.57-13.54Q3.78-15.06 3.98-16.48Q4.17-17.89 4.33-19.06Q4.48-20.23 4.59-21.10Q4.69-21.97 4.73-22.41L4.73-22.41L6.72-22.41L16.55-4.03L26.30-22.41L27.78-22.41L30.34-3.84Q30.45-2.97 30.58-2.34Q30.70-1.72 30.83-1.27Q30.95-0.83 31.07-0.54Q31.19-0.25 31.30-0.06L31.30-0.06L31.30 0L27.36 0L27.36-0.06Q27.44-0.23 27.51-0.63Q27.58-1.02 27.58-1.56L27.58-1.56Q27.58-1.77 27.56-1.98Q27.55-2.19 27.52-2.44L27.52-2.44L25.53-17.41L16.31-0.06L15.23-0.19L5.95-17.56Q5.41-13.86 5-10.72L5-10.72Q4.83-9.38 4.66-8.04Q4.48-6.70 4.35-5.55Q4.22-4.39 4.14-3.51Q4.06-2.63 4.06-2.20L4.06-2.20Q4.06-1.67 4.09-1.27Q4.13-0.86 4.16-0.58L4.16-0.58Q4.20-0.25 4.25 0L4.25 0L1.13 0ZM45.44-4.03L44.83-5.28Q44.41-5.28 43.77-5.28Q43.14-5.28 42.39-5.28Q41.64-5.28 40.84-5.28Q40.05-5.28 39.33-5.27Q38.61-5.27 38.02-5.26Q37.42-5.25 37.09-5.25L37.09-5.25L36.52-4.03Q36.14-3.28 35.88-2.73Q35.61-2.17 35.44-1.75Q35.27-1.33 35.19-1.02Q35.11-0.72 35.11-0.45L35.11-0.45Q35.11-0.28 35.13-0.20Q35.14-0.11 35.17-0.06L35.17-0.06L35.17 0L32.42 0L32.42-0.06Q32.53-0.17 32.77-0.54Q33-0.91 33.30-1.44Q33.61-1.97 33.96-2.64Q34.31-3.31 34.66-4.03L34.66-4.03L41.03-17.19L42.20-17.19L48.45-4.03Q48.81-3.28 49.18-2.59Q49.55-1.91 49.86-1.37Q50.17-0.83 50.41-0.48Q50.64-0.13 50.72-0.06L50.72-0.06L50.72 0L46.72 0Q46.75-0.13 46.75-0.23Q46.75-0.33 46.75-0.45L46.75-0.45Q46.75-0.80 46.60-1.28Q46.45-1.77 46.24-2.27Q46.03-2.78 45.80-3.25Q45.58-3.72 45.44-4.03L45.44-4.03ZM41.03-13.44L37.70-6.50L38.66-6.50Q39.31-6.50 40.05-6.51Q40.80-6.52 41.55-6.52Q42.30-6.52 43-6.52Q43.70-6.53 44.27-6.53L44.27-6.53L41.03-13.44ZM55.78-15.72L55.78-8.16Q56.09-8.11 56.41-8.09Q56.73-8.06 57.03-8.06L57.03-8.06Q58.98-8.06 59.99-9.11Q61-10.16 61-12.25L61-12.25Q61-13.97 60.20-14.97Q59.39-15.97 57.83-15.97L57.83-15.97Q57.33-15.97 56.95-15.93Q56.56-15.89 56.30-15.84L56.30-15.84Q56-15.78 55.78-15.72L55.78-15.72ZM61.47-2.50L58.17-7.14Q57.86-7.09 57.55-7.09Q57.25-7.08 56.94-7.08L56.94-7.08Q56.69-7.08 56.39-7.09Q56.09-7.11 55.78-7.14L55.78-7.14L55.78-6.38Q55.78-4.98 55.81-3.95Q55.84-2.91 55.90-2.16Q55.95-1.41 56.03-0.90Q56.11-0.39 56.22-0.06L56.22-0.06L56.22 0L52.61 0L52.61-0.06Q52.72-0.39 52.80-0.91Q52.89-1.42 52.95-2.18Q53-2.94 53.03-3.98Q53.06-5.03 53.06-6.44L53.06-6.44L53.06-10.38Q53.06-11.78 53.03-12.82Q53-13.86 52.95-14.62Q52.89-15.38 52.80-15.89Q52.72-16.41 52.61-16.73L52.61-16.73L52.61-16.80Q52.86-16.78 53.14-16.77L53.14-16.77Q53.38-16.75 53.66-16.74Q53.95-16.73 54.25-16.73L54.25-16.73Q54.75-16.73 55.73-16.83Q56.72-16.92 58.05-16.92L58.05-16.92Q59.39-16.92 60.49-16.59Q61.59-16.27 62.38-15.66Q63.17-15.05 63.60-14.17Q64.03-13.30 64.03-12.22L64.03-12.22Q64.03-11.38 63.80-10.68Q63.56-9.98 63.14-9.43Q62.72-8.88 62.14-8.45Q61.56-8.03 60.86-7.72L60.86-7.72L64.13-3.11Q64.55-2.55 64.98-2.03Q65.41-1.52 65.80-1.11Q66.19-0.70 66.53-0.43Q66.88-0.16 67.11-0.06L67.11-0.06L67.11 0L63.02 0Q63.02-0.14 62.82-0.49Q62.63-0.84 62.37-1.23Q62.11-1.61 61.85-1.97Q61.59-2.33 61.47-2.50L61.47-2.50ZM82.50-3.58L82.69-3.48L81.47-0.58Q81.02-0.38 80.45-0.21Q79.88-0.05 79.27 0.06Q78.66 0.17 78.02 0.23Q77.39 0.28 76.83 0.28L76.83 0.28Q74.86 0.28 73.18-0.30Q71.50-0.88 70.28-1.99Q69.06-3.11 68.38-4.73Q67.69-6.36 67.69-8.45L67.69-8.45Q67.69-10.30 68.41-11.88Q69.13-13.45 70.39-14.62Q71.66-15.78 73.38-16.44Q75.11-17.09 77.13-17.09L77.13-17.09Q77.58-17.09 78.09-17.05Q78.59-17.02 79.09-16.94Q79.59-16.86 80.06-16.76Q80.53-16.66 80.94-16.55L80.94-16.55L82.11-13.73L81.92-13.63Q81.50-14.14 80.91-14.58Q80.33-15.02 79.63-15.32Q78.94-15.63 78.17-15.80Q77.41-15.97 76.61-15.97L76.61-15.97Q75.31-15.97 74.24-15.52Q73.17-15.06 72.41-14.20Q71.66-13.33 71.23-12.08Q70.81-10.83 70.81-9.25L70.81-9.25Q70.81-7.47 71.22-5.93Q71.63-4.39 72.44-3.26Q73.25-2.13 74.47-1.48Q75.69-0.83 77.31-0.83L77.31-0.83Q78.09-0.83 78.85-1.02Q79.61-1.22 80.29-1.58Q80.97-1.94 81.53-2.45Q82.09-2.95 82.50-3.58L82.50-3.58ZM85.22-16.80L85.22-16.80Q86.75-16.80 88.36-16.80Q89.97-16.81 91.34-16.84Q92.72-16.86 93.71-16.89Q94.70-16.92 95.02-16.98L95.02-16.98L94.41-15.30Q93.98-15.41 93.45-15.50L93.45-15.50Q92.98-15.58 92.32-15.65Q91.66-15.72 90.78-15.72L90.78-15.72Q90.47-15.72 90.06-15.70Q89.66-15.67 89.28-15.64L89.28-15.64Q88.84-15.61 88.39-15.58L88.39-15.58L88.39-9.41Q89.66-9.42 90.67-9.47Q91.69-9.52 92.41-9.59L92.41-9.59Q93.25-9.66 93.89-9.77L93.89-9.77L93.52-7.91Q92.66-8.02 91.78-8.09L91.78-8.09Q91.03-8.17 90.13-8.23Q89.22-8.28 88.39-8.28L88.39-8.28L88.39-1.19Q89.84-1.19 91.06-1.30Q92.28-1.42 93.19-1.56L93.19-1.56Q94.25-1.73 95.11-1.95L95.11-1.95L94.75 0.09Q94.52 0.08 93.99 0.05Q93.47 0.03 92.90 0.02Q92.33 0.02 91.83 0.01Q91.33 0 91.14 0L91.14 0L85.22 0L85.22-0.06Q85.33-0.39 85.41-0.91Q85.50-1.42 85.55-2.18Q85.61-2.94 85.64-3.98Q85.67-5.03 85.67-6.44L85.67-6.44L85.67-10.38Q85.67-11.78 85.64-12.82Q85.61-13.86 85.55-14.62Q85.50-15.38 85.41-15.89Q85.33-16.41 85.22-16.73L85.22-16.73L85.22-16.80ZM101.77-10.38L101.77-1.22Q103.22-1.22 104.45-1.34Q105.67-1.45 106.59-1.59L106.59-1.59Q107.67-1.77 108.55-1.98L108.55-1.98L108.19 0.09Q107.97 0.08 107.45 0.05Q106.92 0.03 106.34 0.02Q105.77 0.02 105.27 0.01Q104.77 0 104.58 0L104.58 0L98.59 0L98.59-0.06Q98.70-0.39 98.79-0.91Q98.88-1.42 98.93-2.18Q98.98-2.94 99.02-3.98Q99.05-5.03 99.05-6.44L99.05-6.44L99.05-10.38Q99.05-11.78 99.02-12.82Q98.98-13.86 98.93-14.62Q98.88-15.38 98.79-15.89Q98.70-16.41 98.59-16.73L98.59-16.73L98.59-16.80L102.20-16.80L102.20-16.73Q102.09-16.41 102.02-15.89Q101.94-15.38 101.88-14.62Q101.83-13.86 101.80-12.82Q101.77-11.78 101.77-10.38L101.77-10.38ZM114.41-10.38L114.41-1.22Q115.86-1.22 117.09-1.34Q118.31-1.45 119.23-1.59L119.23-1.59Q120.31-1.77 121.19-1.98L121.19-1.98L120.83 0.09Q120.61 0.08 120.09 0.05Q119.56 0.03 118.98 0.02Q118.41 0.02 117.91 0.01Q117.41 0 117.22 0L117.22 0L111.23 0L111.23-0.06Q111.34-0.39 111.43-0.91Q111.52-1.42 111.57-2.18Q111.63-2.94 111.66-3.98Q111.69-5.03 111.69-6.44L111.69-6.44L111.69-10.38Q111.69-11.78 111.66-12.82Q111.63-13.86 111.57-14.62Q111.52-15.38 111.43-15.89Q111.34-16.41 111.23-16.73L111.23-16.73L111.23-16.80L114.84-16.80L114.84-16.73Q114.73-16.41 114.66-15.89Q114.58-15.38 114.52-14.62Q114.47-13.86 114.44-12.82Q114.41-11.78 114.41-10.38L114.41-10.38ZM136.73-5.77L136.73-10.44Q136.73-11.83 136.72-12.86Q136.70-13.89 136.66-14.64Q136.61-15.39 136.55-15.90Q136.48-16.41 136.39-16.73L136.39-16.73L136.39-16.80L138.69-16.80L138.69-16.73Q138.59-16.41 138.53-15.89Q138.47-15.38 138.42-14.62Q138.38-13.86 138.36-12.82Q138.34-11.78 138.34-10.38L138.34-10.38L138.34-5.89Q138.34-4.20 137.82-3.02Q137.30-1.83 136.38-1.07Q135.45-0.31 134.18 0.04Q132.91 0.39 131.39 0.39L131.39 0.39Q129.86 0.39 128.55 0.05Q127.23-0.28 126.27-1.02Q125.31-1.75 124.76-2.92Q124.20-4.09 124.20-5.77L124.20-5.77L124.20-10.38Q124.20-11.78 124.17-12.82Q124.14-13.86 124.08-14.62Q124.02-15.38 123.94-15.89Q123.86-16.41 123.75-16.73L123.75-16.73L123.75-16.80L127.36-16.80L127.36-16.73Q127.25-16.41 127.17-15.90Q127.09-15.39 127.04-14.64Q126.98-13.89 126.95-12.86Q126.92-11.83 126.92-10.44L126.92-10.44L126.92-5.77Q126.92-4.38 127.34-3.48Q127.77-2.58 128.45-2.05Q129.14-1.52 130.02-1.30Q130.89-1.09 131.81-1.09L131.81-1.09Q132.75-1.09 133.63-1.30Q134.52-1.52 135.21-2.05Q135.91-2.58 136.32-3.48Q136.73-4.38 136.73-5.77L136.73-5.77ZM150.44-16.19L150.36-13.53L150.05-13.53Q149.95-13.80 149.74-14.20Q149.53-14.61 149.18-15Q148.83-15.39 148.31-15.66Q147.80-15.94 147.08-15.94L147.08-15.94Q146.53-15.94 146.10-15.76Q145.67-15.58 145.38-15.27Q145.08-14.95 144.92-14.52Q144.77-14.09 144.77-13.59L144.77-13.59Q144.77-12.78 145.26-12.05Q145.75-11.31 146.48-10.59Q147.22-9.86 148.08-9.13Q148.94-8.39 149.67-7.59Q150.41-6.80 150.90-5.91Q151.39-5.02 151.39-4L151.39-4Q151.39-3.25 151.12-2.45Q150.84-1.66 150.23-1.02Q149.63-0.38 148.67 0.04Q147.72 0.45 146.36 0.45L146.36 0.45Q145.61 0.45 144.93 0.33Q144.25 0.20 143.68 0.02Q143.11-0.16 142.66-0.37Q142.22-0.58 141.92-0.77L141.92-0.77L142.20-3.72L142.53-3.72Q142.69-3.17 142.99-2.63Q143.30-2.08 143.74-1.63Q144.19-1.19 144.79-0.91Q145.39-0.64 146.17-0.64L146.17-0.64Q146.72-0.64 147.20-0.82Q147.69-1 148.04-1.33Q148.39-1.66 148.59-2.13Q148.80-2.61 148.80-3.20L148.80-3.20Q148.80-3.91 148.52-4.51Q148.23-5.11 147.77-5.66Q147.30-6.22 146.71-6.73Q146.13-7.25 145.50-7.78Q144.88-8.31 144.29-8.87Q143.70-9.42 143.23-10.06Q142.77-10.70 142.48-11.43Q142.20-12.16 142.20-13.03L142.20-13.03Q142.20-13.95 142.59-14.69Q142.98-15.42 143.63-15.93Q144.27-16.44 145.09-16.71Q145.92-16.98 146.81-16.98L146.81-16.98Q147.47-16.98 148.04-16.89Q148.61-16.80 149.07-16.66Q149.53-16.53 149.88-16.40Q150.22-16.27 150.44-16.19L150.44-16.19ZM152.61 7.55L152.61 5.70L168.61 5.70L168.61 7.55L152.61 7.55ZM180.30-21.77L180.19-18.84L179.84-18.84Q179.72-19.20 179.45-19.66Q179.17-20.11 178.73-20.51Q178.28-20.91 177.65-21.17Q177.02-21.44 176.16-21.44L176.16-21.44Q175.39-21.44 174.80-21.20Q174.20-20.97 173.80-20.55Q173.41-20.13 173.20-19.55Q173-18.97 173-18.27L173-18.27Q173-17.14 173.63-16.12Q174.27-15.09 175.22-14.09Q176.17-13.09 177.28-12.09Q178.39-11.09 179.34-10.02Q180.30-8.94 180.93-7.76Q181.56-6.58 181.56-5.22L181.56-5.22Q181.56-4.20 181.21-3.18Q180.86-2.16 180.13-1.34Q179.39-0.53 178.23-0.02Q177.08 0.48 175.48 0.48L175.48 0.48Q174.59 0.48 173.79 0.32Q172.98 0.16 172.30-0.09Q171.63-0.33 171.09-0.61Q170.55-0.89 170.20-1.13L170.20-1.13L170.56-4.58L170.95-4.58Q171.13-3.84 171.52-3.18Q171.91-2.52 172.48-2.01Q173.05-1.50 173.78-1.20Q174.52-0.89 175.39-0.89L175.39-0.89Q176.19-0.89 176.82-1.13Q177.45-1.38 177.91-1.80Q178.36-2.23 178.60-2.83Q178.84-3.42 178.84-4.13L178.84-4.13Q178.84-5.11 178.48-5.95Q178.13-6.78 177.54-7.53Q176.95-8.28 176.21-8.98Q175.47-9.69 174.69-10.40Q173.91-11.11 173.16-11.86Q172.42-12.61 171.84-13.46Q171.25-14.31 170.89-15.29Q170.53-16.27 170.53-17.44L170.53-17.44Q170.53-18.67 171.01-19.66Q171.48-20.66 172.27-21.36Q173.06-22.06 174.06-22.44Q175.06-22.81 176.13-22.81L176.13-22.81Q176.91-22.81 177.56-22.69Q178.22-22.56 178.74-22.39Q179.27-22.22 179.66-22.05Q180.05-21.88 180.30-21.77L180.30-21.77ZM202.47-21.86L203.53-18.97L203.39-18.91Q202.17-20.03 200.46-20.70Q198.75-21.38 196.70-21.38L196.70-21.38Q194.73-21.38 193.09-20.76Q191.45-20.14 190.27-18.97Q189.09-17.80 188.44-16.09Q187.78-14.39 187.78-12.22L187.78-12.22Q187.78-9.83 188.41-7.76Q189.03-5.69 190.27-4.17Q191.50-2.66 193.35-1.79Q195.20-0.92 197.67-0.92L197.67-0.92Q198.56-0.92 199.45-1.11Q200.34-1.30 201.16-1.66Q201.98-2.03 202.71-2.55Q203.44-3.08 204.03-3.75L204.03-3.75L204.20-3.64L202.95-0.45Q201.78 0 200.37 0.24Q198.95 0.48 197.52 0.48L197.52 0.48Q194.63 0.48 192.23-0.35Q189.83-1.19 188.10-2.72Q186.38-4.25 185.41-6.40Q184.45-8.55 184.45-11.17L184.45-11.17Q184.45-12.66 184.84-14.09Q185.22-15.53 185.95-16.83Q186.69-18.13 187.77-19.21Q188.84-20.30 190.23-21.09Q191.61-21.89 193.27-22.34Q194.94-22.78 196.88-22.78L196.88-22.78Q199.89-22.78 202.47-21.86L202.47-21.86Z"/></svg>