<svg id="mainsvg" xmlns="http://www.w3.org/2000/svg" xmlns:xlink="http://www.w3.org/1999/xlink" version="1.1" x="0px" y="0px" enable-background="new 0 0 200 162.5" xml:space="preserve" viewBox="0 0 224 24"><path fill="#000" transform="translate(-1.4375, 23.015625)" d="M10-20.69L10-22.69Q11.47-22.45 13.06-21.44L13.06-21.44Q13.34-21.25 13.60-21.25Q13.86-21.25 14.09-21.54Q14.33-21.83 14.61-22.20L14.61-22.20L16.02-22.20L16.02-14.63L14.83-14.63Q14.39-15.09 13.89-16.20Q13.39-17.30 13.07-17.95Q12.75-18.59 12.33-19.16L12.33-19.16Q11.38-20.41 10-20.69L10-20.69ZM4.02-0.95L4.02-0.95Q3.44-0.95 3.05-0.02L3.05-0.02L1.47-0.02L1.47-8.19L2.52-8.19Q3.09-7.83 3.60-6.65Q4.11-5.47 4.48-4.73Q4.84-3.98 5.38-3.34L5.38-3.34Q6.61-1.88 8.61-1.69L8.61-1.69L8.61 0.31Q7.16 0.22 6.09-0.20Q5.03-0.61 4.64-0.78Q4.25-0.95 4.02-0.95ZM10 0.31L10-1.69Q11.52-1.86 12.38-2.70Q13.25-3.53 13.25-4.77Q13.25-6 12.74-6.72Q12.23-7.44 11.41-7.98Q10.58-8.53 9.52-8.97Q8.45-9.41 7.34-9.86Q6.23-10.31 5.17-10.84Q4.11-11.36 3.28-12.08L3.28-12.08Q1.44-13.67 1.44-16.13L1.44-16.13Q1.44-18.64 3.28-20.55L3.28-20.55Q5.34-22.66 8.61-22.69L8.61-22.69L8.61-20.69Q7.34-20.56 6.57-19.88Q5.80-19.19 5.80-18.19Q5.80-17.19 6.30-16.53Q6.81-15.88 7.64-15.37Q8.47-14.86 9.53-14.45Q10.59-14.03 11.70-13.59Q12.80-13.14 13.86-12.60Q14.92-12.06 15.75-11.31L15.75-11.31Q17.59-9.64 17.59-7.11L17.59-7.11Q17.59-4.14 15.72-2.13L15.72-2.13Q13.64 0.14 10 0.31L10 0.31ZM24.13-20.98L26.22-21.02L26.22 0.23L26.09 0.23Q23.80 0.23 22.68-0.64Q21.56-1.52 21.56-3.48L21.56-3.48L21.56-13.98L19.48-13.98L19.48-15.23Q19.72-15.48 20.09-15.61Q20.45-15.73 20.83-15.88L20.83-15.88Q21.75-16.22 22-17L22-17Q22.83-19.28 23.30-19.93Q23.77-20.58 24.13-20.98L24.13-20.98ZM27.61 0.23L27.61-1.64Q28.88-1.64 29.39-2.45L29.39-2.45Q29.61-2.81 29.73-3.27Q29.86-3.73 30.02-4.20L30.02-4.20L31.28-3.70Q30.89-1.89 30.31-1.21Q29.73-0.53 29.12-0.22Q28.50 0.09 27.61 0.23L27.61 0.23ZM27.61-13.98L27.61-15.70L30.42-15.70L30.42-13.98L27.61-13.98ZM44.86 0.23L44.86 0.23Q42.50 0.23 41.30-0.84L41.30-0.84L41.30-10.13Q41.30-12.13 41.13-12.72L41.13-12.72Q40.81-13.91 39.84-14.14L39.84-14.14L39.84-16.02Q45.95-15.80 45.95-10.52L45.95-10.52L45.95-3.52Q45.95-1.64 46.83-1.64L46.83-1.64Q47.55-1.64 47.70-3.55L47.70-3.55L48.83-3.27Q48.44-0.63 46.53 0L46.53 0Q45.84 0.23 44.86 0.23ZM39.91-2L39.91-0.52Q39.02 0.23 37.57 0.23Q36.13 0.23 35.17-0.04Q34.22-0.31 33.53-0.84L33.53-0.84Q32.05-2 32.05-4.02L32.05-4.02Q32.05-6.33 34.20-7.67L34.20-7.67Q35.75-8.64 39.91-9.77L39.91-9.77L39.91-8.11Q37.13-7.02 37.13-4.27L37.13-4.27Q37.13-2.47 37.97-1.84L37.97-1.84Q38.27-1.64 38.83-1.64Q39.39-1.64 39.91-2L39.91-2ZM36.61-13.14L36.61-13.14Q37.67-12.66 37.67-11.70L37.67-11.70Q37.67-10.50 36.28-10.13L36.28-10.13Q35.89-10.03 35.50-10.03L35.50-10.03Q34.36-10.03 33.77-10.67Q33.17-11.31 33.17-12.20Q33.17-13.08 33.52-13.71Q33.86-14.34 34.53-14.84L34.53-14.84Q35.98-15.89 38.45-16.02L38.45-16.02L38.45-14.14Q37.22-14.06 36.61-13.14ZM59.09-12.98L59.09-12.98Q58.38-12.98 57.63-11.38L57.63-11.38L57.53-14.36Q58.81-16.02 60.81-16.02L60.81-16.02Q61.98-16.02 62.81-15.16L62.81-15.16Q63.59-14.34 63.59-13.27L63.59-13.27Q63.59-12.13 62.94-11.34L62.94-11.34Q62.25-10.52 61.19-10.52L61.19-10.52Q60.11-10.52 59.55-11.31L59.55-11.31Q59.09-11.98 59.09-12.98ZM49.63-15.70L56-15.70Q56.33-12.02 56.33-7.41L56.33-7.41L56.33-2.78Q56.33-1.95 57.09-1.61L57.09-1.61Q57.44-1.45 57.85-1.33Q58.27-1.20 58.67-1L58.67-1L58.67 0L49.63 0L49.63-1Q49.92-1.20 50.28-1.30Q50.64-1.39 50.95-1.52L50.95-1.52Q51.69-1.81 51.69-2.63L51.69-2.63L51.69-12.98Q51.69-13.84 50.95-14.13L50.95-14.13Q50.64-14.23 50.28-14.31Q49.92-14.39 49.63-14.61L49.63-14.61L49.63-15.70ZM74.81 0L74.61-1.47L74.61-20.02Q74.61-20.84 73.88-21.16L73.88-21.16Q73.56-21.28 73.20-21.37Q72.84-21.45 72.55-21.66L72.55-21.66L72.55-22.73L79.25-22.73L79.25-2.63Q79.25-1.81 79.97-1.52L79.97-1.52Q80.27-1.39 80.59-1.30Q80.91-1.20 81.14-1L81.14-1L81.14 0L74.81 0ZM73.22-1.92L73.22-0.23Q72.28 0.23 70.95 0.23Q69.63 0.23 68.42-0.38Q67.22-1 66.38-2.06L66.38-2.06Q64.58-4.27 64.58-7.56L64.58-7.56Q64.58-11.13 66.66-13.63L66.66-13.63Q68.67-16.02 71.45-16.02L71.45-16.02Q72.53-16.02 73.22-15.72L73.22-15.72L73.22-13.94Q72.89-14.14 72.24-14.14Q71.59-14.14 71.10-13.64Q70.61-13.14 70.31-12.31L70.31-12.31Q69.77-10.77 69.77-8.72Q69.77-6.67 69.84-5.50Q69.92-4.33 70.19-3.47L70.19-3.47Q70.73-1.64 72.22-1.64L72.22-1.64Q72.91-1.64 73.22-1.92L73.22-1.92ZM89.81-16.02L89.81-14.14Q87.92-13.45 87.92-7.88L87.92-7.88Q87.92-5.13 88.35-3.59Q88.78-2.05 89.81-1.64L89.81-1.64L89.81 0.23Q86.70-0.02 84.69-2.27L84.69-2.27Q82.66-4.53 82.66-7.83L82.66-7.83Q82.66-11.06 84.69-13.41L84.69-13.41Q86.77-15.77 89.81-16.02L89.81-16.02ZM93.11-7.88L93.11-7.88Q93.11-13.45 91.20-14.14L91.20-14.14L91.20-16.02Q94.30-15.77 96.33-13.41L96.33-13.41Q98.36-11.06 98.36-7.83L98.36-7.83Q98.36-4.53 96.33-2.27L96.33-2.27Q94.31-0.02 91.20 0.23L91.20 0.23L91.20-1.64Q92.23-2.03 92.67-3.57Q93.11-5.11 93.11-7.88ZM106.20-16.02L106.20-14.14Q104.77-13.75 104.77-12.78L104.77-12.78Q104.77-11.22 107.50-10.17L107.50-10.17Q109.66-9.34 110.55-8.88Q111.45-8.42 112.06-7.88L112.06-7.88Q113.42-6.63 113.42-4.77L113.42-4.77Q113.42-2.56 111.75-1.23L111.75-1.23Q110.13 0.05 107.59 0.23L107.59 0.23L107.59-1.64Q109.23-2.03 109.23-3.45L109.23-3.45Q109.23-4.92 106.55-5.97L106.55-5.97Q104.44-6.78 103.55-7.23Q102.67-7.69 102.08-8.22L102.08-8.22Q100.75-9.41 100.75-11.14L100.75-11.14Q100.75-13.02 102.34-14.47L102.34-14.47Q103.95-15.92 106.20-16.02L106.20-16.02ZM110.48-13.81L110.48-13.81Q110.14-13.95 107.59-14.14L107.59-14.14L107.59-16.02Q110.31-15.91 111.84-14.72L111.84-14.72Q113.13-13.72 113.13-12.50L113.13-12.50Q113.13-10.98 111.97-10.50L111.97-10.50Q111.56-10.34 110.84-10.34Q110.13-10.34 109.66-10.80Q109.20-11.27 109.20-11.94L109.20-11.94Q109.20-13.08 110.48-13.81ZM103.52-2.08L103.52-2.08Q103.92-1.72 106.20-1.64L106.20-1.64L106.20 0.23Q103.61 0.03 102.13-1.14L102.13-1.14Q100.88-2.14 100.88-3.42L100.88-3.42Q100.88-4.27 101.34-4.80Q101.81-5.34 102.77-5.34Q103.72-5.34 104.18-4.92Q104.64-4.50 104.64-3.83L104.64-3.83Q104.64-2.66 103.52-2.08ZM133.33-20.69L133.33-22.69Q134.80-22.45 136.39-21.44L136.39-21.44Q136.67-21.25 136.93-21.25Q137.19-21.25 137.42-21.54Q137.66-21.83 137.94-22.20L137.94-22.20L139.34-22.20L139.34-14.63L138.16-14.63Q137.72-15.09 137.22-16.20Q136.72-17.30 136.40-17.95Q136.08-18.59 135.66-19.16L135.66-19.16Q134.70-20.41 133.33-20.69L133.33-20.69ZM127.34-0.95L127.34-0.95Q126.77-0.95 126.38-0.02L126.38-0.02L124.80-0.02L124.80-8.19L125.84-8.19Q126.42-7.83 126.93-6.65Q127.44-5.47 127.80-4.73Q128.17-3.98 128.70-3.34L128.70-3.34Q129.94-1.88 131.94-1.69L131.94-1.69L131.94 0.31Q130.48 0.22 129.42-0.20Q128.36-0.61 127.97-0.78Q127.58-0.95 127.34-0.95ZM133.33 0.31L133.33-1.69Q134.84-1.86 135.71-2.70Q136.58-3.53 136.58-4.77Q136.58-6 136.07-6.72Q135.56-7.44 134.73-7.98Q133.91-8.53 132.84-8.97Q131.78-9.41 130.67-9.86Q129.56-10.31 128.50-10.84Q127.44-11.36 126.61-12.08L126.61-12.08Q124.77-13.67 124.77-16.13L124.77-16.13Q124.77-18.64 126.61-20.55L126.61-20.55Q128.67-22.66 131.94-22.69L131.94-22.69L131.94-20.69Q130.67-20.56 129.90-19.88Q129.13-19.19 129.13-18.19Q129.13-17.19 129.63-16.53Q130.14-15.88 130.97-15.37Q131.80-14.86 132.86-14.45Q133.92-14.03 135.02-13.59Q136.13-13.14 137.19-12.60Q138.25-12.06 139.08-11.31L139.08-11.31Q140.92-9.64 140.92-7.11L140.92-7.11Q140.92-4.14 139.05-2.13L139.05-2.13Q136.97 0.14 133.33 0.31L133.33 0.31ZM147.45-20.98L149.55-21.02L149.55 0.23L149.42 0.23Q147.13 0.23 146.01-0.64Q144.89-1.52 144.89-3.48L144.89-3.48L144.89-13.98L142.81-13.98L142.81-15.23Q143.05-15.48 143.41-15.61Q143.78-15.73 144.16-15.88L144.16-15.88Q145.08-16.22 145.33-17L145.33-17Q146.16-19.28 146.63-19.93Q147.09-20.58 147.45-20.98L147.45-20.98ZM150.94 0.23L150.94-1.64Q152.20-1.64 152.72-2.45L152.72-2.45Q152.94-2.81 153.06-3.27Q153.19-3.73 153.34-4.20L153.34-4.20L154.61-3.70Q154.22-1.89 153.64-1.21Q153.06-0.53 152.45-0.22Q151.83 0.09 150.94 0.23L150.94 0.23ZM150.94-13.98L150.94-15.70L153.75-15.70L153.75-13.98L150.94-13.98ZM164.09 0.23L164.09-1.64Q167.23-1.80 168.31-5.11L168.31-5.11L169.75-4.45Q168.58-0.16 164.09 0.23L164.09 0.23ZM163.63-14.14L163.63-16.02Q166.84-15.78 168.45-13.45L168.45-13.45Q169.89-11.39 169.89-7.94L169.89-7.94L161.84-7.94L161.84-9.53L165.08-9.53Q165.08-11.53 164.77-12.70Q164.47-13.86 163.63-14.14L163.63-14.14ZM162.70-1.64L162.70 0.23Q159.31-0.03 157.23-2.41L157.23-2.41Q155.30-4.61 155.30-7.83L155.30-7.83Q155.30-11.20 157.25-13.50L157.25-13.50Q159.19-15.80 162.23-16.02L162.23-16.02L162.23-14.14Q161.20-13.78 160.79-12.20Q160.38-10.63 160.38-8.65Q160.38-6.67 160.48-5.70Q160.58-4.72 160.84-3.94L160.84-3.94Q161.39-2.30 162.70-1.64L162.70-1.64ZM180.02-13.75L180.02-15.02Q181.25-16.02 182.56-16.02Q183.88-16.02 184.71-15.72Q185.55-15.42 186.13-14.84L186.13-14.84Q187.36-13.61 187.36-11.39L187.36-11.39L187.36-3.28Q187.36-1.72 188.06-1.52L188.06-1.52Q188.28-1.45 188.50-1.41L188.50-1.41Q189.11-1.28 189.39-1L189.39-1L189.39 0L181.97 0L181.97-1.09Q181.97-1.44 182.23-1.66Q182.48-1.88 182.60-2.04Q182.72-2.20 182.72-2.56L182.72-2.56L182.72-11.23Q182.72-12.84 182.50-13.30L182.50-13.30Q182.13-14.14 181.33-14.14Q180.53-14.14 180.02-13.75L180.02-13.75ZM178.63-15.70L178.63-3.28Q178.63-1.73 179.28-1.52L179.28-1.52Q179.48-1.45 179.70-1.41L179.70-1.41Q180.28-1.28 180.56-1L180.56-1L180.56 0L171.95 0L171.95-1Q172.22-1.20 172.57-1.30Q172.92-1.39 173.23-1.52L173.23-1.52Q173.98-1.81 173.98-2.63L173.98-2.63L173.98-12.28Q173.98-13.39 173.47-13.89L173.47-13.89Q173.06-14.30 171.95-14.61L171.95-14.61L171.95-15.70L178.63-15.70ZM201.69-13.56L201.69-13.56Q201.33-14.11 200.28-14.14L200.28-14.14L200.28-16.02Q202.47-15.83 203.84-14.63L203.84-14.63Q205.16-13.47 205.16-11.88L205.16-11.88Q205.16-10.88 204.70-10.34L204.70-10.34Q203.88-9.38 202.66-9.38L202.66-9.38Q201.55-9.38 200.84-10.03L200.84-10.03Q200.22-10.59 200.22-11.39L200.22-11.39Q200.22-12.78 201.69-13.56ZM200.28 0.23L200.28-1.64Q202.53-1.69 203.47-3.69L203.47-3.69Q203.77-4.31 203.95-5.05L203.95-5.05L205.41-4.39Q204.44-0.23 200.28 0.23L200.28 0.23ZM198.89-1.64L198.89 0.23Q195.39 0.20 193.13-2.11L193.13-2.11Q190.97-4.33 190.97-7.67L190.97-7.67Q190.97-11.23 193.06-13.53L193.06-13.53Q195.23-15.89 198.89-16.02L198.89-16.02L198.89-14.14Q197.52-13.77 196.78-12.17Q196.05-10.58 196.05-7.97L196.05-7.97Q196.05-4.09 197.59-2.44L197.59-2.44Q198.14-1.88 198.89-1.64L198.89-1.64ZM212.98-15.70L212.98-2.63Q212.98-1.81 213.73-1.52L213.73-1.52Q214.05-1.39 214.41-1.30Q214.77-1.20 215.08-1L215.08-1L215.08 0L206.28 0L206.28-1Q206.58-1.20 206.94-1.30Q207.30-1.39 207.61-1.52L207.61-1.52Q208.34-1.81 208.34-2.63L208.34-2.63L208.34-12.98Q208.34-13.83 207.61-14.09L207.61-14.09Q207.30-14.22 206.94-14.30Q206.58-14.39 206.28-14.61L206.28-14.61L206.28-15.70L212.98-15.70ZM210.39-17.56L210.39-17.56Q209.80-17.56 209.31-17.78Q208.83-18 208.48-18.38L208.48-18.38Q207.77-19.16 207.77-20.28L207.77-20.28Q207.77-21.38 208.48-22.19L208.48-22.19Q209.23-23.02 210.39-23.02L210.39-23.02Q211.56-23.02 212.31-22.19L212.31-22.19Q213.03-21.38 213.03-20.28L213.03-20.28Q213.03-19.16 212.31-18.38L212.31-18.38Q211.56-17.56 210.39-17.56ZM223-22.73L223-2.63Q223-1.81 223.75-1.52L223.75-1.52Q224.06-1.39 224.42-1.30Q224.78-1.20 225.09-1L225.09-1L225.09 0L216.30 0L216.30-1Q216.59-1.20 216.95-1.30Q217.31-1.39 217.63-1.52L217.63-1.52Q218.36-1.81 218.36-2.63L218.36-2.63L218.36-20.02Q218.36-20.84 217.63-21.16L217.63-21.16Q217.31-21.28 216.95-21.37Q216.59-21.45 216.30-21.66L216.30-21.66L216.30-22.73L223-22.73Z"/></svg>