<svg id="mainsvg" xmlns="http://www.w3.org/2000/svg" xmlns:xlink="http://www.w3.org/1999/xlink" version="1.1" x="0px" y="0px" enable-background="new 0 0 200 162.5" xml:space="preserve" viewBox="0 0 182 29"><path fill="#000" transform="translate(-1.28, 21.344)" d="M12.96-14.72Q12.80-15.97 12.29-16.77L12.29-16.77Q11.71-17.63 10.86-18.03Q10.02-18.43 8.70-18.43L8.70-18.43Q6.53-18.43 5.66-17.50L5.66-17.50Q4.83-16.67 4.83-15.10L4.83-15.10Q4.83-14.21 5.09-13.65Q5.34-13.09 5.86-12.74L5.86-12.74Q6.62-12.19 8.38-12.03L8.38-12.03Q10.18-11.87 11.41-11.54Q12.64-11.20 13.57-10.62L13.57-10.62Q15.90-9.15 15.90-6.02L15.90-6.02Q15.90-4.80 15.42-3.71Q14.94-2.62 14.08-1.76L14.08-1.76Q13.06-0.77 11.66-0.29Q10.27 0.19 8.77 0.19L8.77 0.19Q5.38 0.19 3.36-1.73L3.36-1.73Q1.63-3.46 1.28-6.34L1.28-6.34L1.34-6.37L4.16-6.37Q4.42-4.67 5.31-3.84L5.31-3.84Q6.56-2.69 8.67-2.69L8.67-2.69Q10.69-2.69 11.87-3.62Q13.06-4.54 13.06-6.02L13.06-6.02Q13.06-6.69 12.88-7.18Q12.70-7.68 12.22-8.06L12.22-8.06Q11.14-8.90 8.16-9.12L8.16-9.12Q5.12-9.38 3.55-10.88Q1.98-12.38 1.98-15.10L1.98-15.10Q1.98-17.86 3.68-19.55L3.68-19.55Q5.47-21.34 8.67-21.34L8.67-21.34Q12-21.34 13.86-19.33L13.86-19.33Q15.49-17.57 15.84-14.72L15.84-14.72L12.96-14.72ZM31.17-0.10L28.38-0.10L28.38-1.44Q27.74-0.77 26.77-0.32Q25.79 0.13 24.83 0.13L24.83 0.13Q23.55 0.13 22.38-0.37Q21.22-0.86 20.32-1.76L20.32-1.76Q19.46-2.66 18.96-3.82Q18.46-4.99 18.46-6.30L18.46-6.30L18.46-16L21.28-16L21.28-6.30Q21.28-4.83 22.34-3.78L22.34-3.78Q23.39-2.72 24.83-2.72L24.83-2.72Q25.50-2.72 26.18-3.01Q26.85-3.30 27.33-3.78L27.33-3.78Q28.38-4.83 28.38-6.30L28.38-6.30L28.38-16L31.17-16L31.17-0.10ZM36.93 0L34.37 0L34.37-21.28L36.93-21.28L36.93 0ZM48.22 0.29Q46.40 0.29 45.18-0.30Q43.97-0.90 42.98-2.18L42.98-2.18L42.98 6.82L40.13 6.82L40.13-15.62L42.98-15.62L42.98-13.38Q43.97-14.59 45.34-15.33Q46.72-16.06 48.22-16.06L48.22-16.06Q49.86-16.06 51.34-15.44Q52.83-14.82 53.92-13.66L53.92-13.66Q55.04-12.51 55.66-11.02Q56.29-9.54 56.29-7.87L56.29-7.87Q56.29-6.21 55.66-4.74Q55.04-3.26 53.92-2.11L53.92-2.11Q52.83-0.99 51.34-0.35Q49.86 0.29 48.22 0.29L48.22 0.29ZM48.22-13.15Q47.17-13.15 46.21-12.75Q45.25-12.35 44.54-11.62L44.54-11.62Q43.84-10.88 43.42-9.90Q43.01-8.93 43.01-7.87L43.01-7.87Q43.01-6.82 43.42-5.86Q43.84-4.90 44.54-4.16L44.54-4.16Q45.25-3.42 46.21-3.01Q47.17-2.59 48.22-2.59L48.22-2.59Q49.28-2.59 50.24-3.01Q51.20-3.42 51.90-4.16L51.90-4.16Q52.61-4.90 53.01-5.86Q53.41-6.82 53.41-7.87L53.41-7.87Q53.41-8.93 53.01-9.90Q52.61-10.88 51.90-11.62L51.90-11.62Q51.20-12.35 50.24-12.75Q49.28-13.15 48.22-13.15L48.22-13.15ZM71.87 0L69.06 0L69.06-9.82Q69.06-11.33 68-12.38L68-12.38Q67.52-12.86 66.86-13.15Q66.21-13.44 65.54-13.44L65.54-13.44Q64.10-13.44 63.04-12.38L63.04-12.38Q61.98-11.33 61.98-9.82L61.98-9.82L61.98 0L59.17 0L59.17-21.34L61.98-21.34L61.98-14.88Q63.52-16.32 65.54-16.32L65.54-16.32Q66.82-16.32 67.97-15.82Q69.12-15.33 70.02-14.43L70.02-14.43Q70.88-13.54 71.38-12.34Q71.87-11.14 71.87-9.82L71.87-9.82L71.87 0ZM87.46-0.10L84.67-0.10L84.67-1.44Q84.03-0.77 83.06-0.32Q82.08 0.13 81.12 0.13L81.12 0.13Q79.84 0.13 78.67-0.37Q77.50-0.86 76.61-1.76L76.61-1.76Q75.74-2.66 75.25-3.82Q74.75-4.99 74.75-6.30L74.75-6.30L74.75-16L77.57-16L77.57-6.30Q77.57-4.83 78.62-3.78L78.62-3.78Q79.68-2.72 81.12-2.72L81.12-2.72Q81.79-2.72 82.46-3.01Q83.14-3.30 83.62-3.78L83.62-3.78Q84.67-4.83 84.67-6.30L84.67-6.30L84.67-16L87.46-16L87.46-0.10ZM100.45-14.50L97.79-12.93Q97.02-13.28 96.42-13.28L96.42-13.28Q95.14-13.28 94.30-12.38L94.30-12.38Q93.41-11.42 93.41-10.18L93.41-10.18L93.41 0L90.66 0L90.66-10.18Q90.66-11.90 91.54-13.34Q92.42-14.78 93.95-15.58L93.95-15.58Q95.10-16.13 96.42-16.13L96.42-16.13Q97.47-16.13 98.43-15.74Q99.39-15.36 100.45-14.50L100.45-14.50ZM116.96 3.17L103.01 3.17L103.01 1.50L116.96 1.50L116.96 3.17ZM125.82-7.39L122.66-7.39L122.66 0L119.84 0L119.84-21.28L125.82-21.28Q127.17-21.28 128.42-20.75Q129.66-20.22 130.62-19.26L130.62-19.26Q131.58-18.27 132.11-17.01Q132.64-15.74 132.64-14.34L132.64-14.34Q132.64-12.93 132.11-11.66Q131.58-10.40 130.62-9.44L130.62-9.44Q129.66-8.48 128.42-7.94Q127.17-7.39 125.82-7.39L125.82-7.39ZM125.82-18.37L122.66-18.37L122.66-10.24L125.82-10.24Q127.49-10.24 128.64-11.46L128.64-11.46Q129.82-12.64 129.82-14.34L129.82-14.34Q129.82-16 128.64-17.18L128.64-17.18Q127.46-18.37 125.82-18.37L125.82-18.37ZM143.30 0.16Q141.66 0.16 140.19-0.48Q138.72-1.12 137.60-2.24L137.60-2.24Q136.48-3.36 135.84-4.83Q135.20-6.30 135.20-7.94L135.20-7.94Q135.20-9.60 135.84-11.10Q136.48-12.61 137.60-13.73L137.60-13.73Q138.72-14.85 140.19-15.47Q141.66-16.10 143.30-16.10L143.30-16.10Q144.96-16.10 146.46-15.47Q147.97-14.85 149.09-13.73L149.09-13.73Q150.21-12.61 150.83-11.10Q151.46-9.60 151.46-7.94L151.46-7.94Q151.46-6.30 150.83-4.83Q150.21-3.36 149.09-2.24L149.09-2.24Q147.97-1.12 146.46-0.48Q144.96 0.16 143.30 0.16L143.30 0.16ZM143.30-13.25Q141.15-13.25 139.62-11.71L139.62-11.71Q138.88-10.98 138.46-9.98Q138.05-8.99 138.05-7.94L138.05-7.94Q138.05-6.88 138.46-5.92Q138.88-4.96 139.62-4.22L139.62-4.22Q140.35-3.49 141.30-3.07Q142.24-2.66 143.30-2.66L143.30-2.66Q144.35-2.66 145.34-3.07Q146.34-3.49 147.04-4.22L147.04-4.22Q147.74-4.96 148.16-5.92Q148.58-6.88 148.58-7.94L148.58-7.94Q148.58-8.99 148.16-9.98Q147.74-10.98 147.04-11.71L147.04-11.71Q146.34-12.45 145.36-12.85Q144.38-13.25 143.30-13.25L143.30-13.25ZM155.81-18.30Q155.20-18.30 154.77-18.74Q154.34-19.17 154.34-19.78L154.34-19.78Q154.34-20.38 154.77-20.82Q155.20-21.25 155.81-21.25L155.81-21.25Q156.42-21.25 156.85-20.82Q157.28-20.38 157.28-19.78L157.28-19.78Q157.28-19.17 156.85-18.74Q156.42-18.30 155.81-18.30L155.81-18.30ZM157.18 0L154.50 0L154.50-16L157.18-16L157.18 0ZM173.18 0L170.37 0L170.37-9.60Q170.37-11.04 169.31-12.10L169.31-12.10Q168.29-13.12 166.82-13.12L166.82-13.12Q165.38-13.12 164.32-12.06L164.32-12.06Q163.84-11.58 163.55-10.93Q163.26-10.27 163.26-9.60L163.26-9.60L163.26 0L160.48 0L160.48-15.62L163.26-15.62L163.26-14.30Q163.87-15.04 164.86-15.52Q165.86-16 166.82-16L166.82-16Q168.10-16 169.26-15.50Q170.43-15.01 171.33-14.11L171.33-14.11Q172.19-13.25 172.69-12.08Q173.18-10.91 173.18-9.60L173.18-9.60L173.18 0ZM183.26-13.12L180.86-13.12L180.86 0L178.14 0L178.14-13.12L175.74-13.12L175.74-16L178.14-16L178.14-21.28L180.86-21.28L180.86-16L183.26-16L183.26-13.12Z"/></svg>