<svg id="mainsvg" xmlns="http://www.w3.org/2000/svg" xmlns:xlink="http://www.w3.org/1999/xlink" version="1.1" x="0px" y="0px" enable-background="new 0 0 200 162.5" xml:space="preserve" viewBox="0 0 285 21"><path fill="#000" transform="translate(-1.568, 20.352)" d="M13.41-20.35Q14.85-20.35 16.40-20.10Q17.95-19.84 18.85-19.39L18.85-19.39Q19.14-19.26 19.22-19.14Q19.30-19.01 19.33-18.66L19.33-18.66L19.71-14.50Q19.71-14.40 19.55-14.38Q19.39-14.37 19.36-14.46L19.36-14.46Q18.43-16.96 16.56-18.27Q14.69-19.58 12.16-19.58L12.16-19.58Q8.80-19.58 6.91-17.25Q5.02-14.91 5.02-10.98L5.02-10.98Q5.02-8.03 6.08-5.57Q7.14-3.10 8.98-1.66Q10.82-0.22 13.09-0.22L13.09-0.22Q17.41-0.22 19.65-5.60L19.65-5.60Q19.71-5.70 19.81-5.70L19.81-5.70Q19.87-5.70 19.95-5.65Q20.03-5.60 20.03-5.57L20.03-5.57L19.55-1.47Q19.49-1.09 19.41-0.98Q19.33-0.86 19.04-0.74L19.04-0.74Q16.26 0.38 13.12 0.38L13.12 0.38Q9.22 0.38 6.62-1.17Q4.03-2.72 2.80-5.12Q1.57-7.52 1.57-10.11L1.57-10.11Q1.57-13.12 3.22-15.46Q4.86-17.79 7.58-19.07Q10.30-20.35 13.41-20.35L13.41-20.35ZM30.21 0.38Q27.94 0.38 26.16-0.69Q24.38-1.76 23.41-3.55Q22.43-5.34 22.43-7.46L22.43-7.46Q22.43-9.92 23.71-11.71Q24.99-13.50 26.98-14.43Q28.96-15.36 31.01-15.36L31.01-15.36Q33.28-15.36 35.01-14.26Q36.74-13.15 37.68-11.39Q38.62-9.63 38.62-7.68L38.62-7.68Q38.62-5.54 37.50-3.68Q36.38-1.82 34.45-0.72Q32.51 0.38 30.21 0.38L30.21 0.38ZM30.98-0.32Q33.02-0.32 34.26-2.08Q35.49-3.84 35.49-6.94L35.49-6.94Q35.49-9.09 34.82-10.82Q34.14-12.54 32.88-13.57Q31.62-14.59 29.92-14.59L29.92-14.59Q27.81-14.59 26.70-13.01Q25.60-11.42 25.60-8.38L25.60-8.38Q25.60-6.11 26.29-4.27Q26.98-2.43 28.19-1.38Q29.41-0.32 30.98-0.32L30.98-0.32ZM47.81-0.38Q47.87-0.38 47.87-0.19Q47.87 0 47.81 0L47.81 0Q46.88 0 46.34-0.03L46.34-0.03L44.22-0.06L42.24-0.03Q41.66 0 40.67 0L40.67 0Q40.61 0 40.61-0.19Q40.61-0.38 40.67-0.38L40.67-0.38Q41.63-0.38 42.08-0.54Q42.53-0.70 42.69-1.17Q42.85-1.63 42.85-2.59L42.85-2.59L42.85-12.38Q42.85-13.34 42.69-13.79Q42.53-14.24 42.08-14.42Q41.63-14.59 40.70-14.59L40.70-14.59Q40.64-14.59 40.64-14.78Q40.64-14.98 40.70-14.98L40.70-14.98L42.27-14.94Q43.49-14.88 44.22-14.88L44.22-14.88Q44.83-14.88 45.34-14.91Q45.86-14.94 46.24-14.98L46.24-14.98Q47.30-15.07 48.16-15.07L48.16-15.07Q50.53-15.07 51.76-14.27Q52.99-13.47 52.99-11.97L52.99-11.97Q52.99-10.66 52.13-9.54Q51.26-8.42 49.76-7.76Q48.26-7.10 46.46-7.10L46.46-7.10Q45.44-7.10 44.70-7.23L44.70-7.23L44.67-7.90Q45.47-7.68 46.69-7.68L46.69-7.68Q48.58-7.68 49.31-8.54Q50.05-9.41 50.05-11.10L50.05-11.10Q50.05-14.50 47.39-14.50L47.39-14.50Q46.34-14.50 46.02-14.06Q45.70-13.63 45.70-12.32L45.70-12.32L45.70-2.59Q45.70-1.60 45.84-1.15Q45.98-0.70 46.42-0.54Q46.85-0.38 47.81-0.38L47.81-0.38ZM57.50-0.38Q57.60-0.38 57.60-0.19Q57.60 0 57.50 0L57.50 0L52.77 0Q52.26 0 50.90-2Q49.54-4 47.71-7.42L47.71-7.42L49.95-8.10Q51.74-5.09 53.01-3.44Q54.27-1.79 55.31-1.09Q56.35-0.38 57.50-0.38L57.50-0.38ZM78.24 0Q78.14 0 78.14-0.19Q78.14-0.38 78.24-0.38L78.24-0.38Q79.20-0.38 79.65-0.54Q80.10-0.70 80.26-1.17Q80.42-1.63 80.42-2.59L80.42-2.59L80.42-9.44Q80.42-11.87 79.68-13.10Q78.94-14.34 77.38-14.34L77.38-14.34Q75.90-14.34 74.62-13.38Q73.34-12.42 72.35-10.69L72.35-10.69L71.90-11.07Q74.66-15.39 78.46-15.39L78.46-15.39Q80.70-15.39 81.92-14.08Q83.14-12.77 83.14-10.40L83.14-10.40L83.14-2.59Q83.14-1.63 83.30-1.17Q83.46-0.70 83.90-0.54Q84.35-0.38 85.31-0.38L85.31-0.38Q85.38-0.38 85.38-0.19Q85.38 0 85.31 0L85.31 0Q84.42 0 83.87-0.03L83.87-0.03L81.73-0.06L79.68-0.03Q79.14 0 78.24 0L78.24 0ZM68.19 0Q68.13 0 68.13-0.19Q68.13-0.38 68.19-0.38L68.19-0.38Q69.15-0.38 69.60-0.54Q70.05-0.70 70.21-1.17Q70.37-1.63 70.37-2.59L70.37-2.59L70.37-9.44Q70.37-14.37 67.33-14.37L67.33-14.37Q64.42-14.37 62.30-10.69L62.30-10.69L61.86-11.07Q64.61-15.39 68.42-15.39L68.42-15.39Q70.66-15.39 71.87-14.10Q73.09-12.80 73.09-10.40L73.09-10.40L73.09-2.59Q73.09-1.60 73.25-1.15Q73.41-0.70 73.84-0.54Q74.27-0.38 75.23-0.38L75.23-0.38Q75.33-0.38 75.33-0.19Q75.33 0 75.23 0L75.23 0Q74.34 0 73.82-0.03L73.82-0.03L71.68-0.06L69.63-0.03Q69.12 0 68.19 0L68.19 0ZM58.11 0Q58.02 0 58.02-0.19Q58.02-0.38 58.11-0.38L58.11-0.38Q59.04-0.38 59.47-0.54Q59.90-0.70 60.06-1.17Q60.22-1.63 60.22-2.59L60.22-2.59L60.22-12.38Q60.22-13.34 60.06-13.79Q59.90-14.24 59.44-14.42Q58.98-14.59 58.02-14.59L58.02-14.59Q57.95-14.59 57.95-14.78Q57.95-14.98 58.02-14.98L58.02-14.98L60.93-14.94L62.37-14.98Q62.78-14.98 62.88-14.86Q62.98-14.75 62.98-14.37L62.98-14.37L62.98-2.59Q62.98-1.63 63.14-1.17Q63.30-0.70 63.74-0.54Q64.19-0.38 65.15-0.38L65.15-0.38Q65.22-0.38 65.22-0.19Q65.22 0 65.15 0L65.15 0Q64.26 0 63.71-0.03L63.71-0.03L61.57-0.06L59.55-0.03Q59.01 0 58.11 0L58.11 0ZM94.85 0.38Q92.58 0.38 90.80-0.69Q89.02-1.76 88.05-3.55Q87.07-5.34 87.07-7.46L87.07-7.46Q87.07-9.92 88.35-11.71Q89.63-13.50 91.62-14.43Q93.60-15.36 95.65-15.36L95.65-15.36Q97.92-15.36 99.65-14.26Q101.38-13.15 102.32-11.39Q103.26-9.63 103.26-7.68L103.26-7.68Q103.26-5.54 102.14-3.68Q101.02-1.82 99.09-0.72Q97.15 0.38 94.85 0.38L94.85 0.38ZM95.62-0.32Q97.66-0.32 98.90-2.08Q100.13-3.84 100.13-6.94L100.13-6.94Q100.13-9.09 99.46-10.82Q98.78-12.54 97.52-13.57Q96.26-14.59 94.56-14.59L94.56-14.59Q92.45-14.59 91.34-13.01Q90.24-11.42 90.24-8.38L90.24-8.38Q90.24-6.11 90.93-4.27Q91.62-2.43 92.83-1.38Q94.05-0.32 95.62-0.32L95.62-0.32ZM112.45-0.38Q112.51-0.38 112.51-0.19Q112.51 0 112.45 0L112.45 0Q111.52 0 110.98-0.03L110.98-0.03L108.86-0.06L106.88-0.03Q106.30 0 105.31 0L105.31 0Q105.25 0 105.25-0.19Q105.25-0.38 105.31-0.38L105.31-0.38Q106.27-0.38 106.72-0.54Q107.17-0.70 107.33-1.17Q107.49-1.63 107.49-2.59L107.49-2.59L107.49-12.38Q107.49-13.34 107.33-13.79Q107.17-14.24 106.72-14.42Q106.27-14.59 105.34-14.59L105.34-14.59Q105.28-14.59 105.28-14.78Q105.28-14.98 105.34-14.98L105.34-14.98L106.91-14.94Q108.13-14.88 108.86-14.88L108.86-14.88Q109.47-14.88 109.98-14.91Q110.50-14.94 110.88-14.98L110.88-14.98Q111.94-15.07 112.80-15.07L112.80-15.07Q115.17-15.07 116.40-14.27Q117.63-13.47 117.63-11.97L117.63-11.97Q117.63-10.66 116.77-9.54Q115.90-8.42 114.40-7.76Q112.90-7.10 111.10-7.10L111.10-7.10Q110.08-7.10 109.34-7.23L109.34-7.23L109.31-7.90Q110.11-7.68 111.33-7.68L111.33-7.68Q113.22-7.68 113.95-8.54Q114.69-9.41 114.69-11.10L114.69-11.10Q114.69-14.50 112.03-14.50L112.03-14.50Q110.98-14.50 110.66-14.06Q110.34-13.63 110.34-12.32L110.34-12.32L110.34-2.59Q110.34-1.60 110.48-1.15Q110.62-0.70 111.06-0.54Q111.49-0.38 112.45-0.38L112.45-0.38ZM122.14-0.38Q122.24-0.38 122.24-0.19Q122.24 0 122.14 0L122.14 0L117.41 0Q116.90 0 115.54-2Q114.18-4 112.35-7.42L112.35-7.42L114.59-8.10Q116.38-5.09 117.65-3.44Q118.91-1.79 119.95-1.09Q120.99-0.38 122.14-0.38L122.14-0.38ZM133.57 0.16Q133.44 0.22 133.31 0.22L133.31 0.22Q132.54 0.22 131.87-0.67Q131.20-1.57 131.20-3.42L131.20-3.42L131.20-10.78Q131.20-12.74 130.75-13.63Q130.30-14.53 129.31-14.53L129.31-14.53Q128.13-14.53 127.52-13.60Q126.91-12.67 126.56-11.23L126.56-11.23Q126.21-9.63 124.90-9.63L124.90-9.63Q124.19-9.63 123.78-10.02Q123.36-10.40 123.39-11.04L123.39-11.04Q123.39-11.94 124.58-12.93Q125.76-13.92 127.44-14.59Q129.12-15.26 130.53-15.26L130.53-15.26Q132.10-15.26 133.04-14.38Q133.98-13.50 133.98-11.74L133.98-11.74L133.98-4.51Q133.98-2.72 134.46-2.14Q134.94-1.57 135.81-1.57L135.81-1.57Q136.22-1.57 136.90-1.82L136.90-1.82L136.96-1.86Q137.09-1.86 137.14-1.70Q137.18-1.54 137.06-1.50L137.06-1.50L133.57 0.16ZM126.14 0.22Q124.93 0.22 124.14-0.45Q123.36-1.12 123.36-2.11L123.36-2.11Q123.36-3.20 124.06-3.95Q124.77-4.70 126.27-5.22L126.27-5.22L132.06-7.30L132.16-6.75L128.19-5.25Q127.26-4.90 126.86-4.37Q126.46-3.84 126.46-3.10L126.46-3.10Q126.46-2.24 126.91-1.73Q127.36-1.22 128.06-1.22L128.06-1.22Q128.70-1.22 129.57-1.70L129.57-1.70L132.38-3.10L132.42-2.56L129.38-0.83Q128.38-0.26 127.63-0.02Q126.88 0.22 126.14 0.22L126.14 0.22ZM142.72-2.66Q142.72-1.70 142.85-1.23Q142.98-0.77 143.38-0.58Q143.78-0.38 144.58-0.38L144.58-0.38Q144.64-0.38 144.64-0.19Q144.64 0 144.58 0L144.58 0Q143.68 0 143.14-0.03L143.14-0.03L141.25-0.06L139.46-0.03Q138.94 0 138.02 0L138.02 0Q137.95 0 137.95-0.19Q137.95-0.38 138.02-0.38L138.02-0.38Q138.88-0.38 139.28-0.54Q139.68-0.70 139.82-1.17Q139.97-1.63 139.97-2.59L139.97-2.59L139.97-12.38Q139.97-13.34 139.82-13.79Q139.68-14.24 139.30-14.42Q138.91-14.59 138.11-14.59L138.11-14.59Q138.02-14.59 138.02-14.78Q138.02-14.98 138.11-14.98L138.11-14.98L140.19-14.94L142.14-14.98Q142.53-14.98 142.62-14.86Q142.72-14.75 142.72-14.37L142.72-14.37L142.72-2.66ZM141.54-11.07Q143.10-13.28 144.82-14.32Q146.53-15.36 148.58-15.36L148.58-15.36Q150.85-15.36 152.32-14.08Q153.79-12.80 153.79-9.86L153.79-9.86L153.79-2.59Q153.79-1.63 153.90-1.17Q154.02-0.70 154.32-0.54Q154.62-0.38 155.26-0.38L155.26-0.38Q155.33-0.38 155.33-0.19Q155.33 0 155.26 0L155.26 0Q154.46 0 154.02-0.03L154.02-0.03L152.35-0.06L150.40-0.03Q149.92 0 149.12 0L149.12 0Q149.06 0 149.06-0.19Q149.06-0.38 149.12-0.38L149.12-0.38Q149.95-0.38 150.35-0.58Q150.75-0.77 150.90-1.23Q151.04-1.70 151.04-2.66L151.04-2.66L151.04-9.02Q151.04-12.06 150.10-13.22Q149.15-14.37 147.46-14.37L147.46-14.37Q145.92-14.37 144.62-13.50Q143.33-12.64 142.02-10.66L142.02-10.66L141.54-11.07ZM163.07 0.38Q161.18 0.38 159.90-0.64Q158.62-1.66 158.62-4.03L158.62-4.03L158.62-12.42Q158.62-13.38 158.29-13.66Q157.95-13.95 156.93-13.95L156.93-13.95Q156.83-13.95 156.83-14.21L156.83-14.21Q156.83-14.46 156.93-14.46L156.93-14.46Q158.46-14.46 159.55-15.15Q160.64-15.84 160.90-16.96L160.90-16.96Q160.90-17.06 161.09-17.06L161.09-17.06Q161.18-17.06 161.28-17.01Q161.38-16.96 161.38-16.93L161.38-16.93L161.38-4.86Q161.38-0.86 164.45-0.86L164.45-0.86Q166.14-0.86 167.42-1.73L167.42-1.73L167.49-1.76Q167.62-1.76 167.66-1.63Q167.71-1.50 167.62-1.44L167.62-1.44Q166.30-0.45 165.30-0.03Q164.29 0.38 163.07 0.38L163.07 0.38ZM166.66-13.25Q164.26-13.82 160.48-13.82L160.48-13.82L160.48-14.56Q162.72-14.56 166.75-14.88L166.75-14.88Q166.85-14.88 166.91-14.67Q166.98-14.46 166.98-14.14L166.98-14.14Q166.98-13.82 166.86-13.52Q166.75-13.22 166.66-13.25L166.66-13.25ZM193.86-16.10Q193.86-17.76 193.10-18.69Q192.35-19.62 190.94-19.62L190.94-19.62Q190.88-19.62 190.88-19.81Q190.88-20 190.94-20L190.94-20L192.42-19.97Q193.63-19.90 194.34-19.90L194.34-19.90Q194.91-19.90 196.06-19.97L196.06-19.97L197.47-20Q197.54-20 197.54-19.81Q197.54-19.62 197.47-19.62L197.47-19.62Q196.22-19.62 195.54-18.69Q194.85-17.76 194.85-16.10L194.85-16.10L194.85-7.14Q194.85-4.83 193.87-3.12Q192.90-1.41 191.12-0.48Q189.34 0.45 187.01 0.45L187.01 0.45Q184.67 0.45 182.85-0.46Q181.02-1.38 180.02-3.09Q179.01-4.80 179.01-7.10L179.01-7.10L179.01-17.41Q179.01-18.37 178.82-18.82Q178.62-19.26 178.13-19.44Q177.63-19.62 176.58-19.62L176.58-19.62Q176.48-19.62 176.48-19.81Q176.48-20 176.58-20L176.58-20L178.24-19.97Q179.65-19.90 180.51-19.90L180.51-19.90Q181.47-19.90 182.88-19.97L182.88-19.97L184.48-20Q184.58-20 184.58-19.81Q184.58-19.62 184.48-19.62L184.48-19.62Q183.42-19.62 182.91-19.42Q182.40-19.23 182.22-18.77Q182.05-18.30 182.05-17.34L182.05-17.34L182.05-8.22Q182.05-4.42 183.63-2.54Q185.22-0.67 188.06-0.67L188.06-0.67Q190.78-0.67 192.32-2.35Q193.86-4.03 193.86-7.10L193.86-7.10L193.86-16.10ZM203.74-2.66Q203.74-1.70 203.87-1.23Q204.00-0.77 204.40-0.58Q204.80-0.38 205.60-0.38L205.60-0.38Q205.66-0.38 205.66-0.19Q205.66 0 205.60 0L205.60 0Q204.70 0 204.16-0.03L204.16-0.03L202.27-0.06L200.48-0.03Q199.97 0 199.04 0L199.04 0Q198.98 0 198.98-0.19Q198.98-0.38 199.04-0.38L199.04-0.38Q199.90-0.38 200.30-0.54Q200.70-0.70 200.85-1.17Q200.99-1.63 200.99-2.59L200.99-2.59L200.99-12.38Q200.99-13.34 200.85-13.79Q200.70-14.24 200.32-14.42Q199.94-14.59 199.14-14.59L199.14-14.59Q199.04-14.59 199.04-14.78Q199.04-14.98 199.14-14.98L199.14-14.98L201.22-14.94L203.17-14.98Q203.55-14.98 203.65-14.86Q203.74-14.75 203.74-14.37L203.74-14.37L203.74-2.66ZM202.56-11.07Q204.13-13.28 205.84-14.32Q207.55-15.36 209.60-15.36L209.60-15.36Q211.87-15.36 213.34-14.08Q214.82-12.80 214.82-9.86L214.82-9.86L214.82-2.59Q214.82-1.63 214.93-1.17Q215.04-0.70 215.34-0.54Q215.65-0.38 216.29-0.38L216.29-0.38Q216.35-0.38 216.35-0.19Q216.35 0 216.29 0L216.29 0Q215.49 0 215.04-0.03L215.04-0.03L213.38-0.06L211.42-0.03Q210.94 0 210.14 0L210.14 0Q210.08 0 210.08-0.19Q210.08-0.38 210.14-0.38L210.14-0.38Q210.98-0.38 211.38-0.58Q211.78-0.77 211.92-1.23Q212.06-1.70 212.06-2.66L212.06-2.66L212.06-9.02Q212.06-12.06 211.12-13.22Q210.18-14.37 208.48-14.37L208.48-14.37Q206.94-14.37 205.65-13.50Q204.35-12.64 203.04-10.66L203.04-10.66L202.56-11.07ZM223.23-2.59Q223.23-1.63 223.39-1.17Q223.55-0.70 224.00-0.54Q224.45-0.38 225.41-0.38L225.41-0.38Q225.47-0.38 225.47-0.19Q225.47 0 225.41 0L225.41 0Q224.45 0 223.90-0.03L223.90-0.03L221.79-0.06L219.81-0.03Q219.23 0 218.24 0L218.24 0Q218.18 0 218.18-0.19Q218.18-0.38 218.24-0.38L218.24-0.38Q219.23-0.38 219.68-0.54Q220.13-0.70 220.29-1.17Q220.45-1.63 220.45-2.59L220.45-2.59L220.45-12.38Q220.45-13.34 220.29-13.79Q220.13-14.24 219.66-14.42Q219.20-14.59 218.24-14.59L218.24-14.59Q218.18-14.59 218.18-14.78Q218.18-14.98 218.24-14.98L218.24-14.98L219.81-14.94Q221.02-14.88 221.79-14.88L221.79-14.88Q222.66-14.88 223.94-14.94L223.94-14.94L225.41-14.98Q225.47-14.98 225.47-14.78Q225.47-14.59 225.41-14.59L225.41-14.59Q224.45-14.59 224.00-14.40Q223.55-14.21 223.39-13.74Q223.23-13.28 223.23-12.32L223.23-12.32L223.23-2.59ZM236.51-15.36Q237.70-15.36 239.09-15.10Q240.48-14.85 241.38-14.43L241.38-14.43Q241.60-14.34 241.66-14.22Q241.73-14.11 241.73-13.89L241.73-13.89L241.95-10.59Q241.95-10.50 241.78-10.46Q241.60-10.43 241.57-10.56L241.57-10.56Q240.58-12.67 239.23-13.70Q237.89-14.72 236.03-14.72L236.03-14.72Q233.66-14.72 232.30-12.86Q230.94-11.01 230.94-8.03L230.94-8.03Q230.94-6.05 231.57-4.26Q232.19-2.46 233.52-1.34Q234.85-0.22 236.80-0.22L236.80-0.22Q238.56-0.22 239.76-1.25Q240.96-2.27 241.89-4.48L241.89-4.48Q241.92-4.61 242.08-4.58Q242.24-4.54 242.24-4.45L242.24-4.45L241.92-1.06Q241.89-0.80 241.82-0.70Q241.76-0.61 241.47-0.48L241.47-0.48Q239.01 0.38 236.35 0.38L236.35 0.38Q233.31 0.38 231.36-0.83Q229.41-2.05 228.53-3.87Q227.65-5.70 227.65-7.55L227.65-7.55Q227.65-9.73 228.82-11.52Q229.98-13.31 232.02-14.34Q234.05-15.36 236.51-15.36L236.51-15.36ZM255.62 0.16Q255.49 0.22 255.36 0.22L255.36 0.22Q254.59 0.22 253.92-0.67Q253.25-1.57 253.25-3.42L253.25-3.42L253.25-10.78Q253.25-12.74 252.80-13.63Q252.35-14.53 251.36-14.53L251.36-14.53Q250.18-14.53 249.57-13.60Q248.96-12.67 248.61-11.23L248.61-11.23Q248.26-9.63 246.94-9.63L246.94-9.63Q246.24-9.63 245.82-10.02Q245.41-10.40 245.44-11.04L245.44-11.04Q245.44-11.94 246.62-12.93Q247.81-13.92 249.49-14.59Q251.17-15.26 252.58-15.26L252.58-15.26Q254.14-15.26 255.09-14.38Q256.03-13.50 256.03-11.74L256.03-11.74L256.03-4.51Q256.03-2.72 256.51-2.14Q256.99-1.57 257.86-1.57L257.86-1.57Q258.27-1.57 258.94-1.82L258.94-1.82L259.01-1.86Q259.14-1.86 259.18-1.70Q259.23-1.54 259.10-1.50L259.10-1.50L255.62 0.16ZM248.19 0.22Q246.98 0.22 246.19-0.45Q245.41-1.12 245.41-2.11L245.41-2.11Q245.41-3.20 246.11-3.95Q246.82-4.70 248.32-5.22L248.32-5.22L254.11-7.30L254.21-6.75L250.24-5.25Q249.31-4.90 248.91-4.37Q248.51-3.84 248.51-3.10L248.51-3.10Q248.51-2.24 248.96-1.73Q249.41-1.22 250.11-1.22L250.11-1.22Q250.75-1.22 251.62-1.70L251.62-1.70L254.43-3.10L254.46-2.56L251.42-0.83Q250.43-0.26 249.68-0.02Q248.93 0.22 248.19 0.22L248.19 0.22ZM263.33-12.54Q263.33-11.23 264.26-10.43Q265.18-9.63 267.01-8.67L267.01-8.67Q268.38-7.97 269.20-7.42Q270.02-6.88 270.59-6.05Q271.17-5.22 271.17-4.10L271.17-4.10Q271.17-2.85 270.46-1.82Q269.76-0.80 268.48-0.21Q267.20 0.38 265.57 0.38L265.57 0.38Q264.19 0.38 262.94 0.05Q261.70-0.29 261.09-0.77L261.09-0.77Q260.83-0.90 260.80-1.44L260.80-1.44L260.61-4.90L260.61-4.93Q260.61-5.06 260.77-5.07Q260.93-5.09 260.99-4.96L260.99-4.96Q261.86-3.04 263.17-1.66Q264.48-0.29 266.11-0.29L266.11-0.29Q267.10-0.29 267.81-0.90Q268.51-1.50 268.51-2.72L268.51-2.72Q268.51-4.19 267.54-5.10Q266.56-6.02 264.67-7.01L264.67-7.01Q263.39-7.71 262.64-8.24Q261.89-8.77 261.36-9.54Q260.83-10.30 260.83-11.36L260.83-11.36Q260.83-13.22 262.38-14.29Q263.94-15.36 266.14-15.36L266.14-15.36Q267.10-15.36 268.11-15.15Q269.12-14.94 269.82-14.62L269.82-14.62Q270.11-14.50 270.21-14.37Q270.30-14.24 270.30-14.02L270.30-14.02L270.37-11.07Q270.37-10.94 270.21-10.91Q270.05-10.88 269.98-10.98L269.98-10.98Q269.79-11.62 269.23-12.48Q268.67-13.34 267.73-14.03Q266.78-14.72 265.60-14.72L265.60-14.72Q264.48-14.72 263.90-14.11Q263.33-13.50 263.33-12.54L263.33-12.54ZM280.80 0.38Q278.40 0.38 276.69-0.69Q274.98-1.76 274.11-3.49Q273.25-5.22 273.25-7.23L273.25-7.23Q273.25-9.44 274.32-11.28Q275.39-13.12 277.22-14.21Q279.04-15.30 281.18-15.30L281.18-15.30Q283.49-15.30 284.67-14.06Q285.86-12.83 285.86-10.82L285.86-10.82Q285.86-10.46 285.78-10.30Q285.70-10.14 285.47-10.14L285.47-10.14L282.82-10.14Q282.85-10.40 282.85-10.88L282.85-10.88Q282.85-12.67 282.16-13.62Q281.47-14.56 280.13-14.56L280.13-14.56Q278.34-14.56 277.26-12.91Q276.19-11.26 276.19-8.51L276.19-8.51Q276.19-5.02 277.79-2.90Q279.39-0.77 282.24-0.77L282.24-0.77Q283.07-0.77 283.95-1.01Q284.83-1.25 285.54-1.73L285.54-1.73L285.57-1.73Q285.66-1.73 285.74-1.62Q285.82-1.50 285.76-1.41L285.76-1.41Q283.49 0.38 280.80 0.38L280.80 0.38ZM274.91-10.11L274.88-10.66L284.03-10.82L284.03-10.14L274.91-10.11Z"/></svg>