<svg id="mainsvg" xmlns="http://www.w3.org/2000/svg" xmlns:xlink="http://www.w3.org/1999/xlink" version="1.1" x="0px" y="0px" enable-background="new 0 0 200 162.5" xml:space="preserve" viewBox="0 0 44 22"><path fill="#000" transform="translate(-0.16, 21.408)" d="M0.16-20.03L9.76-20.03L9.76-17.70L6.40-17.70L6.40 0L3.52 0L3.52-17.70L0.16-17.70L0.16-20.03ZM14.24-15.62L14.24-15.62L17.38-15.62Q20.38-15.62 20.38-12.77L20.38-12.77L20.38-6.91L14.08-6.91L14.08-3.20Q14.08-2.66 14.27-2.46Q14.46-2.27 15.04-2.27L15.04-2.27L16.51-2.27Q17.09-2.27 17.28-2.46Q17.47-2.66 17.47-3.23L17.47-3.23L17.47-4.51L20.29-4.51L20.29-2.82Q20.29 0 17.31 0L17.31 0L14.24 0Q11.26 0 11.26-2.82L11.26-2.82L11.26-12.77Q11.26-15.62 14.24-15.62ZM14.08-12.42L14.08-9.02L17.54-9.02L17.54-12.42Q17.54-12.96 17.36-13.15Q17.18-13.34 16.61-13.34L16.61-13.34L15.04-13.34Q14.46-13.34 14.27-13.15Q14.08-12.96 14.08-12.42L14.08-12.42ZM29.70-15.62L32.77-15.62L29.18-8.16L32.77 0L29.70 0L26.24-8.16L29.70-15.62ZM25.73 0L22.85 0L22.85-21.41L25.73-21.41L25.73 0ZM37.06-15.62L37.06-15.62L40.48-15.62Q43.46-15.62 43.46-12.77L43.46-12.77L43.46-2.82Q43.46 0 40.48 0L40.48 0L37.06 0Q34.11 0 34.11-2.82L34.11-2.82L34.11-12.77Q34.11-15.62 37.06-15.62ZM40.61-3.23L40.61-3.23L40.61-12.38Q40.61-12.96 40.42-13.15Q40.22-13.34 39.65-13.34L39.65-13.34L37.89-13.34Q37.31-13.34 37.14-13.15Q36.96-12.96 36.96-12.38L36.96-12.38L36.96-3.23Q36.96-2.66 37.14-2.46Q37.31-2.27 37.89-2.27L37.89-2.27L39.65-2.27Q40.22-2.27 40.42-2.46Q40.61-2.66 40.61-3.23Z"/></svg>