<svg id="mainsvg" xmlns="http://www.w3.org/2000/svg" xmlns:xlink="http://www.w3.org/1999/xlink" version="1.1" x="0px" y="0px" enable-background="new 0 0 200 162.5" xml:space="preserve" viewBox="0 0 100 28"><path fill="#000" transform="translate(-2.336, 22.400000000000002)" d="M5.15 0L2.34 0L2.34-22.40L5.15-22.40L5.15-12.93L11.52-12.93L11.52-22.40L14.34-22.40L14.34 0L11.52 0L11.52-10.82L5.15-10.82L5.15 0ZM22.66 0.22Q20.42 0.22 19.18-0.91Q17.95-2.05 17.95-4.06L17.95-4.06L17.95-12.58Q17.95-14.59 19.18-15.73Q20.42-16.86 22.66-16.86L22.66-16.86Q24.90-16.86 26.13-15.73Q27.36-14.59 27.36-12.58L27.36-12.58L27.36-4.06Q27.36-2.05 26.13-0.91Q24.90 0.22 22.66 0.22L22.66 0.22ZM22.66-1.76Q23.68-1.76 24.27-2.35Q24.86-2.94 24.86-4.06L24.86-4.06L24.86-12.58Q24.86-13.70 24.27-14.29Q23.68-14.88 22.66-14.88L22.66-14.88Q21.63-14.88 21.04-14.29Q20.45-13.70 20.45-12.58L20.45-12.58L20.45-4.06Q20.45-2.94 21.04-2.35Q21.63-1.76 22.66-1.76L22.66-1.76ZM30.56 0L30.56-16.64L32.54-16.64L32.83-15.71L34.14-16.10Q35.49-16.51 36.27-16.69Q37.06-16.86 37.76-16.86L37.76-16.86Q39.14-16.86 39.68-15.65L39.68-15.65Q40.58-15.97 42.21-16.42Q43.84-16.86 44.61-16.86L44.61-16.86Q45.76-16.86 46.32-16.06Q46.88-15.26 46.88-13.98L46.88-13.98L46.88 0L44.32 0L44.32-13.15Q44.32-14.08 44.19-14.45Q44.06-14.82 43.55-14.82L43.55-14.82Q43.30-14.82 40.03-13.79L40.03-13.79L40.03 0L37.47 0L37.47-13.15Q37.47-14.08 37.34-14.45Q37.22-14.82 36.70-14.82L36.70-14.82Q36.45-14.82 33.12-13.79L33.12-13.79L33.12 0L30.56 0ZM53.73 0Q51.97 0 50.93-1.06Q49.89-2.11 49.89-3.90L49.89-3.90L49.89-12.42Q49.89-14.50 51.04-15.68Q52.19-16.86 54.46-16.86L54.46-16.86Q56.74-16.86 57.87-15.68Q59.01-14.50 59.01-12.42L59.01-12.42L59.01-10.94Q59.01-9.60 58.24-8.91Q57.47-8.22 56.22-7.87L56.22-7.87L52.45-6.82L52.45-3.68Q52.45-2.91 52.91-2.42Q53.38-1.92 54.11-1.92L54.11-1.92L57.57-1.92L57.57 0L53.73 0ZM52.45-8.83L54.40-9.38Q55.46-9.66 55.82-9.81Q56.19-9.95 56.32-10.24Q56.45-10.53 56.45-11.20L56.45-11.20L56.45-12.96Q56.45-13.98 55.92-14.46Q55.39-14.94 54.46-14.94L54.46-14.94Q53.57-14.94 53.01-14.43Q52.45-13.92 52.45-12.96L52.45-12.96L52.45-8.83ZM61.57 0L61.57-16.64L63.55-16.64L63.84-15.71L65.15-16.10Q66.50-16.51 67.28-16.69Q68.06-16.86 68.77-16.86L68.77-16.86Q69.92-16.86 70.46-16.06Q71.01-15.26 71.01-13.98L71.01-13.98L71.01 0L68.45 0L68.45-13.15Q68.45-14.08 68.32-14.45Q68.19-14.82 67.68-14.82L67.68-14.82Q67.42-14.82 64.13-13.79L64.13-13.79L64.13 0L61.57 0ZM77.95 0Q76.80 0 75.82-0.58Q74.85-1.15 74.29-2.14Q73.73-3.14 73.73-4.38L73.73-4.38L73.73-6.05Q73.73-7.55 74.48-8.58Q75.23-9.60 76.35-10.02L76.35-10.02L80.32-11.49L80.32-12.99Q80.32-13.76 79.86-14.26Q79.39-14.75 78.66-14.75L78.66-14.75L75.04-14.75L75.04-16.64L78.88-16.64Q80.64-16.64 81.68-15.60Q82.72-14.56 82.72-12.77L82.72-12.77L82.72 0L77.95 0ZM78.18-1.95L80.32-1.95L80.32-9.47L77.50-8.42Q76.67-8.10 76.34-7.55Q76-7.01 76-5.82L76-5.82L76-4.03Q76-3.17 76.64-2.56Q77.28-1.95 78.18-1.95L78.18-1.95ZM89.38-19.36L86.82-19.36L86.82-21.92L89.38-21.92L89.38-19.36ZM84.48 5.12L84.48 3.20L85.25 3.20Q85.98 3.20 86.42 2.70Q86.85 2.21 86.85 1.44L86.85 1.44L86.85-16.64L89.41-16.64L89.41 1.22Q89.41 3.01 88.38 4.06Q87.36 5.12 85.60 5.12L85.60 5.12L84.48 5.12ZM96.58 0Q94.82 0 93.78-1.06Q92.74-2.11 92.74-3.90L92.74-3.90L92.74-12.42Q92.74-14.50 93.89-15.68Q95.04-16.86 97.31-16.86L97.31-16.86Q99.58-16.86 100.72-15.68Q101.86-14.50 101.86-12.42L101.86-12.42L101.86-10.94Q101.86-9.60 101.09-8.91Q100.32-8.22 99.07-7.87L99.07-7.87L95.30-6.82L95.30-3.68Q95.30-2.91 95.76-2.42Q96.22-1.92 96.96-1.92L96.96-1.92L100.42-1.92L100.42 0L96.58 0ZM95.30-8.83L97.25-9.38Q98.30-9.66 98.67-9.81Q99.04-9.95 99.17-10.24Q99.30-10.53 99.30-11.20L99.30-11.20L99.30-12.96Q99.30-13.98 98.77-14.46Q98.24-14.94 97.31-14.94L97.31-14.94Q96.42-14.94 95.86-14.43Q95.30-13.92 95.30-12.96L95.30-12.96L95.30-8.83Z"/></svg>