<svg id="mainsvg" xmlns="http://www.w3.org/2000/svg" xmlns:xlink="http://www.w3.org/1999/xlink" version="1.1" x="0px" y="0px" enable-background="new 0 0 200 162.5" xml:space="preserve" viewBox="0 0 162 26"><path fill="#000" transform="translate(-0.928, 25.344)" d="M0.93 0L0.93-22.11L18.85-22.11L18.85-12.80L11.94-12.80L11.94-11.52L18.85-11.52L18.85-9.50L11.94-9.50L11.94-8.22L19.14-8.22L19.14 0L0.93 0ZM30.50-9.18L30.50 0L20.96 0L20.96-18.91L28.99-18.91L29.31-16.58Q29.38-16.67 29.47-16.83Q29.57-16.99 30.02-17.39Q30.46-17.79 31.04-18.11L31.04-18.11Q32.64-18.91 35.07-18.91L35.07-18.91L35.07-8.74L30.50-9.18ZM40.99-17.34Q38.56-17.34 37.41-18.30Q36.26-19.26 36.26-21.38Q36.26-23.49 37.42-24.42Q38.59-25.34 40.99-25.34L40.99-25.34Q45.79-25.34 45.79-21.47L45.79-21.47Q45.79-19.26 44.61-18.30Q43.42-17.34 40.99-17.34ZM45.79 0L36.26 0L36.26-16.61L45.79-16.61L45.79 0ZM64.80-8.22L64.80-0.64Q62.72 0.32 57.47 0.32Q52.22 0.32 49.94-2.08Q47.65-4.48 47.65-9.54Q47.65-14.59 50.21-16.91Q52.77-19.23 57.89-19.23L57.89-19.23Q60.19-19.23 61.92-18.91Q63.65-18.59 64.22-18.27L64.22-18.27L64.80-17.95L64.80-9.50L58.24-9.50L58.24-8.10Q58.82-8 60.19-8L60.19-8Q62.50-8 64.32-8.19L64.32-8.19L64.80-8.22ZM85.41-12.10L85.41-12.10L85.25-8.16L86.05-8.19L86.05-0.93Q85.47-0.45 84.06-0.06Q82.66 0.32 81.41 0.32Q80.16 0.32 79.42 0.10Q78.69-0.13 78.34-0.40Q77.98-0.67 77.79-1.02L77.79-1.02Q77.50-1.54 77.50-1.89L77.50-1.89Q75.74 0.32 71.90 0.32L71.90 0.32Q66.62 0.32 66.62-4.16L66.62-4.16Q66.62-6.85 68.67-7.98Q70.72-9.12 75.84-9.34L75.84-9.34Q75.84-10.46 73.38-10.46L73.38-10.46Q71.71-10.46 70.19-10.05Q68.67-9.63 68-9.22L68-9.22L67.30-8.80L67.30-17.22Q67.58-17.44 68.16-17.78Q68.74-18.11 70.88-18.67Q73.02-19.23 75.58-19.23L75.58-19.23Q80.70-19.23 83.06-17.50Q85.41-15.78 85.41-12.10ZM76.35-7.01L76.35-7.01L76.35-8.29L74.53-7.78L74.53-7.01Q74.53-6.59 74.80-6.34Q75.07-6.08 75.47-6.08Q75.87-6.08 76.11-6.34Q76.35-6.59 76.35-7.01ZM107.39-22.43L107.39-22.43L110.05-22.43Q115.81-22.43 118.43-19.71Q121.06-16.99 121.06-11.17Q121.06-5.34 118.42-2.51Q115.78 0.32 110.05 0.32L110.05 0.32L107.39 0.32Q101.66 0.32 99.01-2.51Q96.35-5.34 96.35-11.17Q96.35-16.99 98.99-19.71Q101.63-22.43 107.39-22.43ZM107.81-11.90L107.81-11.90L107.81-8.19Q107.81-7.78 108.05-7.52Q108.29-7.26 108.69-7.26Q109.09-7.26 109.36-7.52Q109.63-7.78 109.63-8.19L109.63-8.19L109.63-11.90Q109.63-12.29 109.36-12.54Q109.09-12.80 108.69-12.80Q108.29-12.80 108.05-12.54Q107.81-12.29 107.81-11.90ZM131.52-10.14L131.52-10.14L131.52 0L122.46 0L122.46-18.91L130.50-18.91L130.82-16.58Q130.94-16.93 131.39-17.44Q131.84-17.95 132.35-18.30L132.35-18.30Q133.76-19.23 136.10-19.23L136.10-19.23Q139.23-19.23 140.82-17.50Q142.40-15.78 142.40-12.48L142.40-12.48L142.40 0L133.34 0L133.34-10.14Q133.34-10.53 133.07-10.80Q132.80-11.07 132.42-11.07Q132.03-11.07 131.78-10.80Q131.52-10.53 131.52-10.14ZM144.26-9.42Q144.26-14.30 146.48-16.77Q148.70-19.23 153.76-19.23Q158.82-19.23 160.80-17.18Q162.78-15.14 162.78-10.46L162.78-10.46L162.62-8L153.79-8L153.79-6.91Q154.59-6.72 156.13-6.72L156.13-6.72Q159.39-6.72 161.41-7.01L161.41-7.01L162.08-7.10L162.08-1.09Q161.82-0.93 161.26-0.69Q160.70-0.45 158.59-0.06Q156.48 0.32 153.89 0.32L153.89 0.32Q148.77 0.32 146.51-2.11Q144.26-4.54 144.26-9.42ZM153.31-10.85L153.31-10.85L153.31-9.60L155.14-9.60L155.14-10.85Q155.14-11.26 154.86-11.52Q154.59-11.78 154.19-11.78Q153.79-11.78 153.55-11.52Q153.31-11.26 153.31-10.85Z"/></svg>