<svg id="mainsvg" xmlns="http://www.w3.org/2000/svg" xmlns:xlink="http://www.w3.org/1999/xlink" version="1.1" x="0px" y="0px" enable-background="new 0 0 200 162.5" xml:space="preserve" viewBox="0 0 151 29"><path fill="#000" transform="translate(-1.90625, 24.78125)" d="M25.75-5.50L25.75-5.50Q25.75-4 25.03-3.08Q24.31-2.16 23-1.59L23-1.59Q21.91-1.13 20.25-0.86Q18.59-0.59 16.81-0.48Q15.03-0.38 13.31-0.34Q11.59-0.31 10.44-0.31L10.44-0.31Q8.47-0.31 6.55-0.38Q4.63-0.44 2.66-0.56L2.66-0.56Q2.75-3.75 2.47-6.88L2.47-6.88Q4.81-6.81 7.14-6.77Q9.47-6.72 11.81-6.66L11.81-6.66Q12.72-6.63 13.64-6.59Q14.56-6.56 15.50-6.56L15.50-6.56Q15.66-6.56 15.97-6.56Q16.28-6.56 16.63-6.59Q16.97-6.63 17.27-6.69Q17.56-6.75 17.72-6.88L17.72-6.88Q17.84-7 17.88-7.23Q17.91-7.47 17.91-7.66L17.91-7.66Q17.91-8 17.81-8.48Q17.72-8.97 17.53-9.28L17.53-9.28Q17.50-9.31 17.33-9.34Q17.16-9.38 16.94-9.39Q16.72-9.41 16.53-9.42Q16.34-9.44 16.31-9.44L16.31-9.44Q14.31-9.59 12.33-9.66Q10.34-9.72 8.34-9.88L8.34-9.88Q7.44-9.97 6.48-10.06Q5.53-10.16 4.72-10.41L4.72-10.41Q3.94-10.63 3.39-11.39Q2.84-12.16 2.52-13.14Q2.19-14.13 2.05-15.13Q1.91-16.13 1.91-16.81L1.91-16.81Q1.91-17.94 2.13-18.95Q2.34-19.97 2.83-20.84Q3.31-21.72 4.06-22.39Q4.81-23.06 5.91-23.50L5.91-23.50Q7.78-24.22 9.92-24.50Q12.06-24.78 14.03-24.78L14.03-24.78Q16.34-24.78 18.59-24.50Q20.84-24.22 23.09-23.78L23.09-23.78Q23.06-22.88 23.05-21.98Q23.03-21.09 23.03-20.19L23.03-20.19Q23.03-19.28 23.13-18.36Q23.22-17.44 23.31-16.53L23.31-16.53Q20.34-16.47 17.39-16.42Q14.44-16.38 11.44-16.25L11.44-16.25Q11.06-16.25 10.42-16.22Q9.78-16.19 9.19-16.14Q8.59-16.09 8.16-16.06Q7.72-16.03 7.72-16.03L7.72-16.03Q7.56-15.69 7.53-15.33Q7.50-14.97 7.50-14.59L7.50-14.59Q7.50-14.41 7.52-14.13Q7.53-13.84 7.66-13.69L7.66-13.69Q7.69-13.66 8.19-13.59Q8.69-13.53 9.30-13.47Q9.91-13.41 10.45-13.34Q11-13.28 11.13-13.28L11.13-13.28Q12.16-13.19 13.55-13.06Q14.94-12.94 16.39-12.78Q17.84-12.63 19.19-12.39Q20.53-12.16 21.53-11.84L21.53-11.84Q22.44-11.53 23.20-10.86Q23.97-10.19 24.53-9.30Q25.09-8.41 25.42-7.42Q25.75-6.44 25.75-5.50ZM28-23.38L34.97-24.03Q34.72-21 34.48-18Q34.25-15 34.09-11.97L34.09-11.97Q33.94-9.22 33.77-6.52Q33.59-3.81 33.44-1.06L33.44-1.06L28.66-0.81Q28.66-3.66 28.67-6.45Q28.69-9.25 28.63-12.09L28.63-12.09Q28.56-14.94 28.38-17.73Q28.19-20.53 28-23.38L28-23.38ZM59.84-14.09L59.84-14.09Q59.84-11.47 59.66-8.88Q59.47-6.28 59.28-3.69L59.28-3.69Q55.78-3.38 52.31-3.16Q48.84-2.94 45.34-2.94L45.34-2.94Q45.03-2.94 44.19-2.95Q43.34-2.97 42.41-3.02Q41.47-3.06 40.63-3.14Q39.78-3.22 39.50-3.38L39.50-3.38Q38.47-3.94 38.06-4.80Q37.66-5.66 37.66-6.75L37.66-6.75Q37.66-7.13 37.69-7.75Q37.72-8.38 37.81-9.06Q37.91-9.75 38.06-10.34Q38.22-10.94 38.44-11.22L38.44-11.22Q38.72-11.59 39.72-11.86Q40.72-12.13 42.11-12.28Q43.50-12.44 45.11-12.53Q46.72-12.63 48.19-12.67Q49.66-12.72 50.81-12.72Q51.97-12.72 52.47-12.72L52.47-12.72Q52.56-13.41 52.56-14.06L52.56-14.06Q52.56-14.13 52.56-14.39Q52.56-14.66 52.53-14.72L52.53-14.72Q52.44-14.91 51.94-15.03Q51.44-15.16 50.70-15.22Q49.97-15.28 49.11-15.33Q48.25-15.38 47.44-15.38Q46.63-15.38 46-15.38Q45.38-15.38 45.09-15.38L45.09-15.38Q43.13-15.38 41.16-15.30Q39.19-15.22 37.22-15.16L37.22-15.16Q37.34-16.34 37.42-17.56Q37.50-18.78 37.44-19.97L37.44-19.97Q39.72-20.38 42.02-20.55Q44.31-20.72 46.66-20.72L46.66-20.72Q47.50-20.72 48.50-20.70Q49.50-20.69 50.50-20.64Q51.50-20.59 52.48-20.50Q53.47-20.41 54.31-20.25L54.31-20.25Q55.19-20.09 56.05-19.69Q56.91-19.28 57.66-18.69Q58.41-18.09 58.97-17.33Q59.53-16.56 59.78-15.69L59.78-15.69Q59.81-15.59 59.83-15.38Q59.84-15.16 59.84-14.89Q59.84-14.63 59.84-14.41Q59.84-14.19 59.84-14.09ZM52.88-6.75L52.88-6.75L52.88-10.75Q51.97-10.78 51.06-10.80Q50.16-10.81 49.25-10.81L49.25-10.81Q49.06-10.81 48.20-10.80Q47.34-10.78 46.36-10.72Q45.38-10.66 44.56-10.56Q43.75-10.47 43.63-10.28L43.63-10.28Q43.47-10.03 43.42-9.77Q43.38-9.50 43.38-9.22L43.38-9.22Q43.38-9 43.41-8.63Q43.44-8.25 43.52-7.84Q43.59-7.44 43.69-7.09Q43.78-6.75 43.94-6.59L43.94-6.59Q44.06-6.44 44.36-6.36Q44.66-6.28 45-6.23Q45.34-6.19 45.69-6.17Q46.03-6.16 46.22-6.16L46.22-6.16Q46.97-6.16 47.83-6.22Q48.69-6.28 49.58-6.36Q50.47-6.44 51.31-6.55Q52.16-6.66 52.88-6.75ZM83.34-16.47L83.34-16.47Q83.34-15.03 82.97-13.69L82.97-13.69Q82.75-13.66 81.67-13.61Q80.59-13.56 79.11-13.48Q77.63-13.41 75.92-13.30Q74.22-13.19 72.77-13.06Q71.31-12.94 70.30-12.80Q69.28-12.66 69.16-12.53L69.16-12.53Q68.66-12.09 68.41-11.47Q68.16-10.84 68.16-10.22L68.16-10.22Q68.16-9.84 68.23-9.64Q68.31-9.44 68.50-9.19L68.50-9.19Q68.59-9.09 69.16-9.03Q69.72-8.97 70.41-8.94Q71.09-8.91 71.69-8.89Q72.28-8.88 72.38-8.88L72.38-8.88Q74.63-8.88 76.88-8.97Q79.13-9.06 81.38-9.22L81.38-9.22L81.63-3.84Q78.50-3.59 75.36-3.36Q72.22-3.13 69.06-3.13L69.06-3.13Q68.91-3.13 68.61-3.13Q68.31-3.13 67.97-3.14Q67.63-3.16 67.31-3.19Q67-3.22 66.88-3.25L66.88-3.25Q66.22-3.44 65.58-3.67Q64.94-3.91 64.38-4.27Q63.81-4.63 63.39-5.13Q62.97-5.63 62.78-6.34L62.78-6.34Q62.66-6.81 62.58-7.58Q62.50-8.34 62.47-9.16Q62.44-9.97 62.42-10.75Q62.41-11.53 62.41-12.06L62.41-12.06Q62.41-13.28 62.44-14.34Q62.47-15.41 62.78-16.30Q63.09-17.19 63.80-17.89Q64.50-18.59 65.81-19.13L65.81-19.13Q66.41-19.38 67.59-19.52Q68.78-19.66 70.08-19.73Q71.38-19.81 72.56-19.84Q73.75-19.88 74.41-19.88L74.41-19.88Q76.59-19.88 78.77-19.78Q80.94-19.69 83.13-19.53L83.13-19.53Q83.22-18.75 83.28-17.98Q83.34-17.22 83.34-16.47ZM106.84-17.22L106.84-17.22L98.81-11.41Q98.91-11.03 99.19-10.20Q99.47-9.38 99.81-8.48Q100.16-7.59 100.55-6.83Q100.94-6.06 101.28-5.84L101.28-5.84Q101.50-5.69 101.84-5.59Q102.19-5.50 102.55-5.44Q102.91-5.38 103.27-5.36Q103.63-5.34 103.88-5.34L103.88-5.34Q104.31-5.34 104.78-5.38Q105.25-5.41 105.69-5.47L105.69-5.47Q105.63-5.06 105.59-4.64Q105.56-4.22 105.56-3.78L105.56-3.78Q105.56-3.03 105.59-2.28Q105.63-1.53 105.63-0.81L105.63-0.81Q105.41-0.78 104.86-0.73Q104.31-0.69 103.61-0.64Q102.91-0.59 102.13-0.53Q101.34-0.47 100.67-0.42Q100-0.38 99.52-0.38Q99.03-0.38 98.91-0.44L98.91-0.44Q98.38-0.69 97.88-0.97Q97.38-1.25 97.03-1.75L97.03-1.75Q96.88-1.97 96.52-2.94Q96.16-3.91 95.77-5.06Q95.38-6.22 95.05-7.22Q94.72-8.22 94.63-8.50L94.63-8.50L91.63-6.56L91.63-1.13L85.44-0.59Q85.63-4.97 85.84-9.30Q86.06-13.63 86.06-18.03L86.06-18.03Q86.06-19.38 86.05-20.69Q86.03-22 86-23.38L86-23.38Q87.28-23.13 88.55-23.06Q89.81-23 91.09-22.88L91.09-22.88L91.09-11.19Q93.53-12.69 95.86-14.25Q98.19-15.81 100.38-17.69L100.38-17.69Q102.03-17.50 103.61-17.41Q105.19-17.31 106.84-17.22ZM128.56-11.59L128.56-11.59Q124.47-11.38 120.41-11.23Q116.34-11.09 112.25-10.94L112.25-10.94Q112.22-10.81 112.22-10.69Q112.22-10.56 112.22-10.44L112.22-10.44Q112.22-9.38 112.70-8.81Q113.19-8.25 113.91-8.02Q114.63-7.78 115.50-7.75Q116.38-7.72 117.13-7.72L117.13-7.72Q119.22-7.72 121.31-7.86Q123.41-8 125.53-8.16L125.53-8.16L125.78-3.19Q123.72-3.09 121.67-3.03Q119.63-2.97 117.56-2.97L117.56-2.97Q117.13-2.97 115.95-2.98Q114.78-3 113.45-3.08Q112.13-3.16 110.97-3.28Q109.81-3.41 109.44-3.63L109.44-3.63Q108.47-4.19 107.92-5.06Q107.38-5.94 107.08-6.97Q106.78-8 106.67-9.08Q106.56-10.16 106.53-11.16L106.53-11.16Q106.50-11.31 106.52-11.48Q106.53-11.66 106.53-11.81L106.53-11.81Q106.53-13.47 106.89-14.89Q107.25-16.31 108.22-17.66L108.22-17.66Q108.88-18.59 110.16-19.22Q111.44-19.84 112.94-20.20Q114.44-20.56 115.94-20.70Q117.44-20.84 118.53-20.84L118.53-20.84Q119.50-20.84 120.91-20.67Q122.31-20.50 123.70-20.09Q125.09-19.69 126.22-19.05Q127.34-18.41 127.75-17.47L127.75-17.47Q127.81-17.28 127.89-16.83Q127.97-16.38 128.06-15.80Q128.16-15.22 128.23-14.56Q128.31-13.91 128.38-13.31Q128.44-12.72 128.48-12.25Q128.53-11.78 128.56-11.59ZM113.88-13.53L124.31-13.88Q124.13-15.25 123.61-16.05Q123.09-16.84 122.33-17.23Q121.56-17.63 120.58-17.73Q119.59-17.84 118.47-17.84L118.47-17.84Q118.09-17.84 117.53-17.83Q116.97-17.81 116.41-17.73Q115.84-17.66 115.34-17.50Q114.84-17.34 114.56-17.06L114.56-17.06Q114.34-16.88 114.20-16.55Q114.06-16.22 113.97-15.84Q113.88-15.47 113.83-15.11Q113.78-14.75 113.78-14.50L113.78-14.50Q113.78-14 113.88-13.53L113.88-13.53ZM152.38-6.16L152.38-6.16Q152.38-5.81 152.38-5.16Q152.38-4.50 152.34-3.67Q152.31-2.84 152.27-1.95Q152.22-1.06 152.16-0.27Q152.09 0.53 151.98 1.14Q151.88 1.75 151.75 2L151.75 2Q151.22 2.84 150.77 3.30Q150.31 3.75 149.78 3.94Q149.25 4.13 148.58 4.14Q147.91 4.16 147 4.16L147 4.16Q144 4.16 141.03 3.92Q138.06 3.69 135.09 3.38L135.09 3.38L135.09-0.91Q135.38-0.91 136.33-0.92Q137.28-0.94 138.56-0.97Q139.84-1 141.28-1.06Q142.72-1.13 143.97-1.22Q145.22-1.31 146.13-1.44Q147.03-1.56 147.25-1.75L147.25-1.75Q147.53-1.97 147.70-2.42Q147.88-2.88 147.95-3.38Q148.03-3.88 148.06-4.38Q148.09-4.88 148.09-5.19L148.09-5.19Q148.09-5.50 148.09-5.78Q148.09-6.06 148.06-6.41L148.06-6.41Q147.59-5.34 146.81-4.81Q146.03-4.28 145.06-4.06Q144.09-3.84 143.03-3.83Q141.97-3.81 141-3.81L141-3.81Q138.97-3.81 137.08-3.98Q135.19-4.16 133.73-4.88Q132.28-5.59 131.39-7.05Q130.50-8.50 130.50-11.06L130.50-11.06Q130.50-13.59 130.84-16.11Q131.19-18.63 131.72-21.09L131.72-21.09L138.31-21.03Q137.78-19.06 137.38-17.03Q136.97-15 136.97-12.94L136.97-12.94Q136.97-11.84 137.13-11.16Q137.28-10.47 137.69-10.05Q138.09-9.63 138.81-9.47Q139.53-9.31 140.63-9.31L140.63-9.31Q141.06-9.31 141.70-9.38Q142.34-9.44 143.02-9.55Q143.69-9.66 144.30-9.84Q144.91-10.03 145.25-10.31L145.25-10.31Q145.38-10.41 145.47-10.94Q145.56-11.47 145.63-12.20Q145.69-12.94 145.72-13.78Q145.75-14.63 145.77-15.38Q145.78-16.13 145.78-16.67Q145.78-17.22 145.78-17.38L145.78-17.38Q145.78-18.44 145.78-19.48Q145.78-20.53 145.72-21.59L145.72-21.59Q147.25-21.44 148.73-21.33Q150.22-21.22 151.75-21.16L151.75-21.16Q151.88-18.13 152.02-15.16Q152.16-12.19 152.31-9.16L152.31-9.16Q152.38-8.41 152.38-7.64Q152.38-6.88 152.38-6.16Z"/></svg>