<svg id="mainsvg" xmlns="http://www.w3.org/2000/svg" xmlns:xlink="http://www.w3.org/1999/xlink" version="1.1" x="0px" y="0px" enable-background="new 0 0 200 162.5" xml:space="preserve" viewBox="0 0 300 25"><path fill="#000" transform="translate(-1.125, 23.53125)" d="M1.41-8.81L1.41-8.81Q1.44-8.94 1.55-8.92Q1.66-8.91 1.75-8.94L1.75-8.94Q1.50-9.19 1.44-9.61Q1.38-10.03 1.13-10.31L1.13-10.31Q1.19-10.47 1.23-10.63Q1.28-10.78 1.50-10.75L1.50-10.75Q1.41-11.44 1.53-12.03Q1.66-12.63 1.92-13.16Q2.19-13.69 2.55-14.20Q2.91-14.72 3.25-15.25L3.25-15.25Q3.53-15.31 3.59-15.20Q3.66-15.09 3.81-15.25L3.81-15.25Q4.31-15.59 4.50-16.02Q4.69-16.44 4.69-16.94L4.69-16.94Q4.97-17.75 5.33-18.55Q5.69-19.34 6.16-20.03Q6.63-20.72 7.16-21.23Q7.69-21.75 8.31-22.03L8.31-22.03Q8.75-22.41 9.42-22.72Q10.09-23.03 10.86-23.20Q11.63-23.38 12.44-23.39Q13.25-23.41 13.94-23.22L13.94-23.22Q14.09-23.16 14.13-23.30Q14.16-23.44 14.28-23.44L14.28-23.44Q15.84-23.25 17.08-22.81Q18.31-22.38 19.19-21.59L19.19-21.59Q19.78-20.66 20.31-19.58Q20.84-18.50 21.14-17.33Q21.44-16.16 21.41-14.91Q21.38-13.66 20.88-12.41L20.88-12.41Q19.78-11.03 18.22-10.20Q16.66-9.38 14.86-8.83Q13.06-8.28 11.14-7.94Q9.22-7.59 7.41-7.19L7.41-7.19Q7.44-6.34 7.41-5.39Q7.38-4.44 7.20-3.48Q7.03-2.53 6.70-1.63Q6.38-0.72 5.81 0.06L5.81 0.06Q5.19 0.03 4.52 0.19Q3.84 0.34 3.31 0.50L3.31 0.50Q3.06 0.34 2.83 0.20Q2.59 0.06 2.25 0.03L2.25 0.03Q2.34-0.34 2.08-0.75Q1.81-1.16 1.55-1.55Q1.28-1.94 1.20-2.33Q1.13-2.72 1.56-3.03L1.56-3.03Q1.31-3.25 1.31-3.72L1.31-3.72Q1.44-3.59 1.63-3.59L1.63-3.59Q1.56-4.16 1.77-4.94Q1.97-5.72 2.11-6.48Q2.25-7.25 2.16-7.89Q2.06-8.53 1.41-8.81ZM9.53-16.13L9.53-16.13Q9.41-15.78 9.33-15.52Q9.25-15.25 9.16-15.03Q9.06-14.81 8.95-14.59Q8.84-14.38 8.72-14.09L8.72-14.09Q8.78-13.91 8.97-13.81Q9.16-13.72 9.22-13.53L9.22-13.53Q9.66-13.75 10.09-13.86Q10.53-13.97 10.97-14.03Q11.41-14.09 11.84-14.19Q12.28-14.28 12.75-14.50L12.75-14.50Q13.22-14.72 13.73-14.86Q14.25-15 14.75-15.16Q15.25-15.31 15.72-15.52Q16.19-15.72 16.53-16.06L16.53-16.06Q16.09-16.47 15.22-16.78Q14.34-17.09 13.33-17.17Q12.31-17.25 11.30-17.03Q10.28-16.81 9.53-16.13ZM37.91-17.59L37.91-17.59Q37.94-17.38 37.92-17.27Q37.91-17.16 37.89-17.06Q37.88-16.97 37.88-16.86Q37.88-16.75 37.94-16.53L37.94-16.53Q37.28-15.47 36.42-15.08Q35.56-14.69 34.56-14.52Q33.56-14.34 32.52-14.16Q31.47-13.97 30.44-13.34L30.44-13.34Q30.03-13.50 29.70-13.34Q29.38-13.19 28.75-13.25L28.75-13.25Q28.56-13.06 28.28-12.98Q28-12.91 27.72-12.81L27.72-12.81Q27.84-12.53 27.83-12.23Q27.81-11.94 27.91-11.75L27.91-11.75Q29-11.66 30.33-11.78Q31.66-11.91 32.94-11.94L32.94-11.94Q32.97-11.78 32.91-11.73Q32.84-11.69 32.88-11.56L32.88-11.56Q33.09-11.41 33.31-11.17Q33.53-10.94 33.75-10.72Q33.97-10.50 34.20-10.36Q34.44-10.22 34.75-10.25L34.75-10.25Q34.88-10 34.92-9.70Q34.97-9.41 34.84-9.09L34.84-9.09Q34.34-8.75 33.84-8.39Q33.34-8.03 32.80-7.75Q32.25-7.47 31.64-7.30Q31.03-7.13 30.28-7.16L30.28-7.16Q30.13-7.16 30.05-7.16Q29.97-7.16 29.84-7.25L29.84-7.25Q29.59-7.09 29.14-7.16Q28.69-7.22 28.44-7.06L28.44-7.06Q28.09-7.22 27.61-7.20Q27.13-7.19 26.75-7.31L26.75-7.31Q26.25-6.66 25.84-5.91Q25.44-5.16 25.13-4.31L25.13-4.31Q26.19-4.16 26.89-4.19Q27.59-4.22 28.22-4.30Q28.84-4.38 29.50-4.45Q30.16-4.53 31.16-4.50L31.16-4.50Q31.78-4.84 32.64-4.95Q33.50-5.06 34.22-5.31L34.22-5.31Q34.47-5.22 34.66-4.98Q34.84-4.75 35.02-4.55Q35.19-4.34 35.38-4.19Q35.56-4.03 35.84-4.06L35.84-4.06Q35.97-3.94 36.02-3.77Q36.06-3.59 36.09-3.44Q36.13-3.28 36.20-3.17Q36.28-3.06 36.47-3.09L36.47-3.09Q36-2.06 35.39-1.52Q34.78-0.97 34-0.69Q33.22-0.41 32.27-0.25Q31.31-0.09 30.16 0.13L30.16 0.13Q29.88 0.19 29.69 0.11Q29.50 0.03 29.25 0.03L29.25 0.03Q28.53 0.19 27.53 0.31Q26.53 0.44 25.50 0.41Q24.47 0.38 23.53 0.14Q22.59-0.09 22-0.69L22-0.69Q21.75-0.91 21.67-1.20Q21.59-1.50 21.25-1.66L21.25-1.66Q21.22-2.06 21.13-2.56Q21.03-3.06 20.94-3.61Q20.84-4.16 20.80-4.69Q20.75-5.22 20.84-5.66L20.84-5.66Q20.94-6.13 21.23-6.50Q21.53-6.88 21.44-7.31L21.44-7.31Q21.59-7.34 21.63-7.48Q21.66-7.63 21.88-7.59L21.88-7.59Q22.06-8.16 22.28-8.66Q22.50-9.16 22.73-9.63Q22.97-10.09 23.20-10.58Q23.44-11.06 23.66-11.66L23.66-11.66Q23.22-12.06 23.02-12.55Q22.81-13.03 22.72-13.52Q22.63-14 22.56-14.52Q22.50-15.03 22.34-15.56L22.34-15.56Q22.66-16.03 23.11-16.33Q23.56-16.63 24.09-16.81Q24.63-17 25.25-17.13Q25.88-17.25 26.56-17.41L26.56-17.41Q27.81-17.81 28.80-18.03Q29.78-18.25 30.73-18.39Q31.69-18.53 32.72-18.66Q33.75-18.78 35.06-19.03L35.06-19.03Q35.34-18.75 35.59-18.75L35.59-18.75Q35.72-19.03 35.89-18.92Q36.06-18.81 36.03-19.09L36.03-19.09Q36.34-18.56 36.83-18.20Q37.31-17.84 37.91-17.59ZM42.19-3.25L42.19-3.25Q41.84-2 41.58-1.36Q41.31-0.72 40.78-0.03L40.78-0.03Q40.38-0.09 40.22 0.06Q40.06 0.22 39.88 0.34L39.88 0.34Q39.59 0.41 39.47 0.34Q39.34 0.28 39.25 0.20Q39.16 0.13 39.02 0.05Q38.88-0.03 38.59-0.03L38.59-0.03Q38.53-0.28 38.45-0.50Q38.38-0.72 38.03-0.66L38.03-0.66Q38.09-0.91 38.06-1.08Q38.03-1.25 37.98-1.39Q37.94-1.53 37.91-1.67Q37.88-1.81 37.94-2.03L37.94-2.03Q37.78-2.03 37.69-2.25Q37.59-2.47 37.47-2.69L37.47-2.69Q37.56-3.25 37.66-3.75Q37.75-4.25 37.89-4.69Q38.03-5.13 38.13-5.56Q38.22-6 38.03-6.47L38.03-6.47Q38.16-6.38 38.22-6.52Q38.28-6.66 38.31-6.89Q38.34-7.13 38.34-7.36Q38.34-7.59 38.31-7.75L38.31-7.75Q38.63-8.56 38.83-9.42Q39.03-10.28 39.20-11.13Q39.38-11.97 39.56-12.78Q39.75-13.59 40.06-14.28L40.06-14.28Q40.41-14.34 40.83-14.20Q41.25-14.06 41.34-13.84L41.34-13.84Q42.16-14.47 42.78-15.36Q43.41-16.25 44.06-17.09Q44.72-17.94 45.52-18.59Q46.31-19.25 47.53-19.38L47.53-19.38Q48.16-18.91 48.92-18.42Q49.69-17.94 50.19-17.16L50.19-17.16Q50.44-17.03 50.61-16.89Q50.78-16.75 51.03-16.59L51.03-16.59L51.03-16.22Q51.41-15.88 51.64-15.42Q51.88-14.97 52.06-14.45Q52.25-13.94 52.44-13.42Q52.63-12.91 52.88-12.44L52.88-12.44Q52.81-12.28 52.81-12.17Q52.81-12.06 52.86-11.94Q52.91-11.81 52.94-11.69Q52.97-11.56 52.94-11.34L52.94-11.34Q52.84-9.97 52.05-9.13Q51.25-8.28 50.13-7.73Q49-7.19 47.72-6.81Q46.44-6.44 45.41-6L45.41-6Q45.41-5.88 45.52-5.88Q45.63-5.88 45.59-5.72L45.59-5.72Q46.34-5.25 46.78-4.97Q47.22-4.69 47.61-4.50Q48-4.31 48.45-4.17Q48.91-4.03 49.72-3.84L49.72-3.84Q50.53-3.66 50.98-3.55Q51.44-3.44 51.81-3.36Q52.19-3.28 52.58-3.23Q52.97-3.19 53.69-3.13L53.69-3.13Q53.97-2.84 54.17-2.45Q54.38-2.06 54.44-1.67Q54.50-1.28 54.47-0.92Q54.44-0.56 54.25-0.34L54.25-0.34Q54.28-0.25 54.39-0.27Q54.50-0.28 54.63-0.25L54.63-0.25Q54.44-0.13 54.31 0.06Q54.19 0.25 54.06 0.44Q53.94 0.63 53.78 0.77Q53.63 0.91 53.34 0.94L53.34 0.94Q52.38 1.31 50.91 0.98Q49.44 0.66 47.19-0.22L47.19-0.22Q46.06-0.66 45.36-0.98Q44.66-1.31 44.14-1.64Q43.63-1.97 43.20-2.34Q42.78-2.72 42.19-3.25ZM46.66-13.97L46.66-13.97Q46.31-13.47 45.89-13.06Q45.47-12.66 45.08-12.23Q44.69-11.81 44.38-11.30Q44.06-10.78 43.94-10.09L43.94-10.09Q45.03-10.22 46.22-10.70Q47.41-11.19 48.47-11.63L48.47-11.63Q48.34-12.59 47.80-13.19Q47.25-13.78 46.66-13.97ZM76.09-0.56L76.09-0.56Q75.78-0.41 75.52-0.28Q75.25-0.16 74.91-0.16L74.91-0.16Q73.69-1.06 73.64-3.31Q73.59-5.56 74.59-9.03L74.59-9.03Q74.75-9.13 74.75-9.41L74.75-9.41L74.47-9.72Q74.34-9.72 74.23-9.69Q74.13-9.66 74.06-9.47L74.06-9.47Q73.25-8.88 72.28-8.23Q71.31-7.59 70.27-7.05Q69.22-6.50 68.14-6.16Q67.06-5.81 66.03-5.81L66.03-5.81Q63.41-5.81 62.09-8.47L62.09-8.47L61.84-8.94L61.59-8.53Q61.50-8.41 61.31-8.02Q61.13-7.63 60.94-7.13Q60.75-6.63 60.61-6.11Q60.47-5.59 60.50-5.22L60.50-5.22Q60.22-4.94 59.91-4.56Q59.59-4.19 59.44-3.72L59.44-3.72Q59.38-3.47 59.50-3.25L59.50-3.25Q59.44-2.97 59.22-2.81L59.22-2.81Q59.09-2.66 58.95-2.52Q58.81-2.38 58.72-2.22L58.72-2.22Q58.66-2.06 58.64-1.91Q58.63-1.75 58.59-1.59L58.59-1.59Q58.59-1.38 58.53-1.19L58.53-1.19Q58-0.09 57.69 0.23Q57.38 0.56 56.84 0.56L56.84 0.56Q56.59 0.56 56.03 0.47L56.03 0.47Q55.63 0.03 55.30-0.73Q54.97-1.50 54.80-2.38Q54.63-3.25 54.64-4.14Q54.66-5.03 54.94-5.69L54.94-5.69Q54.94-5.72 55.19-6.31Q55.44-6.91 55.83-7.84Q56.22-8.78 56.72-9.92Q57.22-11.06 57.72-12.14Q58.22-13.22 58.67-14.13Q59.13-15.03 59.44-15.50L59.44-15.50Q59.69-15.88 59.89-16.20Q60.09-16.53 60.28-16.84L60.28-16.84Q60.84-17.81 61.36-18.45Q61.88-19.09 62.88-19.47L62.88-19.47Q63.56-19.19 63.88-18.81L63.88-18.81L63.94-18.47Q64.06-18.16 64.31-18.16L64.31-18.16Q64.66-18.06 64.89-17.98Q65.13-17.91 65.41-17.84L65.41-17.84Q65.63-17.59 65.81-17.25L65.81-17.25Q66.06-16.88 66.30-16.52Q66.53-16.16 66.67-15.80Q66.81-15.44 66.83-15.06Q66.84-14.69 66.69-14.28L66.69-14.28L66.72-13.97Q66.88-13.69 66.78-13.19L66.78-13.19Q66.75-12.97 66.75-12.73Q66.75-12.50 66.81-12.22L66.81-12.22Q67.38-11.78 67.81-11.78L67.81-11.78Q68.31-11.78 68.73-12.02Q69.16-12.25 69.53-12.50L69.53-12.50Q69.78-12.69 70.03-12.83Q70.28-12.97 70.53-13L70.53-13Q71.09-13.53 71.55-13.94Q72-14.34 72.50-14.75L72.50-14.75Q73.44-15.50 74.31-16.38Q75.19-17.25 75.72-18.56L75.72-18.56Q76.03-18.75 76.38-18.75L76.38-18.75Q76.72-18.75 77.09-18.59Q77.47-18.44 77.81-18.28L77.81-18.28Q77.91-18.22 77.98-18.19Q78.06-18.16 78.13-18.13L78.13-18.13Q78.13-17.81 78.38-17.59L78.38-17.59Q78.50-17.50 78.53-17.47Q78.56-17.44 78.63-17.41L78.63-17.41Q79.09-17.16 79.22-16.91L79.22-16.91Q79.44-16.19 80-15.81L80-15.81Q79.94-15.50 80.02-15.23Q80.09-14.97 80.22-14.69L80.22-14.69Q80.25-14.59 80.28-14.50Q80.31-14.41 80.38-14.28L80.38-14.28L79.78-14.34L79.88-13.75Q79.94-13.31 79.80-12.78Q79.66-12.25 79.47-11.94L79.47-11.94Q79.50-11.13 79.52-10.67Q79.53-10.22 79.47-9.83Q79.41-9.44 79.30-9.09Q79.19-8.75 79-8.34L79-8.34Q79.13-6.34 78.55-4.70Q77.97-3.06 77.34-1.63L77.34-1.63Q77.28-1.47 77.20-1.31Q77.13-1.16 77.06-1L77.06-1Q76.78-0.91 76.56-0.80Q76.34-0.69 76.09-0.56ZM97.13-2.75L97.06-2.63Q96.88-2.09 96.52-1.55Q96.16-1 95.67-0.58Q95.19-0.16 94.59 0.13Q94 0.41 93.34 0.44L93.34 0.44Q92.94 0.34 92.80 0.23Q92.66 0.13 92.50 0.03L92.50 0.03Q92.41-0.03 92.33-0.08Q92.25-0.13 92.19-0.16L92.19-0.16L91.81-0.31L91.94-0.72Q92-0.97 91.91-1.11Q91.81-1.25 91.53-1.50L91.53-1.50Q91.44-1.59 91.34-1.69Q91.25-1.78 91.19-1.88L91.19-1.88L90.66-2.47L91.50-2.69Q92.28-2.91 92.55-3.25Q92.81-3.59 92.75-4.41L92.75-4.41Q92.13-4.53 91.70-4.44Q91.28-4.34 90.84-4.22L90.84-4.22Q90.28-4.06 89.70-3.95Q89.13-3.84 88.44-3.84L88.44-3.84Q88.19-3.84 87.97-3.86Q87.75-3.88 87.50-3.91L87.50-3.91L87.19-3.97Q87.13-4.31 87.06-4.36Q87-4.41 86.94-4.47L86.94-4.47Q86.78-4.63 86.61-4.89Q86.44-5.16 86.53-5.56L86.53-5.56Q86.38-5.84 86.34-6.13L86.34-6.13Q86.16-5.75 86.06-5.34L86.06-5.34L85.94-5.03L85.63-4.97Q85.56-4.94 85.53-4.83Q85.50-4.72 85.50-4.66L85.50-4.66L85.34-4.13Q85.28-4.06 85.22-4.02Q85.16-3.97 85.09-3.91L85.09-3.91Q85.03-3.63 84.94-3.34Q84.84-3.06 84.75-2.81L84.75-2.81Q84.59-2.41 84.48-2.02Q84.38-1.63 84.41-1.25L84.41-1.25L84.28-0.91Q84.13-0.72 83.94-0.61Q83.75-0.50 83.56-0.41L83.56-0.41Q83.50-0.34 83.39-0.30Q83.28-0.25 83.22-0.22L83.22-0.22L83.13 0.13L82.75 0.19Q82.41 0.25 82.27 0.28Q82.13 0.31 81.94 0.31L81.94 0.31L81.63 0.28Q81.28 0 81.09-0.17Q80.91-0.34 80.66-0.50L80.66-0.50Q80.38-0.88 80.34-1.06Q80.31-1.25 80.28-1.41L80.28-1.41Q80.22-1.59 80.20-1.72Q80.19-1.84 80.13-1.91L80.13-1.91L79.72-2.28L80.06-2.56L80.09-3.09Q80.72-4.69 81.42-6.16Q82.13-7.63 82.88-9.16L82.88-9.16Q83.13-9.66 83.36-10.16Q83.59-10.66 83.84-11.16L83.84-11.16Q83.81-11.25 83.81-11.38Q83.81-11.50 83.88-11.66L83.88-11.66Q84.22-12.19 84.44-12.61Q84.66-13.03 84.88-13.47L84.88-13.47Q85.13-14 85.39-14.50Q85.66-15 86.06-15.53L86.06-15.53L86.56-15.75Q86.66-15.78 86.78-15.83Q86.91-15.88 87.06-15.88L87.06-15.88L87.53-15.81Q88.41-16.22 89.06-16.95Q89.72-17.69 90.41-18.72L90.41-18.72L90.72-19.16L91.13-18.91Q91.28-18.81 91.56-18.73Q91.84-18.66 92.16-18.56L92.16-18.56Q92.72-18.44 93.22-18.28Q93.72-18.13 94.03-17.81L94.03-17.81Q94.22-17.31 94.25-17.06Q94.28-16.81 94.34-16.56L94.34-16.56Q94.44-16.03 94.52-15.50Q94.59-14.97 94.63-14.31L94.63-14.31Q94.78-13.78 94.89-13.27Q95-12.75 95.09-12.22L95.09-12.22Q95.25-11.47 95.41-10.77Q95.56-10.06 95.81-9.44L95.81-9.44Q96.06-9.44 96.13-9.41L96.13-9.41Q96.28-9.47 96.45-9.50Q96.63-9.53 96.84-9.56L96.84-9.56L97.19-9.59L97.31-9.28Q97.34-9.13 97.63-8.97L97.63-8.97Q98.03-8.94 98.22-8.80Q98.41-8.66 98.56-8.50L98.56-8.50Q98.69-8.38 98.81-8.31L98.81-8.31L99.28-8.13L99.03-7.66Q98.72-7.09 98.14-6.58Q97.56-6.06 96.84-5.72L96.84-5.72Q96.88-5.53 96.89-5.36Q96.91-5.19 96.97-5L96.97-5Q97.06-4.47 97.13-3.91Q97.19-3.34 97.13-2.75L97.13-2.75ZM88.03-8.03L88.03-8.03Q88.97-8.09 89.73-8.17Q90.50-8.25 91.44-8.44L91.44-8.44Q91.22-9.38 90.97-10.39Q90.72-11.41 90.44-12.41L90.44-12.41L90.25-12.09Q89.63-11.44 89.05-10.63Q88.47-9.81 88.06-9.09L88.06-9.09Q87.88-8.81 87.69-8.53Q87.50-8.25 87.34-7.97L87.34-7.97Q87.53-8 87.70-8Q87.88-8 88.03-8.03ZM105.53-5.69L105.53-5.69Q105.25-5.63 105.13-5.36Q105-5.09 104.89-4.81Q104.78-4.53 104.67-4.30Q104.56-4.06 104.34-4.06L104.34-4.06Q104.31-3.81 104.17-3.63Q104.03-3.44 103.91-3.23Q103.78-3.03 103.72-2.80Q103.66-2.56 103.78-2.25L103.78-2.25Q103.53-2.06 103.47-1.72Q103.41-1.38 103.33-1.06Q103.25-0.75 103.06-0.53Q102.88-0.31 102.38-0.34L102.38-0.34Q102.28-0.22 102.34-0.19Q102.41-0.16 102.44 0.03L102.44 0.03Q102.09-0.03 101.92 0.08Q101.75 0.19 101.50 0.22L101.50 0.22Q100.91 0.03 100.52-0.44Q100.13-0.91 99.83-1.48Q99.53-2.06 99.30-2.66Q99.06-3.25 98.84-3.69L98.84-3.69Q98.94-4.03 98.88-4.36Q98.81-4.69 98.66-4.91L98.66-4.91Q100.19-8.16 102-11.84Q103.81-15.53 105.44-19.13L105.44-19.13Q106.16-18.84 106.86-18.48Q107.56-18.13 108.14-17.66Q108.72-17.19 109.13-16.58Q109.53-15.97 109.66-15.22L109.66-15.22Q109.59-15.03 109.52-15.08Q109.44-15.13 109.38-15.03L109.38-15.03Q109.50-14.88 109.52-14.81Q109.53-14.75 109.52-14.69Q109.50-14.63 109.50-14.52Q109.50-14.41 109.59-14.22L109.59-14.22Q109.47-14.25 109.42-14.19Q109.38-14.13 109.22-14.19L109.22-14.19Q109.34-13.84 109.30-13.63Q109.25-13.41 109.16-13.23Q109.06-13.06 109-12.86Q108.94-12.66 109.03-12.34L109.03-12.34Q108.94-12.34 108.89-12.30Q108.84-12.25 108.81-12.20Q108.78-12.16 108.73-12.11Q108.69-12.06 108.59-12.09L108.59-12.09Q108.69-11.41 108.66-10.72Q108.63-10.03 108.61-9.33Q108.59-8.63 108.63-7.86Q108.66-7.09 108.84-6.28L108.84-6.28Q109.97-6.94 110.64-7.97Q111.31-9 111.73-10.28Q112.16-11.56 112.38-13.03Q112.59-14.50 112.84-16.03L112.84-16.03Q113.13-16.31 113.28-16.72Q113.44-17.13 113.56-17.58Q113.69-18.03 113.81-18.48Q113.94-18.94 114.13-19.31L114.13-19.31Q114.59-19.25 114.92-19.02Q115.25-18.78 115.53-18.52Q115.81-18.25 116.13-18.02Q116.44-17.78 116.91-17.72L116.91-17.72Q117.28-17.19 117.59-16.69Q117.91-16.19 118-15.63L118-15.63Q117.84-15.38 117.77-15.06Q117.69-14.75 117.59-14.44Q117.50-14.13 117.34-13.86Q117.19-13.59 116.91-13.41L116.91-13.41Q116.81-12.59 116.67-11.92Q116.53-11.25 116.39-10.59Q116.25-9.94 116.16-9.23Q116.06-8.53 116.09-7.69L116.09-7.69Q115.84-6.97 115.56-6.16Q115.28-5.34 115.13-4.69L115.13-4.69Q114.63-4.28 114.34-3.72Q114.06-3.16 113.75-2.59L113.75-2.59Q113.63-2.47 113.59-2.53Q113.56-2.59 113.38-2.63L113.38-2.63Q113.41-2.50 113.38-2.44Q113.34-2.38 113.30-2.33Q113.25-2.28 113.23-2.19Q113.22-2.09 113.28-1.94L113.28-1.94Q112.84-1.75 112.50-1.41Q112.16-1.06 111.77-0.78Q111.38-0.50 110.83-0.41Q110.28-0.31 109.41-0.63L109.41-0.63Q108.13-1.56 107.14-2.78Q106.16-4 105.53-5.69ZM134.63-17.59L134.63-17.59Q134.66-17.38 134.64-17.27Q134.63-17.16 134.61-17.06Q134.59-16.97 134.59-16.86Q134.59-16.75 134.66-16.53L134.66-16.53Q134-15.47 133.14-15.08Q132.28-14.69 131.28-14.52Q130.28-14.34 129.23-14.16Q128.19-13.97 127.16-13.34L127.16-13.34Q126.75-13.50 126.42-13.34Q126.09-13.19 125.47-13.25L125.47-13.25Q125.28-13.06 125-12.98Q124.72-12.91 124.44-12.81L124.44-12.81Q124.56-12.53 124.55-12.23Q124.53-11.94 124.63-11.75L124.63-11.75Q125.72-11.66 127.05-11.78Q128.38-11.91 129.66-11.94L129.66-11.94Q129.69-11.78 129.63-11.73Q129.56-11.69 129.59-11.56L129.59-11.56Q129.81-11.41 130.03-11.17Q130.25-10.94 130.47-10.72Q130.69-10.50 130.92-10.36Q131.16-10.22 131.47-10.25L131.47-10.25Q131.59-10 131.64-9.70Q131.69-9.41 131.56-9.09L131.56-9.09Q131.06-8.75 130.56-8.39Q130.06-8.03 129.52-7.75Q128.97-7.47 128.36-7.30Q127.75-7.13 127-7.16L127-7.16Q126.84-7.16 126.77-7.16Q126.69-7.16 126.56-7.25L126.56-7.25Q126.31-7.09 125.86-7.16Q125.41-7.22 125.16-7.06L125.16-7.06Q124.81-7.22 124.33-7.20Q123.84-7.19 123.47-7.31L123.47-7.31Q122.97-6.66 122.56-5.91Q122.16-5.16 121.84-4.31L121.84-4.31Q122.91-4.16 123.61-4.19Q124.31-4.22 124.94-4.30Q125.56-4.38 126.22-4.45Q126.88-4.53 127.88-4.50L127.88-4.50Q128.50-4.84 129.36-4.95Q130.22-5.06 130.94-5.31L130.94-5.31Q131.19-5.22 131.38-4.98Q131.56-4.75 131.73-4.55Q131.91-4.34 132.09-4.19Q132.28-4.03 132.56-4.06L132.56-4.06Q132.69-3.94 132.73-3.77Q132.78-3.59 132.81-3.44Q132.84-3.28 132.92-3.17Q133-3.06 133.19-3.09L133.19-3.09Q132.72-2.06 132.11-1.52Q131.50-0.97 130.72-0.69Q129.94-0.41 128.98-0.25Q128.03-0.09 126.88 0.13L126.88 0.13Q126.59 0.19 126.41 0.11Q126.22 0.03 125.97 0.03L125.97 0.03Q125.25 0.19 124.25 0.31Q123.25 0.44 122.22 0.41Q121.19 0.38 120.25 0.14Q119.31-0.09 118.72-0.69L118.72-0.69Q118.47-0.91 118.39-1.20Q118.31-1.50 117.97-1.66L117.97-1.66Q117.94-2.06 117.84-2.56Q117.75-3.06 117.66-3.61Q117.56-4.16 117.52-4.69Q117.47-5.22 117.56-5.66L117.56-5.66Q117.66-6.13 117.95-6.50Q118.25-6.88 118.16-7.31L118.16-7.31Q118.31-7.34 118.34-7.48Q118.38-7.63 118.59-7.59L118.59-7.59Q118.78-8.16 119-8.66Q119.22-9.16 119.45-9.63Q119.69-10.09 119.92-10.58Q120.16-11.06 120.38-11.66L120.38-11.66Q119.94-12.06 119.73-12.55Q119.53-13.03 119.44-13.52Q119.34-14 119.28-14.52Q119.22-15.03 119.06-15.56L119.06-15.56Q119.38-16.03 119.83-16.33Q120.28-16.63 120.81-16.81Q121.34-17 121.97-17.13Q122.59-17.25 123.28-17.41L123.28-17.41Q124.53-17.81 125.52-18.03Q126.50-18.25 127.45-18.39Q128.41-18.53 129.44-18.66Q130.47-18.78 131.78-19.03L131.78-19.03Q132.06-18.75 132.31-18.75L132.31-18.75Q132.44-19.03 132.61-18.92Q132.78-18.81 132.75-19.09L132.75-19.09Q133.06-18.56 133.55-18.20Q134.03-17.84 134.63-17.59ZM140.28-5.69L140.28-5.69Q140-5.63 139.88-5.36Q139.75-5.09 139.64-4.81Q139.53-4.53 139.42-4.30Q139.31-4.06 139.09-4.06L139.09-4.06Q139.06-3.81 138.92-3.63Q138.78-3.44 138.66-3.23Q138.53-3.03 138.47-2.80Q138.41-2.56 138.53-2.25L138.53-2.25Q138.28-2.06 138.22-1.72Q138.16-1.38 138.08-1.06Q138-0.75 137.81-0.53Q137.63-0.31 137.13-0.34L137.13-0.34Q137.03-0.22 137.09-0.19Q137.16-0.16 137.19 0.03L137.19 0.03Q136.84-0.03 136.67 0.08Q136.50 0.19 136.25 0.22L136.25 0.22Q135.66 0.03 135.27-0.44Q134.88-0.91 134.58-1.48Q134.28-2.06 134.05-2.66Q133.81-3.25 133.59-3.69L133.59-3.69Q133.69-4.03 133.63-4.36Q133.56-4.69 133.41-4.91L133.41-4.91Q134.94-8.16 136.75-11.84Q138.56-15.53 140.19-19.13L140.19-19.13Q140.91-18.84 141.61-18.48Q142.31-18.13 142.89-17.66Q143.47-17.19 143.88-16.58Q144.28-15.97 144.41-15.22L144.41-15.22Q144.34-15.03 144.27-15.08Q144.19-15.13 144.13-15.03L144.13-15.03Q144.25-14.88 144.27-14.81Q144.28-14.75 144.27-14.69Q144.25-14.63 144.25-14.52Q144.25-14.41 144.34-14.22L144.34-14.22Q144.22-14.25 144.17-14.19Q144.13-14.13 143.97-14.19L143.97-14.19Q144.09-13.84 144.05-13.63Q144-13.41 143.91-13.23Q143.81-13.06 143.75-12.86Q143.69-12.66 143.78-12.34L143.78-12.34Q143.69-12.34 143.64-12.30Q143.59-12.25 143.56-12.20Q143.53-12.16 143.48-12.11Q143.44-12.06 143.34-12.09L143.34-12.09Q143.44-11.41 143.41-10.72Q143.38-10.03 143.36-9.33Q143.34-8.63 143.38-7.86Q143.41-7.09 143.59-6.28L143.59-6.28Q144.72-6.94 145.39-7.97Q146.06-9 146.48-10.28Q146.91-11.56 147.13-13.03Q147.34-14.50 147.59-16.03L147.59-16.03Q147.88-16.31 148.03-16.72Q148.19-17.13 148.31-17.58Q148.44-18.03 148.56-18.48Q148.69-18.94 148.88-19.31L148.88-19.31Q149.34-19.25 149.67-19.02Q150-18.78 150.28-18.52Q150.56-18.25 150.88-18.02Q151.19-17.78 151.66-17.72L151.66-17.72Q152.03-17.19 152.34-16.69Q152.66-16.19 152.75-15.63L152.75-15.63Q152.59-15.38 152.52-15.06Q152.44-14.75 152.34-14.44Q152.25-14.13 152.09-13.86Q151.94-13.59 151.66-13.41L151.66-13.41Q151.56-12.59 151.42-11.92Q151.28-11.25 151.14-10.59Q151-9.94 150.91-9.23Q150.81-8.53 150.84-7.69L150.84-7.69Q150.59-6.97 150.31-6.16Q150.03-5.34 149.88-4.69L149.88-4.69Q149.38-4.28 149.09-3.72Q148.81-3.16 148.50-2.59L148.50-2.59Q148.38-2.47 148.34-2.53Q148.31-2.59 148.13-2.63L148.13-2.63Q148.16-2.50 148.13-2.44Q148.09-2.38 148.05-2.33Q148-2.28 147.98-2.19Q147.97-2.09 148.03-1.94L148.03-1.94Q147.59-1.75 147.25-1.41Q146.91-1.06 146.52-0.78Q146.13-0.50 145.58-0.41Q145.03-0.31 144.16-0.63L144.16-0.63Q142.88-1.56 141.89-2.78Q140.91-4 140.28-5.69ZM169.72-15.03L169.72-15.03Q168.94-15.03 168.03-14.92Q167.13-14.81 166.25-14.69L166.25-14.69Q165.63-14.59 165.05-14.53Q164.47-14.47 164-14.44L164-14.44Q163.78-13.75 163.56-13.22Q163.34-12.69 163.09-12.19L163.09-12.19Q162.84-11.66 162.64-11.11Q162.44-10.56 162.25-9.94L162.25-9.94Q161.94-9.44 161.73-9.02Q161.53-8.59 161.41-8.06L161.41-8.06Q161.03-7.59 160.84-7.08Q160.66-6.56 160.56-6.19L160.56-6.19L160.44-5.81Q160.25-5.63 160.22-5.52Q160.19-5.41 160.06-5.31L160.06-5.31Q160.03-4.97 159.84-4.63L159.84-4.63Q159.78-4.47 159.75-4.33Q159.72-4.19 159.72-4.13L159.72-4.13Q159.72-3.81 159.56-3.72L159.56-3.72Q159.59-3.56 159.56-3.39Q159.53-3.22 159.50-3.06L159.50-3.06Q159.41-2.69 159.44-2.47L159.44-2.47Q159.53-2.34 159.61-2.25Q159.69-2.16 159.72-2L159.72-2Q159.91-1.88 160-1.84L160-1.84Q160.13-1.75 160.38-1.63L160.38-1.63L160.66-1.31Q160.81-0.41 160.38 0.13L160.38 0.13Q159.91 0.72 158.78 0.72L158.78 0.72L158.41 0.72Q158.25 0.56 158.22 0.47L158.22 0.47Q157.97 0.38 157.81 0.31Q157.66 0.25 157.53 0.06L157.53 0.06Q157.13-0.13 156.88-0.25L156.88-0.25L156.59-0.41Q156.59-0.75 156.59-0.78L156.59-0.78Q156.38-1.06 156.27-1.41Q156.16-1.75 156.09-2.09L156.09-2.09Q156.03-2.38 155.95-2.63Q155.88-2.88 155.75-3.06L155.75-3.06Q155.69-4.88 156.09-6.13Q156.50-7.38 156.94-8.53L156.94-8.53Q157.19-9.16 157.44-9.80Q157.69-10.44 157.88-11.13L157.88-11.13L158.16-11.44Q158.38-11.94 158.52-12.27Q158.66-12.59 158.81-12.94L158.81-12.94Q158.91-13.16 158.98-13.36Q159.06-13.56 159.13-13.72L159.13-13.72Q158.94-13.72 158.78-13.70Q158.63-13.69 158.47-13.66L158.47-13.66Q158.28-13.63 158.13-13.61Q157.97-13.59 157.81-13.59L157.81-13.59Q157.59-13.59 157.50-13.63L157.50-13.63Q157.16-13.47 156.75-13.47L156.75-13.47L156.44-13.47Q156.34-13.47 156.27-13.48Q156.19-13.50 156.13-13.50L156.13-13.50Q155.81-13.50 155.63-13.41L155.63-13.41Q155.25-13.41 154.91-13.41L154.91-13.41L154.59-13.41Q154.53-13.41 154.44-13.39Q154.34-13.38 154.28-13.38L154.28-13.38Q154.06-13.38 153.81-13.42Q153.56-13.47 153.28-13.63L153.28-13.63Q152.91-14.13 152.78-14.16L152.78-14.16L152.50-14.53Q152.47-14.72 152.41-14.89Q152.34-15.06 152.28-15.28L152.28-15.28Q152.16-15.59 152.05-15.95Q151.94-16.31 151.94-16.81L151.94-16.81Q151.97-17.06 152.06-17.19Q152.16-17.31 152.22-17.41L152.22-17.41L152.31-17.88L152.72-17.84L153.59-17.84Q154.59-17.84 155.63-17.92Q156.66-18 157.75-18.09L157.75-18.09Q158.38-18.16 159.02-18.22Q159.66-18.28 160.34-18.34L160.34-18.34Q160.47-18.63 160.59-18.88L160.59-18.88L160.91-19.03Q161.47-19.06 161.70-18.89Q161.94-18.72 162.09-18.56L162.09-18.56Q162.78-18.63 163.48-18.70Q164.19-18.78 164.91-18.91L164.91-18.91Q165.97-19.06 167.05-19.19Q168.13-19.31 169.13-19.31L169.13-19.31Q169.56-19.31 169.97-19.28Q170.38-19.25 170.72-19.19L170.72-19.19L171.03-18.97Q171.13-18.78 171.30-18.63Q171.47-18.47 171.66-18.31L171.66-18.31Q172.03-17.97 172.41-17.50Q172.78-17.03 172.69-16.13L172.69-16.13Q172.44-15.75 172.31-15.69L172.31-15.69L172.03-15.31L171.72-15.34Q171.53-15.34 171.38-15.30Q171.22-15.25 171.06-15.19L171.06-15.19Q170.94-15.13 170.81-15.08Q170.69-15.03 170.53-15L170.53-15Q170.25-15 170.08-15.02Q169.91-15.03 169.72-15.03ZM181.94 0.44L181.94 0.44Q181.63 0.44 180.97 0.34L180.97 0.34Q180.47-0.19 180.08-1.11Q179.69-2.03 179.48-3.08Q179.28-4.13 179.30-5.17Q179.31-6.22 179.66-7.03L179.66-7.03Q179.66-7.06 179.95-7.78Q180.25-8.50 180.72-9.61Q181.19-10.72 181.78-12.08Q182.38-13.44 182.97-14.75Q183.56-16.06 184.11-17.14Q184.66-18.22 185.06-18.81L185.06-18.81Q185.34-19.25 185.58-19.66Q185.81-20.06 186.03-20.41L186.03-20.41Q186.38-20.97 186.67-21.45Q186.97-21.94 187.33-22.33Q187.69-22.72 188.13-23.02Q188.56-23.31 189.19-23.53L189.19-23.53Q189.56-23.38 189.84-23.20Q190.13-23.03 190.34-22.78L190.34-22.78L190.44-22.34Q190.50-22.13 190.64-22.05Q190.78-21.97 190.88-21.97L190.88-21.97Q191.28-21.88 191.58-21.77Q191.88-21.66 192.22-21.63L192.22-21.63Q192.34-21.44 192.45-21.25Q192.56-21.06 192.69-20.91L192.69-20.91Q193.31-20 193.72-19.16Q194.13-18.31 193.72-17.31L193.72-17.31L193.75-16.97Q193.91-16.75 193.91-16.56Q193.91-16.38 193.84-16.03L193.84-16.03Q193.81-15.78 193.80-15.48Q193.78-15.19 193.88-14.84L193.88-14.84L194.09-14.59Q194.59-14.34 195.06-14.34L195.06-14.34Q195.69-14.34 196.19-14.63Q196.69-14.91 197.13-15.19L197.13-15.19Q197.47-15.44 197.77-15.59Q198.06-15.75 198.34-15.81L198.34-15.81Q199-16.44 199.55-16.92Q200.09-17.41 200.69-17.91L200.69-17.91Q201.81-18.81 202.88-19.86Q203.94-20.91 204.56-22.47L204.56-22.47Q204.91-22.69 205.34-22.69L205.34-22.69Q205.78-22.69 206.22-22.52Q206.66-22.34 207.09-22.13L207.09-22.13Q207.19-22.06 207.27-22.03Q207.34-22 207.44-21.94L207.44-21.94Q207.44-21.59 207.72-21.31L207.72-21.31Q207.88-21.19 207.94-21.16Q208-21.13 208.06-21.09L208.06-21.09Q208.31-20.94 208.48-20.81Q208.66-20.69 208.75-20.47L208.75-20.47Q209.03-19.63 209.69-19.16L209.69-19.16Q209.63-18.81 209.72-18.48Q209.81-18.16 209.94-17.84L209.94-17.84Q210-17.72 210.03-17.61Q210.06-17.50 210.13-17.34L210.13-17.34L209.44-17.41L209.53-16.72Q209.63-16.19 209.45-15.53Q209.28-14.88 209.06-14.50L209.06-14.50Q209.13-13.56 209.13-13.02Q209.13-12.47 209.06-12Q209-11.53 208.86-11.11Q208.72-10.69 208.50-10.22L208.50-10.22Q208.63-7.84 207.95-5.88Q207.28-3.91 206.50-2.19L206.50-2.19Q206.41-1.97 206.31-1.78Q206.22-1.59 206.16-1.41L206.16-1.41Q205.81-1.31 205.53-1.19Q205.25-1.06 205-0.91L205-0.91Q204.66-0.69 204.31-0.55Q203.97-0.41 203.59-0.41L203.59-0.41Q202.09-1.50 202.05-4.19Q202-6.88 203.19-11.03L203.19-11.03Q203.41-11.19 203.38-11.50L203.38-11.50L203.38-11.84L203.06-11.88Q202.91-11.88 202.78-11.84Q202.66-11.81 202.59-11.56L202.59-11.56Q201.59-10.84 200.42-10.08Q199.25-9.31 198-8.67Q196.75-8.03 195.45-7.61Q194.16-7.19 192.94-7.19L192.94-7.19Q189.81-7.19 188.22-10.38L188.22-10.38L187.94-10.94L187.63-10.44Q187.53-10.28 187.30-9.83Q187.06-9.38 186.83-8.78Q186.59-8.19 186.42-7.56Q186.25-6.94 186.31-6.47L186.31-6.47Q185.94-6.13 185.58-5.69Q185.22-5.25 185.06-4.69L185.06-4.69Q185-4.53 185.03-4.39Q185.06-4.25 185.13-4.09L185.13-4.09Q185.09-3.88 185-3.78Q184.91-3.69 184.78-3.59L184.78-3.59Q184.63-3.44 184.47-3.27Q184.31-3.09 184.19-2.88L184.19-2.88Q184.13-2.69 184.09-2.48Q184.06-2.28 184.03-2.13L184.03-2.13Q184.03-1.78 183.94-1.66L183.94-1.66Q183.63-1 183.39-0.58Q183.16-0.16 182.94 0.06Q182.72 0.28 182.48 0.36Q182.25 0.44 181.94 0.44ZM226.88-2.75L226.81-2.63Q226.63-2.09 226.27-1.55Q225.91-1 225.42-0.58Q224.94-0.16 224.34 0.13Q223.75 0.41 223.09 0.44L223.09 0.44Q222.69 0.34 222.55 0.23Q222.41 0.13 222.25 0.03L222.25 0.03Q222.16-0.03 222.08-0.08Q222-0.13 221.94-0.16L221.94-0.16L221.56-0.31L221.69-0.72Q221.75-0.97 221.66-1.11Q221.56-1.25 221.28-1.50L221.28-1.50Q221.19-1.59 221.09-1.69Q221-1.78 220.94-1.88L220.94-1.88L220.41-2.47L221.25-2.69Q222.03-2.91 222.30-3.25Q222.56-3.59 222.50-4.41L222.50-4.41Q221.88-4.53 221.45-4.44Q221.03-4.34 220.59-4.22L220.59-4.22Q220.03-4.06 219.45-3.95Q218.88-3.84 218.19-3.84L218.19-3.84Q217.94-3.84 217.72-3.86Q217.50-3.88 217.25-3.91L217.25-3.91L216.94-3.97Q216.88-4.31 216.81-4.36Q216.75-4.41 216.69-4.47L216.69-4.47Q216.53-4.63 216.36-4.89Q216.19-5.16 216.28-5.56L216.28-5.56Q216.13-5.84 216.09-6.13L216.09-6.13Q215.91-5.75 215.81-5.34L215.81-5.34L215.69-5.03L215.38-4.97Q215.31-4.94 215.28-4.83Q215.25-4.72 215.25-4.66L215.25-4.66L215.09-4.13Q215.03-4.06 214.97-4.02Q214.91-3.97 214.84-3.91L214.84-3.91Q214.78-3.63 214.69-3.34Q214.59-3.06 214.50-2.81L214.50-2.81Q214.34-2.41 214.23-2.02Q214.13-1.63 214.16-1.25L214.16-1.25L214.03-0.91Q213.88-0.72 213.69-0.61Q213.50-0.50 213.31-0.41L213.31-0.41Q213.25-0.34 213.14-0.30Q213.03-0.25 212.97-0.22L212.97-0.22L212.88 0.13L212.50 0.19Q212.16 0.25 212.02 0.28Q211.88 0.31 211.69 0.31L211.69 0.31L211.38 0.28Q211.03 0 210.84-0.17Q210.66-0.34 210.41-0.50L210.41-0.50Q210.13-0.88 210.09-1.06Q210.06-1.25 210.03-1.41L210.03-1.41Q209.97-1.59 209.95-1.72Q209.94-1.84 209.88-1.91L209.88-1.91L209.47-2.28L209.81-2.56L209.84-3.09Q210.47-4.69 211.17-6.16Q211.88-7.63 212.63-9.16L212.63-9.16Q212.88-9.66 213.11-10.16Q213.34-10.66 213.59-11.16L213.59-11.16Q213.56-11.25 213.56-11.38Q213.56-11.50 213.63-11.66L213.63-11.66Q213.97-12.19 214.19-12.61Q214.41-13.03 214.63-13.47L214.63-13.47Q214.88-14 215.14-14.50Q215.41-15 215.81-15.53L215.81-15.53L216.31-15.75Q216.41-15.78 216.53-15.83Q216.66-15.88 216.81-15.88L216.81-15.88L217.28-15.81Q218.16-16.22 218.81-16.95Q219.47-17.69 220.16-18.72L220.16-18.72L220.47-19.16L220.88-18.91Q221.03-18.81 221.31-18.73Q221.59-18.66 221.91-18.56L221.91-18.56Q222.47-18.44 222.97-18.28Q223.47-18.13 223.78-17.81L223.78-17.81Q223.97-17.31 224-17.06Q224.03-16.81 224.09-16.56L224.09-16.56Q224.19-16.03 224.27-15.50Q224.34-14.97 224.38-14.31L224.38-14.31Q224.53-13.78 224.64-13.27Q224.75-12.75 224.84-12.22L224.84-12.22Q225-11.47 225.16-10.77Q225.31-10.06 225.56-9.44L225.56-9.44Q225.81-9.44 225.88-9.41L225.88-9.41Q226.03-9.47 226.20-9.50Q226.38-9.53 226.59-9.56L226.59-9.56L226.94-9.59L227.06-9.28Q227.09-9.13 227.38-8.97L227.38-8.97Q227.78-8.94 227.97-8.80Q228.16-8.66 228.31-8.50L228.31-8.50Q228.44-8.38 228.56-8.31L228.56-8.31L229.03-8.13L228.78-7.66Q228.47-7.09 227.89-6.58Q227.31-6.06 226.59-5.72L226.59-5.72Q226.63-5.53 226.64-5.36Q226.66-5.19 226.72-5L226.72-5Q226.81-4.47 226.88-3.91Q226.94-3.34 226.88-2.75L226.88-2.75ZM217.78-8.03L217.78-8.03Q218.72-8.09 219.48-8.17Q220.25-8.25 221.19-8.44L221.19-8.44Q220.97-9.38 220.72-10.39Q220.47-11.41 220.19-12.41L220.19-12.41L220-12.09Q219.38-11.44 218.80-10.63Q218.22-9.81 217.81-9.09L217.81-9.09Q217.63-8.81 217.44-8.53Q217.25-8.25 217.09-7.97L217.09-7.97Q217.28-8 217.45-8Q217.63-8 217.78-8.03ZM233.91-3.25L233.91-3.25Q233.56-2 233.30-1.36Q233.03-0.72 232.50-0.03L232.50-0.03Q232.09-0.09 231.94 0.06Q231.78 0.22 231.59 0.34L231.59 0.34Q231.31 0.41 231.19 0.34Q231.06 0.28 230.97 0.20Q230.88 0.13 230.73 0.05Q230.59-0.03 230.31-0.03L230.31-0.03Q230.25-0.28 230.17-0.50Q230.09-0.72 229.75-0.66L229.75-0.66Q229.81-0.91 229.78-1.08Q229.75-1.25 229.70-1.39Q229.66-1.53 229.63-1.67Q229.59-1.81 229.66-2.03L229.66-2.03Q229.50-2.03 229.41-2.25Q229.31-2.47 229.19-2.69L229.19-2.69Q229.28-3.25 229.38-3.75Q229.47-4.25 229.61-4.69Q229.75-5.13 229.84-5.56Q229.94-6 229.75-6.47L229.75-6.47Q229.88-6.38 229.94-6.52Q230-6.66 230.03-6.89Q230.06-7.13 230.06-7.36Q230.06-7.59 230.03-7.75L230.03-7.75Q230.34-8.56 230.55-9.42Q230.75-10.28 230.92-11.13Q231.09-11.97 231.28-12.78Q231.47-13.59 231.78-14.28L231.78-14.28Q232.13-14.34 232.55-14.20Q232.97-14.06 233.06-13.84L233.06-13.84Q233.88-14.47 234.50-15.36Q235.13-16.25 235.78-17.09Q236.44-17.94 237.23-18.59Q238.03-19.25 239.25-19.38L239.25-19.38Q239.88-18.91 240.64-18.42Q241.41-17.94 241.91-17.16L241.91-17.16Q242.16-17.03 242.33-16.89Q242.50-16.75 242.75-16.59L242.75-16.59L242.75-16.22Q243.13-15.88 243.36-15.42Q243.59-14.97 243.78-14.45Q243.97-13.94 244.16-13.42Q244.34-12.91 244.59-12.44L244.59-12.44Q244.53-12.28 244.53-12.17Q244.53-12.06 244.58-11.94Q244.63-11.81 244.66-11.69Q244.69-11.56 244.66-11.34L244.66-11.34Q244.56-9.97 243.77-9.13Q242.97-8.28 241.84-7.73Q240.72-7.19 239.44-6.81Q238.16-6.44 237.13-6L237.13-6Q237.13-5.88 237.23-5.88Q237.34-5.88 237.31-5.72L237.31-5.72Q238.06-5.25 238.50-4.97Q238.94-4.69 239.33-4.50Q239.72-4.31 240.17-4.17Q240.63-4.03 241.44-3.84L241.44-3.84Q242.25-3.66 242.70-3.55Q243.16-3.44 243.53-3.36Q243.91-3.28 244.30-3.23Q244.69-3.19 245.41-3.13L245.41-3.13Q245.69-2.84 245.89-2.45Q246.09-2.06 246.16-1.67Q246.22-1.28 246.19-0.92Q246.16-0.56 245.97-0.34L245.97-0.34Q246-0.25 246.11-0.27Q246.22-0.28 246.34-0.25L246.34-0.25Q246.16-0.13 246.03 0.06Q245.91 0.25 245.78 0.44Q245.66 0.63 245.50 0.77Q245.34 0.91 245.06 0.94L245.06 0.94Q244.09 1.31 242.63 0.98Q241.16 0.66 238.91-0.22L238.91-0.22Q237.78-0.66 237.08-0.98Q236.38-1.31 235.86-1.64Q235.34-1.97 234.92-2.34Q234.50-2.72 233.91-3.25ZM238.38-13.97L238.38-13.97Q238.03-13.47 237.61-13.06Q237.19-12.66 236.80-12.23Q236.41-11.81 236.09-11.30Q235.78-10.78 235.66-10.09L235.66-10.09Q236.75-10.22 237.94-10.70Q239.13-11.19 240.19-11.63L240.19-11.63Q240.06-12.59 239.52-13.19Q238.97-13.78 238.38-13.97ZM265.03-1.13L265.03-1.13Q263.53-1.06 262.39-1.19Q261.25-1.31 260.16-1.78L260.16-1.78Q260.09-1.81 260.03-1.94Q259.97-2.06 259.91-2.13L259.91-2.13Q259.72-2.22 259.45-2.20Q259.19-2.19 259-2.25L259-2.25Q258.75-2.38 258.22-2.73Q257.69-3.09 257.25-3.41L257.25-3.41Q256.69-3.84 256.19-4.28Q255.69-4.72 255.31-5.22L255.31-5.22Q255.22-5.34 255.06-5.36Q254.91-5.38 254.78-5.44L254.78-5.44Q253.88-4.88 253.25-4.03Q252.63-3.19 252.06-2.31Q251.50-1.44 250.88-0.66Q250.25 0.13 249.28 0.53L249.28 0.53Q249 0.53 248.78 0.44Q248.56 0.34 248.38 0.20Q248.19 0.06 248-0.06Q247.81-0.19 247.59-0.25L247.59-0.25Q247.59-0.63 247.45-0.94Q247.31-1.25 247.17-1.53Q247.03-1.81 246.97-2.08Q246.91-2.34 247.09-2.59L247.09-2.59Q246.91-2.78 246.53-3L246.53-3Q246.72-3.19 246.70-3.34Q246.69-3.50 246.63-3.66Q246.56-3.81 246.52-4Q246.47-4.19 246.59-4.38L246.59-4.38Q246.75-4.38 246.97-4.44L246.97-4.44Q246.78-4.69 246.80-4.73Q246.81-4.78 246.72-4.88L246.72-4.88Q246.66-5.06 246.78-5.11Q246.91-5.16 247.03-5.22L247.03-5.22Q247.16-6.75 247.56-8.06Q247.97-9.38 248.47-10.59Q248.97-11.81 249.45-13.06Q249.94-14.31 250.25-15.75L250.25-15.75Q250.59-16.09 250.80-16.56Q251-17.03 251.23-17.50Q251.47-17.97 251.77-18.42Q252.06-18.88 252.59-19.16L252.59-19.16Q253.03-19.13 253.38-18.92Q253.72-18.72 254.22-18.75L254.22-18.75Q254.31-18.59 254.39-18.44Q254.47-18.28 254.59-18.13L254.59-18.13L255.06-18.22Q255.41-17.94 255.67-17.52Q255.94-17.09 256.03-16.63Q256.13-16.16 256-15.73Q255.88-15.31 255.41-15.06L255.41-15.06Q255.44-14.91 255.42-14.83Q255.41-14.75 255.38-14.69Q255.34-14.63 255.34-14.56Q255.34-14.50 255.44-14.38L255.44-14.38Q254.81-13.91 254.50-13.06Q254.19-12.22 254.16-11.56L254.16-11.56Q254.53-11.94 254.98-12.30Q255.44-12.66 255.92-13Q256.41-13.34 256.86-13.66Q257.31-13.97 257.69-14.28L257.69-14.28Q258.72-15.22 259.67-15.80Q260.63-16.38 261.69-17.09L261.69-17.09Q261.94-17.16 262.08-17.11Q262.22-17.06 262.38-17L262.38-17Q262.38-17.19 262.27-17.22Q262.16-17.25 262.19-17.47L262.19-17.47Q262.66-17.59 263-17.77Q263.34-17.94 263.75-18.09L263.75-18.09Q264.03-17.81 264.28-17.52Q264.53-17.22 264.97-17.16L264.97-17.16Q265.13-16.81 265.34-16.64Q265.56-16.47 265.78-16.31Q266-16.16 266.17-15.94Q266.34-15.72 266.38-15.25L266.38-15.25Q266.25-15.03 266.11-14.78Q265.97-14.53 265.84-14.19L265.84-14.19Q265.22-13.63 264.58-13.19Q263.94-12.75 263.28-12.34Q262.63-11.94 261.94-11.53Q261.25-11.13 260.53-10.56L260.53-10.56Q260.38-10.34 260.14-10.17Q259.91-10 259.66-9.83Q259.41-9.66 259.19-9.47Q258.97-9.28 258.84-9.03L258.84-9.03Q258.75-9 258.66-9Q258.56-9 258.47-8.97L258.47-8.97Q258.38-8.75 258.17-8.63Q257.97-8.50 257.91-8.28L257.91-8.28Q258.38-7.28 259.13-6.75Q259.88-6.22 260.81-5.98Q261.75-5.75 262.84-5.73Q263.94-5.72 265.13-5.72L265.13-5.72Q265.25-5.75 265.23-5.86Q265.22-5.97 265.38-5.94L265.38-5.94Q266.13-5.69 266.53-5.23Q266.94-4.78 267.50-4.34L267.50-4.34Q267.44-3.16 266.78-2.38Q266.13-1.59 265.03-1.13ZM284.28-17.59L284.28-17.59Q284.31-17.38 284.30-17.27Q284.28-17.16 284.27-17.06Q284.25-16.97 284.25-16.86Q284.25-16.75 284.31-16.53L284.31-16.53Q283.66-15.47 282.80-15.08Q281.94-14.69 280.94-14.52Q279.94-14.34 278.89-14.16Q277.84-13.97 276.81-13.34L276.81-13.34Q276.41-13.50 276.08-13.34Q275.75-13.19 275.13-13.25L275.13-13.25Q274.94-13.06 274.66-12.98Q274.38-12.91 274.09-12.81L274.09-12.81Q274.22-12.53 274.20-12.23Q274.19-11.94 274.28-11.75L274.28-11.75Q275.38-11.66 276.70-11.78Q278.03-11.91 279.31-11.94L279.31-11.94Q279.34-11.78 279.28-11.73Q279.22-11.69 279.25-11.56L279.25-11.56Q279.47-11.41 279.69-11.17Q279.91-10.94 280.13-10.72Q280.34-10.50 280.58-10.36Q280.81-10.22 281.13-10.25L281.13-10.25Q281.25-10 281.30-9.70Q281.34-9.41 281.22-9.09L281.22-9.09Q280.72-8.75 280.22-8.39Q279.72-8.03 279.17-7.75Q278.63-7.47 278.02-7.30Q277.41-7.13 276.66-7.16L276.66-7.16Q276.50-7.16 276.42-7.16Q276.34-7.16 276.22-7.25L276.22-7.25Q275.97-7.09 275.52-7.16Q275.06-7.22 274.81-7.06L274.81-7.06Q274.47-7.22 273.98-7.20Q273.50-7.19 273.13-7.31L273.13-7.31Q272.63-6.66 272.22-5.91Q271.81-5.16 271.50-4.31L271.50-4.31Q272.56-4.16 273.27-4.19Q273.97-4.22 274.59-4.30Q275.22-4.38 275.88-4.45Q276.53-4.53 277.53-4.50L277.53-4.50Q278.16-4.84 279.02-4.95Q279.88-5.06 280.59-5.31L280.59-5.31Q280.84-5.22 281.03-4.98Q281.22-4.75 281.39-4.55Q281.56-4.34 281.75-4.19Q281.94-4.03 282.22-4.06L282.22-4.06Q282.34-3.94 282.39-3.77Q282.44-3.59 282.47-3.44Q282.50-3.28 282.58-3.17Q282.66-3.06 282.84-3.09L282.84-3.09Q282.38-2.06 281.77-1.52Q281.16-0.97 280.38-0.69Q279.59-0.41 278.64-0.25Q277.69-0.09 276.53 0.13L276.53 0.13Q276.25 0.19 276.06 0.11Q275.88 0.03 275.63 0.03L275.63 0.03Q274.91 0.19 273.91 0.31Q272.91 0.44 271.88 0.41Q270.84 0.38 269.91 0.14Q268.97-0.09 268.38-0.69L268.38-0.69Q268.13-0.91 268.05-1.20Q267.97-1.50 267.63-1.66L267.63-1.66Q267.59-2.06 267.50-2.56Q267.41-3.06 267.31-3.61Q267.22-4.16 267.17-4.69Q267.13-5.22 267.22-5.66L267.22-5.66Q267.31-6.13 267.61-6.50Q267.91-6.88 267.81-7.31L267.81-7.31Q267.97-7.34 268-7.48Q268.03-7.63 268.25-7.59L268.25-7.59Q268.44-8.16 268.66-8.66Q268.88-9.16 269.11-9.63Q269.34-10.09 269.58-10.58Q269.81-11.06 270.03-11.66L270.03-11.66Q269.59-12.06 269.39-12.55Q269.19-13.03 269.09-13.52Q269-14 268.94-14.52Q268.88-15.03 268.72-15.56L268.72-15.56Q269.03-16.03 269.48-16.33Q269.94-16.63 270.47-16.81Q271-17 271.63-17.13Q272.25-17.25 272.94-17.41L272.94-17.41Q274.19-17.81 275.17-18.03Q276.16-18.25 277.11-18.39Q278.06-18.53 279.09-18.66Q280.13-18.78 281.44-19.03L281.44-19.03Q281.72-18.75 281.97-18.75L281.97-18.75Q282.09-19.03 282.27-18.92Q282.44-18.81 282.41-19.09L282.41-19.09Q282.72-18.56 283.20-18.20Q283.69-17.84 284.28-17.59ZM288.56-3.25L288.56-3.25Q288.22-2 287.95-1.36Q287.69-0.72 287.16-0.03L287.16-0.03Q286.75-0.09 286.59 0.06Q286.44 0.22 286.25 0.34L286.25 0.34Q285.97 0.41 285.84 0.34Q285.72 0.28 285.63 0.20Q285.53 0.13 285.39 0.05Q285.25-0.03 284.97-0.03L284.97-0.03Q284.91-0.28 284.83-0.50Q284.75-0.72 284.41-0.66L284.41-0.66Q284.47-0.91 284.44-1.08Q284.41-1.25 284.36-1.39Q284.31-1.53 284.28-1.67Q284.25-1.81 284.31-2.03L284.31-2.03Q284.16-2.03 284.06-2.25Q283.97-2.47 283.84-2.69L283.84-2.69Q283.94-3.25 284.03-3.75Q284.13-4.25 284.27-4.69Q284.41-5.13 284.50-5.56Q284.59-6 284.41-6.47L284.41-6.47Q284.53-6.38 284.59-6.52Q284.66-6.66 284.69-6.89Q284.72-7.13 284.72-7.36Q284.72-7.59 284.69-7.75L284.69-7.75Q285-8.56 285.20-9.42Q285.41-10.28 285.58-11.13Q285.75-11.97 285.94-12.78Q286.13-13.59 286.44-14.28L286.44-14.28Q286.78-14.34 287.20-14.20Q287.63-14.06 287.72-13.84L287.72-13.84Q288.53-14.47 289.16-15.36Q289.78-16.25 290.44-17.09Q291.09-17.94 291.89-18.59Q292.69-19.25 293.91-19.38L293.91-19.38Q294.53-18.91 295.30-18.42Q296.06-17.94 296.56-17.16L296.56-17.16Q296.81-17.03 296.98-16.89Q297.16-16.75 297.41-16.59L297.41-16.59L297.41-16.22Q297.78-15.88 298.02-15.42Q298.25-14.97 298.44-14.45Q298.63-13.94 298.81-13.42Q299-12.91 299.25-12.44L299.25-12.44Q299.19-12.28 299.19-12.17Q299.19-12.06 299.23-11.94Q299.28-11.81 299.31-11.69Q299.34-11.56 299.31-11.34L299.31-11.34Q299.22-9.97 298.42-9.13Q297.63-8.28 296.50-7.73Q295.38-7.19 294.09-6.81Q292.81-6.44 291.78-6L291.78-6Q291.78-5.88 291.89-5.88Q292-5.88 291.97-5.72L291.97-5.72Q292.72-5.25 293.16-4.97Q293.59-4.69 293.98-4.50Q294.38-4.31 294.83-4.17Q295.28-4.03 296.09-3.84L296.09-3.84Q296.91-3.66 297.36-3.55Q297.81-3.44 298.19-3.36Q298.56-3.28 298.95-3.23Q299.34-3.19 300.06-3.13L300.06-3.13Q300.34-2.84 300.55-2.45Q300.75-2.06 300.81-1.67Q300.88-1.28 300.84-0.92Q300.81-0.56 300.63-0.34L300.63-0.34Q300.66-0.25 300.77-0.27Q300.88-0.28 301-0.25L301-0.25Q300.81-0.13 300.69 0.06Q300.56 0.25 300.44 0.44Q300.31 0.63 300.16 0.77Q300 0.91 299.72 0.94L299.72 0.94Q298.75 1.31 297.28 0.98Q295.81 0.66 293.56-0.22L293.56-0.22Q292.44-0.66 291.73-0.98Q291.03-1.31 290.52-1.64Q290-1.97 289.58-2.34Q289.16-2.72 288.56-3.25ZM293.03-13.97L293.03-13.97Q292.69-13.47 292.27-13.06Q291.84-12.66 291.45-12.23Q291.06-11.81 290.75-11.30Q290.44-10.78 290.31-10.09L290.31-10.09Q291.41-10.22 292.59-10.70Q293.78-11.19 294.84-11.63L294.84-11.63Q294.72-12.59 294.17-13.19Q293.63-13.78 293.03-13.97Z"/></svg>