<svg id="mainsvg" xmlns="http://www.w3.org/2000/svg" xmlns:xlink="http://www.w3.org/1999/xlink" version="1.1" x="0px" y="0px" enable-background="new 0 0 200 162.5" xml:space="preserve" viewBox="0 0 171 35"><path fill="#000" transform="translate(-0.32, 23.616)" d="M26.14 3.30L26.14 3.30L25.76 4.48Q24.93 4.54 24.51 4.54L24.51 4.54Q22.59 4.54 21.39 2.93Q20.19 1.31 20.19-1.28L20.19-1.28Q20.19-2.85 20.91-7.22Q21.63-11.58 22.59-15.20L22.59-15.20Q22.78-16 22.78-16.26Q22.78-16.51 22.56-16.51Q22.34-16.51 21.14-14.13Q19.94-11.74 18.27-8.27Q16.61-4.80 16.37-4.30Q16.13-3.81 15.98-3.50Q15.84-3.20 15.41-2.42Q14.98-1.63 14.59-1.02L14.59-1.02Q13.54 0.58 12.93 0.58L12.93 0.58Q12.51 0.58 12.02 0.35Q11.52 0.13 11.36-0.13L11.36-0.13Q11.01-0.67 11.01-3.52L11.01-3.52Q11.01-9.47 11.97-14.88L11.97-14.88Q12.29-16.67 12.29-16.77L12.29-16.77Q12.29-17.09 12.03-17.09L12.03-17.09Q11.52-17.09 10.40-13.89L10.40-13.89L9.47-11.23Q7.42-5.44 5.33-2.21Q3.23 1.02 0.51 2.34L0.51 2.34L-0.32 0.58Q2.78-1.73 4.46-4.13Q6.14-6.53 8.13-11.87L8.13-11.87L9.22-14.78Q10.34-17.82 11.17-19.12Q12-20.42 13.02-20.42L13.02-20.42Q14.72-20.42 14.72-18.37L14.72-18.37Q14.72-18.21 14.11-11.89Q13.50-5.57 13.50-3.55L13.50-3.55Q13.50-2.98 13.70-2.94L13.70-2.94Q13.86-2.94 14.05-3.26L14.05-3.26Q16.64-7.58 19.01-12.67L19.01-12.67Q19.30-13.31 20-14.88Q20.70-16.45 21.38-17.66Q22.05-18.88 22.40-19.15Q22.75-19.42 23.52-19.42Q24.29-19.42 24.85-18.86Q25.41-18.30 25.41-17.54Q25.41-16.77 25.18-15.78L25.18-15.78Q22.69-3.58 22.69-1.20Q22.69 1.18 23.46 2.06Q24.22 2.94 26.14 3.30ZM39.87-3.23L39.87-3.23L40.61-2.69Q40.16-1.73 38.96-0.86Q37.76 0 36.77 0L36.77 0Q34.88 0 34.88-1.98L34.88-1.98Q34.88-2.91 35.36-4.19L35.36-4.19L34.18-2.98Q32.45-1.22 31.18-0.61Q29.92 0 28.70 0Q27.49 0 26.86-0.69Q26.24-1.38 26.24-2.59L26.24-2.59Q26.24-4.83 27.97-7.02Q29.70-9.22 32.38-10.59Q35.07-11.97 37.76-12L37.76-12L37.82-10.94L36.48-10.66Q33.57-10.02 31.34-8.10Q29.12-6.18 29.12-4.27Q29.12-2.37 30.66-2.37L30.66-2.37Q32.10-2.37 34.21-4.38Q36.32-6.40 37.73-9.12L37.73-9.12L39.07-8.32Q37.09-4.32 37.09-3.23L37.09-3.23Q37.09-2.78 37.39-2.48Q37.70-2.18 38-2.18Q38.30-2.18 38.40-2.21Q38.50-2.24 38.59-2.29Q38.69-2.34 38.83-2.43Q38.98-2.53 39.09-2.62Q39.20-2.72 39.46-2.91Q39.71-3.10 39.87-3.23ZM50.11-11.33L50.11-11.33Q50.91-11.33 51.42-10.78Q51.94-10.24 51.94-9.38L51.94-9.38Q51.94-7.65 49.95-5.73L49.95-5.73L49.18-6.34Q49.63-7.33 49.63-7.78L49.63-7.78Q49.63-8.64 48.67-8.64Q47.71-8.64 46.85-7.42Q45.98-6.21 44.82-3.66Q43.65-1.12 43.04-0.06L43.04-0.06L41.22-0.86Q42.98-4.86 43.23-5.57L43.23-5.57Q44.10-8.06 44.10-11.90L44.10-11.90L45.89-12.38Q45.79-10.30 45.60-9.17Q45.41-8.03 44.67-5.47L44.67-5.47Q47.90-11.33 50.11-11.33ZM61.18-4.54L61.18-4.54L61.95-3.90Q61.18-2.14 59.49-1.09Q57.79-0.03 56.21-0.03Q54.62-0.03 53.58-1.02Q52.54-2.02 52.54-3.74Q52.54-5.47 54.05-7.49Q55.55-9.50 57.94-10.82Q60.32-12.13 62.62-12.13L62.62-12.13Q62.94-12.13 63.58-12.06L63.58-12.06L63.49-10.82Q59.97-10.66 57.65-8.67Q55.33-6.69 55.33-4.45L55.33-4.45Q55.33-3.52 55.90-2.94Q56.48-2.37 57.41-2.37L57.41-2.37Q58.88-2.37 61.18-4.54ZM77.12-3.26L77.12-3.26L77.92-2.56Q76.06 0.48 73.98 0.48L73.98 0.48Q72.70 0.48 71.36-1.41Q70.02-3.30 70.02-4.51L70.02-4.51Q70.02-5.28 72.32-6.05L72.32-6.05Q73.18-6.34 73.90-6.93Q74.62-7.52 74.62-8.16Q74.62-8.80 74.27-9.14Q73.92-9.47 73.38-9.47L73.38-9.47Q69.86-9.15 66.02 0L66.02 0L64.06-0.67Q64.06-2.05 67.79-11.81Q71.52-21.57 73.09-23.62L73.09-23.62L74.66-23.04Q70.34-15.52 67.42-5.57L67.42-5.57Q69.92-9.31 71.71-10.56Q73.50-11.81 75.14-11.81L75.14-11.81Q76.13-11.81 76.72-11.20Q77.31-10.59 77.31-9.65Q77.31-8.70 76.85-7.94Q76.38-7.17 75.52-6.59L75.52-6.59Q74.27-5.76 72.45-4.96L72.45-4.96Q72.74-3.46 73.44-2.69Q74.14-1.92 75.04-1.92L75.04-1.92Q75.52-1.92 77.12-3.26ZM77.57 3.62L93.12 3.62L93.79 5.15L78.05 5.15L77.57 3.62ZM109.60-5.79L109.60-5.79L111.87-5.82L111.87-4.51Q111.49-4.58 110.98-4.58Q110.46-4.58 109.82-4.51L109.82-4.51Q109.82-2.05 107.46 0.48Q105.09 3.01 101.74 4.59Q98.40 6.18 95.52 6.18L95.52 6.18Q94.02 6.18 93.07 5.41Q92.13 4.64 92.13 3.39L92.13 3.39Q92.13 1.54 94.59-0.48Q97.06-2.50 100.35-3.81Q103.65-5.12 106.30-5.34L106.30-5.34Q105.98-5.82 105.31-6.18Q104.64-6.53 102.56-7.28Q100.48-8.03 99.62-8.94Q98.75-9.86 98.75-11.52Q98.75-13.18 100.54-15.33Q102.34-17.47 104.78-18.93Q107.23-20.38 109.09-20.38L109.09-20.38Q109.92-20.38 110.46-19.79Q111.01-19.20 111.01-18.34L111.01-18.34Q111.01-16.93 109.31-14.80Q107.62-12.67 105.54-11.55L105.54-11.55L104.77-12.64Q106.02-13.28 106.96-14.64Q107.90-16 107.90-16.99Q107.90-17.98 106.85-17.98L106.85-17.98Q105.34-17.98 103.41-16.11Q101.47-14.24 101.47-12.61L101.47-12.61Q101.47-11.49 102.05-10.85Q102.62-10.21 104.96-9.26Q107.30-8.32 108.29-7.60Q109.28-6.88 109.60-5.79ZM95.33 2.56L95.33 2.56Q95.33 4.10 97.82 4.10L97.82 4.10Q99.20 4.10 101.39 3.09Q103.58 2.08 105.26 0.27Q106.94-1.54 106.94-3.42L106.94-3.42Q106.94-3.65 106.85-4.10L106.85-4.10Q102.46-3.68 98.90-1.63Q95.33 0.42 95.33 2.56ZM121.82-4.54L121.82-4.54L122.59-3.90Q121.82-2.14 120.13-1.09Q118.43-0.03 116.85-0.03Q115.26-0.03 114.22-1.02Q113.18-2.02 113.18-3.74Q113.18-5.47 114.69-7.49Q116.19-9.50 118.58-10.82Q120.96-12.13 123.26-12.13L123.26-12.13Q123.58-12.13 124.22-12.06L124.22-12.06L124.13-10.82Q120.61-10.66 118.29-8.67Q115.97-6.69 115.97-4.45L115.97-4.45Q115.97-3.52 116.54-2.94Q117.12-2.37 118.05-2.37L118.05-2.37Q119.52-2.37 121.82-4.54ZM133.79-11.33L133.79-11.33Q134.59-11.33 135.10-10.78Q135.62-10.24 135.62-9.38L135.62-9.38Q135.62-7.65 133.63-5.73L133.63-5.73L132.86-6.34Q133.31-7.33 133.31-7.78L133.31-7.78Q133.31-8.64 132.35-8.64Q131.39-8.64 130.53-7.42Q129.66-6.21 128.50-3.66Q127.33-1.12 126.72-0.06L126.72-0.06L124.90-0.86Q126.66-4.86 126.91-5.57L126.91-5.57Q127.78-8.06 127.78-11.90L127.78-11.90L129.57-12.38Q129.47-10.30 129.28-9.17Q129.09-8.03 128.35-5.47L128.35-5.47Q131.58-11.33 133.79-11.33ZM142.72-13.57L142.72-13.57Q140.93-13.57 140.93-15.01L140.93-15.01Q140.93-15.81 141.38-16.35Q141.82-16.90 142.53-16.90Q143.23-16.90 143.68-16.48Q144.13-16.06 144.13-15.39Q144.13-14.72 143.74-14.14Q143.36-13.57 142.72-13.57ZM142.30-4.13L142.30-4.13L142.94-3.58Q142.18-2.11 140.91-1.07Q139.65-0.03 138.62-0.03L138.62-0.03Q136.83-0.03 136.83-2.53L136.83-2.53Q136.83-5.63 139.39-10.62L139.39-10.62Q139.97-11.71 140.06-11.90L140.06-11.90L141.44-11.07Q140.77-9.86 139.79-7.20Q138.82-4.54 138.82-3.79Q138.82-3.04 139.14-2.72Q139.46-2.40 139.90-2.40L139.90-2.40Q140.77-2.40 142.30-4.13ZM149.54-5.89Q151.97-9.54 153.76-10.86Q155.55-12.19 156.90-12.19Q158.24-12.19 158.98-11.38Q159.71-10.56 159.71-9.31L159.71-9.31Q159.71-5.86 157.23-2.93Q154.75 0 151.65 0L151.65 0Q150.27 0 149.47-0.48L149.47-0.48L150.24-1.86Q151.90-1.63 152.32-1.63L152.32-1.63Q154.05-1.63 155.55-3.65Q157.06-5.66 157.06-7.78L157.06-7.78Q157.06-8.58 156.59-9.10Q156.13-9.63 155.39-9.63L155.39-9.63Q153.63-9.63 151.41-6.53Q149.18-3.42 147.25 1.17Q145.31 5.76 143.87 10.94L143.87 10.94L141.95 10.27Q142.02 10.08 143.15 6.96Q144.29 3.84 145.38 0.77L145.38 0.77Q148.38-7.68 148.38-8.48L148.38-8.48Q148.38-10.53 147.55-12.19L147.55-12.19L149.15-12.99Q150.14-11.62 150.14-10.10Q150.14-8.58 149.54-5.89L149.54-5.89ZM168.10-3.58L168.10-3.58L168.80-2.78Q168-1.54 166.86-0.83Q165.73-0.13 164.58-0.13Q163.42-0.13 162.75-0.78Q162.08-1.44 162.08-2.59L162.08-2.59Q162.08-5.28 164.10-10.02L164.10-10.02Q162.46-9.76 160.83-9.25L160.83-9.25L160.61-10.50L160.58-10.53Q162.18-11.20 164.77-11.62L164.77-11.62Q165.02-12.10 165.92-13.95L165.92-13.95Q167.71-17.63 168.48-18.72L168.48-18.72L169.86-18.18Q169.54-17.47 168.74-15.82Q167.94-14.18 166.94-12.10L166.94-12.10Q168.38-12.19 169.22-12.19Q170.05-12.19 170.50-11.94L170.50-11.94L170.50-10.56Q170.05-10.66 169.20-10.66Q168.35-10.66 166.18-10.37L166.18-10.37Q164.29-6.14 164.29-4.22L164.29-4.22Q164.29-3.49 164.75-3.01Q165.22-2.53 166-2.53Q166.78-2.53 168.10-3.58Z"/></svg>