<svg id="mainsvg" xmlns="http://www.w3.org/2000/svg" xmlns:xlink="http://www.w3.org/1999/xlink" version="1.1" x="0px" y="0px" enable-background="new 0 0 200 162.5" xml:space="preserve" viewBox="0 0 194 30"><path fill="#000" transform="translate(-1.1520000000000001, 22.848)" d="M13.63-14.78L13.63-15.55Q13.63-16.90 12.59-17.89Q11.55-18.88 9.66-18.88L9.66-18.88Q8.06-18.88 7.14-18.22Q6.21-17.57 6.21-16.45L6.21-16.45Q6.21-15.87 6.43-15.41Q6.66-14.94 7.22-14.58Q7.78-14.21 8.69-13.92Q9.60-13.63 11.01-13.38L11.01-13.38Q14.53-12.74 16.38-11.23Q18.24-9.73 18.24-6.78L18.24-6.78L18.24-6.40Q18.24-4.83 17.68-3.57Q17.12-2.30 16.06-1.41Q15.01-0.51 13.50-0.03Q12 0.45 10.11 0.45L10.11 0.45Q7.90 0.45 6.22-0.18Q4.54-0.80 3.42-1.90Q2.30-3.01 1.73-4.50Q1.15-5.98 1.15-7.74L1.15-7.74L1.15-8.70L5.38-8.70L5.38-7.94Q5.38-5.92 6.54-4.72Q7.71-3.52 10.18-3.52L10.18-3.52Q12.10-3.52 13.02-4.35Q13.95-5.18 13.95-6.34L13.95-6.34Q13.95-6.88 13.76-7.38Q13.57-7.87 13.09-8.27Q12.61-8.67 11.78-8.99Q10.94-9.31 9.66-9.54L9.66-9.54Q7.97-9.82 6.56-10.29Q5.15-10.75 4.11-11.52Q3.07-12.29 2.50-13.44Q1.92-14.59 1.92-16.26L1.92-16.26L1.92-16.45Q1.92-17.82 2.48-18.99Q3.04-20.16 4.05-21.02Q5.06-21.89 6.48-22.37Q7.90-22.85 9.66-22.85L9.66-22.85Q11.65-22.85 13.18-22.29Q14.72-21.73 15.76-20.77Q16.80-19.81 17.33-18.56Q17.86-17.31 17.86-15.94L17.86-15.94L17.86-14.78L13.63-14.78ZM25.28-2.30L25.28 6.40L21.25 6.40L21.25-15.87L25.28-15.87L25.28-13.57L25.86-13.57Q26.50-14.88 27.71-15.60Q28.93-16.32 30.82-16.32L30.82-16.32Q32.22-16.32 33.49-15.78Q34.75-15.23 35.70-14.19Q36.64-13.15 37.20-11.65Q37.76-10.14 37.76-8.22L37.76-8.22L37.76-7.65Q37.76-5.70 37.22-4.19Q36.67-2.69 35.74-1.65Q34.82-0.61 33.55-0.08Q32.29 0.45 30.82 0.45L30.82 0.45Q29.73 0.45 28.93 0.22Q28.13 0 27.54-0.38Q26.94-0.77 26.54-1.26Q26.14-1.76 25.86-2.30L25.86-2.30L25.28-2.30ZM29.50-3.39L29.50-3.39Q31.39-3.39 32.56-4.56Q33.73-5.73 33.73-7.74L33.73-7.74L33.73-8.13Q33.73-10.14 32.56-11.31Q31.39-12.48 29.50-12.48L29.50-12.48Q27.62-12.48 26.45-11.28Q25.28-10.08 25.28-8.13L25.28-8.13L25.28-7.74Q25.28-5.79 26.45-4.59Q27.62-3.39 29.50-3.39ZM52.51-2.30L51.94-2.30Q51.30-0.80 50.14-0.18Q48.99 0.45 47.46 0.45L47.46 0.45Q46.02 0.45 44.75-0.10Q43.49-0.64 42.53-1.70Q41.57-2.75 41.01-4.26Q40.45-5.76 40.45-7.68L40.45-7.68L40.45-8.19Q40.45-10.08 40.99-11.58Q41.54-13.09 42.46-14.14Q43.39-15.20 44.62-15.76Q45.86-16.32 47.26-16.32L47.26-16.32Q48.96-16.32 50-15.74Q51.04-15.17 51.65-13.95L51.65-13.95L52.22-13.95L52.22-15.87L56.26-15.87L56.26-4.80Q56.26-3.84 57.12-3.84L57.12-3.84L57.73-3.84L57.73 0L54.98 0Q53.89 0 53.20-0.64Q52.51-1.28 52.51-2.30L52.51-2.30ZM48.35-3.39L48.35-3.39Q50.11-3.39 51.17-4.56Q52.22-5.73 52.22-7.74L52.22-7.74L52.22-8.13Q52.22-10.14 51.17-11.31Q50.11-12.48 48.35-12.48L48.35-12.48Q46.59-12.48 45.54-11.31Q44.48-10.14 44.48-8.13L44.48-8.13L44.48-7.74Q44.48-5.73 45.54-4.56Q46.59-3.39 48.35-3.39ZM72.77-6.82L76.74-5.82Q76.19-3.01 74.16-1.28Q72.13 0.45 68.74 0.45L68.74 0.45Q66.98 0.45 65.46-0.10Q63.94-0.64 62.82-1.66Q61.70-2.69 61.06-4.19Q60.42-5.70 60.42-7.62L60.42-7.62L60.42-8Q60.42-9.92 61.06-11.46Q61.70-12.99 62.83-14.08Q63.97-15.17 65.49-15.74Q67.01-16.32 68.74-16.32L68.74-16.32Q72.06-16.32 74.13-14.59Q76.19-12.86 76.74-10.05L76.74-10.05L72.77-9.02Q72.58-10.43 71.55-11.46Q70.53-12.48 68.67-12.48L68.67-12.48Q67.81-12.48 67.04-12.16Q66.27-11.84 65.70-11.25Q65.12-10.66 64.78-9.81Q64.45-8.96 64.45-7.90L64.45-7.90L64.45-7.71Q64.45-6.66 64.78-5.84Q65.12-5.02 65.70-4.48Q66.27-3.94 67.04-3.66Q67.81-3.39 68.67-3.39L68.67-3.39Q70.53-3.39 71.50-4.32Q72.48-5.25 72.77-6.82L72.77-6.82ZM96.03-6.62L84.38-6.62Q84.42-5.92 84.72-5.33Q85.02-4.74 85.55-4.30Q86.08-3.87 86.77-3.63Q87.46-3.39 88.22-3.39L88.22-3.39Q89.73-3.39 90.53-3.92Q91.33-4.45 91.68-5.18L91.68-5.18L95.14-3.26Q94.85-2.66 94.34-2Q93.82-1.34 93.01-0.80Q92.19-0.26 91.02 0.10Q89.86 0.45 88.29 0.45L88.29 0.45Q86.50 0.45 85.02-0.13Q83.55-0.70 82.48-1.79Q81.41-2.88 80.82-4.45Q80.22-6.02 80.22-8L80.22-8L80.22-8.19Q80.22-10.02 80.85-11.52Q81.47-13.02 82.56-14.08Q83.65-15.14 85.10-15.73Q86.56-16.32 88.22-16.32L88.22-16.32Q90.27-16.32 91.74-15.60Q93.22-14.88 94.18-13.78Q95.14-12.67 95.58-11.34Q96.03-10.02 96.03-8.77L96.03-8.77L96.03-6.62ZM88.19-12.67L88.19-12.67Q86.66-12.67 85.70-11.89Q84.74-11.10 84.45-10.08L84.45-10.08L91.94-10.08Q91.74-11.20 90.74-11.94Q89.73-12.67 88.19-12.67ZM99.87 5.18L99.87 1.54L115.55 1.54L115.55 5.18L99.87 5.18ZM118.21 0L118.21-22.40L125.63-22.40L126.91-5.57L126.91-2.30L127.68-2.30L127.68-5.57L128.96-22.40L136.38-22.40L136.38 0L132.54 0L132.54-14.98L132.93-20.10L132.16-20.10L130.50 0L124.16 0L122.43-20.10L121.66-20.10L122.05-14.98L122.05 0L118.21 0ZM155.14-8.13L155.14-7.74Q155.14-5.76 154.46-4.24Q153.79-2.72 152.64-1.68Q151.49-0.64 150-0.10Q148.51 0.45 146.88 0.45L146.88 0.45Q145.25 0.45 143.76-0.10Q142.27-0.64 141.12-1.68Q139.97-2.72 139.30-4.24Q138.62-5.76 138.62-7.74L138.62-7.74L138.62-8.13Q138.62-10.08 139.30-11.60Q139.97-13.12 141.12-14.18Q142.27-15.23 143.76-15.78Q145.25-16.32 146.88-16.32L146.88-16.32Q148.51-16.32 150-15.78Q151.49-15.23 152.64-14.18Q153.79-13.12 154.46-11.60Q155.14-10.08 155.14-8.13L155.14-8.13ZM146.88-3.39L146.88-3.39Q147.74-3.39 148.51-3.68Q149.28-3.97 149.86-4.51Q150.43-5.06 150.77-5.84Q151.10-6.62 151.10-7.62L151.10-7.62L151.10-8.26Q151.10-9.25 150.77-10.03Q150.43-10.82 149.86-11.36Q149.28-11.90 148.51-12.19Q147.74-12.48 146.88-12.48L146.88-12.48Q146.02-12.48 145.25-12.19Q144.48-11.90 143.90-11.36Q143.33-10.82 142.99-10.03Q142.66-9.25 142.66-8.26L142.66-8.26L142.66-7.62Q142.66-6.62 142.99-5.84Q143.33-5.06 143.90-4.51Q144.48-3.97 145.25-3.68Q146.02-3.39 146.88-3.39ZM163.20-8.26L163.20 0L159.17 0L159.17-15.87L163.20-15.87L163.20-13.50L163.78-13.50Q164.32-14.85 165.54-15.58Q166.75-16.32 168.38-16.32L168.38-16.32Q169.54-16.32 170.54-15.95Q171.55-15.58 172.32-14.82Q173.09-14.05 173.52-12.86Q173.95-11.68 173.95-10.05L173.95-10.05L173.95 0L169.92 0L169.92-9.02Q169.92-10.72 169.10-11.70Q168.29-12.67 166.75-12.67L166.75-12.67Q164.96-12.67 164.08-11.47Q163.20-10.27 163.20-8.26L163.20-8.26ZM194.30-8.13L194.30-7.74Q194.30-5.76 193.63-4.24Q192.96-2.72 191.81-1.68Q190.66-0.64 189.17-0.10Q187.68 0.45 186.05 0.45L186.05 0.45Q184.42 0.45 182.93-0.10Q181.44-0.64 180.29-1.68Q179.14-2.72 178.46-4.24Q177.79-5.76 177.79-7.74L177.79-7.74L177.79-8.13Q177.79-10.08 178.46-11.60Q179.14-13.12 180.29-14.18Q181.44-15.23 182.93-15.78Q184.42-16.32 186.05-16.32L186.05-16.32Q187.68-16.32 189.17-15.78Q190.66-15.23 191.81-14.18Q192.96-13.12 193.63-11.60Q194.30-10.08 194.30-8.13L194.30-8.13ZM186.05-3.39L186.05-3.39Q186.91-3.39 187.68-3.68Q188.45-3.97 189.02-4.51Q189.60-5.06 189.94-5.84Q190.27-6.62 190.27-7.62L190.27-7.62L190.27-8.26Q190.27-9.25 189.94-10.03Q189.60-10.82 189.02-11.36Q188.45-11.90 187.68-12.19Q186.91-12.48 186.05-12.48L186.05-12.48Q185.18-12.48 184.42-12.19Q183.65-11.90 183.07-11.36Q182.50-10.82 182.16-10.03Q181.82-9.25 181.82-8.26L181.82-8.26L181.82-7.62Q181.82-6.62 182.16-5.84Q182.50-5.06 183.07-4.51Q183.65-3.97 184.42-3.68Q185.18-3.39 186.05-3.39Z"/></svg>