<svg id="mainsvg" xmlns="http://www.w3.org/2000/svg" xmlns:xlink="http://www.w3.org/1999/xlink" version="1.1" x="0px" y="0px" enable-background="new 0 0 200 162.5" xml:space="preserve" viewBox="0 0 174 30"><path fill="#000" transform="translate(-0.64, 24.96)" d="M14.88-0.77Q14.88-0.42 12.91-0.21Q10.94 0 8.98 0Q7.01 0 6.48-0.18Q5.95-0.35 5.95-0.77L5.95-0.77L5.95-14.53L1.50-14.53Q1.15-14.53 0.90-15.42Q0.64-16.32 0.64-18.10Q0.64-19.87 1.02-21.30Q1.41-22.72 2.05-22.72L2.05-22.72L19.36-22.72Q19.84-22.72 20.02-21.82Q20.19-20.93 20.19-19.23Q20.19-17.54 19.84-16.03Q19.49-14.53 18.88-14.53L18.88-14.53L14.88-14.53L14.88-0.77ZM30.75-16.54L30.75-16.54L30.75-0.77Q30.75-0.42 28.91-0.21Q27.07 0 25.14 0Q23.20 0 22.64-0.18Q22.08-0.35 22.08-0.77L22.08-0.77L22.08-15.97Q22.08-16.67 23.89-17.36Q25.70-18.05 27.84-18.05L27.84-18.05Q30.75-18.05 30.75-16.54ZM26.40-24.96L26.40-24.96Q28.51-24.96 29.71-24.34Q30.91-23.71 30.91-22.08L30.91-22.08Q30.91-19.20 26.43-19.20Q21.95-19.20 21.95-22.08Q21.95-24.96 26.40-24.96ZM45.73-0.29Q45.15 0.26 43.10 0.26Q41.06 0.26 39.71-0.02Q38.37-0.29 37.15-1.09L37.15-1.09Q34.82-2.66 34.82-7.62L34.82-7.62L34.82-12.61L33.22-12.61Q32.86-12.61 32.61-13.34Q32.35-14.08 32.35-15.36Q32.35-16.64 32.75-17.62Q33.15-18.59 33.79-18.59L33.79-18.59L34.82-18.59L34.82-22.46Q34.82-23.46 36.75-24.06Q38.69-24.67 40.54-24.67L40.54-24.67Q43.46-24.67 43.46-23.23L43.46-23.23L43.46-18.59L45.82-18.59Q46.66-18.59 46.66-16.19L46.66-16.19Q46.66-14.62 46.29-13.62Q45.92-12.61 45.34-12.61L45.34-12.61L43.46-12.61L43.46-6.75Q43.46-5.89 44.19-5.52Q44.93-5.15 45.49-5.15Q46.05-5.15 46.18-4.61Q46.30-4.06 46.30-2.98L46.30-2.98Q46.30-0.83 45.73-0.29ZM54.66 0.29L54.66 0.29Q51.74 0.29 50.08-1.09L50.08-1.09Q49.41-1.66 48.91-2.78Q48.42-3.90 48.42-5.41Q48.42-6.91 49.14-8.03Q49.86-9.15 50.88-9.76Q51.90-10.37 53.28-10.75L53.28-10.75Q55.36-11.30 57.86-11.30L57.86-11.30L58.91-11.30Q58.91-12.61 58.02-13.15L58.02-13.15Q57.63-13.38 56.85-13.38Q56.06-13.38 54.96-12.96Q53.86-12.54 53.12-12.11Q52.38-11.68 52.13-11.68L52.13-11.68Q51.55-11.68 50.56-13.20Q49.57-14.72 49.57-15.97L49.57-15.97Q49.57-16.38 50.75-17.06Q51.94-17.73 54.10-18.29Q56.26-18.85 58.30-18.85Q60.35-18.85 61.84-18.51Q63.33-18.18 64.27-17.70Q65.22-17.22 65.87-16.42Q66.53-15.62 66.86-14.98Q67.20-14.34 67.36-13.31L67.36-13.31Q67.58-12.13 67.58-10.40L67.58-10.40L67.58-0.77Q67.58-0.42 65.87-0.21Q64.16 0 62.48 0Q60.80 0 60.30-0.10Q59.81-0.19 59.71-0.32Q59.62-0.45 59.55-0.77L59.55-0.77L59.30-2.59L59.04-2.59Q58.24 0.29 54.66 0.29ZM58.94-5.02L58.94-5.02L58.94-8.77Q58.11-8.77 57.60-8.06Q57.09-7.36 57.09-6.46L57.09-6.46Q57.09-4.35 58.05-4.35L58.05-4.35Q58.46-4.35 58.70-4.56Q58.94-4.77 58.94-5.02ZM89.12-10.62L89.12-10.62L89.12-0.77Q89.12-0.42 87.30-0.21Q85.47 0 83.54 0Q81.60 0 81.04-0.18Q80.48-0.35 80.48-0.77L80.48-0.77L80.48-10.94Q80.48-12.38 80.37-12.83Q80.26-13.28 80.16-13.63L80.16-13.63Q79.94-14.24 79.36-14.24L79.36-14.24Q78.46-14.24 78.46-13.38L78.46-13.38L78.46-0.77Q78.46-0.42 76.66-0.21Q74.85 0 72.91 0Q70.98 0 70.40-0.18Q69.82-0.35 69.82-0.77L69.82-0.77L69.82-16.54Q69.82-17.22 71.66-17.89Q73.50-18.56 75.55-18.56Q77.60-18.56 77.86-17.38L77.86-17.38L78.14-15.97L78.37-15.97Q79.30-17.82 81.57-18.56L81.57-18.56Q82.50-18.85 83.62-18.85L83.62-18.85Q86.85-18.85 87.98-16.91Q89.12-14.98 89.12-10.62ZM107.42 4.64L107.42 4.64L91.58 4.64Q90.72 4.64 90.72 3.01L90.72 3.01Q90.72 1.86 91.18 1.09Q91.65 0.32 92.32 0.32L92.32 0.32L107.90 0.32Q108.16 0.32 108.32 0.42L108.32 0.42Q108.74 0.67 108.74 1.89Q108.74 3.10 108.37 3.87Q108.00 4.64 107.42 4.64ZM121.31 0.29L121.31 0.29Q118.66 0.29 116.75-0.21Q114.85-0.70 113.25-1.98L113.25-1.98Q110.02-4.51 110.02-11.68L110.02-11.68Q110.02-14.69 110.90-16.93Q111.78-19.17 113.34-20.48L113.34-20.48Q116.42-23.04 121.31-23.04L121.31-23.04Q123.84-23.04 125.71-22.59Q127.58-22.14 129.25-20.96L129.25-20.96Q132.61-18.53 132.61-11.68L132.61-11.68Q132.61-5.54 129.57-2.62Q126.53 0.29 121.31 0.29ZM120.26-5.20Q120.64-4.74 121.31-4.74Q121.98-4.74 122.37-5.20Q122.75-5.66 123.01-7.18Q123.26-8.70 123.26-11.42Q123.26-14.14 123.01-15.62Q122.75-17.09 122.37-17.54Q121.98-17.98 121.31-17.98Q120.64-17.98 120.26-17.54Q119.87-17.09 119.62-15.62Q119.36-14.14 119.36-11.42Q119.36-8.70 119.62-7.18Q119.87-5.66 120.26-5.20ZM153.82-10.62L153.82-10.62L153.82-0.77Q153.82-0.42 152-0.21Q150.18 0 148.24 0Q146.30 0 145.74-0.18Q145.18-0.35 145.18-0.77L145.18-0.77L145.18-10.94Q145.18-12.38 145.07-12.83Q144.96-13.28 144.86-13.63L144.86-13.63Q144.64-14.24 144.06-14.24L144.06-14.24Q143.17-14.24 143.17-13.38L143.17-13.38L143.17-0.77Q143.17-0.42 141.36-0.21Q139.55 0 137.62 0Q135.68 0 135.10-0.18Q134.53-0.35 134.53-0.77L134.53-0.77L134.53-16.54Q134.53-17.22 136.37-17.89Q138.21-18.56 140.26-18.56Q142.30-18.56 142.56-17.38L142.56-17.38L142.85-15.97L143.07-15.97Q144.00-17.82 146.27-18.56L146.27-18.56Q147.20-18.85 148.32-18.85L148.32-18.85Q151.55-18.85 152.69-16.91Q153.82-14.98 153.82-10.62ZM165.54-7.23L164.48-7.23Q164.48-5.15 166.46-5.15L166.46-5.15Q167.62-5.15 169.47-5.94Q171.33-6.72 171.42-6.72L171.42-6.72Q172.03-6.72 173.02-4.90Q174.02-3.07 174.02-2.21L174.02-2.21Q174.02-0.96 171.46-0.32Q168.90 0.32 166.45 0.32Q164.00 0.32 162.35-0.06Q160.70-0.45 159.66-1.04Q158.62-1.63 157.84-2.50Q157.06-3.36 156.67-4.14Q156.29-4.93 156.06-5.89L156.06-5.89Q155.74-7.30 155.74-8.80L155.74-8.80Q155.74-14.62 158.78-16.83L158.78-16.83Q160.29-17.95 162.14-18.40Q164.00-18.85 166.53-18.85L166.53-18.85Q174.62-18.85 174.62-13.22L174.62-13.22Q174.62-7.23 165.54-7.23L165.54-7.23ZM164.42-11.90L164.42-11.90L164.42-9.79Q165.34-9.79 165.94-10.53Q166.53-11.26 166.53-12.32L166.53-12.32Q166.53-14.24 165.54-14.24L165.54-14.24Q164.42-14.24 164.42-11.90Z"/></svg>