<svg id="mainsvg" xmlns="http://www.w3.org/2000/svg" xmlns:xlink="http://www.w3.org/1999/xlink" version="1.1" x="0px" y="0px" enable-background="new 0 0 200 162.5" xml:space="preserve" viewBox="0 0 191 23"><path fill="#000" transform="translate(-0.896, 22.592)" d="M0.90 0L0.90-22.40L10.30-22.40L19.65-11.20L19.65-22.40L21.57-22.40L21.57 0L14.05 0L2.85-14.91L2.85 0L0.90 0ZM38.34 0.16Q34.05 0.16 30.59-1.15Q27.14-2.46 25.14-5.04Q23.14-7.62 23.14-11.23L23.14-11.23Q23.14-14.82 25.15-17.38Q27.17-19.94 30.61-21.26Q34.05-22.59 38.34-22.59L38.34-22.59Q42.59-22.59 46.03-21.26Q49.47-19.94 51.47-17.38Q53.47-14.82 53.47-11.23L53.47-11.23Q53.47-7.62 51.47-5.04Q49.47-2.46 46.03-1.15Q42.59 0.16 38.34 0.16L38.34 0.16ZM38.34-1.73Q39.68-1.73 40.32-2.94L40.32-2.94Q40.86-3.87 41.06-6.24L41.06-6.24Q41.15-7.49 41.15-11.23L41.15-11.23Q41.15-15.01 40.99-16.58L40.99-16.58Q40.90-18.50 40.29-19.49L40.29-19.49Q39.65-20.70 38.34-20.70L38.34-20.70Q36.99-20.70 36.32-19.49L36.32-19.49Q35.78-18.53 35.62-16.58L35.62-16.58Q35.49-14.91 35.49-11.23L35.49-11.23Q35.49-7.07 35.58-6.24L35.58-6.24Q35.71-4.03 36.29-2.94L36.29-2.94Q36.96-1.73 38.34-1.73L38.34-1.73ZM63.23 0L63.23-20.51L54.82-20.51L54.82-22.40L82.88-22.40L82.88-20.51L74.43-20.51L74.43 0L63.23 0ZM84.13 0L92.58-22.40L101.92-22.40L111.84 0L99.74 0L96.38-7.42L89.34-7.42L86.46 0L84.13 0ZM90.05-9.38L95.49-9.38L92.58-15.87L90.05-9.38ZM113.57 0L113.57-22.40L134.91-22.40Q136.54-22.40 137.90-21.62Q139.26-20.83 140.06-19.47Q140.86-18.11 140.86-16.48L140.86-16.48Q140.86-14.91 140.10-13.50Q139.33-12.10 138.05-11.23L138.05-11.23Q139.33-10.34 140.10-8.91Q140.86-7.49 140.86-5.92L140.86-5.92Q140.86-4.32 140.06-2.96Q139.26-1.60 137.90-0.80Q136.54 0 134.91 0L134.91 0L113.57 0ZM125.28-12.13Q126.43-12.13 127.41-12.69Q128.38-13.25 128.94-14.22Q129.50-15.20 129.50-16.32L129.50-16.32Q129.50-17.47 128.94-18.45Q128.38-19.42 127.41-20Q126.43-20.58 125.28-20.58L125.28-20.58L124.80-20.58L124.80-12.16Q124.96-12.13 125.28-12.13L125.28-12.13ZM125.28-1.86Q126.43-1.86 127.41-2.42Q128.38-2.98 128.94-3.95Q129.50-4.93 129.50-6.08L129.50-6.08Q129.50-7.20 128.94-8.18Q128.38-9.15 127.41-9.71Q126.43-10.27 125.28-10.27L125.28-10.27L124.80-10.27L124.80-1.89Q124.96-1.86 125.28-1.86L125.28-1.86ZM142.78 0L142.78-22.40L154.02-22.40L154.02-1.92L166.18-1.92L166.18 0L142.78 0ZM168 0L168-22.40L191.26-22.40L191.26-20.51L179.26-20.51L179.26-12.22L185.15-12.22L185.15-10.30L179.26-10.30L179.26-1.92L191.26-1.92L191.26 0L168 0Z"/></svg>