<?xml version="1.0" standalone="no"?>
<!DOCTYPE svg PUBLIC "-//W3C//DTD SVG 20010904//EN"
 "http://www.w3.org/TR/2001/REC-SVG-20010904/DTD/svg10.dtd">
<svg version="1.0" xmlns="http://www.w3.org/2000/svg"
 width="820.000000pt" height="783.000000pt" viewBox="0 0 820.000000 783.000000"
 preserveAspectRatio="xMidYMid meet">

<g transform="translate(0.000000,783.000000) scale(0.100000,-0.100000)"
fill="#000000" stroke="none">
<path d="M265 7421 c-45 -11 -68 -26 -108 -70 -90 -100 -65 -260 51 -328 l47
-28 226 -3 226 -3 35 -107 c20 -59 120 -363 223 -677 103 -313 197 -601 210
-640 13 -38 123 -374 245 -745 122 -371 270 -823 330 -1005 60 -181 154 -467
209 -635 55 -168 166 -505 246 -750 81 -245 156 -474 167 -510 30 -96 62 -146
113 -175 l44 -26 2508 1 2508 0 45 23 c52 27 104 96 113 152 15 94 -40 196
-128 236 -38 18 -140 19 -2430 19 l-2391 0 -42 133 c-24 72 -129 393 -233 712
-105 319 -234 711 -286 870 -119 363 -362 1103 -454 1380 -38 116 -69 217 -69
225 0 13 337 15 2980 12 1639 -1 2980 -6 2980 -10 0 -5 -45 -211 -100 -458
-55 -247 -146 -654 -201 -904 -55 -250 -104 -458 -107 -462 -4 -4 -279 -34
-612 -68 -333 -33 -670 -67 -750 -76 -80 -8 -192 -19 -250 -25 -58 -5 -148
-14 -200 -20 -52 -5 -252 -25 -445 -44 -394 -40 -1084 -109 -1250 -126 -60 -6
-123 -17 -140 -24 -177 -73 -179 -326 -3 -399 60 -26 -165 -46 2368 210 851
85 941 94 1250 124 124 11 248 28 276 36 68 19 126 80 147 155 8 30 86 374
172 764 87 391 182 820 212 955 103 466 102 460 100 561 -2 83 -5 100 -30 141
-18 31 -44 57 -75 75 l-47 28 -3214 5 -3213 5 -28 80 c-15 44 -62 184 -103
310 -237 726 -319 971 -336 1004 -23 44 -84 89 -138 102 -45 10 -605 10 -648
0z"/>
<path d="M2847 1385 c-167 -34 -336 -164 -411 -312 -139 -277 -56 -603 196
-775 78 -52 139 -77 228 -94 103 -18 154 -17 246 6 121 31 198 74 285 160 119
119 179 261 179 425 0 98 -26 200 -71 286 -42 79 -154 194 -231 238 -120 67
-288 94 -421 66z m201 -444 c95 -50 117 -175 43 -255 -53 -58 -125 -71 -197
-35 -58 27 -88 78 -88 144 0 126 130 204 242 146z"/>
<path d="M6620 1384 c-108 -23 -223 -86 -304 -168 -186 -187 -228 -454 -109
-695 43 -87 149 -201 228 -245 344 -192 763 -31 881 339 90 281 -45 592 -311
721 -126 60 -255 76 -385 48z m206 -445 c110 -67 109 -220 0 -284 -156 -91
-325 99 -214 240 52 66 147 86 214 44z"/>
</g>
</svg>
