<?xml version="1.0" ?>
<!-- Uploaded to: SVG Repo, www.svgrepo.com, Generator: SVG Repo Mixer Tools -->
<svg fill="#000000" width="800px" height="800px" viewBox="0 0 64 64" xmlns="http://www.w3.org/2000/svg">
<title/>
<g data-name="Lampu Belajar" id="Lampu_Belajar">
<path d="M52,61H12a1,1,0,0,1-1-1V52a1,1,0,0,1,1-1H52a1,1,0,0,1,1,1v8A1,1,0,0,1,52,61ZM13,59H51V53H13Z"/>
<path d="M36.54,51.84a1,1,0,0,1-.71-.29L32.29,48a1,1,0,0,1,0-1.41L46.44,32.45a1,1,0,0,1,1.41,0L51.38,36a1,1,0,0,1,0,1.41L37.24,51.55A1,1,0,0,1,36.54,51.84ZM34.41,47.3l2.13,2.12L49.26,36.7l-2.12-2.12Z"/>
<path d="M47.61,31.68a1,1,0,0,1-.71-.3L32.76,17.24a1,1,0,0,1,0-1.41l3.53-3.54a1,1,0,0,1,1.42,0L51.85,26.44a1,1,0,0,1,.29.7,1,1,0,0,1-.29.71l-3.54,3.53A1,1,0,0,1,47.61,31.68ZM34.88,16.54,47.61,29.26l2.12-2.12L37,14.41Z"/>
<path d="M22.4,32.2a1,1,0,0,1-.8-.4L7.2,12.6a1,1,0,0,1-.09-1A1,1,0,0,1,8,11H28a1,1,0,0,1,.8.4,1,1,0,0,1,.16.88l-5.6,19.2a1,1,0,0,1-.78.7A.55.55,0,0,1,22.4,32.2ZM10,13,22,29l4.67-16Z"/>
<path d="M52,35a3,3,0,1,1,3-3A3,3,0,0,1,52,35Zm0-4a1,1,0,1,0,1,1A1,1,0,0,0,52,31Z"/>
<path d="M32,15a3,3,0,1,1,3-3A3,3,0,0,1,32,15Zm0-4a1,1,0,1,0,1,1A1,1,0,0,0,32,11Z"/>
<path d="M34,53H30a1,1,0,0,1-1-1,3,3,0,0,1,6,0A1,1,0,0,1,34,53Zm-2-2h0Z"/>
<path d="M15,29a7,7,0,0,1-3.82-12.87,1,1,0,0,1,1.35.24L19.71,26a1,1,0,0,1-.14,1.36A7,7,0,0,1,15,29ZM11.54,18.39a5,5,0,0,0,6,8Z"/>
</g>
</svg>