<?xml version="1.0" standalone="no"?>
<!DOCTYPE svg PUBLIC "-//W3C//DTD SVG 20010904//EN"
 "http://www.w3.org/TR/2001/REC-SVG-20010904/DTD/svg10.dtd">
<svg version="1.0" xmlns="http://www.w3.org/2000/svg"
 width="500.000000pt" height="500.000000pt" viewBox="0 0 500.000000 500.000000"
 preserveAspectRatio="xMidYMid meet">

<g transform="translate(0.000000,500.000000) scale(0.100000,-0.100000)"
fill="#000000" stroke="none">
<path d="M0 2500 l0 -2500 2500 0 2500 0 0 2500 0 2500 -2500 0 -2500 0 0
-2500z m1448 632 l2 -413 50 43 c67 59 167 111 275 144 81 25 106 27 245 28
164 1 256 -16 351 -64 l39 -20 2 347 3 348 68 3 67 3 0 -806 0 -805 -70 0 -70
0 0 408 c0 471 4 449 -97 498 -56 28 -63 29 -203 28 -131 0 -153 -3 -230 -28
-200 -66 -327 -161 -397 -297 l-28 -54 -3 -277 -3 -278 -70 0 -69 0 0 805 0
806 68 -3 67 -3 3 -413z m2282 -387 l0 -805 -70 0 -70 0 0 728 c0 401 -3 732
-7 735 -3 4 -11 2 -18 -3 -7 -5 -126 -253 -265 -550 -139 -298 -256 -537 -260
-533 -4 4 -62 111 -129 236 l-122 229 3 125 3 125 134 -251 c114 -214 137
-252 155 -249 16 2 57 82 203 393 100 215 207 443 238 508 l55 117 75 0 75 0
0 -805z m-1600 -1220 c0 -20 5 -25 25 -25 20 0 25 5 25 25 0 14 5 25 10 25 6
0 10 -27 10 -60 0 -33 -4 -60 -10 -60 -5 0 -10 11 -10 25 0 20 -5 25 -25 25
-20 0 -25 -5 -25 -25 0 -14 -4 -25 -10 -25 -6 0 -10 27 -10 60 0 33 4 60 10
60 6 0 10 -11 10 -25z m300 5 c11 -11 20 -31 20 -45 0 -44 -53 -79 -86 -57
-20 13 -35 52 -29 72 16 50 61 64 95 30z m224 14 c10 -4 16 -18 16 -35 0 -25
-5 -30 -30 -35 -21 -5 -30 -12 -30 -25 0 -11 -7 -19 -15 -19 -11 0 -15 13 -15
53 0 30 3 57 7 60 8 9 46 9 67 1z m241 -9 c0 -5 -15 -11 -32 -13 -41 -4 -43
-22 -3 -22 17 0 30 -4 30 -10 0 -5 -13 -10 -30 -10 -20 0 -30 -5 -30 -15 0
-10 11 -15 35 -15 19 0 35 -4 35 -10 0 -5 -20 -10 -45 -10 l-45 0 0 61 0 60
43 -3 c23 -2 42 -7 42 -13z m-1534 -262 l15 -48 15 44 c23 68 39 64 39 -8 0
-34 -4 -61 -10 -61 -5 0 -10 12 -11 28 l-1 27 -10 -27 c-13 -37 -33 -35 -46 5
l-10 32 -1 -32 c-2 -60 -21 -34 -21 27 0 75 20 81 41 13z m287 -13 c17 -49 18
-60 6 -60 -8 0 -14 7 -14 15 0 8 -9 15 -20 15 -11 0 -23 -7 -26 -15 -4 -8 -12
-15 -19 -15 -10 0 -8 13 7 52 33 89 39 89 66 8z m229 52 c6 -4 12 -26 11 -49
0 -23 3 -46 6 -52 4 -6 0 -11 -8 -11 -9 0 -16 9 -16 20 0 15 -7 20 -25 20 -18
0 -25 -5 -25 -20 0 -11 -4 -20 -10 -20 -6 0 -10 27 -10 60 l0 60 33 0 c17 0
37 -4 44 -8z m173 -19 l0 -27 30 29 c34 33 55 26 22 -7 l-21 -22 25 -33 c19
-25 21 -33 10 -33 -9 0 -23 11 -32 25 -18 27 -34 25 -34 -6 0 -10 -4 -19 -10
-19 -6 0 -10 27 -10 60 0 33 4 60 10 60 6 0 10 -12 10 -27z m295 12 c0 -5 -15
-11 -32 -13 -41 -4 -43 -22 -3 -22 17 0 30 -4 30 -10 0 -5 -13 -10 -30 -10
-20 0 -30 -5 -30 -15 0 -10 11 -15 35 -15 19 0 35 -4 35 -10 0 -5 -20 -10 -45
-10 l-45 0 0 61 0 60 43 -3 c23 -2 42 -7 42 -13z m225 4 c0 -6 -9 -13 -20 -16
-16 -4 -20 -14 -20 -49 0 -24 -4 -44 -10 -44 -5 0 -10 20 -10 44 0 36 -4 45
-21 49 -12 3 -18 10 -14 16 8 14 95 14 95 0z m204 -2 c27 -20 16 -50 -22 -62
-21 -6 -32 -15 -32 -27 0 -10 -4 -18 -10 -18 -6 0 -10 27 -10 60 0 59 0 60 28
60 16 0 36 -6 46 -13z m176 -37 c0 -47 2 -50 25 -50 14 0 25 -4 25 -10 0 -5
-16 -10 -35 -10 l-35 0 0 60 c0 33 4 60 10 60 6 0 10 -22 10 -50z m258 -10
c17 -49 18 -60 6 -60 -8 0 -14 7 -14 15 0 8 -9 15 -20 15 -11 0 -23 -7 -26
-15 -4 -8 -12 -15 -19 -15 -10 0 -8 13 7 52 33 89 39 89 66 8z m236 38 c14
-23 -1 -36 -17 -14 -20 27 -47 10 -47 -29 0 -42 27 -55 51 -24 12 16 18 18 24
9 4 -7 -1 -20 -13 -32 -41 -42 -101 6 -86 68 11 44 65 57 88 22z m234 10 c-3
-7 -17 -14 -31 -16 -37 -4 -34 -22 3 -22 17 0 30 -4 30 -10 0 -5 -13 -10 -30
-10 -20 0 -30 -5 -30 -15 0 -10 10 -15 30 -15 17 0 30 -4 30 -10 0 -5 -20 -10
-45 -10 l-45 0 0 53 c0 30 3 57 7 60 12 13 85 8 81 -5z"/>
<path d="M2372 1518 c-22 -22 -8 -78 19 -78 13 0 39 31 39 45 0 14 -26 45 -39
45 -4 0 -12 -5 -19 -12z"/>
<path d="M2610 1504 c0 -9 7 -14 17 -12 25 5 28 28 4 28 -12 0 -21 -6 -21 -16z"/>
<path d="M1610 1265 c0 -8 4 -15 10 -15 5 0 7 7 4 15 -4 8 -8 15 -10 15 -2 0
-4 -7 -4 -15z"/>
<path d="M1820 1280 c0 -5 11 -10 25 -10 14 0 25 5 25 10 0 6 -11 10 -25 10
-14 0 -25 -4 -25 -10z"/>
<path d="M2720 1274 c0 -9 7 -14 17 -12 25 5 28 28 4 28 -12 0 -21 -6 -21 -16z"/>
<path d="M3170 1265 c0 -8 4 -15 10 -15 5 0 7 7 4 15 -4 8 -8 15 -10 15 -2 0
-4 -7 -4 -15z"/>
</g>
</svg>
